<?xml version="1.0" standalone="no"?>
<!DOCTYPE svg PUBLIC "-//W3C//DTD SVG 1.1//EN" "http://www.w3.org/Graphics/SVG/1.1/DTD/svg11.dtd" >
<svg xmlns="http://www.w3.org/2000/svg" xmlns:xlink="http://www.w3.org/1999/xlink" version="1.1">
<metadata>
Created by FontForge 20170812 at Tue May  8 13:07:44 2007
 By www-data
Copyright (c) 1989, 1990 Adobe Systems Incorporated.  All Rights Reserved.Souvenir is a registered trademark of International Typeface Corporation.
</metadata>
<defs>
<font id="Souvenir-BoldItalic" horiz-adv-x="720" >
  <font-face 
    font-family="ITC Souvenir"
    font-weight="700"
    font-style="italic"
    font-stretch="normal"
    units-per-em="1000"
    panose-1="0 0 0 0 0 0 0 0 0 0"
    ascent="800"
    descent="-200"
    x-height="476"
    cap-height="732"
    bbox="-167.076 -222 1256 968"
    underline-thickness="50"
    underline-position="-100"
    slope="-10"
    stemv="214"
    unicode-range="U+0020-FB02"
  />
<missing-glyph horiz-adv-x="360" 
 />
    <glyph glyph-name=".notdef" horiz-adv-x="360" 
 />
    <glyph glyph-name="space" unicode=" " horiz-adv-x="360" 
 />
    <glyph glyph-name="exclam" unicode="!" horiz-adv-x="420" 
d="M408 677c0 -51 -33 -99 -151 -435c-11 -31 -31 -48 -69 -48c-42 0 -46 14 -47 58c-5 214 -11 286 -11 378c0 72 32 102 120 102c134 0 158 -12 158 -55zM58 52c0 64 83 112 142 112c51 0 86 -22 86 -64c0 -64 -83 -112 -142 -112c-51 0 -86 22 -86 64z" />
    <glyph glyph-name="quotedbl" unicode="&#x22;" horiz-adv-x="333" 
d="M102 744c40 0 58 -21 58 -69c0 -36 -6 -91 -19 -216c-3 -28 -8 -45 -35 -45c-35 0 -40 17 -43 45c-13 125 -19 180 -19 216c0 48 18 69 58 69zM291 744c40 0 58 -21 58 -69c0 -36 -6 -91 -19 -216c-3 -28 -8 -45 -35 -45c-35 0 -40 17 -43 45c-13 125 -19 180 -19 216
c0 48 18 69 58 69z" />
    <glyph glyph-name="numbersign" unicode="#" 
d="M588 304l-4 -98h-90l-29 -206h-105l29 206h-96l-29 -206h-105l29 206h-88l4 98h98l18 124h-88l4 98h98l29 206h105l-29 -206h96l29 206h105l-29 -206h80l-4 -98h-90l-18 -124h80zM421 428h-96l-18 -124h96z" />
    <glyph glyph-name="dollar" unicode="$" 
d="M20 159c0 52 39 81 86 81c137 0 9 -162 197 -162c83 0 147 46 147 112c0 126 -354 78 -354 299c0 144 157 242 288 243c13 108 23 124 65 124c23 0 39 -7 39 -33c0 -19 -5 -51 -14 -91c114 -14 202 -52 202 -130c0 -50 -47 -80 -93 -80c-39 0 -65 20 -65 50
c0 8 2 15 2 34c0 26 -38 48 -88 48c-70 0 -130 -44 -130 -98c0 -126 354 -97 354 -299c0 -150 -169 -248 -304 -257c-14 -126 -30 -136 -66 -136c-29 0 -42 14 -42 30c0 13 9 60 18 106c-87 4 -242 48 -242 159z" />
    <glyph glyph-name="percent" unicode="%" horiz-adv-x="900" 
d="M70 510c0 120 75 234 202 234c87 0 142 -58 142 -144c0 -120 -75 -234 -202 -234c-87 0 -142 58 -142 144zM298 654c0 29 -10 40 -28 40c-59 0 -84 -187 -84 -238c0 -29 10 -40 28 -40c59 0 84 187 84 238zM500 132c0 120 75 234 202 234c87 0 142 -58 142 -144
c0 -120 -75 -234 -202 -234c-87 0 -142 58 -142 144zM728 276c0 29 -10 40 -28 40c-59 0 -84 -187 -84 -238c0 -29 10 -40 28 -40c59 0 84 187 84 238zM221 60l405 651c12 19 20 33 50 33c24 0 35 -10 35 -24c0 -15 -8 -30 -16 -43l-417 -665c-10 -16 -28 -24 -44 -24
c-22 0 -34 9 -34 28c0 14 11 28 21 44z" />
    <glyph glyph-name="ampersand" unicode="&#x26;" horiz-adv-x="910" 
d="M686 424h166c28 0 42 -12 42 -30c0 -24 -27 -36 -45 -44c-51 -22 -93 -116 -205 -203c36 -35 84 -61 133 -61c23 0 42 12 57 12c14 0 22 -10 22 -26c0 -42 -94 -84 -211 -84c-59 0 -115 14 -163 48c-65 -31 -142 -48 -219 -48c-117 0 -269 42 -269 182
c0 120 138 184 224 221c-22 43 -40 86 -40 132c0 129 126 221 304 221c144 0 218 -54 218 -133c0 -117 -140 -183 -231 -213c39 -74 85 -146 125 -190c67 53 86 86 86 115c0 38 -46 32 -46 66c0 19 14 35 52 35zM398 573c0 -33 17 -67 30 -97c45 24 100 68 100 121
c0 28 -20 59 -55 59c-47 0 -75 -42 -75 -83zM200 185c0 -66 51 -109 116 -109c35 0 70 9 100 25c-58 53 -118 147 -155 210c-33 -30 -61 -72 -61 -126z" />
    <glyph glyph-name="quoteright" unicode="&#x2019;" horiz-adv-x="330" 
d="M331 663c0 -98 -151 -213 -196 -213c-15 0 -26 9 -26 22c0 22 88 86 88 112c0 2 -2 4 -4 4c-6 0 -14 -4 -22 -4c-45 0 -76 26 -76 62c0 44 47 98 130 98c63 0 106 -34 106 -81z" />
    <glyph glyph-name="parenleft" unicode="(" horiz-adv-x="400" 
d="M34 174c0 306 268 570 372 570c22 0 38 -13 38 -32c0 -46 -208 -232 -208 -565c0 -199 50 -285 50 -307c0 -30 -20 -50 -53 -50c-89 0 -199 170 -199 384z" />
    <glyph glyph-name="parenright" unicode=")" horiz-adv-x="400" 
d="M378 360c0 -306 -268 -570 -372 -570c-22 0 -38 13 -38 32c0 46 208 232 208 565c0 199 -50 285 -50 307c0 30 20 50 53 50c89 0 199 -170 199 -384z" />
    <glyph glyph-name="asterisk" unicode="*" horiz-adv-x="750" 
d="M366 524v2c-49 13 -176 17 -176 95c0 33 28 67 62 67c57 0 108 -110 126 -146l2 2c-6 24 -26 104 -26 130c0 43 22 70 66 70c33 0 64 -22 64 -57c0 -40 -57 -116 -76 -145l2 -2c29 28 89 104 137 104c36 0 63 -29 63 -65c0 -40 -26 -65 -114 -65c-32 0 -55 2 -78 4l-2 -2
c42 -15 168 -30 168 -96c0 -35 -34 -72 -69 -72c-58 0 -94 111 -111 148l-2 -2c5 -20 22 -114 22 -137c0 -36 -27 -63 -63 -63s-69 27 -69 64c0 35 64 111 84 140l-2 2c-29 -27 -98 -108 -147 -108c-36 0 -59 33 -59 67c0 40 30 67 144 67c16 0 34 -1 54 -2z" />
    <glyph glyph-name="plus" unicode="+" horiz-adv-x="660" 
d="M240 316v160h156v-160h160v-156h-160v-160h-156v160h-160v156h160z" />
    <glyph glyph-name="comma" unicode="," horiz-adv-x="360" 
d="M24 -129c0 22 92 85 92 116c0 3 -2 5 -4 5c-4 0 -14 -4 -23 -4c-47 0 -77 28 -77 62c0 54 60 102 134 102c59 0 106 -33 106 -84c0 -110 -164 -220 -200 -220c-12 0 -28 9 -28 23z" />
    <glyph glyph-name="hyphen" unicode="-" horiz-adv-x="360" 
d="M259 160h-211c-33 0 -47 13 -48 43c0 53 13 113 75 113h211c33 0 47 -13 48 -43c0 -53 -13 -113 -75 -113z" />
    <glyph glyph-name="period" unicode="." horiz-adv-x="360" 
d="M12 64c0 69 68 114 136 114c64 0 104 -36 104 -76c0 -69 -68 -114 -136 -114c-64 0 -104 36 -104 76z" />
    <glyph glyph-name="slash" unicode="/" horiz-adv-x="450" 
d="M-47 58l407 654c14 22 33 32 92 32c42 0 76 -8 76 -30c0 -12 -2 -22 -13 -40l-407 -654c-14 -22 -33 -32 -92 -32c-44 0 -76 8 -76 30c0 12 2 22 13 40z" />
    <glyph glyph-name="zero" unicode="0" 
d="M680 451c0 -245 -148 -463 -370 -463c-176 0 -264 124 -264 293c0 245 148 463 370 463c176 0 264 -124 264 -293zM474 568c0 57 -16 90 -62 90c-113 0 -160 -427 -160 -494c0 -57 16 -90 62 -90c113 0 160 427 160 494z" />
    <glyph glyph-name="one" unicode="1" 
d="M510 0h-356c-32 0 -48 10 -48 38c0 79 122 9 136 98c27 175 68 384 68 418c0 63 -118 -4 -118 67c0 34 50 47 138 71c78 21 124 52 176 52c42 0 66 -14 66 -43c0 -73 -90 -485 -90 -572c0 -69 98 -19 98 -79c0 -32 -28 -50 -70 -50z" />
    <glyph glyph-name="two" unicode="2" 
d="M516 0h-466c-24 0 -40 12 -40 40c0 155 430 346 430 556c0 38 -23 62 -60 62c-44 0 -98 -34 -98 -95c0 -16 12 -29 12 -48c0 -27 -34 -73 -105 -73c-63 0 -91 30 -91 83c0 125 166 219 335 219c155 0 243 -70 243 -172c0 -170 -234 -306 -364 -408v-2h122
c112 0 117 46 164 46c16 0 32 -9 32 -27c0 -13 -23 -64 -52 -130c-17 -39 -32 -51 -62 -51z" />
    <glyph glyph-name="three" unicode="3" 
d="M468 396v-2c108 -10 172 -70 172 -155c0 -135 -126 -251 -357 -251c-163 0 -263 50 -263 137c0 51 36 95 105 95c45 0 70 -12 75 -77c5 -62 22 -77 62 -77c60 0 114 82 114 177c0 162 -188 48 -188 133c0 38 14 48 90 48c92 0 144 96 144 183c0 32 -17 51 -48 51
c-38 0 -60 -22 -60 -59c0 -11 2 -22 2 -33c0 -36 -36 -64 -97 -64c-67 0 -93 28 -93 62c0 100 122 180 288 180c156 0 254 -52 254 -168c0 -80 -66 -164 -199 -180h-1z" />
    <glyph glyph-name="four" unicode="4" 
d="M316 178h-226c-34 0 -50 10 -50 34c0 40 105 233 283 408c114 112 139 112 203 112c102 0 120 -14 120 -48c0 -26 -10 -68 -70 -426h68c22 0 38 -6 38 -29c0 -33 -26 -51 -62 -51h-56c-4 -23 -12 -50 -12 -78c0 -38 40 -22 40 -60c0 -26 -26 -40 -62 -40h-251
c-43 0 -53 14 -53 34c0 64 82 -6 90 144zM154 258h176c22 174 50 272 84 344l-2 2c-78 -80 -190 -232 -258 -346z" />
    <glyph glyph-name="five" unicode="5" 
d="M290 586l-38 -148c45 25 104 34 155 34c153 0 253 -76 253 -191c0 -189 -182 -293 -368 -293c-150 0 -254 60 -254 134c0 58 54 102 110 102c38 0 86 -17 86 -63c0 -14 -8 -27 -8 -41c0 -28 23 -46 55 -46c49 0 121 70 121 199c0 57 -29 113 -93 113
c-72 0 -108 -58 -145 -58c-20 0 -34 15 -34 35c0 22 44 161 83 335c7 29 15 46 34 46c53 0 137 -12 209 -12c82 0 164 12 233 12c15 0 27 -8 27 -22c0 -60 -110 -146 -248 -146c-68 0 -122 7 -178 10z" />
    <glyph glyph-name="six" unicode="6" 
d="M342 438l2 -2c36 20 78 32 119 32c118 0 207 -63 207 -187c0 -175 -164 -293 -351 -293c-161 0 -267 78 -267 245c0 249 238 511 514 511c129 0 144 -17 144 -42c0 -26 -22 -44 -86 -44c-165 0 -236 -120 -282 -220zM288 155c0 -58 23 -81 52 -81c49 0 104 85 104 244
c0 55 -23 72 -48 72c-57 0 -108 -95 -108 -235z" />
    <glyph glyph-name="seven" unicode="7" 
d="M332 0h-197c-23 0 -39 8 -39 24c0 40 312 444 418 546h-250c-73 0 -76 -56 -117 -56c-21 0 -31 15 -31 34c0 22 14 96 30 142c12 34 35 42 84 42h444c26 0 38 -10 38 -24c0 -42 -104 -127 -309 -660c-12 -30 -31 -48 -71 -48z" />
    <glyph glyph-name="eight" unicode="8" 
d="M200 356v2c-61 29 -96 83 -96 149c0 121 132 237 318 237c196 0 274 -56 274 -150c0 -76 -62 -138 -146 -164c68 -38 114 -100 114 -174c0 -180 -186 -268 -368 -268c-170 0 -272 66 -272 180c0 88 85 168 176 188zM354 576c0 -58 74 -79 112 -106c25 31 50 71 50 110
c0 45 -30 78 -76 78c-44 0 -86 -38 -86 -82zM218 177c0 -59 40 -103 101 -103c57 0 99 46 99 92c0 64 -86 100 -146 144c-28 -35 -54 -86 -54 -133z" />
    <glyph glyph-name="nine" unicode="9" 
d="M390 294l-2 2c-36 -20 -78 -32 -119 -32c-118 0 -207 63 -207 187c0 175 164 293 351 293c161 0 267 -78 267 -245c0 -249 -238 -511 -514 -511c-129 0 -144 17 -144 42c0 26 22 44 86 44c165 0 236 120 282 220zM444 577c0 58 -23 81 -52 81c-49 0 -104 -85 -104 -244
c0 -55 23 -72 48 -72c57 0 108 95 108 235z" />
    <glyph glyph-name="colon" unicode=":" horiz-adv-x="360" 
d="M12 64c0 69 68 114 136 114c64 0 104 -36 104 -76c0 -69 -68 -114 -136 -114c-64 0 -104 36 -104 76zM56 326c0 69 68 114 136 114c64 0 104 -36 104 -76c0 -69 -68 -114 -136 -114c-64 0 -104 36 -104 76z" />
    <glyph glyph-name="semicolon" unicode=";" horiz-adv-x="360" 
d="M24 -129c0 22 92 85 92 116c0 3 -2 5 -4 5c-4 0 -14 -4 -23 -4c-47 0 -77 28 -77 62c0 54 60 102 134 102c59 0 106 -33 106 -84c0 -110 -164 -220 -200 -220c-12 0 -28 9 -28 23zM56 326c0 69 68 114 136 114c64 0 104 -36 104 -76c0 -69 -68 -114 -136 -114
c-64 0 -104 36 -104 76z" />
    <glyph glyph-name="less" unicode="&#x3c;" horiz-adv-x="660" 
d="M548 121v-158l-476 208v134l476 208v-158l-259 -117z" />
    <glyph glyph-name="equal" unicode="=" horiz-adv-x="660" 
d="M556 426v-156h-476v156h476zM556 206v-156h-476v156h476z" />
    <glyph glyph-name="greater" unicode="&#x3e;" horiz-adv-x="660" 
d="M92 -37v158l259 117l-259 117v158l476 -208v-134z" />
    <glyph glyph-name="question" unicode="?" horiz-adv-x="570" 
d="M319 744c174 0 259 -68 259 -170c0 -190 -244 -226 -274 -266c-38 -51 -4 -108 -88 -108c-47 0 -60 16 -60 38c0 20 11 68 16 108c12 96 170 68 170 268c0 30 -27 56 -51 56c-88 0 -16 -146 -164 -146c-48 0 -79 24 -79 60c0 84 99 160 271 160zM90 52
c0 64 83 112 142 112c51 0 86 -22 86 -64c0 -64 -83 -112 -142 -112c-51 0 -86 22 -86 64z" />
    <glyph glyph-name="at" unicode="@" horiz-adv-x="880" 
d="M398 320c0 -55 24 -90 46 -90c73 0 118 124 118 199c0 57 -17 71 -43 71c-47 0 -121 -79 -121 -180zM586 514l10 36h84l-62 -259c-1 -6 -2 -13 -2 -21c0 -36 11 -56 29 -56c45 0 103 116 103 205c0 118 -108 239 -276 239c-110 0 -268 -77 -268 -308
c0 -168 144 -276 279 -276c97 0 154 21 217 52l10 -69c-67 -38 -141 -69 -226 -69c-286 0 -412 214 -412 362c0 235 184 394 400 394c203 0 360 -138 360 -322c0 -112 -73 -260 -203 -260c-73 0 -100 61 -99 78h-2c-7 -17 -60 -76 -126 -78c-42 -1 -106 32 -106 133
c0 96 70 273 217 273c51 0 58 -29 73 -54z" />
    <glyph glyph-name="A" unicode="A" horiz-adv-x="770" 
d="M436 232h-249c-12 -26 -57 -103 -57 -130c0 -36 44 -34 44 -67c0 -25 -16 -35 -65 -35h-135c-24 0 -40 8 -40 31c0 49 56 32 85 95c37 80 125 248 208 381c144 230 161 237 233 237c92 0 115 -3 240 -620c16 -79 50 -34 50 -86c0 -24 -18 -38 -48 -38h-263
c-26 0 -41 11 -41 33c0 49 50 26 50 66c0 26 -8 90 -12 133zM372 567l-8 -13l-134 -234h194c-10 80 -26 164 -52 247z" />
    <glyph glyph-name="B" unicode="B" horiz-adv-x="830" 
d="M176 732h379c167 0 235 -45 235 -140c0 -91 -99 -159 -174 -186v-2c118 0 160 -64 160 -152c0 -147 -139 -252 -324 -252h-382c-43 0 -64 10 -64 35c0 35 52 35 61 85c19 104 85 468 85 505c0 33 -38 37 -38 69c0 24 28 40 62 38zM544 583c0 51 -37 61 -81 61
c-86 0 -86 -14 -117 -248c77 27 198 92 198 187zM530 247c0 42 -21 77 -57 99c-45 -19 -93 -27 -141 -36c-9 -76 -26 -141 -26 -184c0 -25 20 -38 53 -38c91 0 171 64 171 159z" />
    <glyph glyph-name="C" unicode="C" horiz-adv-x="810" 
d="M296 292c0 -119 71 -200 182 -200c135 0 194 104 238 104c22 0 42 -17 42 -39c0 -79 -162 -169 -316 -169c-202 0 -400 103 -400 321c0 256 244 435 483 435c156 0 287 -83 287 -113c0 -145 -25 -181 -67 -181c-45 0 -46 53 -57 95c-15 58 -72 111 -140 111
c-176 0 -252 -193 -252 -364z" />
    <glyph glyph-name="D" unicode="D" horiz-adv-x="910" 
d="M335 0h-264c-45 0 -65 14 -65 36c0 39 50 24 63 97l56 307c16 89 29 170 29 187c0 33 -38 37 -38 64c0 24 25 41 50 41h413c198 0 313 -104 313 -282c0 -116 -54 -272 -149 -346c-92 -72 -223 -104 -408 -104zM646 445c0 105 -59 199 -178 199c-61 0 -86 -16 -105 -169
c-5 -41 -55 -313 -55 -355c0 -16 15 -32 62 -32c188 0 276 193 276 357z" />
    <glyph glyph-name="E" unicode="E" 
d="M168 732h520c32 0 50 -11 50 -49c0 -88 -27 -119 -63 -119c-67 0 -11 80 -185 80c-98 0 -102 -2 -132 -204h140c54 0 76 44 102 44c18 0 32 -18 32 -34c0 -20 -6 -142 -57 -142c-43 0 -31 44 -97 44h-134c-12 -62 -32 -176 -32 -206c0 -36 12 -58 46 -58h106
c104 0 116 94 169 94c28 0 45 -12 45 -36c0 -27 -9 -54 -18 -77c-18 -47 -22 -69 -70 -69h-529c-40 0 -55 14 -55 35c0 36 52 34 61 85c30 170 85 472 85 507c0 32 -40 37 -40 64c0 21 20 41 56 41z" />
    <glyph glyph-name="F" unicode="F" horiz-adv-x="670" 
d="M284 0h-230c-31 0 -48 13 -48 35c0 36 51 33 61 91c42 242 81 474 81 500c0 32 -40 37 -40 64c0 24 24 42 56 42h494c40 0 56 -12 56 -72c0 -84 -18 -104 -50 -104c-66 0 -30 88 -134 88h-72c-76 0 -82 -16 -112 -226h135c61 0 60 42 95 42c21 0 34 -13 34 -32
c0 -52 -14 -138 -63 -138c-18 0 -23 10 -32 20s-22 20 -57 20h-124c-26 -162 -30 -190 -30 -220c0 -37 40 -40 40 -67c0 -26 -24 -43 -60 -43z" />
    <glyph glyph-name="G" unicode="G" horiz-adv-x="850" 
d="M490 394h276c46 0 62 -8 62 -28c0 -31 -38 -81 -38 -167c0 -19 2 -43 2 -63c0 -68 -218 -148 -375 -148c-200 0 -375 102 -375 321c0 263 212 435 484 435c132 0 306 -58 306 -122c0 -96 -24 -144 -64 -144c-86 0 -30 178 -210 178c-134 0 -262 -152 -262 -349
c0 -121 54 -215 147 -215c75 0 127 62 127 173c0 31 -17 41 -46 41h-50c-26 0 -44 10 -44 37s30 51 60 51z" />
    <glyph glyph-name="H" unicode="H" horiz-adv-x="910" 
d="M356 440h221c25 144 27 162 27 183c0 37 -40 39 -40 67c0 25 22 42 53 42h231c40 0 52 -13 52 -34c0 -41 -51 -25 -63 -101c-26 -165 -75 -463 -75 -489c0 -37 40 -39 40 -66c0 -29 -29 -42 -56 -42h-214c-46 0 -64 12 -64 35c0 40 50 27 59 88l36 229h-223
c-26 -158 -38 -210 -38 -240c0 -40 38 -43 38 -70c0 -31 -22 -42 -72 -42h-206c-36 0 -56 11 -56 35c0 39 51 30 62 92c4 22 82 471 82 500c0 32 -40 37 -40 64c0 23 24 41 50 41h232c40 0 56 -14 56 -35c0 -39 -52 -28 -63 -94z" />
    <glyph glyph-name="I" unicode="I" horiz-adv-x="450" 
d="M176 732h224c40 0 54 -8 54 -32c0 -41 -51 -23 -64 -100c-26 -154 -86 -456 -86 -494c0 -33 40 -39 40 -63c0 -27 -24 -43 -55 -43h-230c-33 0 -47 12 -47 33c0 36 52 27 63 96c14 87 77 459 77 497c0 32 -40 38 -40 64c0 24 18 42 64 42z" />
    <glyph glyph-name="J" unicode="J" horiz-adv-x="650" 
d="M383 732h233c41 0 50 -15 50 -32c0 -39 -49 -29 -59 -91l-69 -424c-21 -128 -143 -197 -317 -197c-160 0 -255 59 -255 154c0 91 70 174 202 174c54 0 86 -22 86 -60c0 -73 -100 -44 -100 -125c0 -36 25 -55 50 -55c47 0 77 20 96 137c15 90 66 369 66 409
c0 37 -40 39 -40 67c0 23 26 43 57 43z" />
    <glyph glyph-name="K" unicode="K" horiz-adv-x="820" 
d="M169 732h213c41 0 54 -14 54 -36c0 -42 -47 -13 -62 -106l-28 -178c64 25 282 188 282 230c0 18 -30 20 -30 49c0 26 17 41 48 41h150c27 0 46 -11 46 -37c0 -44 -59 -55 -73 -68l-198 -181c68 -112 129 -248 153 -319c19 -55 46 -44 46 -81c0 -33 -28 -46 -76 -46h-210
c-36 0 -52 12 -52 38c0 37 44 36 44 61c0 35 -74 185 -100 223l-48 -18c-22 -140 -34 -165 -34 -198s38 -37 38 -64c0 -21 -22 -42 -54 -42h-222c-31 0 -50 10 -50 36c0 36 52 31 62 87c29 163 84 455 84 501c0 33 -40 38 -40 65c0 22 25 43 57 43z" />
    <glyph glyph-name="L" unicode="L" horiz-adv-x="670" 
d="M156 732h245c39 0 55 -11 55 -35c0 -36 -50 -27 -62 -96c-45 -259 -78 -411 -78 -475c0 -30 16 -38 68 -38h51c125 0 133 114 200 114c28 0 45 -17 45 -38c0 -20 -15 -47 -34 -86c-24 -49 -36 -78 -88 -78h-486c-47 0 -66 9 -66 35c0 40 50 23 63 100c3 18 81 461 81 491
c0 32 -40 37 -40 64c0 28 26 42 46 42z" />
    <glyph glyph-name="M" unicode="M" horiz-adv-x="1000" 
d="M149 0h-85c-36 0 -58 7 -58 33c0 37 52 27 64 102c11 67 78 461 78 490c0 33 -40 38 -40 64c1 27 22 42 66 43h226c56 0 60 -52 100 -394h2l163 330c24 49 47 64 83 64h214c34 0 46 -15 46 -34c0 -39 -50 -28 -62 -94c-36 -200 -88 -460 -88 -497c0 -33 38 -39 38 -63
c0 -23 -21 -44 -43 -44h-238c-34 0 -51 12 -51 35c0 30 51 38 58 78c8 43 12 87 98 481l-2 2l-204 -414c-42 -85 -67 -86 -112 -86c-66 0 -88 20 -96 70l-70 442h-2c-50 -430 -68 -476 -68 -500c0 -37 40 -39 40 -67s-25 -41 -57 -41z" />
    <glyph glyph-name="N" unicode="N" horiz-adv-x="810" 
d="M144 0h-95c-30 0 -43 14 -43 34c0 37 46 29 56 89c1 8 86 469 86 502c0 32 -34 35 -34 65c0 16 18 42 60 42h180c64 0 50 -56 250 -442h2c42 260 50 298 50 333c0 37 -42 38 -42 73c0 20 14 36 54 36h106c32 0 50 -9 50 -30c0 -56 -52 -14 -70 -123
c-91 -548 -80 -579 -158 -579h-68c-50 0 -74 8 -294 526h-2c-58 -350 -68 -394 -68 -419c0 -33 38 -37 38 -64c0 -19 -18 -43 -58 -43z" />
    <glyph glyph-name="O" unicode="O" horiz-adv-x="900" 
d="M42 313c0 246 213 431 460 431c194 0 380 -96 380 -325c0 -246 -213 -431 -460 -431c-194 0 -380 96 -380 325zM288 274c0 -140 60 -198 128 -198c116 0 220 148 220 382c0 140 -60 198 -128 198c-116 0 -220 -148 -220 -382z" />
    <glyph glyph-name="P" unicode="P" horiz-adv-x="760" 
d="M166 732h389c146 0 225 -77 225 -166c0 -184 -220 -286 -457 -286c-15 -104 -23 -136 -23 -171c0 -36 40 -39 40 -67c0 -20 -22 -42 -54 -42h-225c-36 0 -55 11 -55 35c0 40 49 22 61 97c18 111 77 458 77 493c0 32 -38 33 -38 69c0 20 22 38 60 38zM370 592l-36 -224
c94 4 192 86 192 185c0 59 -35 101 -95 101c-31 0 -55 -24 -61 -62z" />
    <glyph glyph-name="Q" unicode="Q" horiz-adv-x="930" 
d="M42 313c0 246 213 431 460 431c194 0 380 -96 380 -325c0 -201 -143 -362 -330 -413c26 -25 66 -34 105 -34c17 0 35 4 52 4c40 0 73 -28 73 -64c0 -38 -43 -76 -112 -76c-112 0 -195 44 -262 152c-189 5 -366 102 -366 325zM288 274c0 -116 41 -177 93 -194
c-3 15 -7 36 -7 67c0 54 35 97 71 97c30 0 45 -17 45 -35c0 -15 -10 -48 -10 -84c0 -9 1 -18 3 -31c86 45 153 177 153 364c0 140 -60 198 -128 198c-116 0 -220 -148 -220 -382z" />
    <glyph glyph-name="R" unicode="R" horiz-adv-x="820" 
d="M399 310l-67 -8c-28 -138 -34 -174 -34 -198c0 -32 38 -38 38 -62c0 -29 -21 -42 -53 -42h-223c-42 0 -54 12 -54 34c0 34 53 35 62 86c17 95 82 466 82 503c0 33 -40 38 -40 64c0 23 23 45 64 45h415c151 0 223 -47 223 -154c0 -101 -86 -177 -178 -208
c38 -74 73 -165 85 -234c13 -72 51 -57 51 -92c0 -25 -22 -44 -71 -44h-231c-38 0 -54 11 -54 33c0 46 52 26 52 80c0 68 -32 145 -67 197zM378 569l-32 -183c113 15 212 53 212 178c0 55 -37 90 -94 90c-49 0 -76 -28 -86 -85z" />
    <glyph glyph-name="S" unicode="S" horiz-adv-x="710" 
d="M-16 161c0 40 29 75 71 75c89 0 45 -160 241 -160c82 0 134 50 134 104c0 130 -366 48 -366 294c0 144 126 270 343 270c115 0 279 -46 279 -94c0 -118 -20 -150 -61 -150c-91 0 0 166 -197 166c-70 0 -118 -40 -118 -89c0 -137 366 -71 366 -299
c0 -170 -188 -290 -366 -290c-152 0 -326 62 -326 173z" />
    <glyph glyph-name="T" unicode="T" horiz-adv-x="660" 
d="M389 0h-213c-41 0 -56 15 -56 35c0 42 51 21 65 106c43 259 75 453 75 482c0 13 -9 21 -34 21c-106 0 -97 -98 -162 -98c-23 0 -38 13 -38 37c0 37 32 149 88 149h572c44 0 48 -2 48 -107c0 -35 -21 -61 -57 -61c-59 0 -27 80 -111 80c-64 0 -68 -4 -72 -33
c-9 -64 -78 -457 -78 -501c0 -37 40 -39 40 -66c0 -31 -30 -44 -67 -44z" />
    <glyph glyph-name="U" unicode="U" horiz-adv-x="820" 
d="M176 732h210c42 0 58 -13 58 -36c0 -39 -47 -30 -59 -80c-15 -64 -77 -285 -77 -412c0 -74 50 -128 124 -128c72 0 141 57 163 171c25 131 41 263 41 363c0 66 -40 51 -40 83c0 25 20 39 57 39h105c44 0 52 -11 52 -35c0 -61 -47 20 -66 -169c-16 -162 -16 -311 -80 -409
c-32 -49 -106 -131 -291 -131c-213 0 -301 71 -301 224c0 118 78 380 78 415c0 45 -38 33 -38 68c0 20 17 37 64 37z" />
    <glyph glyph-name="V" unicode="V" horiz-adv-x="730" 
d="M88 732h223c40 0 59 -14 59 -38c0 -48 -70 -27 -70 -87c0 -92 46 -333 100 -431c116 184 214 382 214 434c0 44 -62 41 -62 79c0 24 16 43 44 43h158c34 0 48 -14 48 -39c0 -43 -35 -30 -56 -72c-299 -598 -332 -621 -436 -621c-88 0 -97 10 -130 93
c-64 160 -92 295 -113 526c-5 51 -39 34 -39 70c0 29 24 43 60 43z" />
    <glyph glyph-name="W" unicode="W" horiz-adv-x="1040" 
d="M110 732h226c38 0 56 -15 56 -35c0 -54 -72 -17 -72 -110c0 -81 20 -277 30 -393h2c71 113 134 279 134 416c0 67 -40 45 -40 85c0 23 19 37 50 37h232c32 0 52 -6 52 -31c0 -54 -68 -16 -68 -101c0 -220 21 -340 46 -396c74 103 172 365 172 415s-54 35 -54 81
c0 20 18 32 40 32h150c35 0 44 -9 44 -31c0 -41 -49 -32 -61 -73c-34 -116 -63 -193 -144 -353c-125 -246 -119 -275 -232 -275c-135 0 -123 30 -167 330h-2c-156 -318 -158 -330 -255 -330c-36 0 -81 3 -101 38c-37 64 -58 301 -58 577c0 67 -40 38 -40 77
c0 24 20 40 60 40z" />
    <glyph glyph-name="X" unicode="X" horiz-adv-x="740" 
d="M99 732h234c38 0 55 -17 55 -36c0 -34 -34 -33 -34 -56c0 -20 12 -50 86 -160c106 118 110 136 110 156c0 29 -32 30 -32 54c0 28 20 42 66 42h128c35 0 46 -19 46 -36c0 -32 -43 -39 -65 -64l-207 -228c55 -96 113 -186 149 -266c39 -86 65 -64 65 -98
c0 -21 -16 -40 -46 -40h-254c-39 0 -56 11 -56 36c0 31 40 30 40 62c0 22 -12 54 -102 190c-110 -138 -126 -168 -126 -189c0 -29 34 -28 34 -62c0 -29 -18 -37 -52 -37h-160c-30 0 -44 9 -44 34c0 37 63 55 81 76l219 254l-154 279c-10 19 -38 18 -38 47c0 30 27 42 57 42z
" />
    <glyph glyph-name="Y" unicode="Y" horiz-adv-x="740" 
d="M96 732h246c55 0 70 -13 70 -35c0 -40 -56 -29 -56 -76c0 -25 8 -89 96 -235c160 198 174 230 174 250c0 29 -36 27 -36 56c0 28 24 40 55 40h117c37 0 54 -14 54 -35c0 -31 -26 -24 -70 -77l-258 -317c-13 -87 -30 -152 -30 -190c0 -47 68 -31 68 -72
c0 -28 -22 -41 -56 -41h-290c-36 0 -52 13 -52 35c0 55 83 24 94 89l28 166c-60 89 -107 187 -149 311c-25 75 -65 51 -65 91c0 23 17 40 60 40z" />
    <glyph glyph-name="Z" unicode="Z" horiz-adv-x="640" 
d="M411 644h-77c-187 0 -147 -92 -219 -92c-25 0 -39 12 -39 32c0 30 8 148 80 148h516c27 0 40 -9 40 -38c0 -115 -468 -570 -468 -598c0 -6 6 -8 13 -8h139c106 0 129 94 186 94c24 0 38 -11 38 -31c0 -15 -14 -47 -29 -97c-9 -31 -27 -54 -78 -54h-501
c-36 0 -54 21 -54 54c0 109 470 557 470 584c0 5 -6 6 -17 6z" />
    <glyph glyph-name="bracketleft" unicode="[" horiz-adv-x="400" 
d="M288 -198h-244c-32 0 -44 12 -44 35c0 69 28 149 138 844c6 38 25 51 70 51h228c30 0 42 -12 42 -30c0 -76 -163 -8 -183 -140c-73 -481 -97 -534 -97 -602c0 -110 144 -58 144 -123c0 -21 -16 -35 -54 -35z" />
    <glyph glyph-name="backslash" unicode="\" horiz-adv-x="480" 
d="M126 712l407 -654c11 -18 13 -28 13 -40c0 -22 -32 -30 -76 -30c-59 0 -78 10 -92 32l-407 654c-11 18 -13 28 -13 40c0 22 34 30 76 30c59 0 78 -10 92 -32z" />
    <glyph glyph-name="bracketright" unicode="]" horiz-adv-x="400" 
d="M120 732h244c32 0 44 -12 44 -35c0 -69 -28 -149 -138 -844c-6 -38 -25 -51 -70 -51h-228c-30 0 -42 12 -42 30c0 76 163 8 183 140c73 481 97 534 97 602c0 110 -144 58 -144 123c0 21 16 35 54 35z" />
    <glyph glyph-name="asciicircum" unicode="^" horiz-adv-x="660" 
d="M236 361h-157l181 371h160l181 -371h-158l-103 223z" />
    <glyph glyph-name="underscore" unicode="_" horiz-adv-x="500" 
d="M500 -125h-500v50h500v-50z" />
    <glyph glyph-name="quoteleft" unicode="&#x2018;" horiz-adv-x="330" 
d="M92 531c0 98 151 213 196 213c15 0 26 -9 26 -22c0 -22 -88 -86 -88 -112c0 -2 2 -4 4 -4c6 0 14 4 22 4c45 0 76 -26 76 -62c0 -44 -47 -98 -130 -98c-63 0 -106 34 -106 81z" />
    <glyph glyph-name="a" unicode="a" horiz-adv-x="700" 
d="M42 173c0 167 151 315 318 315c51 0 97 -19 125 -62c30 21 89 62 128 62c17 0 39 -12 39 -31c0 -15 -62 -205 -62 -305c0 -57 72 -25 72 -69c0 -35 -179 -95 -212 -95c-32 0 -48 26 -48 56c0 22 4 44 8 66l-2 2c-39 -71 -108 -124 -191 -124c-107 0 -175 81 -175 185z
M256 144c0 -44 18 -62 38 -62c74 0 126 196 126 268c0 44 -18 60 -38 60c-74 0 -126 -194 -126 -266z" />
    <glyph glyph-name="b" unicode="b" horiz-adv-x="690" 
d="M479 488c115 0 185 -92 185 -203c0 -166 -159 -297 -318 -297c-54 0 -107 20 -142 62c-28 -23 -88 -62 -126 -62c-28 0 -46 16 -46 41c0 37 114 531 114 575c0 37 -40 22 -40 68c0 34 154 72 227 72c25 0 49 -12 49 -40c0 -16 -47 -234 -60 -290l2 -2c37 46 95 76 155 76
zM272 148c0 -50 22 -74 50 -74c44 0 122 90 122 236c0 50 -22 74 -50 74c-46 0 -122 -90 -122 -236z" />
    <glyph glyph-name="c" unicode="c" horiz-adv-x="580" 
d="M368 402c-52 0 -116 -96 -116 -213c0 -71 38 -107 81 -107c90 0 136 78 172 78c17 0 33 -12 33 -31c0 -67 -144 -141 -268 -141c-132 0 -238 75 -238 211c0 169 164 289 329 289c107 0 203 -52 203 -123c0 -37 -32 -67 -82 -67c-108 0 -47 104 -114 104z" />
    <glyph glyph-name="d" unicode="d" horiz-adv-x="730" 
d="M684 599l-59 -349c-6 -36 -13 -70 -13 -99c0 -54 74 -23 74 -71c0 -30 -166 -92 -211 -92c-29 0 -47 24 -47 85c0 24 2 48 4 73l-2 2c-32 -91 -108 -160 -206 -160c-105 0 -182 83 -182 187c0 154 126 313 287 313c49 0 86 -19 119 -54c10 50 30 117 30 166
c0 41 -48 30 -48 70s138 74 237 74c24 0 37 -11 37 -28c0 -16 -10 -58 -20 -117zM262 170c0 -48 26 -78 51 -78c59 0 111 132 111 234c0 58 -20 76 -51 76c-59 0 -111 -130 -111 -232z" />
    <glyph glyph-name="e" unicode="e" horiz-adv-x="620" 
d="M32 196c0 158 166 292 360 292c122 0 210 -56 210 -118c0 -148 -266 -180 -350 -194c2 -64 42 -94 105 -94c82 0 154 70 187 70c17 0 34 -16 34 -33c0 -47 -130 -131 -289 -131c-141 0 -257 72 -257 208zM252 250c61 7 164 39 164 115c0 27 -20 45 -46 45
c-69 0 -109 -104 -118 -160z" />
    <glyph glyph-name="f" unicode="f" horiz-adv-x="450" 
d="M92 476h44c27 155 97 268 265 268c85 0 151 -38 151 -88c0 -38 -33 -64 -70 -64c-59 0 -62 58 -93 58c-23 0 -39 -32 -45 -174h54c26 0 48 -10 48 -40c0 -36 -24 -54 -58 -54h-56c-56 -400 -150 -580 -346 -580c-84 0 -126 36 -126 77c0 47 34 71 69 71
c71 0 46 -62 82 -62c69 0 75 232 113 494h-28c-32 0 -48 12 -48 39c0 39 20 55 44 55z" />
    <glyph glyph-name="g" unicode="g" horiz-adv-x="640" 
d="M-22 -105c0 49 50 101 146 101c68 0 82 -16 82 -30s-16 -23 -16 -37c0 -19 26 -35 72 -35c60 0 106 34 106 77c0 33 -24 45 -80 45c-180 0 -254 66 -254 180c0 174 142 292 324 292c85 0 118 -12 246 -12c42 0 52 -10 52 -32c0 -41 -30 -60 -66 -60c-6 0 -13 1 -20 2
c17 -29 28 -58 28 -93c0 -102 -70 -201 -168 -232v-2c96 -3 126 -43 126 -90c0 -83 -92 -167 -315 -167c-207 0 -263 50 -263 93zM240 172c0 -62 22 -78 50 -78c56 0 102 118 102 234c0 62 -22 82 -50 82c-56 0 -102 -122 -102 -238z" />
    <glyph glyph-name="h" unicode="h" horiz-adv-x="730" 
d="M210 0h-130c-26 0 -36 4 -36 20c0 28 104 540 104 566c0 41 -52 26 -52 60c0 56 192 98 238 98c29 0 42 -21 42 -48c0 -26 -44 -224 -76 -352l2 -2c43 77 104 146 199 146c68 0 143 -41 143 -117c0 -43 -44 -174 -44 -215c0 -49 74 -26 74 -64c0 -50 -198 -104 -256 -104
c-24 0 -42 18 -42 59c0 42 54 253 54 285c0 19 -11 32 -31 32c-45 0 -86 -55 -136 -302c-10 -49 -19 -62 -53 -62z" />
    <glyph glyph-name="i" unicode="i" horiz-adv-x="370" 
d="M326 432c0 -34 -54 -258 -54 -285c0 -40 52 -22 52 -71c0 -32 -196 -88 -233 -88c-29 0 -47 12 -47 49c0 46 54 265 54 281c0 41 -52 26 -52 60c0 56 192 98 238 98c29 0 42 -21 42 -44zM126 606c0 62 56 114 132 114c74 0 108 -40 108 -78c0 -62 -56 -114 -132 -114
c-74 0 -108 40 -108 78z" />
    <glyph glyph-name="j" unicode="j" horiz-adv-x="380" 
d="M46 378c0 56 192 98 238 98c29 0 42 -21 42 -44c0 -72 -41 -229 -78 -450c-24 -142 -134 -192 -248 -192c-96 0 -150 24 -150 78c0 42 38 68 72 68c62 0 46 -68 84 -68c25 0 30 63 61 242c21 120 31 167 31 208s-52 26 -52 60zM126 606c0 62 56 114 132 114
c74 0 108 -40 108 -78c0 -62 -56 -114 -132 -114c-74 0 -108 40 -108 78z" />
    <glyph glyph-name="k" unicode="k" horiz-adv-x="620" 
d="M176 0h-128c-16 0 -26 8 -26 22c0 22 112 542 112 585c0 32 -32 23 -32 49c0 52 200 88 224 88c20 0 34 -11 34 -32c0 -28 -46 -230 -82 -390l2 -2c60 68 195 168 288 168c43 0 78 -22 78 -68c0 -53 -55 -86 -103 -86c-65 0 -57 42 -71 42c-10 0 -24 -10 -38 -20
c64 -220 60 -239 122 -244c24 -2 44 -3 44 -38c0 -42 -172 -86 -208 -86c-56 0 -100 80 -112 276l-18 -18l-41 -208c-6 -28 -17 -38 -45 -38z" />
    <glyph glyph-name="l" unicode="l" horiz-adv-x="390" 
d="M148 586c0 41 -52 26 -52 60c0 56 192 98 238 98c29 0 42 -21 42 -44c0 -34 -104 -508 -104 -530c0 -66 74 -36 74 -78c0 -40 -218 -104 -255 -104c-29 0 -47 12 -47 49c0 46 54 265 104 549z" />
    <glyph glyph-name="m" unicode="m" horiz-adv-x="1030" 
d="M210 0h-130c-26 0 -36 4 -36 20c0 28 54 246 54 293c0 55 -54 27 -54 69c0 50 205 106 205 106c37 0 43 -40 43 -69c0 -25 -4 -51 -10 -95l2 -2c56 106 122 166 217 166c58 0 114 -44 111 -102c-1 -19 -2 -26 -12 -57l2 -2c50 115 120 161 187 161c68 0 143 -41 143 -117
c0 -43 -44 -174 -44 -215c0 -49 74 -26 74 -64c0 -50 -198 -104 -256 -104c-24 0 -42 18 -42 59c0 42 54 253 54 285c0 19 -11 32 -26 32c-58 0 -98 -160 -132 -314c-10 -43 -12 -50 -62 -50h-106c-24 0 -36 10 -36 30c0 59 54 270 54 302c0 19 -7 32 -27 32
c-29 0 -70 -55 -120 -302c-10 -49 -19 -62 -53 -62z" />
    <glyph glyph-name="n" unicode="n" 
d="M210 0h-130c-26 0 -36 4 -36 20c0 28 54 246 54 293c0 55 -54 27 -54 69c0 50 205 106 223 106c37 0 43 -40 43 -69c0 -25 -4 -51 -10 -75l2 -2c43 77 104 146 199 146c68 0 143 -41 143 -117c0 -43 -44 -174 -44 -215c0 -49 74 -26 74 -64c0 -50 -198 -104 -256 -104
c-24 0 -42 18 -42 59c0 42 54 253 54 285c0 19 -11 32 -31 32c-45 0 -86 -55 -136 -302c-10 -49 -19 -62 -53 -62z" />
    <glyph glyph-name="o" unicode="o" horiz-adv-x="680" 
d="M32 210c0 174 168 278 340 278c162 0 282 -90 282 -222c0 -174 -168 -278 -340 -278c-162 0 -282 90 -282 222zM252 170c0 -68 22 -96 66 -96c76 0 116 104 116 232c0 68 -22 96 -66 96c-76 0 -116 -104 -116 -232z" />
    <glyph glyph-name="p" unicode="p" horiz-adv-x="700" 
d="M196 -198h-156c-54 0 -74 18 -74 40c0 52 47 17 60 80c29 140 76 348 76 391c0 59 -56 30 -56 71c0 46 188 104 222 104c30 0 40 -14 40 -54c0 -29 -8 -57 -16 -84l2 -2c53 71 108 140 204 140c114 0 176 -75 176 -182c0 -162 -138 -318 -307 -318c-35 0 -79 14 -79 56
c0 20 12 38 38 38c84 0 128 176 128 227c0 35 -14 55 -37 55c-123 0 -187 -436 -187 -458c0 -28 30 -34 30 -59c0 -27 -28 -45 -64 -45z" />
    <glyph glyph-name="q" unicode="q" horiz-adv-x="680" 
d="M532 -198h-198c-28 0 -50 14 -50 36c0 46 59 41 66 73l34 159l-2 2c-33 -51 -92 -84 -154 -84c-115 0 -186 82 -186 194c0 162 136 306 315 306c54 0 115 -17 145 -66c32 27 90 66 134 66c24 0 42 -10 42 -28c0 -36 -110 -470 -110 -544c0 -35 30 -38 30 -66
s-22 -48 -66 -48zM262 164c0 -42 18 -72 48 -72c56 0 122 116 122 242c0 54 -16 68 -48 68c-56 0 -122 -116 -122 -238z" />
    <glyph glyph-name="r" unicode="r" horiz-adv-x="490" 
d="M214 0h-134c-18 0 -28 6 -28 19c0 47 52 233 52 296c0 50 -56 30 -56 70c0 47 188 103 224 103c22 0 36 -18 36 -60c0 -25 -9 -62 -14 -86l2 -2c32 66 75 148 160 148c38 0 68 -30 68 -71c0 -91 -52 -137 -90 -137c-60 0 -50 64 -75 64c-41 0 -46 -85 -99 -303
c-8 -33 -18 -41 -46 -41z" />
    <glyph glyph-name="s" unicode="s" horiz-adv-x="570" 
d="M8 107c0 38 31 70 69 70c95 0 21 -111 142 -111c57 0 79 24 79 49c0 85 -234 53 -234 196c0 95 102 177 262 177c112 0 212 -40 212 -109c0 -36 -28 -60 -63 -60c-98 0 -37 91 -136 91c-37 0 -61 -16 -61 -39c0 -81 248 -49 248 -199c0 -112 -142 -184 -280 -184
c-120 0 -238 46 -238 119z" />
    <glyph glyph-name="t" unicode="t" horiz-adv-x="450" 
d="M120 382h-24c-35 0 -48 14 -48 40c0 31 18 46 75 54c117 16 75 162 187 162c44 0 60 -10 60 -31s-8 -51 -24 -131h56c29 0 42 -18 42 -41c0 -32 -25 -53 -62 -53h-54c-34 -168 -46 -204 -46 -234c0 -20 13 -28 31 -28c20 0 38 10 56 10c22 0 33 -18 33 -42
c0 -60 -244 -100 -292 -100c-36 0 -52 30 -52 63c0 32 10 63 62 331z" />
    <glyph glyph-name="u" unicode="u" horiz-adv-x="730" 
d="M486 476h156c16 0 24 -6 24 -17c0 -26 -58 -241 -58 -298c0 -52 74 -28 74 -70c0 -43 -206 -103 -246 -103c-28 0 -38 16 -38 67c0 28 5 57 6 85l-2 2c-35 -85 -102 -154 -200 -154c-76 0 -136 54 -136 118c0 38 40 190 40 212c0 45 -58 34 -58 66c0 56 216 104 242 104
s42 -22 42 -50c0 -56 -52 -238 -52 -295c0 -17 8 -31 27 -31c51 0 103 106 135 286c12 68 18 78 44 78z" />
    <glyph glyph-name="v" unicode="v" horiz-adv-x="630" 
d="M580 350c0 -183 -132 -362 -326 -362c-110 0 -190 44 -190 128c0 62 38 168 38 204c0 40 -54 28 -54 63c0 57 198 105 233 105c36 0 45 -18 45 -52c0 -96 -48 -238 -48 -293c0 -30 25 -43 53 -43c81 0 151 114 151 181c0 49 -82 38 -82 117c0 52 40 90 82 90
c54 0 98 -44 98 -138z" />
    <glyph glyph-name="w" unicode="w" horiz-adv-x="900" 
d="M478 476h140c26 0 32 -12 32 -23c0 -25 -48 -220 -48 -298c0 -25 13 -43 41 -43c68 0 125 106 125 165c0 55 -78 39 -78 123c0 52 34 88 75 88c45 0 89 -38 89 -151c0 -174 -115 -349 -303 -349c-85 0 -157 42 -157 108c0 21 5 42 8 62l-2 2c-31 -89 -100 -172 -202 -172
c-66 0 -136 36 -136 110c0 55 40 202 40 228c0 36 -54 24 -54 58c0 56 198 104 230 104c36 0 52 -20 52 -55c0 -55 -54 -256 -54 -287c0 -17 10 -34 30 -34c76 0 126 278 132 318c5 31 16 46 40 46z" />
    <glyph glyph-name="x" unicode="x" horiz-adv-x="600" 
d="M180 216l-68 117c-17 29 -72 7 -72 47c0 48 170 108 211 108c45 0 71 -100 99 -146c38 65 113 146 194 146c39 0 68 -24 68 -63c0 -38 -36 -69 -73 -69c-28 0 -45 10 -56 10c-31 0 -76 -76 -91 -96l76 -120c19 -30 43 -35 63 -40c15 -4 29 -10 29 -32
c0 -38 -160 -90 -210 -90c-58 0 -72 78 -128 164c-36 -63 -116 -164 -196 -164c-37 0 -66 24 -66 62c0 49 50 74 94 74c10 0 21 -4 31 -4c36 0 77 73 95 96z" />
    <glyph glyph-name="y" unicode="y" horiz-adv-x="590" 
d="M74 164l-4 174c0 48 -58 18 -58 72c0 48 208 78 220 78c28 0 42 -12 42 -36c0 -34 -4 -76 -4 -120c0 -186 22 -240 60 -240c59 0 122 148 122 199c0 47 -54 51 -54 113c0 48 36 84 84 84c42 0 78 -34 78 -110c0 -182 -256 -588 -455 -588c-65 0 -97 28 -97 69
c0 39 34 65 70 65c38 0 56 -30 78 -30c49 0 136 92 158 134l-2 2c-27 -29 -53 -42 -96 -42c-84 0 -140 68 -142 176z" />
    <glyph glyph-name="z" unicode="z" horiz-adv-x="520" 
d="M342 0h-308c-34 0 -46 14 -46 37c0 31 36 67 264 361h-48c-46 0 -22 -93 -102 -93c-28 0 -52 23 -52 53c0 72 75 118 132 118h290c28 0 44 -10 44 -35c0 -37 -30 -51 -274 -363h74c50 0 32 98 112 98c26 0 54 -20 54 -56c0 -64 -66 -120 -140 -120z" />
    <glyph glyph-name="braceleft" unicode="{" horiz-adv-x="400" 
d="M302 596l-32 -186c-14 -84 -33 -123 -108 -143v-2c48 -14 66 -40 66 -82c0 -85 -34 -157 -34 -236c0 -97 144 -50 144 -118c0 -24 -6 -39 -120 -39c-186 0 -206 48 -206 106c0 80 42 232 42 292c0 40 -17 63 -62 78c67 21 88 55 100 127l36 229c16 103 84 122 240 122
c96 0 108 -13 108 -38c0 -57 -159 -25 -174 -110z" />
    <glyph glyph-name="bar" unicode="|" horiz-adv-x="440" 
d="M142 0v744h156v-744h-156z" />
    <glyph glyph-name="braceright" unicode="}" horiz-adv-x="400" 
d="M106 -62l32 186c14 84 33 123 108 143v2c-48 14 -66 40 -66 82c0 85 34 157 34 236c0 97 -144 50 -144 118c0 24 6 39 120 39c186 0 206 -48 206 -106c0 -80 -42 -232 -42 -292c0 -40 17 -63 62 -78c-67 -21 -88 -55 -100 -127l-36 -229c-16 -103 -84 -122 -240 -122
c-96 0 -108 13 -108 38c0 57 159 25 174 110z" />
    <glyph glyph-name="asciitilde" unicode="~" horiz-adv-x="660" 
d="M505 344l45 -130c-39 -42 -72 -86 -134 -86c-40 0 -71 17 -104 34s-67 26 -113 26c-44 0 -68 -29 -84 -56l-45 130c31 42 67 86 134 86c37 0 78 -17 115 -34c38 -17 73 -26 98 -26c40 0 65 29 88 56z" />
    <glyph glyph-name="exclamdown" unicode="&#xa1;" horiz-adv-x="420" 
d="M3 -155c0 51 33 99 151 435c11 31 31 48 69 48c42 0 46 -14 47 -58c5 -214 11 -286 11 -378c0 -72 -32 -102 -120 -102c-134 0 -158 12 -158 55zM353 470c0 -64 -83 -112 -142 -112c-51 0 -86 22 -86 64c0 64 83 112 142 112c51 0 86 -22 86 -64z" />
    <glyph glyph-name="cent" unicode="&#xa2;" 
d="M136 307c0 139 118 259 252 281c8 102 28 122 66 122c23 0 38 -10 38 -34c0 -14 -10 -44 -14 -84c84 0 160 -42 160 -92c0 -36 -32 -70 -81 -70c-89 0 -59 84 -115 84c-50 0 -96 -88 -96 -200c0 -76 32 -112 77 -112c78 0 121 56 149 56c16 0 30 -14 30 -30
c0 -36 -86 -100 -202 -104c-14 -122 -34 -136 -69 -136c-18 0 -37 10 -37 30c0 19 10 68 16 106c-100 16 -174 76 -174 183z" />
    <glyph glyph-name="sterling" unicode="&#xa3;" 
d="M182 334h-56c-24 0 -34 10 -34 30c0 24 16 44 48 44h38c-3 32 -8 67 -8 101c0 153 116 235 295 235c157 0 219 -62 219 -136c0 -51 -32 -80 -82 -80c-42 0 -80 20 -80 54c0 12 2 24 2 36c0 29 -24 48 -53 48c-49 0 -91 -46 -91 -136c0 -36 4 -86 8 -122h156
c28 0 42 -10 42 -30c0 -30 -20 -44 -44 -44h-162c-14 -92 -82 -165 -146 -226l2 -2c49 24 96 52 153 52c59 0 107 -30 141 -30c60 0 56 56 94 56c14 0 28 -12 28 -27c0 -41 -68 -169 -158 -169c-106 0 -152 36 -219 36c-88 0 -162 -36 -178 -36c-17 0 -49 60 -49 70
c0 26 133 100 134 276z" />
    <glyph glyph-name="fraction" unicode="&#x2044;" horiz-adv-x="167" 
d="M310 663l-381 -625c-19 -32 -32 -50 -65 -50c-16 0 -31 9 -31 27c-1 15 8 29 21 50l376 622c23 38 37 57 67 57c19 0 31 -7 37 -24c1 -15 -10 -35 -24 -57z" />
    <glyph glyph-name="yen" unicode="&#xa5;" 
d="M467 312h171c22 0 29 -12 29 -31c0 -29 -19 -43 -43 -43h-173c-9 -57 -17 -98 -17 -125c0 -47 61 -31 61 -72c0 -28 -19 -41 -50 -41h-261c-32 0 -48 13 -48 35c0 55 76 24 86 89l17 114h-177c-14 0 -24 11 -24 33c0 28 13 41 45 41h152c-18 29 -34 59 -48 94h-103
c-18 0 -32 9 -32 32c0 25 13 42 45 42h58c-14 36 -28 77 -42 121c-23 75 -59 51 -59 91c0 23 16 40 54 40h222c49 0 63 -13 63 -35c0 -40 -51 -29 -51 -76c0 -58 58 -184 87 -235c24 33 156 207 156 250c0 29 -33 27 -33 56c0 28 23 40 51 40h105c33 0 48 -14 48 -35
c0 -25 -39 -42 -85 -105l-82 -112h69c26 0 37 -11 37 -33c0 -25 -16 -41 -47 -41h-113z" />
    <glyph glyph-name="florin" unicode="&#x192;" 
d="M194 468h84c50 150 137 322 317 322c68 0 175 -36 175 -119c0 -33 -23 -67 -59 -67c-78 0 -71 94 -118 94c-55 0 -83 -126 -113 -230h92c28 0 46 -12 46 -38c0 -32 -24 -54 -67 -54h-93c-60 -193 -165 -586 -428 -586c-88 0 -168 52 -168 121c0 37 35 71 72 71
c76 0 68 -110 132 -110c38 0 61 29 85 118l103 386h-64c-36 0 -50 20 -50 46c0 28 24 46 54 46z" />
    <glyph glyph-name="section" unicode="&#xa7;" horiz-adv-x="740" 
d="M28 -6c0 27 19 48 46 48c62 0 35 -170 227 -170c53 0 133 30 133 94c0 138 -372 61 -372 271c0 73 43 130 102 169c-32 25 -56 62 -56 103c0 105 132 235 324 235c134 0 243 -44 254 -76c5 -13 8 -34 8 -60c0 -76 -20 -102 -49 -102c-75 0 -9 160 -193 160
c-64 0 -118 -40 -118 -87c0 -127 360 -58 360 -282c0 -68 -41 -106 -84 -155c31 -25 50 -58 50 -98c0 -130 -160 -254 -348 -254c-106 0 -259 37 -268 82c-10 48 -16 86 -16 122zM240 312c0 -60 150 -65 270 -120c11 11 20 28 20 44c0 60 -172 64 -266 120
c-11 -12 -24 -28 -24 -44z" />
    <glyph glyph-name="currency" unicode="&#xa4;" 
d="M666 602l-68 -66c35 -42 56 -106 56 -170s-21 -128 -56 -170l68 -66l-70 -69l-68 69c-38 -39 -103 -60 -168 -60c-66 0 -131 21 -169 60l-68 -69l-69 69l67 66c-36 42 -57 106 -57 170s21 128 57 170l-67 66l69 69l68 -69c38 38 103 60 169 60c65 0 130 -22 168 -60
l68 69zM361 194c93 0 163 80 163 172s-70 172 -163 172c-95 0 -167 -77 -167 -172c0 -97 73 -172 167 -172z" />
    <glyph glyph-name="quotesingle" unicode="'" horiz-adv-x="222" 
d="M144 744c40 0 58 -21 58 -69c0 -36 -6 -91 -19 -216c-3 -28 -8 -45 -35 -45c-35 0 -40 17 -43 45c-13 125 -19 180 -19 216c0 48 18 69 58 69z" />
    <glyph glyph-name="quotedblleft" unicode="&#x201c;" horiz-adv-x="610" 
d="M85 531c0 98 151 213 196 213c15 0 26 -9 26 -22c0 -22 -88 -86 -88 -112c0 -2 2 -4 4 -4c6 0 14 4 22 4c45 0 76 -26 76 -62c0 -44 -47 -98 -130 -98c-63 0 -106 34 -106 81zM378 531c0 98 151 213 196 213c15 0 26 -9 26 -22c0 -22 -88 -86 -88 -112c0 -2 2 -4 4 -4
c6 0 14 4 22 4c45 0 76 -26 76 -62c0 -44 -47 -98 -130 -98c-63 0 -106 34 -106 81z" />
    <glyph glyph-name="guillemotleft" unicode="&#xab;" horiz-adv-x="510" 
d="M224 254c0 32 174 166 194 166c18 0 38 -6 38 -28c0 -36 -92 -95 -92 -175c0 -53 34 -101 34 -125c0 -18 -11 -36 -34 -36c-32 0 -140 162 -140 198zM22 254c0 32 174 166 194 166c18 0 38 -6 38 -28c0 -36 -92 -95 -92 -175c0 -53 34 -101 34 -125
c0 -18 -11 -36 -34 -36c-32 0 -140 162 -140 198z" />
    <glyph glyph-name="guilsinglleft" unicode="&#x2039;" horiz-adv-x="320" 
d="M22 254c0 32 174 166 194 166c18 0 38 -6 38 -28c0 -36 -92 -95 -92 -175c0 -53 34 -101 34 -125c0 -18 -11 -36 -34 -36c-32 0 -140 162 -140 198z" />
    <glyph glyph-name="guilsinglright" unicode="&#x203a;" horiz-adv-x="320" 
d="M272 222c0 -32 -174 -166 -194 -166c-18 0 -38 6 -38 28c0 36 92 95 92 175c0 53 -34 101 -34 125c0 18 11 36 34 36c32 0 140 -162 140 -198z" />
    <glyph glyph-name="fi" unicode="&#xfb01;" horiz-adv-x="760" 
d="M92 476h44c40 192 108 268 354 268c206 0 266 -28 266 -108c0 -62 -46 -104 -120 -104c-46 0 -104 28 -104 81c0 6 4 16 4 31c0 8 -38 14 -80 14c-66 0 -94 -16 -112 -182h312c11 0 23 4 42 4c21 0 34 -20 34 -47c0 -31 -54 -264 -54 -285c0 -40 52 -22 52 -62
c0 -59 -227 -98 -233 -98c-32 0 -47 19 -47 50c0 58 60 268 60 320c0 13 -9 24 -29 24h-149c-52 -418 -162 -580 -346 -580c-78 0 -126 32 -126 77c0 39 29 71 69 71c69 0 46 -62 82 -62c53 0 77 190 113 494h-36c-26 0 -40 14 -40 39c0 33 18 55 44 55z" />
    <glyph glyph-name="fl" unicode="&#xfb02;" horiz-adv-x="800" 
d="M100 476h36c32 166 110 268 294 268h306c38 0 50 -10 50 -38c0 -26 -102 -472 -102 -536c0 -66 74 -36 74 -78c0 -40 -218 -104 -255 -104c-29 0 -47 12 -47 49c0 85 104 519 104 578c0 35 -8 43 -86 43c-92 0 -112 -28 -134 -182h64c30 0 42 -16 42 -40
c0 -40 -30 -54 -64 -54h-50c-50 -354 -128 -580 -346 -580c-80 0 -126 34 -126 77c0 39 29 71 69 71c69 0 46 -62 80 -62c63 0 65 156 115 494h-22c-40 0 -54 12 -54 39c0 37 20 55 52 55z" />
    <glyph glyph-name="endash" unicode="&#x2013;" horiz-adv-x="500" 
d="M450 160h-420c-33 0 -47 13 -48 43c0 53 13 113 75 113h420c33 0 47 -13 48 -43c0 -53 -13 -113 -75 -113z" />
    <glyph glyph-name="dagger" unicode="&#x2020;" horiz-adv-x="700" 
d="M392 358l-16 -391c-5 -111 -42 -177 -115 -177c-51 0 -95 36 -95 89c0 85 38 145 136 479c-58 -20 -116 -46 -178 -46c-47 0 -80 29 -80 77c0 55 40 97 95 97c41 0 129 -30 177 -44c-4 44 -16 118 -16 180c0 78 40 122 106 122c48 0 84 -28 84 -78
c0 -62 -52 -168 -82 -224c40 10 128 44 174 44c47 0 86 -28 86 -82s-36 -92 -91 -92c-59 0 -124 30 -185 46z" />
    <glyph glyph-name="daggerdbl" unicode="&#x2021;" horiz-adv-x="670" 
d="M-2 116c0 56 39 92 94 92c58 0 126 -28 184 -48c-9 26 -14 53 -14 80c0 36 18 92 48 128l-2 2c-50 -24 -117 -52 -175 -52c-48 0 -85 30 -85 80c0 57 37 94 93 94c63 0 124 -26 185 -40c-8 56 -22 132 -22 169c0 85 44 123 102 123c55 0 88 -32 88 -91
c0 -71 -46 -131 -84 -201c53 13 122 40 177 40c50 0 83 -33 83 -83c0 -53 -38 -91 -91 -91c-64 0 -122 34 -183 52c11 -25 18 -53 18 -80c0 -40 -20 -90 -50 -128l2 -2c60 24 121 48 174 48c47 0 80 -38 80 -84c0 -53 -43 -90 -94 -90c-49 0 -120 28 -178 44
c2 -50 16 -120 16 -161c0 -85 -42 -127 -102 -127c-52 0 -88 38 -88 84c0 50 56 142 88 204c-57 -18 -120 -44 -180 -44c-51 0 -84 30 -84 82z" />
    <glyph glyph-name="periodcentered" unicode="&#xb7;" horiz-adv-x="360" 
d="M74 238c0 51 44 93 93 93s93 -42 93 -93s-44 -93 -93 -93s-93 42 -93 93z" />
    <glyph glyph-name="paragraph" unicode="&#xb6;" horiz-adv-x="680" 
d="M350 732h297c41 0 57 -7 57 -33c0 -8 -1 -20 -3 -32l-140 -795c-11 -63 -22 -70 -76 -70c-48 0 -57 9 -57 40c0 7 7 36 7 42l128 724c1 5 1 11 1 16c0 14 -9 18 -29 18c-25 0 -34 -6 -38 -34l-130 -736c-11 -63 -22 -70 -76 -70c-48 0 -57 9 -57 40c0 7 7 36 7 42l68 382
c-38 -25 -69 -38 -112 -38c-116 0 -184 87 -183 195c0 181 164 309 336 309z" />
    <glyph glyph-name="bullet" unicode="&#x2022;" horiz-adv-x="500" 
d="M72 366c0 101 82 183 183 183s183 -82 183 -183s-82 -183 -183 -183s-183 82 -183 183z" />
    <glyph glyph-name="quotesinglbase" unicode="&#x201a;" horiz-adv-x="330" 
d="M246 67c0 -98 -151 -213 -196 -213c-15 0 -26 9 -26 22c0 22 88 86 88 112c0 2 -2 4 -4 4c-6 0 -14 -4 -22 -4c-45 0 -76 26 -76 62c0 44 47 98 130 98c63 0 106 -34 106 -81z" />
    <glyph glyph-name="quotedblbase" unicode="&#x201e;" horiz-adv-x="610" 
d="M533 67c0 -98 -151 -213 -196 -213c-15 0 -26 9 -26 22c0 22 88 86 88 112c0 2 -2 4 -4 4c-6 0 -14 -4 -22 -4c-45 0 -76 26 -76 62c0 44 47 98 130 98c63 0 106 -34 106 -81zM240 67c0 -98 -151 -213 -196 -213c-15 0 -26 9 -26 22c0 22 88 86 88 112c0 2 -2 4 -4 4
c-6 0 -14 -4 -22 -4c-45 0 -76 26 -76 62c0 44 47 98 130 98c63 0 106 -34 106 -81z" />
    <glyph glyph-name="quotedblright" unicode="&#x201d;" horiz-adv-x="610" 
d="M628 663c0 -98 -151 -213 -196 -213c-15 0 -26 9 -26 22c0 22 88 86 88 112c0 2 -2 4 -4 4c-6 0 -14 -4 -22 -4c-45 0 -76 26 -76 62c0 44 47 98 130 98c63 0 106 -34 106 -81zM335 663c0 -98 -151 -213 -196 -213c-15 0 -26 9 -26 22c0 22 88 86 88 112c0 2 -2 4 -4 4
c-6 0 -14 -4 -22 -4c-45 0 -76 26 -76 62c0 44 47 98 130 98c63 0 106 -34 106 -81z" />
    <glyph glyph-name="guillemotright" unicode="&#xbb;" horiz-adv-x="510" 
d="M272 222c0 -32 -174 -166 -194 -166c-18 0 -38 6 -38 28c0 36 92 95 92 175c0 53 -34 101 -34 125c0 18 11 36 34 36c32 0 140 -162 140 -198zM474 222c0 -32 -174 -166 -194 -166c-18 0 -38 6 -38 28c0 36 92 95 92 175c0 53 -34 101 -34 125c0 18 11 36 34 36
c32 0 140 -162 140 -198z" />
    <glyph glyph-name="ellipsis" unicode="&#x2026;" horiz-adv-x="1000" 
d="M12 64c0 69 68 114 136 114c64 0 104 -36 104 -76c0 -69 -68 -114 -136 -114c-64 0 -104 36 -104 76zM345 64c0 69 68 114 136 114c64 0 104 -36 104 -76c0 -69 -68 -114 -136 -114c-64 0 -104 36 -104 76zM678 64c0 69 68 114 136 114c64 0 104 -36 104 -76
c0 -69 -68 -114 -136 -114c-64 0 -104 36 -104 76z" />
    <glyph glyph-name="perthousand" unicode="&#x2030;" horiz-adv-x="1300" 
d="M912 132c0 120 75 234 202 234c87 0 142 -58 142 -144c0 -120 -75 -234 -202 -234c-87 0 -142 58 -142 144zM1140 276c0 29 -10 40 -28 40c-59 0 -84 -187 -84 -238c0 -29 10 -40 28 -40c59 0 84 187 84 238zM70 510c0 120 75 234 202 234c87 0 142 -58 142 -144
c0 -120 -75 -234 -202 -234c-87 0 -142 58 -142 144zM298 654c0 29 -10 40 -28 40c-59 0 -84 -187 -84 -238c0 -29 10 -40 28 -40c59 0 84 187 84 238zM500 132c0 120 75 234 202 234c87 0 142 -58 142 -144c0 -120 -75 -234 -202 -234c-87 0 -142 58 -142 144zM728 276
c0 29 -10 40 -28 40c-59 0 -84 -187 -84 -238c0 -29 10 -40 28 -40c59 0 84 187 84 238zM221 60l405 651c12 19 20 33 50 33c24 0 35 -10 35 -24c0 -15 -8 -30 -16 -43l-417 -665c-10 -16 -28 -24 -44 -24c-22 0 -34 9 -34 28c0 14 11 28 21 44z" />
    <glyph glyph-name="questiondown" unicode="&#xbf;" horiz-adv-x="570" 
d="M229 -210c-174 0 -259 68 -259 170c0 190 244 226 274 266c38 51 4 108 88 108c47 0 60 -16 60 -38c0 -20 -11 -68 -16 -108c-12 -96 -170 -68 -170 -268c0 -30 27 -56 51 -56c88 0 16 146 164 146c48 0 79 -24 79 -60c0 -84 -99 -160 -271 -160zM458 482
c0 -64 -83 -112 -142 -112c-51 0 -86 22 -86 64c0 64 83 112 142 112c51 0 86 -22 86 -64z" />
    <glyph glyph-name="grave" unicode="`" horiz-adv-x="370" 
d="M192 718h67c21 0 28 -4 39 -38c17 -52 40 -105 40 -127c0 -13 -10 -23 -25 -23c-21 0 -24 11 -148 135c-6 6 -11 15 -11 24c0 18 14 29 38 29z" />
    <glyph glyph-name="acute" unicode="&#xb4;" horiz-adv-x="370" 
d="M262 718h58c27 0 42 -13 42 -28c0 -23 -11 -27 -165 -145c-10 -8 -22 -15 -36 -15c-19 0 -29 10 -29 21c0 15 14 32 90 146c9 13 22 21 40 21z" />
    <glyph glyph-name="circumflex" unicode="&#x2c6;" horiz-adv-x="370" 
d="M252 726c17 0 30 -5 51 -32c91 -116 99 -123 99 -138s-10 -26 -23 -26c-27 0 -79 45 -141 86c-68 -36 -134 -86 -154 -86c-15 0 -28 11 -28 27s9 24 139 139c22 19 37 30 57 30z" />
    <glyph glyph-name="tilde" unicode="&#x2dc;" horiz-adv-x="370" 
d="M298 660c47 0 54 40 81 40c17 0 27 -8 27 -30c0 -30 -45 -114 -97 -114c-41 0 -84 36 -120 36c-45 0 -57 -40 -84 -40c-13 0 -25 10 -25 25c0 38 54 119 99 119s80 -36 119 -36z" />
    <glyph glyph-name="macron" unicode="&#xaf;" horiz-adv-x="370" 
d="M126 678h266c51 0 72 -17 72 -38c0 -34 -37 -60 -100 -60h-266c-51 0 -72 17 -72 38c0 34 37 60 100 60z" />
    <glyph glyph-name="breve" unicode="&#x2d8;" horiz-adv-x="370" 
d="M98 693c0 18 13 29 28 29c36 0 38 -74 135 -74c98 0 111 74 143 74c14 0 24 -13 24 -27c0 -48 -72 -139 -188 -139c-106 0 -142 89 -142 137z" />
    <glyph glyph-name="dotaccent" unicode="&#x2d9;" horiz-adv-x="370" 
d="M146 614c0 60 47 94 102 94c53 0 92 -25 92 -68c0 -60 -47 -94 -102 -94c-53 0 -92 25 -92 68z" />
    <glyph glyph-name="dieresis" unicode="&#xa8;" horiz-adv-x="370" 
d="M12 614c0 60 47 94 102 94c53 0 92 -25 92 -68c0 -60 -47 -94 -102 -94c-53 0 -92 25 -92 68zM280 614c0 60 47 94 102 94c53 0 92 -25 92 -68c0 -60 -47 -94 -102 -94c-53 0 -92 25 -92 68z" />
    <glyph glyph-name="ring" unicode="&#x2da;" horiz-adv-x="370" 
d="M140 634c0 60 48 110 110 110s110 -50 110 -110s-48 -110 -110 -110s-110 50 -110 110zM206 634c0 -24 19 -44 44 -44s44 20 44 44s-19 44 -44 44s-44 -20 -44 -44z" />
    <glyph glyph-name="cedilla" unicode="&#xb8;" horiz-adv-x="370" 
d="M168 0l-8 -34c17 4 35 6 53 6c47 0 105 -27 105 -96c0 -66 -78 -98 -176 -98c-96 0 -170 22 -170 61c0 12 6 35 28 35c25 0 71 -34 156 -34c52 0 70 18 70 37c0 21 -18 33 -42 33c-27 0 -55 -14 -76 -14c-9 0 -20 7 -20 17c0 8 18 75 22 87h58z" />
    <glyph glyph-name="hungarumlaut" unicode="&#x2dd;" horiz-adv-x="370" 
d="M188 718h58c27 0 42 -13 42 -28c0 -23 -11 -27 -157 -145c-10 -8 -22 -15 -36 -15c-19 0 -25 10 -25 21c0 14 16 37 78 146c8 14 22 21 40 21zM396 718h58c27 0 42 -13 42 -28c0 -23 -11 -27 -165 -145c-10 -8 -22 -15 -36 -15c-19 0 -29 10 -29 21c0 15 14 32 90 146
c9 13 22 21 40 21z" />
    <glyph glyph-name="ogonek" unicode="&#x2db;" horiz-adv-x="370" 
d="M30 0h92c-43 -19 -78 -57 -78 -105c0 -35 20 -51 53 -51c34 0 61 26 84 26c13 0 23 -14 23 -27c0 -28 -48 -61 -117 -61c-77 0 -135 34 -135 103c0 38 23 87 78 115z" />
    <glyph glyph-name="caron" unicode="&#x2c7;" horiz-adv-x="370" 
d="M230 530c-17 0 -30 5 -51 32c-91 116 -99 123 -99 138s10 26 23 26c27 0 79 -45 141 -86c68 36 134 86 154 86c15 0 28 -11 28 -27s-9 -24 -139 -139c-22 -19 -37 -30 -57 -30z" />
    <glyph glyph-name="emdash" unicode="&#x2014;" horiz-adv-x="1000" 
d="M950 160h-920c-33 0 -47 13 -48 43c0 53 13 113 75 113h920c33 0 47 -13 48 -43c0 -53 -13 -113 -75 -113z" />
    <glyph glyph-name="AE" unicode="&#xc6;" horiz-adv-x="1020" 
d="M418 232h-220c-42 -92 -56 -116 -56 -130c0 -35 46 -35 46 -67c0 -22 -16 -35 -50 -35h-150c-27 0 -40 10 -40 33c0 45 58 41 76 81c41 91 137 259 181 335c152 266 173 283 257 283h526c32 0 50 -11 50 -49c0 -88 -27 -119 -63 -119c-67 0 -11 80 -185 80
c-84 0 -88 -2 -118 -204h126c54 0 76 44 102 44c18 0 32 -18 32 -34c0 -20 -6 -142 -57 -142c-43 0 -31 44 -97 44h-116c-12 -62 -32 -176 -32 -206c0 -36 12 -58 50 -58h84c104 0 116 94 169 94c28 0 45 -12 45 -36c0 -27 -9 -54 -18 -77c-18 -47 -22 -69 -70 -69h-506
c-32 0 -48 13 -48 35c0 40 50 26 62 95zM242 320h189c45 244 49 282 49 300c0 17 -5 24 -15 24c-31 0 -69 -46 -223 -324z" />
    <glyph glyph-name="ordfeminine" unicode="&#xaa;" horiz-adv-x="460" 
d="M62 555c0 100 97 189 205 189c34 0 63 -12 82 -37c19 12 58 37 83 37c11 0 25 -7 25 -19c0 -9 -39 -123 -39 -183c0 -34 46 -15 46 -41c0 -21 -117 -57 -138 -57s-30 15 -30 33c0 14 2 27 5 40l-2 -1l-1 2c-25 -42 -70 -74 -124 -74c-69 0 -112 48 -112 111zM200 537
c0 -26 12 -37 25 -37c48 0 81 118 81 161c0 25 -11 35 -24 35c-48 0 -82 -115 -82 -159z" />
    <glyph glyph-name="Lslash" unicode="&#x141;" horiz-adv-x="670" 
d="M66 293l33 17c19 110 51 297 51 316c0 32 -40 37 -40 64c0 28 26 42 46 42h245c39 0 55 -11 55 -35c0 -36 -50 -27 -62 -96c-12 -67 -23 -127 -29 -161l83 40c38 19 55 28 69 28c21 0 32 -24 32 -42c0 -20 -14 -30 -52 -49l-149 -74c-22 -117 -32 -181 -32 -217
c0 -30 16 -38 68 -38h51c125 0 133 114 200 114c28 0 45 -17 45 -38c0 -20 -15 -47 -34 -86c-24 -49 -36 -78 -88 -78h-486c-47 0 -66 9 -66 35c0 40 50 23 63 100c0 3 3 17 13 77c-41 -21 -61 -32 -71 -32c-18 0 -31 23 -31 43c0 26 21 38 86 70z" />
    <glyph glyph-name="Oslash" unicode="&#xd8;" horiz-adv-x="900" 
d="M281 234l340 345c-27 54 -70 77 -113 77c-116 0 -230 -148 -230 -382c0 -15 1 -28 3 -40zM644 492l-338 -343c25 -50 68 -73 110 -73c116 0 230 148 230 382c0 12 -1 24 -2 34zM42 313c0 246 213 431 460 431c81 0 161 -17 227 -54c23 26 56 64 77 64c22 0 40 -18 40 -39
s-24 -44 -53 -72c54 -51 89 -125 89 -224c0 -246 -213 -431 -460 -431c-80 0 -159 16 -224 52c-13 -15 -48 -62 -74 -62c-20 0 -40 18 -40 38c0 25 34 53 50 69c-56 53 -92 128 -92 228z" />
    <glyph glyph-name="OE" unicode="&#x152;" horiz-adv-x="1130" 
d="M667 732h431c32 0 50 -11 50 -49c0 -88 -27 -119 -63 -119c-67 0 -11 80 -185 80c-70 0 -74 -2 -104 -204h112c54 0 76 44 102 44c18 0 32 -18 32 -34c0 -20 -6 -142 -57 -142c-43 0 -31 44 -97 44h-102c-12 -62 -32 -176 -32 -206c0 -36 12 -58 50 -58h70
c104 0 116 94 169 94c28 0 45 -12 45 -36c0 -27 -9 -54 -18 -77c-18 -47 -22 -69 -72 -69h-468c-19 0 -26 8 -26 19c0 9 3 17 4 27l-2 2c-39 -48 -102 -60 -161 -60c-192 0 -303 140 -303 324c0 221 171 432 401 432c62 0 125 -13 170 -58c7 38 14 46 54 46zM294 269
c0 -145 61 -193 132 -193c46 0 96 26 112 149c14 108 54 279 54 359c0 49 -36 72 -81 72c-104 0 -217 -132 -217 -387z" />
    <glyph glyph-name="ordmasculine" unicode="&#xba;" horiz-adv-x="460" 
d="M60 577c0 104 110 167 222 167c106 0 184 -54 184 -133c0 -105 -110 -167 -221 -167c-107 0 -185 54 -185 133zM204 553c0 -35 15 -57 43 -57c50 0 75 62 75 139c0 40 -14 57 -42 57c-50 0 -76 -62 -76 -139z" />
    <glyph glyph-name="ae" unicode="&#xe6;" horiz-adv-x="940" 
d="M202 121c0 -27 22 -41 47 -41c71 0 107 72 119 130c-61 0 -166 -8 -166 -89zM334 288h44c4 14 8 29 8 45c0 41 -16 67 -59 67c-70 0 -96 -82 -177 -82c-48 0 -76 22 -76 51c0 65 122 119 257 119c79 0 127 -8 176 -71c52 44 121 71 205 71c122 0 210 -56 210 -118
c0 -148 -266 -180 -352 -194c4 -64 44 -94 107 -94c82 0 154 70 187 70c17 0 34 -16 34 -33c0 -47 -130 -131 -289 -131c-79 0 -139 26 -172 79c-76 -68 -166 -79 -235 -79c-102 0 -206 40 -206 132c0 102 124 166 338 168zM572 250c61 7 164 39 164 115c0 27 -20 45 -46 45
c-69 0 -109 -104 -118 -160z" />
    <glyph glyph-name="dotlessi" unicode="&#x131;" horiz-adv-x="370" 
d="M326 432c0 -34 -54 -258 -54 -285c0 -40 52 -22 52 -71c0 -32 -196 -88 -233 -88c-29 0 -47 12 -47 49c0 46 54 265 54 281c0 41 -52 26 -52 60c0 56 192 98 238 98c29 0 42 -21 42 -44z" />
    <glyph glyph-name="lslash" unicode="&#x142;" horiz-adv-x="390" 
d="M44 37c0 26 17 105 43 233c-47 -27 -65 -36 -77 -36s-23 13 -23 36c0 27 58 59 118 91c14 66 29 143 43 225c0 41 -52 26 -52 60c0 56 192 98 238 98c29 0 42 -21 42 -44c0 -14 -18 -105 -40 -211c40 23 68 39 78 39c14 0 23 -16 23 -37c0 -26 -56 -60 -120 -95
c-24 -114 -45 -216 -45 -226c0 -66 74 -36 74 -78c0 -40 -218 -104 -255 -104c-29 0 -47 12 -47 49z" />
    <glyph glyph-name="oslash" unicode="&#xf8;" horiz-adv-x="680" 
d="M444 271l-192 -169c7 -19 38 -28 66 -28c68 0 119 77 126 197zM241 194l197 175c-15 24 -40 33 -70 33c-69 0 -120 -73 -127 -208zM32 210c0 174 168 278 340 278c61 0 116 -12 161 -36c1 1 5 5 9 8c27 24 50 52 80 52c17 0 32 -15 32 -32c0 -16 -10 -33 -57 -74
c34 -33 57 -82 57 -140c0 -174 -168 -278 -340 -278c-59 0 -112 12 -156 33c-41 -36 -60 -57 -90 -57c-17 0 -34 16 -34 33s25 41 60 68c-39 38 -62 87 -62 145z" />
    <glyph glyph-name="oe" unicode="&#x153;" horiz-adv-x="1010" 
d="M252 170c0 -68 22 -96 66 -96c76 0 116 104 116 232c0 68 -22 96 -66 96c-76 0 -116 -104 -116 -232zM372 488c79 0 148 -21 198 -59c60 37 134 59 212 59c122 0 210 -56 210 -118c0 -148 -266 -180 -356 -194c20 -74 52 -94 111 -94c82 0 154 70 187 70
c17 0 34 -16 34 -33c0 -47 -130 -131 -289 -131c-66 0 -127 16 -173 48c-56 -31 -123 -48 -192 -48c-162 0 -282 90 -282 222c0 174 168 278 340 278zM806 365c0 27 -20 45 -46 45c-69 0 -109 -104 -118 -160c61 7 164 39 164 115z" />
    <glyph glyph-name="germandbls" unicode="&#xdf;" horiz-adv-x="690" 
d="M236 0h-174c-30 0 -46 14 -46 38c0 44 50 18 64 100l68 383c30 169 150 223 308 223c168 0 258 -56 258 -137c0 -87 -132 -133 -132 -181c0 -47 100 -171 100 -284c0 -84 -68 -154 -190 -154c-92 0 -160 36 -160 74c0 17 13 32 31 32c27 0 42 -28 71 -28
c27 0 34 25 34 48c0 82 -68 176 -68 231c0 89 132 155 132 250c0 42 -27 71 -70 71c-86 0 -96 -116 -186 -636c-3 -19 -12 -30 -40 -30z" />
    <glyph glyph-name="onesuperior" unicode="&#xb9;" horiz-adv-x="420" 
d="M314 298h-231c-21 0 -32 6 -32 23c0 47 80 5 89 59c17 105 44 230 44 250c0 38 -77 -2 -77 41c0 20 33 28 90 42c51 13 81 31 114 31c28 0 43 -8 43 -25c0 -44 -57 -291 -57 -344c0 -41 63 -11 63 -47c0 -19 -19 -30 -46 -30z" />
    <glyph glyph-name="logicalnot" unicode="&#xac;" horiz-adv-x="660" 
d="M400 51v219h-320v156h476v-375h-156z" />
    <glyph glyph-name="mu" unicode="&#xb5;" horiz-adv-x="730" 
d="M486 476h156c16 0 24 -6 24 -17c0 -26 -58 -241 -58 -298c0 -52 74 -28 74 -70c0 -43 -206 -103 -246 -103c-28 0 -38 16 -38 67c0 28 5 57 6 85l-2 2c-30 -74 -85 -135 -161 -150c-11 -44 -21 -100 -27 -154c-4 -34 -24 -48 -107 -48s-107 24 -107 54
c0 26 106 430 106 474c0 45 -58 34 -58 66c0 56 216 104 242 104s42 -22 42 -50c0 -56 -52 -238 -52 -295c0 -17 8 -31 27 -31c51 0 103 106 135 286c12 68 18 78 44 78z" />
    <glyph glyph-name="trademark" unicode="&#x2122;" horiz-adv-x="990" 
d="M216 704v-318c0 -22 9 -29 50 -30v-28h-222v28c41 1 50 8 50 30v318h-42c-38 0 -57 -28 -62 -60h-28v88h386v-88h-28c-5 32 -24 60 -62 60h-42zM620 329l-128 273h-2v-196c0 -38 9 -48 50 -50v-28h-134v28c41 2 50 12 50 50v238c0 21 -31 60 -72 60v28h163l127 -263
l138 263h138v-28c-41 -1 -50 -8 -50 -30v-288c0 -22 9 -30 50 -30v-28h-222v28c41 0 50 8 50 30v216h-2l-140 -273h-16z" />
    <glyph glyph-name="Eth" unicode="&#xd0;" horiz-adv-x="910" 
d="M69 133l40 219h-44c-36 0 -47 14 -47 34c0 37 24 54 74 54h33c16 89 29 170 29 187c0 33 -38 37 -38 64c0 24 25 41 50 41h413c198 0 313 -104 313 -282c0 -116 -54 -272 -149 -346c-92 -72 -223 -104 -408 -104h-264c-45 0 -65 14 -65 36c0 39 50 24 63 97zM358 440h134
c42 0 56 -12 56 -34c0 -37 -24 -54 -74 -54h-131c-9 -56 -35 -198 -35 -225s15 -39 62 -39c188 0 276 193 276 357c0 105 -59 199 -178 199c-61 0 -85 -10 -110 -204z" />
    <glyph glyph-name="onehalf" unicode="&#xbd;" horiz-adv-x="1080" 
d="M306 298h-231c-21 0 -32 6 -32 23c0 47 80 5 89 59c17 105 44 230 44 250c0 38 -77 -2 -77 41c0 20 33 28 90 42c51 13 81 31 114 31c28 0 43 -8 43 -25c0 -44 -57 -291 -57 -344c0 -41 63 -11 63 -47c0 -19 -19 -30 -46 -30zM898 0h-303c-16 0 -27 7 -27 24
c0 93 282 207 282 334c0 22 -16 36 -40 36c-29 0 -64 -20 -64 -56c0 -10 8 -18 8 -29c0 -16 -22 -43 -69 -43c-41 0 -59 17 -59 49c0 75 108 131 218 131c101 0 158 -42 158 -103c0 -102 -152 -183 -238 -245v-2h81c72 0 76 30 106 30c11 0 23 -7 23 -17
c0 -8 -18 -39 -36 -78c-11 -24 -21 -31 -40 -31zM732 663l-381 -625c-19 -32 -32 -50 -65 -50c-16 0 -31 9 -31 27c-1 15 8 29 21 50l376 622c23 38 37 57 67 57c19 0 31 -7 37 -24c1 -15 -10 -35 -24 -57z" />
    <glyph glyph-name="plusminus" unicode="&#xb1;" horiz-adv-x="660" 
d="M240 408v68h156v-68h160v-156h-160v-76h-156v76h-160v156h160zM80 0v156h476v-156h-476z" />
    <glyph glyph-name="Thorn" unicode="&#xde;" horiz-adv-x="760" 
d="M360 444l-36 -224c94 4 192 86 192 185c0 59 -35 101 -95 101c-31 0 -55 -24 -61 -62zM387 584h158c146 0 225 -77 225 -166c0 -184 -220 -286 -462 -286c-3 -12 -4 -21 -4 -26c0 -33 40 -39 40 -63c0 -27 -24 -43 -55 -43h-230c-33 0 -47 12 -47 33c0 36 52 27 63 96
c14 87 77 459 77 497c0 32 -40 38 -40 64c0 24 18 42 64 42h224c40 0 54 -8 54 -32c0 -41 -51 -23 -64 -100z" />
    <glyph glyph-name="onequarter" unicode="&#xbc;" horiz-adv-x="1080" 
d="M740 107h-147c-22 0 -32 6 -32 20c0 24 68 140 183 245c75 67 91 68 132 68c67 0 78 -9 78 -30c0 -15 -6 -40 -45 -255h44c14 0 25 -4 25 -18c0 -19 -17 -30 -40 -30h-37c-2 -14 -8 -30 -8 -47c0 -23 26 -13 26 -36c0 -16 -17 -24 -40 -24h-163c-28 0 -35 8 -35 20
c0 39 54 -3 59 87zM635 155h114c14 104 33 163 55 207h-2c-50 -48 -123 -139 -167 -207zM306 298h-231c-21 0 -32 6 -32 23c0 47 80 5 89 59c17 105 44 230 44 250c0 38 -77 -2 -77 41c0 20 33 28 90 42c51 13 81 31 114 31c28 0 43 -8 43 -25c0 -44 -57 -291 -57 -344
c0 -41 63 -11 63 -47c0 -19 -19 -30 -46 -30zM744 663l-381 -625c-19 -32 -32 -50 -65 -50c-16 0 -31 9 -31 27c-1 15 8 29 21 50l376 622c23 38 37 57 67 57c19 0 31 -7 37 -24c1 -15 -10 -35 -24 -57z" />
    <glyph glyph-name="divide" unicode="&#xf7;" horiz-adv-x="660" 
d="M556 160h-476v156h476v-156zM223 457c0 52 43 95 95 95s95 -43 95 -95s-43 -95 -95 -95s-95 43 -95 95zM223 19c0 52 43 95 95 95s95 -43 95 -95s-43 -95 -95 -95s-95 43 -95 95z" />
    <glyph glyph-name="brokenbar" unicode="&#xa6;" horiz-adv-x="440" 
d="M142 0v287h156v-287h-156zM142 457v287h156v-287h-156z" />
    <glyph glyph-name="degree" unicode="&#xb0;" horiz-adv-x="400" 
d="M229 678c-49 0 -85 -40 -85 -89s36 -89 85 -89s85 40 85 89s-36 89 -85 89zM229 744c86 0 157 -71 157 -155s-71 -155 -157 -155s-157 71 -157 155s71 155 157 155z" />
    <glyph glyph-name="thorn" unicode="&#xfe;" horiz-adv-x="700" 
d="M196 -198h-156c-54 0 -74 18 -74 40c0 52 47 17 60 80c29 140 120 588 120 647s-56 30 -56 71c0 46 192 104 216 104c31 0 46 -24 46 -54c0 -34 -20 -128 -58 -340l2 -2c51 71 106 140 202 140c114 0 176 -75 176 -182c0 -162 -138 -318 -307 -318c-35 0 -79 14 -79 56
c0 20 12 38 38 38c84 0 128 176 128 227c0 35 -14 55 -37 55c-123 0 -187 -436 -187 -458c0 -28 30 -34 30 -59c0 -27 -28 -45 -64 -45z" />
    <glyph glyph-name="threequarters" unicode="&#xbe;" horiz-adv-x="1080" 
d="M740 107h-147c-22 0 -32 6 -32 20c0 24 68 140 183 245c75 67 91 68 132 68c67 0 78 -9 78 -30c0 -15 -6 -40 -45 -255h44c14 0 25 -4 25 -18c0 -19 -17 -30 -40 -30h-37c-2 -14 -8 -30 -8 -47c0 -23 26 -13 26 -36c0 -16 -17 -24 -40 -24h-163c-28 0 -35 8 -35 20
c0 39 54 -3 59 87zM635 155h114c14 104 33 163 55 207h-2c-50 -48 -123 -139 -167 -207zM287 536v-2c70 -6 112 -42 112 -93c0 -81 -82 -151 -233 -151c-105 0 -170 31 -170 83c0 31 23 57 68 57c29 0 48 -7 50 -46c2 -37 13 -46 39 -46c39 0 74 49 74 107
c0 96 -122 26 -122 79c0 22 9 28 58 28c60 0 94 58 94 110c0 19 -11 30 -31 30c-25 0 -40 -12 -40 -35c0 -6 1 -13 1 -19c0 -22 -22 -39 -62 -39c-44 0 -61 17 -61 37c0 60 80 108 188 108c101 0 165 -31 165 -100c0 -48 -43 -99 -130 -108zM748 663l-381 -625
c-19 -32 -32 -50 -65 -50c-16 0 -31 9 -31 27c-1 15 8 29 21 50l376 622c23 38 37 57 67 57c19 0 31 -7 37 -24c1 -15 -10 -35 -24 -57z" />
    <glyph glyph-name="twosuperior" unicode="&#xb2;" horiz-adv-x="420" 
d="M334 298h-303c-16 0 -27 7 -27 24c0 93 282 207 282 334c0 22 -16 36 -40 36c-29 0 -64 -20 -64 -56c0 -10 8 -18 8 -29c0 -16 -22 -43 -69 -43c-41 0 -59 17 -59 49c0 75 108 131 218 131c101 0 158 -42 158 -103c0 -102 -152 -183 -238 -245v-2h81c72 0 76 30 106 30
c11 0 23 -7 23 -17c0 -8 -18 -39 -36 -78c-11 -24 -21 -31 -40 -31z" />
    <glyph glyph-name="registered" unicode="&#xae;" horiz-adv-x="800" 
d="M224 556v22h222c67 0 116 -34 116 -109c0 -42 -28 -89 -80 -105l61 -90c19 -29 40 -58 59 -86v-16h-104c-32 0 -67 115 -104 176h-22v-122c0 -24 10 -31 44 -32v-22h-192v22c34 1 44 8 44 32v298c0 24 -10 30 -44 32zM372 550v-174h25c28 0 53 23 53 90
c0 66 -20 84 -47 84h-31zM34 366c0 214 155 378 370 378s370 -164 370 -378s-155 -378 -370 -378s-370 164 -370 378zM130 366c0 -172 111 -310 274 -310s274 138 274 310s-111 310 -274 310s-274 -138 -274 -310z" />
    <glyph glyph-name="minus" unicode="&#x2212;" horiz-adv-x="660" 
d="M556 160h-476v156h476v-156z" />
    <glyph glyph-name="eth" unicode="&#xf0;" horiz-adv-x="680" 
d="M434 290c0 64 -22 90 -66 90c-76 0 -116 -98 -116 -216c0 -64 22 -90 66 -90c76 0 116 96 116 216zM402 678l117 59c12 6 19 7 32 7c16 0 35 -18 35 -34c0 -15 -5 -30 -25 -40l-84 -42c6 -3 13 -9 19 -14c91 -77 158 -188 158 -338c0 -194 -168 -288 -340 -288
c-182 0 -282 90 -282 204c0 180 136 274 320 274c18 0 34 0 53 -4c-10 39 -25 74 -49 105l-102 -51c-12 -6 -22 -12 -35 -12c-18 0 -37 16 -37 37c0 17 8 30 22 37l94 48c-26 20 -59 38 -98 53c-24 9 -36 15 -36 35c0 18 14 30 34 30s108 -13 204 -66z" />
    <glyph glyph-name="multiply" unicode="&#xd7;" horiz-adv-x="660" 
d="M80 108l130 130l-130 130l109 108l129 -130l129 130l109 -108l-130 -130l130 -130l-109 -108l-129 130l-129 -130z" />
    <glyph glyph-name="threesuperior" unicode="&#xb3;" horiz-adv-x="420" 
d="M311 536v-2c70 -6 112 -42 112 -93c0 -81 -82 -151 -233 -151c-105 0 -170 31 -170 83c0 31 23 57 68 57c29 0 48 -7 50 -46c2 -37 13 -46 39 -46c39 0 74 49 74 107c0 96 -122 26 -122 79c0 22 9 28 58 28c60 0 94 58 94 110c0 19 -11 30 -31 30c-25 0 -40 -12 -40 -35
c0 -6 1 -13 1 -19c0 -22 -22 -39 -62 -39c-44 0 -61 17 -61 37c0 60 80 108 188 108c101 0 165 -31 165 -100c0 -48 -43 -99 -130 -108z" />
    <glyph glyph-name="copyright" unicode="&#xa9;" horiz-adv-x="800" 
d="M34 366c0 214 155 378 370 378s370 -164 370 -378s-155 -378 -370 -378s-370 164 -370 378zM130 366c0 -172 111 -310 274 -310s274 138 274 310s-111 310 -274 310s-274 -138 -274 -310zM558 289h26l-16 -85c-4 -19 -96 -42 -144 -42c-148 0 -232 78 -232 217
c0 90 49 211 241 211c74 0 133 -23 133 -41v-79h-26c-16 43 -45 92 -104 92c-71 0 -104 -71 -104 -177c0 -109 19 -195 101 -195c52 0 97 38 125 99z" />
    <glyph glyph-name="Aacute" unicode="&#xc1;" horiz-adv-x="770" 
d="M436 232h-249c-12 -26 -57 -103 -57 -130c0 -36 44 -34 44 -67c0 -25 -16 -35 -65 -35h-135c-24 0 -40 8 -40 31c0 49 56 32 85 95c37 80 125 248 208 381c144 230 161 237 233 237c92 0 115 -3 240 -620c16 -79 50 -34 50 -86c0 -24 -18 -38 -48 -38h-263
c-26 0 -41 11 -41 33c0 49 50 26 50 66c0 26 -8 90 -12 133zM372 567l-8 -13l-134 -234h194c-10 80 -26 164 -52 247zM503 942h58c27 0 42 -13 42 -28c0 -23 -11 -27 -165 -145c-10 -8 -22 -15 -36 -15c-19 0 -29 10 -29 21c0 15 14 32 90 146c9 13 22 21 40 21z" />
    <glyph glyph-name="Acircumflex" unicode="&#xc2;" horiz-adv-x="770" 
d="M436 232h-249c-12 -26 -57 -103 -57 -130c0 -36 44 -34 44 -67c0 -25 -16 -35 -65 -35h-135c-24 0 -40 8 -40 31c0 49 56 32 85 95c37 80 125 248 208 381c144 230 161 237 233 237c92 0 115 -3 240 -620c16 -79 50 -34 50 -86c0 -24 -18 -38 -48 -38h-263
c-26 0 -41 11 -41 33c0 49 50 26 50 66c0 26 -8 90 -12 133zM372 567l-8 -13l-134 -234h194c-10 80 -26 164 -52 247zM493 950c17 0 30 -5 51 -32c91 -116 99 -123 99 -138s-10 -26 -23 -26c-27 0 -79 45 -141 86c-68 -36 -134 -86 -154 -86c-15 0 -28 11 -28 27
s9 24 139 139c22 19 37 30 57 30z" />
    <glyph glyph-name="Adieresis" unicode="&#xc4;" horiz-adv-x="770" 
d="M436 232h-249c-12 -26 -57 -103 -57 -130c0 -36 44 -34 44 -67c0 -25 -16 -35 -65 -35h-135c-24 0 -40 8 -40 31c0 49 56 32 85 95c37 80 125 248 208 381c144 230 161 237 233 237c92 0 115 -3 240 -620c16 -79 50 -34 50 -86c0 -24 -18 -38 -48 -38h-263
c-26 0 -41 11 -41 33c0 49 50 26 50 66c0 26 -8 90 -12 133zM372 567l-8 -13l-134 -234h194c-10 80 -26 164 -52 247zM253 838c0 60 47 94 102 94c53 0 92 -25 92 -68c0 -60 -47 -94 -102 -94c-53 0 -92 25 -92 68zM521 838c0 60 47 94 102 94c53 0 92 -25 92 -68
c0 -60 -47 -94 -102 -94c-53 0 -92 25 -92 68z" />
    <glyph glyph-name="Agrave" unicode="&#xc0;" horiz-adv-x="770" 
d="M436 232h-249c-12 -26 -57 -103 -57 -130c0 -36 44 -34 44 -67c0 -25 -16 -35 -65 -35h-135c-24 0 -40 8 -40 31c0 49 56 32 85 95c37 80 125 248 208 381c144 230 161 237 233 237c92 0 115 -3 240 -620c16 -79 50 -34 50 -86c0 -24 -18 -38 -48 -38h-263
c-26 0 -41 11 -41 33c0 49 50 26 50 66c0 26 -8 90 -12 133zM372 567l-8 -13l-134 -234h194c-10 80 -26 164 -52 247zM433 942h67c21 0 28 -4 39 -38c17 -52 40 -105 40 -127c0 -13 -10 -23 -25 -23c-21 0 -24 11 -148 135c-6 6 -11 15 -11 24c0 18 14 29 38 29z" />
    <glyph glyph-name="Aring" unicode="&#xc5;" horiz-adv-x="770" 
d="M436 232h-249c-12 -26 -57 -103 -57 -130c0 -36 44 -34 44 -67c0 -25 -16 -35 -65 -35h-135c-24 0 -40 8 -40 31c0 49 56 32 85 95c37 80 125 248 208 381c144 230 161 237 233 237c92 0 115 -3 240 -620c16 -79 50 -34 50 -86c0 -24 -18 -38 -48 -38h-263
c-26 0 -41 11 -41 33c0 49 50 26 50 66c0 26 -8 90 -12 133zM372 567l-8 -13l-134 -234h194c-10 80 -26 164 -52 247zM381 858c0 60 48 110 110 110s110 -50 110 -110s-48 -110 -110 -110s-110 50 -110 110zM447 858c0 -24 19 -44 44 -44s44 20 44 44s-19 44 -44 44
s-44 -20 -44 -44z" />
    <glyph glyph-name="Atilde" unicode="&#xc3;" horiz-adv-x="770" 
d="M436 232h-249c-12 -26 -57 -103 -57 -130c0 -36 44 -34 44 -67c0 -25 -16 -35 -65 -35h-135c-24 0 -40 8 -40 31c0 49 56 32 85 95c37 80 125 248 208 381c144 230 161 237 233 237c92 0 115 -3 240 -620c16 -79 50 -34 50 -86c0 -24 -18 -38 -48 -38h-263
c-26 0 -41 11 -41 33c0 49 50 26 50 66c0 26 -8 90 -12 133zM372 567l-8 -13l-134 -234h194c-10 80 -26 164 -52 247zM539 884c47 0 54 40 81 40c17 0 27 -8 27 -30c0 -30 -45 -114 -97 -114c-41 0 -84 36 -120 36c-45 0 -57 -40 -84 -40c-13 0 -25 10 -25 25
c0 38 54 119 99 119s80 -36 119 -36z" />
    <glyph glyph-name="Ccedilla" unicode="&#xc7;" horiz-adv-x="810" 
d="M296 292c0 -119 71 -200 182 -200c135 0 194 104 238 104c22 0 42 -17 42 -39c0 -79 -162 -169 -316 -169c-202 0 -400 103 -400 321c0 256 244 435 483 435c156 0 287 -83 287 -113c0 -145 -25 -181 -67 -181c-45 0 -46 53 -57 95c-15 58 -72 111 -140 111
c-176 0 -252 -193 -252 -364zM469 0l-8 -34c17 4 35 6 53 6c47 0 105 -27 105 -96c0 -66 -78 -98 -176 -98c-96 0 -170 22 -170 61c0 12 6 35 28 35c25 0 71 -34 156 -34c52 0 70 18 70 37c0 21 -18 33 -42 33c-27 0 -55 -14 -76 -14c-9 0 -20 7 -20 17c0 8 18 75 22 87h58z
" />
    <glyph glyph-name="Eacute" unicode="&#xc9;" 
d="M168 732h520c32 0 50 -11 50 -49c0 -88 -27 -119 -63 -119c-67 0 -11 80 -185 80c-98 0 -102 -2 -132 -204h140c54 0 76 44 102 44c18 0 32 -18 32 -34c0 -20 -6 -142 -57 -142c-43 0 -31 44 -97 44h-134c-12 -62 -32 -176 -32 -206c0 -36 12 -58 46 -58h106
c104 0 116 94 169 94c28 0 45 -12 45 -36c0 -27 -9 -54 -18 -77c-18 -47 -22 -69 -70 -69h-529c-40 0 -55 14 -55 35c0 36 52 34 61 85c30 170 85 472 85 507c0 32 -40 37 -40 64c0 21 20 41 56 41zM472 942h58c27 0 42 -13 42 -28c0 -23 -11 -27 -165 -145
c-10 -8 -22 -15 -36 -15c-19 0 -29 10 -29 21c0 15 14 32 90 146c9 13 22 21 40 21z" />
    <glyph glyph-name="Ecircumflex" unicode="&#xca;" 
d="M168 732h520c32 0 50 -11 50 -49c0 -88 -27 -119 -63 -119c-67 0 -11 80 -185 80c-98 0 -102 -2 -132 -204h140c54 0 76 44 102 44c18 0 32 -18 32 -34c0 -20 -6 -142 -57 -142c-43 0 -31 44 -97 44h-134c-12 -62 -32 -176 -32 -206c0 -36 12 -58 46 -58h106
c104 0 116 94 169 94c28 0 45 -12 45 -36c0 -27 -9 -54 -18 -77c-18 -47 -22 -69 -70 -69h-529c-40 0 -55 14 -55 35c0 36 52 34 61 85c30 170 85 472 85 507c0 32 -40 37 -40 64c0 21 20 41 56 41zM462 950c17 0 30 -5 51 -32c91 -116 99 -123 99 -138s-10 -26 -23 -26
c-27 0 -79 45 -141 86c-68 -36 -134 -86 -154 -86c-15 0 -28 11 -28 27s9 24 139 139c22 19 37 30 57 30z" />
    <glyph glyph-name="Edieresis" unicode="&#xcb;" 
d="M168 732h520c32 0 50 -11 50 -49c0 -88 -27 -119 -63 -119c-67 0 -11 80 -185 80c-98 0 -102 -2 -132 -204h140c54 0 76 44 102 44c18 0 32 -18 32 -34c0 -20 -6 -142 -57 -142c-43 0 -31 44 -97 44h-134c-12 -62 -32 -176 -32 -206c0 -36 12 -58 46 -58h106
c104 0 116 94 169 94c28 0 45 -12 45 -36c0 -27 -9 -54 -18 -77c-18 -47 -22 -69 -70 -69h-529c-40 0 -55 14 -55 35c0 36 52 34 61 85c30 170 85 472 85 507c0 32 -40 37 -40 64c0 21 20 41 56 41zM222 838c0 60 47 94 102 94c53 0 92 -25 92 -68c0 -60 -47 -94 -102 -94
c-53 0 -92 25 -92 68zM490 838c0 60 47 94 102 94c53 0 92 -25 92 -68c0 -60 -47 -94 -102 -94c-53 0 -92 25 -92 68z" />
    <glyph glyph-name="Egrave" unicode="&#xc8;" 
d="M168 732h520c32 0 50 -11 50 -49c0 -88 -27 -119 -63 -119c-67 0 -11 80 -185 80c-98 0 -102 -2 -132 -204h140c54 0 76 44 102 44c18 0 32 -18 32 -34c0 -20 -6 -142 -57 -142c-43 0 -31 44 -97 44h-134c-12 -62 -32 -176 -32 -206c0 -36 12 -58 46 -58h106
c104 0 116 94 169 94c28 0 45 -12 45 -36c0 -27 -9 -54 -18 -77c-18 -47 -22 -69 -70 -69h-529c-40 0 -55 14 -55 35c0 36 52 34 61 85c30 170 85 472 85 507c0 32 -40 37 -40 64c0 21 20 41 56 41zM402 942h67c21 0 28 -4 39 -38c17 -52 40 -105 40 -127
c0 -13 -10 -23 -25 -23c-21 0 -24 11 -148 135c-6 6 -11 15 -11 24c0 18 14 29 38 29z" />
    <glyph glyph-name="Iacute" unicode="&#xcd;" horiz-adv-x="450" 
d="M176 732h224c40 0 54 -8 54 -32c0 -41 -51 -23 -64 -100c-26 -154 -86 -456 -86 -494c0 -33 40 -39 40 -63c0 -27 -24 -43 -55 -43h-230c-33 0 -47 12 -47 33c0 36 52 27 63 96c14 87 77 459 77 497c0 32 -40 38 -40 64c0 24 18 42 64 42zM344 942h58c27 0 42 -13 42 -28
c0 -23 -11 -27 -165 -145c-10 -8 -22 -15 -36 -15c-19 0 -29 10 -29 21c0 15 14 32 90 146c9 13 22 21 40 21z" />
    <glyph glyph-name="Icircumflex" unicode="&#xce;" horiz-adv-x="450" 
d="M176 732h224c40 0 54 -8 54 -32c0 -41 -51 -23 -64 -100c-26 -154 -86 -456 -86 -494c0 -33 40 -39 40 -63c0 -27 -24 -43 -55 -43h-230c-33 0 -47 12 -47 33c0 36 52 27 63 96c14 87 77 459 77 497c0 32 -40 38 -40 64c0 24 18 42 64 42zM334 950c17 0 30 -5 51 -32
c91 -116 99 -123 99 -138s-10 -26 -23 -26c-27 0 -79 45 -141 86c-68 -36 -134 -86 -154 -86c-15 0 -28 11 -28 27s9 24 139 139c22 19 37 30 57 30z" />
    <glyph glyph-name="Idieresis" unicode="&#xcf;" horiz-adv-x="450" 
d="M176 732h224c40 0 54 -8 54 -32c0 -41 -51 -23 -64 -100c-26 -154 -86 -456 -86 -494c0 -33 40 -39 40 -63c0 -27 -24 -43 -55 -43h-230c-33 0 -47 12 -47 33c0 36 52 27 63 96c14 87 77 459 77 497c0 32 -40 38 -40 64c0 24 18 42 64 42zM94 838c0 60 47 94 102 94
c53 0 92 -25 92 -68c0 -60 -47 -94 -102 -94c-53 0 -92 25 -92 68zM362 838c0 60 47 94 102 94c53 0 92 -25 92 -68c0 -60 -47 -94 -102 -94c-53 0 -92 25 -92 68z" />
    <glyph glyph-name="Igrave" unicode="&#xcc;" horiz-adv-x="450" 
d="M176 732h224c40 0 54 -8 54 -32c0 -41 -51 -23 -64 -100c-26 -154 -86 -456 -86 -494c0 -33 40 -39 40 -63c0 -27 -24 -43 -55 -43h-230c-33 0 -47 12 -47 33c0 36 52 27 63 96c14 87 77 459 77 497c0 32 -40 38 -40 64c0 24 18 42 64 42zM274 942h67c21 0 28 -4 39 -38
c17 -52 40 -105 40 -127c0 -13 -10 -23 -25 -23c-21 0 -24 11 -148 135c-6 6 -11 15 -11 24c0 18 14 29 38 29z" />
    <glyph glyph-name="Ntilde" unicode="&#xd1;" horiz-adv-x="810" 
d="M144 0h-95c-30 0 -43 14 -43 34c0 37 46 29 56 89c1 8 86 469 86 502c0 32 -34 35 -34 65c0 16 18 42 60 42h180c64 0 50 -56 250 -442h2c42 260 50 298 50 333c0 37 -42 38 -42 73c0 20 14 36 54 36h106c32 0 50 -9 50 -30c0 -56 -52 -14 -70 -123
c-91 -548 -80 -579 -158 -579h-68c-50 0 -74 8 -294 526h-2c-58 -350 -68 -394 -68 -419c0 -33 38 -37 38 -64c0 -19 -18 -43 -58 -43zM564 884c47 0 54 40 81 40c17 0 27 -8 27 -30c0 -30 -45 -114 -97 -114c-41 0 -84 36 -120 36c-45 0 -57 -40 -84 -40
c-13 0 -25 10 -25 25c0 38 54 119 99 119s80 -36 119 -36z" />
    <glyph glyph-name="Oacute" unicode="&#xd3;" horiz-adv-x="900" 
d="M42 313c0 246 213 431 460 431c194 0 380 -96 380 -325c0 -246 -213 -431 -460 -431c-194 0 -380 96 -380 325zM288 274c0 -140 60 -198 128 -198c116 0 220 148 220 382c0 140 -60 198 -128 198c-116 0 -220 -148 -220 -382zM562 942h58c27 0 42 -13 42 -28
c0 -23 -11 -27 -165 -145c-10 -8 -22 -15 -36 -15c-19 0 -29 10 -29 21c0 15 14 32 90 146c9 13 22 21 40 21z" />
    <glyph glyph-name="Ocircumflex" unicode="&#xd4;" horiz-adv-x="900" 
d="M42 313c0 246 213 431 460 431c194 0 380 -96 380 -325c0 -246 -213 -431 -460 -431c-194 0 -380 96 -380 325zM288 274c0 -140 60 -198 128 -198c116 0 220 148 220 382c0 140 -60 198 -128 198c-116 0 -220 -148 -220 -382zM552 950c17 0 30 -5 51 -32
c91 -116 99 -123 99 -138s-10 -26 -23 -26c-27 0 -79 45 -141 86c-68 -36 -134 -86 -154 -86c-15 0 -28 11 -28 27s9 24 139 139c22 19 37 30 57 30z" />
    <glyph glyph-name="Odieresis" unicode="&#xd6;" horiz-adv-x="900" 
d="M42 313c0 246 213 431 460 431c194 0 380 -96 380 -325c0 -246 -213 -431 -460 -431c-194 0 -380 96 -380 325zM288 274c0 -140 60 -198 128 -198c116 0 220 148 220 382c0 140 -60 198 -128 198c-116 0 -220 -148 -220 -382zM312 838c0 60 47 94 102 94
c53 0 92 -25 92 -68c0 -60 -47 -94 -102 -94c-53 0 -92 25 -92 68zM580 838c0 60 47 94 102 94c53 0 92 -25 92 -68c0 -60 -47 -94 -102 -94c-53 0 -92 25 -92 68z" />
    <glyph glyph-name="Ograve" unicode="&#xd2;" horiz-adv-x="900" 
d="M42 313c0 246 213 431 460 431c194 0 380 -96 380 -325c0 -246 -213 -431 -460 -431c-194 0 -380 96 -380 325zM288 274c0 -140 60 -198 128 -198c116 0 220 148 220 382c0 140 -60 198 -128 198c-116 0 -220 -148 -220 -382zM492 942h67c21 0 28 -4 39 -38
c17 -52 40 -105 40 -127c0 -13 -10 -23 -25 -23c-21 0 -24 11 -148 135c-6 6 -11 15 -11 24c0 18 14 29 38 29z" />
    <glyph glyph-name="Otilde" unicode="&#xd5;" horiz-adv-x="900" 
d="M42 313c0 246 213 431 460 431c194 0 380 -96 380 -325c0 -246 -213 -431 -460 -431c-194 0 -380 96 -380 325zM288 274c0 -140 60 -198 128 -198c116 0 220 148 220 382c0 140 -60 198 -128 198c-116 0 -220 -148 -220 -382zM598 884c47 0 54 40 81 40
c17 0 27 -8 27 -30c0 -30 -45 -114 -97 -114c-41 0 -84 36 -120 36c-45 0 -57 -40 -84 -40c-13 0 -25 10 -25 25c0 38 54 119 99 119s80 -36 119 -36z" />
    <glyph glyph-name="Scaron" unicode="&#x160;" horiz-adv-x="710" 
d="M-16 161c0 40 29 75 71 75c89 0 45 -160 241 -160c82 0 134 50 134 104c0 130 -366 48 -366 294c0 144 126 270 343 270c115 0 279 -46 279 -94c0 -118 -20 -150 -61 -150c-91 0 0 166 -197 166c-70 0 -118 -40 -118 -89c0 -137 366 -71 366 -299
c0 -170 -188 -290 -366 -290c-152 0 -326 62 -326 173zM400 754c-17 0 -30 5 -51 32c-91 116 -99 123 -99 138s10 26 23 26c27 0 79 -45 141 -86c68 36 134 86 154 86c15 0 28 -11 28 -27s-9 -24 -139 -139c-22 -19 -37 -30 -57 -30z" />
    <glyph glyph-name="Uacute" unicode="&#xda;" horiz-adv-x="820" 
d="M176 732h210c42 0 58 -13 58 -36c0 -39 -47 -30 -59 -80c-15 -64 -77 -285 -77 -412c0 -74 50 -128 124 -128c72 0 141 57 163 171c25 131 41 263 41 363c0 66 -40 51 -40 83c0 25 20 39 57 39h105c44 0 52 -11 52 -35c0 -61 -47 20 -66 -169c-16 -162 -16 -311 -80 -409
c-32 -49 -106 -131 -291 -131c-213 0 -301 71 -301 224c0 118 78 380 78 415c0 45 -38 33 -38 68c0 20 17 37 64 37zM528 942h58c27 0 42 -13 42 -28c0 -23 -11 -27 -165 -145c-10 -8 -22 -15 -36 -15c-19 0 -29 10 -29 21c0 15 14 32 90 146c9 13 22 21 40 21z" />
    <glyph glyph-name="Ucircumflex" unicode="&#xdb;" horiz-adv-x="820" 
d="M176 732h210c42 0 58 -13 58 -36c0 -39 -47 -30 -59 -80c-15 -64 -77 -285 -77 -412c0 -74 50 -128 124 -128c72 0 141 57 163 171c25 131 41 263 41 363c0 66 -40 51 -40 83c0 25 20 39 57 39h105c44 0 52 -11 52 -35c0 -61 -47 20 -66 -169c-16 -162 -16 -311 -80 -409
c-32 -49 -106 -131 -291 -131c-213 0 -301 71 -301 224c0 118 78 380 78 415c0 45 -38 33 -38 68c0 20 17 37 64 37zM518 950c17 0 30 -5 51 -32c91 -116 99 -123 99 -138s-10 -26 -23 -26c-27 0 -79 45 -141 86c-68 -36 -134 -86 -154 -86c-15 0 -28 11 -28 27
s9 24 139 139c22 19 37 30 57 30z" />
    <glyph glyph-name="Udieresis" unicode="&#xdc;" horiz-adv-x="820" 
d="M176 732h210c42 0 58 -13 58 -36c0 -39 -47 -30 -59 -80c-15 -64 -77 -285 -77 -412c0 -74 50 -128 124 -128c72 0 141 57 163 171c25 131 41 263 41 363c0 66 -40 51 -40 83c0 25 20 39 57 39h105c44 0 52 -11 52 -35c0 -61 -47 20 -66 -169c-16 -162 -16 -311 -80 -409
c-32 -49 -106 -131 -291 -131c-213 0 -301 71 -301 224c0 118 78 380 78 415c0 45 -38 33 -38 68c0 20 17 37 64 37zM278 838c0 60 47 94 102 94c53 0 92 -25 92 -68c0 -60 -47 -94 -102 -94c-53 0 -92 25 -92 68zM546 838c0 60 47 94 102 94c53 0 92 -25 92 -68
c0 -60 -47 -94 -102 -94c-53 0 -92 25 -92 68z" />
    <glyph glyph-name="Ugrave" unicode="&#xd9;" horiz-adv-x="820" 
d="M176 732h210c42 0 58 -13 58 -36c0 -39 -47 -30 -59 -80c-15 -64 -77 -285 -77 -412c0 -74 50 -128 124 -128c72 0 141 57 163 171c25 131 41 263 41 363c0 66 -40 51 -40 83c0 25 20 39 57 39h105c44 0 52 -11 52 -35c0 -61 -47 20 -66 -169c-16 -162 -16 -311 -80 -409
c-32 -49 -106 -131 -291 -131c-213 0 -301 71 -301 224c0 118 78 380 78 415c0 45 -38 33 -38 68c0 20 17 37 64 37zM458 942h67c21 0 28 -4 39 -38c17 -52 40 -105 40 -127c0 -13 -10 -23 -25 -23c-21 0 -24 11 -148 135c-6 6 -11 15 -11 24c0 18 14 29 38 29z" />
    <glyph glyph-name="Yacute" unicode="&#xdd;" horiz-adv-x="740" 
d="M96 732h246c55 0 70 -13 70 -35c0 -40 -56 -29 -56 -76c0 -25 8 -89 96 -235c160 198 174 230 174 250c0 29 -36 27 -36 56c0 28 24 40 55 40h117c37 0 54 -14 54 -35c0 -31 -26 -24 -70 -77l-258 -317c-13 -87 -30 -152 -30 -190c0 -47 68 -31 68 -72
c0 -28 -22 -41 -56 -41h-290c-36 0 -52 13 -52 35c0 55 83 24 94 89l28 166c-60 89 -107 187 -149 311c-25 75 -65 51 -65 91c0 23 17 40 60 40zM447 942h58c27 0 42 -13 42 -28c0 -23 -11 -27 -165 -145c-10 -8 -22 -15 -36 -15c-19 0 -29 10 -29 21c0 15 14 32 90 146
c9 13 22 21 40 21z" />
    <glyph glyph-name="Ydieresis" unicode="&#x178;" horiz-adv-x="740" 
d="M96 732h246c55 0 70 -13 70 -35c0 -40 -56 -29 -56 -76c0 -25 8 -89 96 -235c160 198 174 230 174 250c0 29 -36 27 -36 56c0 28 24 40 55 40h117c37 0 54 -14 54 -35c0 -31 -26 -24 -70 -77l-258 -317c-13 -87 -30 -152 -30 -190c0 -47 68 -31 68 -72
c0 -28 -22 -41 -56 -41h-290c-36 0 -52 13 -52 35c0 55 83 24 94 89l28 166c-60 89 -107 187 -149 311c-25 75 -65 51 -65 91c0 23 17 40 60 40zM197 838c0 60 47 94 102 94c53 0 92 -25 92 -68c0 -60 -47 -94 -102 -94c-53 0 -92 25 -92 68zM465 838c0 60 47 94 102 94
c53 0 92 -25 92 -68c0 -60 -47 -94 -102 -94c-53 0 -92 25 -92 68z" />
    <glyph glyph-name="Zcaron" unicode="&#x17d;" horiz-adv-x="640" 
d="M411 644h-77c-187 0 -147 -92 -219 -92c-25 0 -39 12 -39 32c0 30 8 148 80 148h516c27 0 40 -9 40 -38c0 -115 -468 -570 -468 -598c0 -6 6 -8 13 -8h139c106 0 129 94 186 94c24 0 38 -11 38 -31c0 -15 -14 -47 -29 -97c-9 -31 -27 -54 -78 -54h-501
c-36 0 -54 21 -54 54c0 109 470 557 470 584c0 5 -6 6 -17 6zM365 754c-17 0 -30 5 -51 32c-91 116 -99 123 -99 138s10 26 23 26c27 0 79 -45 141 -86c68 36 134 86 154 86c15 0 28 -11 28 -27s-9 -24 -139 -139c-22 -19 -37 -30 -57 -30z" />
    <glyph glyph-name="aacute" unicode="&#xe1;" horiz-adv-x="700" 
d="M42 173c0 167 151 315 318 315c51 0 97 -19 125 -62c30 21 89 62 128 62c17 0 39 -12 39 -31c0 -15 -62 -205 -62 -305c0 -57 72 -25 72 -69c0 -35 -179 -95 -212 -95c-32 0 -48 26 -48 56c0 22 4 44 8 66l-2 2c-39 -71 -108 -124 -191 -124c-107 0 -175 81 -175 185z
M256 144c0 -44 18 -62 38 -62c74 0 126 196 126 268c0 44 -18 60 -38 60c-74 0 -126 -194 -126 -266zM436 718h58c27 0 42 -13 42 -28c0 -23 -11 -27 -165 -145c-10 -8 -22 -15 -36 -15c-19 0 -29 10 -29 21c0 15 14 32 90 146c9 13 22 21 40 21z" />
    <glyph glyph-name="acircumflex" unicode="&#xe2;" horiz-adv-x="700" 
d="M42 173c0 167 151 315 318 315c51 0 97 -19 125 -62c30 21 89 62 128 62c17 0 39 -12 39 -31c0 -15 -62 -205 -62 -305c0 -57 72 -25 72 -69c0 -35 -179 -95 -212 -95c-32 0 -48 26 -48 56c0 22 4 44 8 66l-2 2c-39 -71 -108 -124 -191 -124c-107 0 -175 81 -175 185z
M256 144c0 -44 18 -62 38 -62c74 0 126 196 126 268c0 44 -18 60 -38 60c-74 0 -126 -194 -126 -266zM426 726c17 0 30 -5 51 -32c91 -116 99 -123 99 -138s-10 -26 -23 -26c-27 0 -79 45 -141 86c-68 -36 -134 -86 -154 -86c-15 0 -28 11 -28 27s9 24 139 139
c22 19 37 30 57 30z" />
    <glyph glyph-name="adieresis" unicode="&#xe4;" horiz-adv-x="700" 
d="M42 173c0 167 151 315 318 315c51 0 97 -19 125 -62c30 21 89 62 128 62c17 0 39 -12 39 -31c0 -15 -62 -205 -62 -305c0 -57 72 -25 72 -69c0 -35 -179 -95 -212 -95c-32 0 -48 26 -48 56c0 22 4 44 8 66l-2 2c-39 -71 -108 -124 -191 -124c-107 0 -175 81 -175 185z
M256 144c0 -44 18 -62 38 -62c74 0 126 196 126 268c0 44 -18 60 -38 60c-74 0 -126 -194 -126 -266zM186 614c0 60 47 94 102 94c53 0 92 -25 92 -68c0 -60 -47 -94 -102 -94c-53 0 -92 25 -92 68zM454 614c0 60 47 94 102 94c53 0 92 -25 92 -68c0 -60 -47 -94 -102 -94
c-53 0 -92 25 -92 68z" />
    <glyph glyph-name="agrave" unicode="&#xe0;" horiz-adv-x="700" 
d="M42 173c0 167 151 315 318 315c51 0 97 -19 125 -62c30 21 89 62 128 62c17 0 39 -12 39 -31c0 -15 -62 -205 -62 -305c0 -57 72 -25 72 -69c0 -35 -179 -95 -212 -95c-32 0 -48 26 -48 56c0 22 4 44 8 66l-2 2c-39 -71 -108 -124 -191 -124c-107 0 -175 81 -175 185z
M256 144c0 -44 18 -62 38 -62c74 0 126 196 126 268c0 44 -18 60 -38 60c-74 0 -126 -194 -126 -266zM366 718h67c21 0 28 -4 39 -38c17 -52 40 -105 40 -127c0 -13 -10 -23 -25 -23c-21 0 -24 11 -148 135c-6 6 -11 15 -11 24c0 18 14 29 38 29z" />
    <glyph glyph-name="aring" unicode="&#xe5;" horiz-adv-x="700" 
d="M42 173c0 167 151 315 318 315c51 0 97 -19 125 -62c30 21 89 62 128 62c17 0 39 -12 39 -31c0 -15 -62 -205 -62 -305c0 -57 72 -25 72 -69c0 -35 -179 -95 -212 -95c-32 0 -48 26 -48 56c0 22 4 44 8 66l-2 2c-39 -71 -108 -124 -191 -124c-107 0 -175 81 -175 185z
M256 144c0 -44 18 -62 38 -62c74 0 126 196 126 268c0 44 -18 60 -38 60c-74 0 -126 -194 -126 -266zM314 634c0 60 48 110 110 110s110 -50 110 -110s-48 -110 -110 -110s-110 50 -110 110zM380 634c0 -24 19 -44 44 -44s44 20 44 44s-19 44 -44 44s-44 -20 -44 -44z" />
    <glyph glyph-name="atilde" unicode="&#xe3;" horiz-adv-x="700" 
d="M42 173c0 167 151 315 318 315c51 0 97 -19 125 -62c30 21 89 62 128 62c17 0 39 -12 39 -31c0 -15 -62 -205 -62 -305c0 -57 72 -25 72 -69c0 -35 -179 -95 -212 -95c-32 0 -48 26 -48 56c0 22 4 44 8 66l-2 2c-39 -71 -108 -124 -191 -124c-107 0 -175 81 -175 185z
M256 144c0 -44 18 -62 38 -62c74 0 126 196 126 268c0 44 -18 60 -38 60c-74 0 -126 -194 -126 -266zM472 660c47 0 54 40 81 40c17 0 27 -8 27 -30c0 -30 -45 -114 -97 -114c-41 0 -84 36 -120 36c-45 0 -57 -40 -84 -40c-13 0 -25 10 -25 25c0 38 54 119 99 119
s80 -36 119 -36z" />
    <glyph glyph-name="ccedilla" unicode="&#xe7;" horiz-adv-x="580" 
d="M368 402c-52 0 -116 -96 -116 -213c0 -71 38 -107 81 -107c90 0 136 78 172 78c17 0 33 -12 33 -31c0 -67 -144 -141 -268 -141c-132 0 -238 75 -238 211c0 169 164 289 329 289c107 0 203 -52 203 -123c0 -37 -32 -67 -82 -67c-108 0 -47 104 -114 104zM308 0l-8 -34
c17 4 35 6 53 6c47 0 105 -27 105 -96c0 -66 -78 -98 -176 -98c-96 0 -170 22 -170 61c0 12 6 35 28 35c25 0 71 -34 156 -34c52 0 70 18 70 37c0 21 -18 33 -42 33c-27 0 -55 -14 -76 -14c-9 0 -20 7 -20 17c0 8 18 75 22 87h58z" />
    <glyph glyph-name="eacute" unicode="&#xe9;" horiz-adv-x="620" 
d="M32 196c0 158 166 292 360 292c122 0 210 -56 210 -118c0 -148 -266 -180 -350 -194c2 -64 42 -94 105 -94c82 0 154 70 187 70c17 0 34 -16 34 -33c0 -47 -130 -131 -289 -131c-141 0 -257 72 -257 208zM252 250c61 7 164 39 164 115c0 27 -20 45 -46 45
c-69 0 -109 -104 -118 -160zM419 718h58c27 0 42 -13 42 -28c0 -23 -11 -27 -165 -145c-10 -8 -22 -15 -36 -15c-19 0 -29 10 -29 21c0 15 14 32 90 146c9 13 22 21 40 21z" />
    <glyph glyph-name="ecircumflex" unicode="&#xea;" horiz-adv-x="620" 
d="M32 196c0 158 166 292 360 292c122 0 210 -56 210 -118c0 -148 -266 -180 -350 -194c2 -64 42 -94 105 -94c82 0 154 70 187 70c17 0 34 -16 34 -33c0 -47 -130 -131 -289 -131c-141 0 -257 72 -257 208zM252 250c61 7 164 39 164 115c0 27 -20 45 -46 45
c-69 0 -109 -104 -118 -160zM409 726c17 0 30 -5 51 -32c91 -116 99 -123 99 -138s-10 -26 -23 -26c-27 0 -79 45 -141 86c-68 -36 -134 -86 -154 -86c-15 0 -28 11 -28 27s9 24 139 139c22 19 37 30 57 30z" />
    <glyph glyph-name="edieresis" unicode="&#xeb;" horiz-adv-x="620" 
d="M32 196c0 158 166 292 360 292c122 0 210 -56 210 -118c0 -148 -266 -180 -350 -194c2 -64 42 -94 105 -94c82 0 154 70 187 70c17 0 34 -16 34 -33c0 -47 -130 -131 -289 -131c-141 0 -257 72 -257 208zM252 250c61 7 164 39 164 115c0 27 -20 45 -46 45
c-69 0 -109 -104 -118 -160zM169 614c0 60 47 94 102 94c53 0 92 -25 92 -68c0 -60 -47 -94 -102 -94c-53 0 -92 25 -92 68zM437 614c0 60 47 94 102 94c53 0 92 -25 92 -68c0 -60 -47 -94 -102 -94c-53 0 -92 25 -92 68z" />
    <glyph glyph-name="egrave" unicode="&#xe8;" horiz-adv-x="620" 
d="M32 196c0 158 166 292 360 292c122 0 210 -56 210 -118c0 -148 -266 -180 -350 -194c2 -64 42 -94 105 -94c82 0 154 70 187 70c17 0 34 -16 34 -33c0 -47 -130 -131 -289 -131c-141 0 -257 72 -257 208zM252 250c61 7 164 39 164 115c0 27 -20 45 -46 45
c-69 0 -109 -104 -118 -160zM349 718h67c21 0 28 -4 39 -38c17 -52 40 -105 40 -127c0 -13 -10 -23 -25 -23c-21 0 -24 11 -148 135c-6 6 -11 15 -11 24c0 18 14 29 38 29z" />
    <glyph glyph-name="iacute" unicode="&#xed;" horiz-adv-x="370" 
d="M326 432c0 -34 -54 -258 -54 -285c0 -40 52 -22 52 -71c0 -32 -196 -88 -233 -88c-29 0 -47 12 -47 49c0 46 54 265 54 281c0 41 -52 26 -52 60c0 56 192 98 238 98c29 0 42 -21 42 -44zM253 718h58c27 0 42 -13 42 -28c0 -23 -11 -27 -165 -145c-10 -8 -22 -15 -36 -15
c-19 0 -29 10 -29 21c0 15 14 32 90 146c9 13 22 21 40 21z" />
    <glyph glyph-name="icircumflex" unicode="&#xee;" horiz-adv-x="370" 
d="M326 432c0 -34 -54 -258 -54 -285c0 -40 52 -22 52 -71c0 -32 -196 -88 -233 -88c-29 0 -47 12 -47 49c0 46 54 265 54 281c0 41 -52 26 -52 60c0 56 192 98 238 98c29 0 42 -21 42 -44zM243 726c17 0 30 -5 51 -32c91 -116 99 -123 99 -138s-10 -26 -23 -26
c-27 0 -79 45 -141 86c-68 -36 -134 -86 -154 -86c-15 0 -28 11 -28 27s9 24 139 139c22 19 37 30 57 30z" />
    <glyph glyph-name="idieresis" unicode="&#xef;" horiz-adv-x="370" 
d="M326 432c0 -34 -54 -258 -54 -285c0 -40 52 -22 52 -71c0 -32 -196 -88 -233 -88c-29 0 -47 12 -47 49c0 46 54 265 54 281c0 41 -52 26 -52 60c0 56 192 98 238 98c29 0 42 -21 42 -44zM3 614c0 60 47 94 102 94c53 0 92 -25 92 -68c0 -60 -47 -94 -102 -94
c-53 0 -92 25 -92 68zM271 614c0 60 47 94 102 94c53 0 92 -25 92 -68c0 -60 -47 -94 -102 -94c-53 0 -92 25 -92 68z" />
    <glyph glyph-name="igrave" unicode="&#xec;" horiz-adv-x="370" 
d="M326 432c0 -34 -54 -258 -54 -285c0 -40 52 -22 52 -71c0 -32 -196 -88 -233 -88c-29 0 -47 12 -47 49c0 46 54 265 54 281c0 41 -52 26 -52 60c0 56 192 98 238 98c29 0 42 -21 42 -44zM183 718h67c21 0 28 -4 39 -38c17 -52 40 -105 40 -127c0 -13 -10 -23 -25 -23
c-21 0 -24 11 -148 135c-6 6 -11 15 -11 24c0 18 14 29 38 29z" />
    <glyph glyph-name="ntilde" unicode="&#xf1;" 
d="M210 0h-130c-26 0 -36 4 -36 20c0 28 54 246 54 293c0 55 -54 27 -54 69c0 50 205 106 223 106c37 0 43 -40 43 -69c0 -25 -4 -51 -10 -75l2 -2c43 77 104 146 199 146c68 0 143 -41 143 -117c0 -43 -44 -174 -44 -215c0 -49 74 -26 74 -64c0 -50 -198 -104 -256 -104
c-24 0 -42 18 -42 59c0 42 54 253 54 285c0 19 -11 32 -31 32c-45 0 -86 -55 -136 -302c-10 -49 -19 -62 -53 -62zM473 660c47 0 54 40 81 40c17 0 27 -8 27 -30c0 -30 -45 -114 -97 -114c-41 0 -84 36 -120 36c-45 0 -57 -40 -84 -40c-13 0 -25 10 -25 25
c0 38 54 119 99 119s80 -36 119 -36z" />
    <glyph glyph-name="oacute" unicode="&#xf3;" horiz-adv-x="680" 
d="M32 210c0 174 168 278 340 278c162 0 282 -90 282 -222c0 -174 -168 -278 -340 -278c-162 0 -282 90 -282 222zM252 170c0 -68 22 -96 66 -96c76 0 116 104 116 232c0 68 -22 96 -66 96c-76 0 -116 -104 -116 -232zM417 718h58c27 0 42 -13 42 -28
c0 -23 -11 -27 -165 -145c-10 -8 -22 -15 -36 -15c-19 0 -29 10 -29 21c0 15 14 32 90 146c9 13 22 21 40 21z" />
    <glyph glyph-name="ocircumflex" unicode="&#xf4;" horiz-adv-x="680" 
d="M32 210c0 174 168 278 340 278c162 0 282 -90 282 -222c0 -174 -168 -278 -340 -278c-162 0 -282 90 -282 222zM252 170c0 -68 22 -96 66 -96c76 0 116 104 116 232c0 68 -22 96 -66 96c-76 0 -116 -104 -116 -232zM407 726c17 0 30 -5 51 -32c91 -116 99 -123 99 -138
s-10 -26 -23 -26c-27 0 -79 45 -141 86c-68 -36 -134 -86 -154 -86c-15 0 -28 11 -28 27s9 24 139 139c22 19 37 30 57 30z" />
    <glyph glyph-name="odieresis" unicode="&#xf6;" horiz-adv-x="680" 
d="M32 210c0 174 168 278 340 278c162 0 282 -90 282 -222c0 -174 -168 -278 -340 -278c-162 0 -282 90 -282 222zM252 170c0 -68 22 -96 66 -96c76 0 116 104 116 232c0 68 -22 96 -66 96c-76 0 -116 -104 -116 -232zM167 614c0 60 47 94 102 94c53 0 92 -25 92 -68
c0 -60 -47 -94 -102 -94c-53 0 -92 25 -92 68zM435 614c0 60 47 94 102 94c53 0 92 -25 92 -68c0 -60 -47 -94 -102 -94c-53 0 -92 25 -92 68z" />
    <glyph glyph-name="ograve" unicode="&#xf2;" horiz-adv-x="680" 
d="M32 210c0 174 168 278 340 278c162 0 282 -90 282 -222c0 -174 -168 -278 -340 -278c-162 0 -282 90 -282 222zM252 170c0 -68 22 -96 66 -96c76 0 116 104 116 232c0 68 -22 96 -66 96c-76 0 -116 -104 -116 -232zM347 718h67c21 0 28 -4 39 -38c17 -52 40 -105 40 -127
c0 -13 -10 -23 -25 -23c-21 0 -24 11 -148 135c-6 6 -11 15 -11 24c0 18 14 29 38 29z" />
    <glyph glyph-name="otilde" unicode="&#xf5;" horiz-adv-x="680" 
d="M32 210c0 174 168 278 340 278c162 0 282 -90 282 -222c0 -174 -168 -278 -340 -278c-162 0 -282 90 -282 222zM252 170c0 -68 22 -96 66 -96c76 0 116 104 116 232c0 68 -22 96 -66 96c-76 0 -116 -104 -116 -232zM453 660c47 0 54 40 81 40c17 0 27 -8 27 -30
c0 -30 -45 -114 -97 -114c-41 0 -84 36 -120 36c-45 0 -57 -40 -84 -40c-13 0 -25 10 -25 25c0 38 54 119 99 119s80 -36 119 -36z" />
    <glyph glyph-name="scaron" unicode="&#x161;" horiz-adv-x="570" 
d="M8 107c0 38 31 70 69 70c95 0 21 -111 142 -111c57 0 79 24 79 49c0 85 -234 53 -234 196c0 95 102 177 262 177c112 0 212 -40 212 -109c0 -36 -28 -60 -63 -60c-98 0 -37 91 -136 91c-37 0 -61 -16 -61 -39c0 -81 248 -49 248 -199c0 -112 -142 -184 -280 -184
c-120 0 -238 46 -238 119zM330 530c-17 0 -30 5 -51 32c-91 116 -99 123 -99 138s10 26 23 26c27 0 79 -45 141 -86c68 36 134 86 154 86c15 0 28 -11 28 -27s-9 -24 -139 -139c-22 -19 -37 -30 -57 -30z" />
    <glyph glyph-name="uacute" unicode="&#xfa;" horiz-adv-x="730" 
d="M486 476h156c16 0 24 -6 24 -17c0 -26 -58 -241 -58 -298c0 -52 74 -28 74 -70c0 -43 -206 -103 -246 -103c-28 0 -38 16 -38 67c0 28 5 57 6 85l-2 2c-35 -85 -102 -154 -200 -154c-76 0 -136 54 -136 118c0 38 40 190 40 212c0 45 -58 34 -58 66c0 56 216 104 242 104
s42 -22 42 -50c0 -56 -52 -238 -52 -295c0 -17 8 -31 27 -31c51 0 103 106 135 286c12 68 18 78 44 78zM437 718h58c27 0 42 -13 42 -28c0 -23 -11 -27 -165 -145c-10 -8 -22 -15 -36 -15c-19 0 -29 10 -29 21c0 15 14 32 90 146c9 13 22 21 40 21z" />
    <glyph glyph-name="ucircumflex" unicode="&#xfb;" horiz-adv-x="730" 
d="M486 476h156c16 0 24 -6 24 -17c0 -26 -58 -241 -58 -298c0 -52 74 -28 74 -70c0 -43 -206 -103 -246 -103c-28 0 -38 16 -38 67c0 28 5 57 6 85l-2 2c-35 -85 -102 -154 -200 -154c-76 0 -136 54 -136 118c0 38 40 190 40 212c0 45 -58 34 -58 66c0 56 216 104 242 104
s42 -22 42 -50c0 -56 -52 -238 -52 -295c0 -17 8 -31 27 -31c51 0 103 106 135 286c12 68 18 78 44 78zM427 726c17 0 30 -5 51 -32c91 -116 99 -123 99 -138s-10 -26 -23 -26c-27 0 -79 45 -141 86c-68 -36 -134 -86 -154 -86c-15 0 -28 11 -28 27s9 24 139 139
c22 19 37 30 57 30z" />
    <glyph glyph-name="udieresis" unicode="&#xfc;" horiz-adv-x="730" 
d="M486 476h156c16 0 24 -6 24 -17c0 -26 -58 -241 -58 -298c0 -52 74 -28 74 -70c0 -43 -206 -103 -246 -103c-28 0 -38 16 -38 67c0 28 5 57 6 85l-2 2c-35 -85 -102 -154 -200 -154c-76 0 -136 54 -136 118c0 38 40 190 40 212c0 45 -58 34 -58 66c0 56 216 104 242 104
s42 -22 42 -50c0 -56 -52 -238 -52 -295c0 -17 8 -31 27 -31c51 0 103 106 135 286c12 68 18 78 44 78zM187 614c0 60 47 94 102 94c53 0 92 -25 92 -68c0 -60 -47 -94 -102 -94c-53 0 -92 25 -92 68zM455 614c0 60 47 94 102 94c53 0 92 -25 92 -68c0 -60 -47 -94 -102 -94
c-53 0 -92 25 -92 68z" />
    <glyph glyph-name="ugrave" unicode="&#xf9;" horiz-adv-x="730" 
d="M486 476h156c16 0 24 -6 24 -17c0 -26 -58 -241 -58 -298c0 -52 74 -28 74 -70c0 -43 -206 -103 -246 -103c-28 0 -38 16 -38 67c0 28 5 57 6 85l-2 2c-35 -85 -102 -154 -200 -154c-76 0 -136 54 -136 118c0 38 40 190 40 212c0 45 -58 34 -58 66c0 56 216 104 242 104
s42 -22 42 -50c0 -56 -52 -238 -52 -295c0 -17 8 -31 27 -31c51 0 103 106 135 286c12 68 18 78 44 78zM367 718h67c21 0 28 -4 39 -38c17 -52 40 -105 40 -127c0 -13 -10 -23 -25 -23c-21 0 -24 11 -148 135c-6 6 -11 15 -11 24c0 18 14 29 38 29z" />
    <glyph glyph-name="yacute" unicode="&#xfd;" horiz-adv-x="590" 
d="M74 164l-4 174c0 48 -58 18 -58 72c0 48 208 78 220 78c28 0 42 -12 42 -36c0 -34 -4 -76 -4 -120c0 -186 22 -240 60 -240c59 0 122 148 122 199c0 47 -54 51 -54 113c0 48 36 84 84 84c42 0 78 -34 78 -110c0 -182 -256 -588 -455 -588c-65 0 -97 28 -97 69
c0 39 34 65 70 65c38 0 56 -30 78 -30c49 0 136 92 158 134l-2 2c-27 -29 -53 -42 -96 -42c-84 0 -140 68 -142 176zM372 718h58c27 0 42 -13 42 -28c0 -23 -11 -27 -165 -145c-10 -8 -22 -15 -36 -15c-19 0 -29 10 -29 21c0 15 14 32 90 146c9 13 22 21 40 21z" />
    <glyph glyph-name="ydieresis" unicode="&#xff;" horiz-adv-x="590" 
d="M74 164l-4 174c0 48 -58 18 -58 72c0 48 208 78 220 78c28 0 42 -12 42 -36c0 -34 -4 -76 -4 -120c0 -186 22 -240 60 -240c59 0 122 148 122 199c0 47 -54 51 -54 113c0 48 36 84 84 84c42 0 78 -34 78 -110c0 -182 -256 -588 -455 -588c-65 0 -97 28 -97 69
c0 39 34 65 70 65c38 0 56 -30 78 -30c49 0 136 92 158 134l-2 2c-27 -29 -53 -42 -96 -42c-84 0 -140 68 -142 176zM122 614c0 60 47 94 102 94c53 0 92 -25 92 -68c0 -60 -47 -94 -102 -94c-53 0 -92 25 -92 68zM390 614c0 60 47 94 102 94c53 0 92 -25 92 -68
c0 -60 -47 -94 -102 -94c-53 0 -92 25 -92 68z" />
    <glyph glyph-name="zcaron" unicode="&#x17e;" horiz-adv-x="520" 
d="M342 0h-308c-34 0 -46 14 -46 37c0 31 36 67 264 361h-48c-46 0 -22 -93 -102 -93c-28 0 -52 23 -52 53c0 72 75 118 132 118h290c28 0 44 -10 44 -35c0 -37 -30 -51 -274 -363h74c50 0 32 98 112 98c26 0 54 -20 54 -56c0 -64 -66 -120 -140 -120zM305 530
c-17 0 -30 5 -51 32c-91 116 -99 123 -99 138s10 26 23 26c27 0 79 -45 141 -86c68 36 134 86 154 86c15 0 28 -11 28 -27s-9 -24 -139 -139c-22 -19 -37 -30 -57 -30z" />
    </font>
</defs>
</svg>
