<?xml version="1.0" standalone="no"?>
<!DOCTYPE svg PUBLIC "-//W3C//DTD SVG 1.1//EN" "http://www.w3.org/Graphics/SVG/1.1/DTD/svg11.dtd" >
<svg xmlns="http://www.w3.org/2000/svg" xmlns:xlink="http://www.w3.org/1999/xlink" version="1.1">
<metadata>
Created by FontForge 20170812 at Tue May  8 13:07:44 2007
 By www-data
Copyright (c) 1989, 1990 Adobe Systems Incorporated.  All Rights Reserved.Souvenir is a registered trademark of International Typeface Corporation.
</metadata>
<defs>
<font id="Souvenir-Bold" horiz-adv-x="720" >
  <font-face 
    font-family="ITC Souvenir"
    font-weight="700"
    font-stretch="normal"
    units-per-em="1000"
    panose-1="0 0 0 0 0 0 0 0 0 0"
    ascent="800"
    descent="-200"
    x-height="486"
    cap-height="732"
    bbox="-167 -252 1314 1001"
    underline-thickness="50"
    underline-position="-100"
    stemv="220"
    unicode-range="U+0020-FB02"
  />
<missing-glyph horiz-adv-x="360" 
 />
    <glyph glyph-name=".notdef" horiz-adv-x="360" 
 />
    <glyph glyph-name="space" unicode=" " horiz-adv-x="360" 
 />
    <glyph glyph-name="exclam" unicode="!" horiz-adv-x="390" 
d="M195 -16c-80 0 -122 48 -122 91s42 91 122 91s122 -48 122 -91s-42 -91 -122 -91zM334 659c0 -57 -38 -192 -75 -400c-7 -41 -21 -59 -64 -59s-57 18 -64 59c-37 208 -75 343 -75 400c0 61 34 89 139 89s139 -28 139 -89z" />
    <glyph glyph-name="quotedbl" unicode="&#x22;" horiz-adv-x="333" 
d="M74 748c40 0 58 -21 58 -69c0 -36 -6 -91 -19 -216c-3 -28 -8 -45 -35 -45c-35 0 -40 17 -43 45c-13 125 -19 180 -19 216c0 48 18 69 58 69zM259 748c40 0 58 -21 58 -69c0 -36 -6 -91 -19 -216c-3 -28 -8 -45 -35 -45c-35 0 -40 17 -43 45c-13 125 -19 180 -19 216
c0 48 18 69 58 69z" />
    <glyph glyph-name="numbersign" unicode="#" 
d="M592 303l-4 -94h-93l-30 -209h-105l28 209h-92l-29 -209h-107l30 209h-92l4 94h100l18 126h-92l4 94h100l30 209h106l-28 -209h92l29 209h106l-29 -209h84l-4 -94h-92l-18 -126h84zM420 429h-93l-18 -126h93z" />
    <glyph glyph-name="dollar" unicode="$" 
d="M315 714v47c0 38 14 56 48 56s48 -18 48 -56v-47c67 -2 202 -39 202 -133c0 -40 -39 -57 -74 -57c-117 0 -13 124 -161 124c-82 0 -109 -36 -109 -83c0 -159 377 -80 377 -326c0 -138 -129 -200 -235 -207v-48c0 -38 -14 -56 -48 -56s-48 18 -48 56v48
c-88 4 -242 47 -242 162c0 28 27 52 70 52c138 0 17 -148 218 -148c59 0 109 34 109 92c0 155 -377 80 -377 327c0 132 125 196 222 197z" />
    <glyph glyph-name="percent" unicode="%" horiz-adv-x="890" 
d="M19 555c0 112 85 193 195 193s195 -81 195 -193s-85 -193 -195 -193s-195 81 -195 193zM214 404c34 0 47 45 47 151s-13 151 -47 151s-47 -45 -47 -151s13 -151 47 -151zM481 177c0 112 85 193 195 193s195 -81 195 -193s-85 -193 -195 -193s-195 81 -195 193zM676 26
c34 0 47 45 47 151s-13 151 -47 151s-47 -45 -47 -151s13 -151 47 -151zM128 38l530 666c20 25 30 44 84 44c35 0 41 -10 41 -17c0 -11 -9 -22 -19 -34l-539 -685c-21 -26 -42 -28 -68 -28c-40 0 -51 4 -51 18c0 10 9 20 22 36z" />
    <glyph glyph-name="ampersand" unicode="&#x26;" horiz-adv-x="860" 
d="M457 407l148 -184c24 25 50 57 50 95c0 44 -59 35 -59 75c0 19 14 32 53 32h162c27 0 43 -13 43 -36c0 -40 -35 -22 -76 -78l-114 -154c29 -38 75 -61 121 -61c22 0 39 9 55 9s30 -15 30 -32c0 -33 -64 -89 -189 -89c-66 0 -124 25 -179 60c-63 -41 -137 -60 -212 -60
c-140 0 -276 62 -276 198c0 110 79 176 173 214c-36 47 -59 104 -59 163c0 113 114 189 266 189c138 0 237 -54 237 -158c0 -96 -90 -158 -174 -183zM208 212c0 -76 52 -128 128 -128c34 0 59 9 89 24c-67 63 -126 134 -176 211c-27 -29 -41 -69 -41 -107zM397 662
c-37 0 -57 -32 -57 -66c0 -42 30 -75 53 -108c37 22 68 53 68 98c0 37 -23 76 -64 76z" />
    <glyph glyph-name="quoteright" unicode="&#x2019;" horiz-adv-x="340" 
d="M166 748c57 0 114 -35 114 -98c0 -92 -120 -182 -157 -182c-12 0 -32 10 -32 23c0 9 54 51 72 101c-9 -2 -18 -4 -27 -4c-42 0 -76 28 -76 71c0 55 57 89 106 89z" />
    <glyph glyph-name="parenleft" unicode="(" horiz-adv-x="390" 
d="M44 264c0 187 151 484 291 484c22 0 39 -15 39 -38c0 -44 -116 -208 -116 -431c0 -234 109 -446 109 -476c0 -25 -26 -39 -49 -39c-141 0 -274 326 -274 500z" />
    <glyph glyph-name="parenright" unicode=")" horiz-adv-x="390" 
d="M346 248c0 -187 -151 -484 -291 -484c-22 0 -39 15 -39 38c0 44 116 208 116 431c0 234 -109 446 -109 476c0 25 26 39 49 39c141 0 274 -326 274 -500z" />
    <glyph glyph-name="asterisk" unicode="*" horiz-adv-x="420" 
d="M210 748c22 0 40 -23 40 -46c0 -39 -31 -88 -31 -108c0 -4 1 -9 6 -9c21 0 56 98 108 98c25 0 42 -19 42 -44c0 -35 -35 -48 -71 -55c-35 -7 -71 -8 -71 -20c0 -13 37 -12 74 -17s74 -16 74 -54c0 -24 -20 -42 -43 -42c-45 0 -94 94 -110 94c-5 0 -9 -5 -9 -9
c0 -25 39 -79 39 -119c0 -26 -19 -45 -48 -45c-23 0 -40 24 -40 49c0 34 33 96 33 114c0 5 -4 9 -9 9c-21 0 -59 -101 -105 -101c-23 0 -44 19 -44 42c0 36 35 49 70 58c34 9 69 7 69 19c0 16 -36 13 -72 18c-37 5 -73 15 -73 53c0 24 19 41 43 41c46 0 89 -91 111 -91
c5 0 10 3 10 8c0 21 -39 76 -39 111c0 26 16 46 46 46z" />
    <glyph glyph-name="plus" unicode="+" horiz-adv-x="600" 
d="M222 321v165h156v-165h165v-156h-165v-165h-156v165h-165v156h165z" />
    <glyph glyph-name="comma" unicode="," horiz-adv-x="360" 
d="M177 4c-10 -2 -20 -4 -31 -4c-45 0 -84 31 -84 79c0 61 63 99 119 99c64 0 127 -39 127 -109c0 -100 -131 -202 -176 -202c-13 0 -35 11 -35 25c0 13 60 57 80 112z" />
    <glyph glyph-name="hyphen" unicode="-" horiz-adv-x="360" 
d="M276 161h-192c-44 0 -58 27 -58 82s14 82 58 82h192c44 0 58 -27 58 -82s-14 -82 -58 -82z" />
    <glyph glyph-name="period" unicode="." horiz-adv-x="360" 
d="M184 180c56 0 122 -37 122 -98s-66 -98 -122 -98s-122 37 -122 98s66 98 122 98z" />
    <glyph glyph-name="slash" unicode="/" horiz-adv-x="410" 
d="M469 677l-390 -661c-14 -23 -42 -32 -82 -32c-35 0 -69 8 -69 30c0 12 3 29 10 41l390 661c14 22 36 32 85 32c32 0 69 -8 69 -30c0 -14 -9 -34 -13 -41z" />
    <glyph glyph-name="zero" unicode="0" 
d="M360 748c213 0 336 -187 336 -382s-123 -382 -336 -382s-336 187 -336 382s123 382 336 382zM360 70c42 0 86 48 86 296s-44 296 -86 296s-86 -48 -86 -296s44 -296 86 -296z" />
    <glyph glyph-name="one" unicode="1" 
d="M551 0h-361c-45 0 -57 14 -57 44c0 22 12 42 60 42c30 0 60 5 60 42v382c0 68 -11 80 -70 80c-57 0 -63 10 -63 38c0 21 14 31 35 38l152 48c26 8 76 34 117 34c44 0 69 -14 69 -84v-536c0 -37 25 -42 65 -42c38 0 50 -20 50 -42c0 -30 -12 -44 -57 -44z" />
    <glyph glyph-name="two" unicode="2" 
d="M345 156h111c135 0 133 55 175 55c21 0 33 -11 33 -35c0 -18 -22 -85 -31 -126c-9 -40 -19 -50 -76 -50h-429c-46 0 -72 14 -72 51c0 155 343 309 343 520c0 59 -27 91 -71 91c-41 0 -81 -39 -81 -84c0 -30 22 -46 22 -72c0 -34 -41 -60 -94 -60c-63 0 -108 37 -108 102
c0 122 135 200 302 200c185 0 280 -92 280 -198c0 -172 -197 -286 -304 -394z" />
    <glyph glyph-name="three" unicode="3" 
d="M91 576c0 102 101 172 259 172c166 0 274 -76 274 -189c0 -90 -66 -142 -148 -160v-2c100 -17 180 -86 180 -192c0 -133 -130 -221 -310 -221c-184 0 -292 68 -292 158c0 60 47 81 100 81c60 0 82 -11 88 -72c7 -68 20 -91 71 -91c55 0 93 46 93 141
c0 93 -26 141 -150 141c-48 0 -72 6 -72 40c0 33 12 46 62 46c96 0 136 46 136 144c0 68 -22 90 -58 90c-32 0 -53 -15 -53 -47c0 -17 10 -40 10 -59c0 -34 -33 -54 -88 -54c-69 0 -102 24 -102 74z" />
    <glyph glyph-name="four" unicode="4" 
d="M567 180v-80c0 -48 49 -12 49 -62c0 -26 -15 -38 -59 -38h-238c-47 0 -59 12 -59 37c0 51 60 23 60 63v80h-192c-68 0 -80 14 -80 45c0 81 154 361 258 460c59 56 68 57 152 57c90 0 109 -4 109 -99v-377h56c37 0 49 -13 49 -43s-12 -43 -49 -43h-56zM327 266v302h-3
c-69 -92 -127 -195 -166 -302h169z" />
    <glyph glyph-name="five" unicode="5" 
d="M238 583l-12 -137c46 17 94 23 144 23c145 0 284 -75 284 -234c0 -151 -118 -251 -316 -251c-168 0 -272 66 -272 150c0 55 39 87 92 87c60 0 96 -29 96 -73v-27c0 -36 19 -51 54 -51c54 0 96 50 96 155c0 107 -46 158 -124 158c-67 0 -89 -58 -125 -58
c-28 0 -39 21 -39 47c0 46 22 221 33 376c88 -6 155 -16 265 -16c35 0 71 4 102 8c32 4 60 8 79 8c23 0 33 -15 33 -37c0 -43 -60 -135 -194 -135c-87 0 -141 5 -196 7z" />
    <glyph glyph-name="six" unicode="6" 
d="M369 -16c-199 0 -331 110 -331 314c0 236 184 450 476 450c100 0 132 -18 132 -47c0 -33 -14 -39 -77 -39c-134 0 -231 -80 -253 -215c35 12 71 17 108 17c142 0 258 -77 258 -226c0 -172 -157 -254 -313 -254zM360 384c-54 0 -72 -52 -72 -157s18 -157 72 -157
s72 52 72 157s-18 157 -72 157z" />
    <glyph glyph-name="seven" unicode="7" 
d="M382 0h-182c-30 0 -49 6 -49 26c0 44 185 380 309 550h-230c-93 0 -55 -55 -108 -55c-32 0 -41 9 -41 66c0 139 9 145 67 145h440c34 0 51 -4 51 -20c0 -42 -83 -138 -184 -641c-12 -60 -21 -71 -73 -71z" />
    <glyph glyph-name="eight" unicode="8" 
d="M34 191c0 81 64 144 138 166c-64 41 -118 94 -118 175c0 132 136 216 321 216c175 0 283 -72 283 -176c0 -73 -56 -118 -120 -141c84 -45 148 -112 148 -211c0 -144 -128 -236 -331 -236c-213 0 -321 100 -321 207zM230 203c0 -73 52 -133 123 -133c59 0 93 38 93 79
c0 73 -124 122 -178 154c-21 -31 -38 -61 -38 -100zM294 590c0 -62 99 -95 146 -115c19 30 30 55 30 91c0 50 -35 96 -94 96c-42 0 -82 -33 -82 -72z" />
    <glyph glyph-name="nine" unicode="9" 
d="M351 748c199 0 331 -110 331 -314c0 -236 -184 -450 -476 -450c-100 0 -132 18 -132 47c0 33 14 39 77 39c134 0 231 80 253 215c-35 -12 -71 -17 -108 -17c-142 0 -258 77 -258 226c0 172 157 254 313 254zM360 348c54 0 72 52 72 157s-18 157 -72 157s-72 -52 -72 -157
s18 -157 72 -157z" />
    <glyph glyph-name="colon" unicode=":" horiz-adv-x="360" 
d="M184 180c56 0 122 -37 122 -98s-66 -98 -122 -98s-122 37 -122 98s66 98 122 98zM184 490c56 0 122 -37 122 -98s-66 -98 -122 -98s-122 37 -122 98s66 98 122 98z" />
    <glyph glyph-name="semicolon" unicode=";" horiz-adv-x="360" 
d="M177 4c-10 -2 -20 -4 -31 -4c-45 0 -84 31 -84 79c0 61 63 99 119 99c64 0 127 -39 127 -109c0 -100 -131 -202 -176 -202c-13 0 -35 11 -35 25c0 13 60 57 80 112zM184 490c56 0 122 -37 122 -98s-66 -98 -122 -98s-122 37 -122 98s66 98 122 98z" />
    <glyph glyph-name="less" unicode="&#x3c;" horiz-adv-x="600" 
d="M543 126v-158l-486 208v134l486 208v-158l-264 -117z" />
    <glyph glyph-name="equal" unicode="=" horiz-adv-x="600" 
d="M543 430v-156h-486v156h486zM543 212v-156h-486v156h486z" />
    <glyph glyph-name="greater" unicode="&#x3e;" horiz-adv-x="600" 
d="M57 -32v158l264 117l-264 117v158l486 -208v-134z" />
    <glyph glyph-name="question" unicode="?" horiz-adv-x="580" 
d="M313 282v-34c0 -34 -16 -52 -56 -52c-52 0 -70 10 -70 60v110c0 72 127 22 127 212c0 58 -25 90 -60 90c-34 0 -48 -22 -48 -52c0 -62 -23 -95 -93 -95c-62 0 -91 31 -91 76c0 73 93 151 251 151c176 0 285 -90 285 -213c0 -94 -61 -140 -122 -171
c-62 -31 -123 -47 -123 -82zM258 -16c-80 0 -122 48 -122 91s42 91 122 91s122 -48 122 -91s-42 -91 -122 -91z" />
    <glyph glyph-name="at" unicode="@" horiz-adv-x="860" 
d="M376 316c0 -55 22 -80 46 -80c45 0 110 104 110 190c0 39 -9 62 -36 62c-47 0 -120 -78 -120 -172zM570 527l9 22h87l-59 -246c-3 -12 -5 -32 -5 -45c0 -21 6 -34 29 -34c46 0 99 106 99 197c2 118 -107 237 -280 237c-120 0 -274 -82 -274 -309
c0 -165 140 -275 285 -275c102 0 156 24 219 57l11 -78c-68 -38 -143 -69 -229 -69c-289 0 -416 217 -416 365c0 239 186 399 404 399c205 0 364 -139 364 -326c0 -162 -110 -270 -206 -270c-73 0 -101 48 -100 63h-2c-19 -26 -52 -58 -123 -61c-53 -2 -119 37 -119 141
c0 109 66 275 227 275c43 0 65 -18 79 -43z" />
    <glyph glyph-name="A" unicode="A" horiz-adv-x="750" 
d="M435 226h-250c-21 -62 -34 -96 -34 -118c0 -40 51 -25 51 -67c0 -27 -17 -41 -59 -41h-112c-32 0 -48 12 -48 40c0 35 48 42 54 64c18 58 157 445 202 538c33 68 52 90 130 90c89 0 94 -5 129 -74c16 -32 212 -517 222 -554c11 -37 47 -24 47 -66c0 -28 -22 -38 -60 -38
h-206c-44 0 -69 14 -69 38c0 31 39 34 39 51c0 15 -10 39 -36 137zM217 326h181l-87 230z" />
    <glyph glyph-name="B" unicode="B" horiz-adv-x="770" 
d="M67 122v488c0 54 -53 30 -53 82c0 25 13 40 64 40h419c131 0 215 -74 215 -162c0 -83 -59 -135 -131 -166v-2c102 -22 175 -83 175 -194c0 -124 -92 -208 -248 -208h-430c-51 0 -64 15 -64 40c0 52 53 28 53 82zM307 584v-174c69 16 155 81 155 159c0 59 -40 81 -94 81
c-53 0 -61 -19 -61 -66zM307 315v-154c0 -47 4 -71 58 -71c85 0 141 52 141 132c0 51 -27 96 -70 123c-41 -14 -86 -24 -129 -30z" />
    <glyph glyph-name="C" unicode="C" horiz-adv-x="780" 
d="M28 364c0 226 212 384 426 384c82 0 178 -24 246 -71c36 -25 41 -39 41 -140c0 -31 -22 -48 -53 -48c-77 0 -50 169 -218 169c-126 0 -192 -118 -192 -281c0 -211 96 -285 210 -285c131 0 173 120 228 120c25 0 43 -21 43 -45c0 -93 -178 -183 -290 -183
c-262 0 -441 151 -441 380z" />
    <glyph glyph-name="D" unicode="D" horiz-adv-x="860" 
d="M67 122v488c0 54 -53 30 -53 82c0 25 13 40 64 40h351c219 0 394 -114 394 -366s-175 -366 -394 -366h-351c-51 0 -64 15 -64 40c0 52 53 28 53 82zM307 565v-398c0 -61 11 -77 48 -77c132 0 218 132 218 276s-86 276 -218 276c-37 0 -48 -16 -48 -77z" />
    <glyph glyph-name="E" unicode="E" horiz-adv-x="690" 
d="M68 122v488c0 54 -53 30 -53 82c0 25 13 40 64 40h488c56 0 81 -14 81 -60v-46c0 -42 -25 -60 -48 -60c-78 0 -11 76 -201 76c-77 0 -91 -7 -91 -76v-120h123c79 0 64 41 106 41c28 0 42 -17 42 -90s-14 -92 -42 -92c-43 0 -27 41 -106 41h-123v-151
c0 -95 19 -105 111 -105c184 0 133 93 205 93c32 0 51 -21 51 -53c0 -18 -10 -89 -22 -110c-10 -17 -31 -20 -74 -20h-500c-51 0 -64 15 -64 40c0 52 53 28 53 82z" />
    <glyph glyph-name="F" unicode="F" horiz-adv-x="650" 
d="M78 732h434c23 0 69 0 84 -14c22 -20 27 -93 27 -121c0 -25 -10 -46 -38 -46c-69 0 -27 91 -195 91c-76 0 -83 -12 -83 -66v-150h104c79 0 64 41 106 41c28 0 42 -17 42 -90s-14 -92 -42 -92c-43 0 -27 41 -106 41h-104v-204c0 -54 53 -30 53 -82c0 -25 -13 -40 -64 -40
h-218c-51 0 -64 15 -64 40c0 52 53 28 53 82v488c0 54 -53 30 -53 82c0 25 13 40 64 40z" />
    <glyph glyph-name="G" unicode="G" horiz-adv-x="790" 
d="M504 300h-54c-34 0 -51 13 -51 46c0 32 15 50 67 50h234c62 0 81 -8 81 -38s-12 -82 -12 -118c0 -53 17 -92 17 -113c0 -81 -246 -143 -332 -143c-240 0 -426 134 -426 382c0 243 200 382 426 382c82 0 174 -19 240 -55c50 -27 54 -59 54 -91v-64c0 -34 -31 -41 -49 -41
c-73 0 -53 161 -208 161c-109 0 -213 -92 -213 -292c0 -156 74 -274 168 -274c62 0 101 26 101 135c0 63 -15 73 -43 73z" />
    <glyph glyph-name="H" unicode="H" horiz-adv-x="830" 
d="M306 610v-168h218v168c0 54 -53 30 -53 82c0 25 13 40 64 40h218c51 0 64 -15 64 -40c0 -52 -53 -28 -53 -82v-488c0 -54 53 -30 53 -82c0 -25 -13 -40 -64 -40h-218c-51 0 -64 15 -64 40c0 52 53 28 53 82v230h-218v-230c0 -54 53 -30 53 -82c0 -25 -13 -40 -64 -40
h-218c-51 0 -64 15 -64 40c0 52 53 28 53 82v488c0 54 -53 30 -53 82c0 25 13 40 64 40h218c51 0 64 -15 64 -40c0 -52 -53 -28 -53 -82z" />
    <glyph glyph-name="I" unicode="I" horiz-adv-x="380" 
d="M310 610v-488c0 -54 53 -30 53 -82c0 -25 -13 -40 -64 -40h-218c-51 0 -64 15 -64 40c0 52 53 28 53 82v488c0 54 -53 30 -53 82c0 25 13 40 64 40h218c51 0 64 -15 64 -40c0 -52 -53 -28 -53 -82z" />
    <glyph glyph-name="J" unicode="J" horiz-adv-x="600" 
d="M550 610v-387c0 -184 -97 -239 -275 -239c-193 0 -276 82 -276 181c0 95 76 152 166 152c65 0 114 -29 114 -74c0 -62 -100 -26 -100 -106c0 -35 23 -57 59 -57c46 0 72 32 72 118v412c0 54 -53 30 -53 82c0 25 13 40 64 40h218c51 0 64 -15 64 -40
c0 -52 -53 -28 -53 -82z" />
    <glyph glyph-name="K" unicode="K" horiz-adv-x="820" 
d="M67 122v488c0 54 -53 30 -53 82c0 25 13 40 64 40h218c51 0 64 -15 64 -40c0 -52 -53 -28 -53 -82v-208c62 28 267 178 267 237c0 20 -40 22 -40 56c0 23 22 37 70 37h102c49 0 72 -18 72 -48c0 -44 -43 -31 -73 -67c-38 -45 -121 -129 -171 -175
c151 -152 205 -330 264 -364c19 -11 28 -17 28 -39c0 -23 -12 -39 -60 -39h-232c-48 0 -67 16 -67 42c0 32 33 39 33 54c0 26 -30 68 -146 226l-47 -26v-174c0 -54 53 -30 53 -82c0 -25 -13 -40 -64 -40h-218c-51 0 -64 15 -64 40c0 52 53 28 53 82z" />
    <glyph glyph-name="L" unicode="L" horiz-adv-x="600" 
d="M67 122v488c0 54 -53 30 -53 82c0 25 13 40 64 40h218c51 0 64 -15 64 -40c0 -52 -53 -28 -53 -82v-459c0 -58 11 -61 84 -61c123 0 101 113 175 113c25 0 48 -17 48 -44c0 -28 -24 -104 -37 -130c-12 -24 -23 -29 -64 -29h-435c-51 0 -64 15 -64 40c0 52 53 28 53 82z
" />
    <glyph glyph-name="M" unicode="M" horiz-adv-x="950" 
d="M877 618v-496c0 -54 53 -30 53 -82c0 -25 -13 -40 -64 -40h-218c-51 0 -64 15 -64 40c0 52 53 28 53 82v380h-2l-130 -367c-11 -31 -32 -40 -96 -40c-44 0 -71 3 -90 50l-134 343h-2v-352c0 -62 78 -44 78 -96c0 -26 -19 -40 -61 -40h-118c-38 0 -65 10 -65 42
c0 56 66 24 66 94v476c0 60 -69 14 -69 88c0 22 14 32 50 32h220c57 0 70 -10 96 -83l108 -302l129 343c12 33 30 42 68 42h187c61 0 73 -16 73 -45c0 -53 -68 -27 -68 -69z" />
    <glyph glyph-name="N" unicode="N" horiz-adv-x="770" 
d="M608 332v248c0 95 -62 58 -62 111c0 29 12 41 62 41h100c50 0 62 -12 62 -41c0 -53 -62 -16 -62 -111v-512c0 -50 -8 -68 -74 -68c-78 0 -82 3 -110 41l-324 443h-2v-332c0 -106 70 -60 70 -114c0 -24 -14 -38 -70 -38h-100c-56 0 -70 14 -70 38c0 54 70 8 70 114v404
c0 132 -84 70 -84 133c0 27 6 43 62 43h186c40 0 54 -6 78 -39l266 -361h2z" />
    <glyph glyph-name="O" unicode="O" horiz-adv-x="890" 
d="M445 748c219 0 420 -142 420 -382s-201 -382 -420 -382s-420 142 -420 382s201 382 420 382zM275 366c0 -188 54 -292 170 -292s170 104 170 292s-54 292 -170 292s-170 -104 -170 -292z" />
    <glyph glyph-name="P" unicode="P" horiz-adv-x="710" 
d="M67 122v488c0 54 -53 30 -53 82c0 25 13 40 64 40h335c181 0 303 -56 303 -207c0 -155 -154 -233 -409 -253v-150c0 -54 61 -30 61 -82c0 -25 -13 -40 -64 -40h-226c-51 0 -64 15 -64 40c0 52 53 28 53 82zM307 598v-232c83 19 159 72 159 164c0 66 -44 120 -112 120
c-36 0 -47 -20 -47 -52z" />
    <glyph glyph-name="Q" unicode="Q" horiz-adv-x="890" 
d="M25 366c0 240 201 382 420 382s420 -142 420 -382c0 -178 -111 -303 -258 -354c31 -13 53 -18 72 -18c32 0 64 10 96 10c39 0 71 -26 71 -66c0 -60 -79 -74 -125 -74c-83 0 -183 39 -258 121c-6 -1 -12 -1 -18 -1c-219 0 -420 142 -420 382zM275 366
c0 -168 43 -269 136 -288c-12 30 -15 77 -15 100c0 35 10 72 53 72c42 0 45 -35 45 -68c0 -23 3 -62 23 -90c66 36 98 130 98 274c0 188 -54 292 -170 292s-170 -104 -170 -292z" />
    <glyph glyph-name="R" unicode="R" horiz-adv-x="770" 
d="M67 122v488c0 54 -53 30 -53 82c0 25 13 40 64 40h419c126 0 244 -42 244 -177c0 -91 -66 -156 -143 -193c61 -65 99 -148 128 -231c28 -80 67 -59 67 -97c0 -21 -16 -34 -69 -34h-226c-48 0 -68 8 -67 37c0 33 38 33 38 57c0 49 -67 171 -102 212l-60 -8v-176
c0 -54 53 -30 53 -82c0 -25 -13 -40 -64 -40h-218c-51 0 -64 15 -64 40c0 52 53 28 53 82zM307 570v-177c7 0 14 -1 21 -1c84 0 163 54 163 143c0 62 -42 115 -107 115c-50 0 -77 -22 -77 -80z" />
    <glyph glyph-name="S" unicode="S" 
d="M704 263c0 -189 -187 -279 -353 -279c-161 0 -330 82 -330 178c0 36 27 68 64 68c91 0 72 -148 251 -148c84 0 128 48 128 92c0 136 -416 40 -416 318c0 148 132 256 324 256c104 0 157 -18 232 -50c53 -23 54 -43 54 -132c0 -33 -12 -60 -50 -60c-75 0 -40 160 -203 160
c-79 0 -117 -36 -117 -79c0 -148 416 -62 416 -324z" />
    <glyph glyph-name="T" unicode="T" horiz-adv-x="700" 
d="M91 732h518c21 0 51 -2 60 -16c10 -15 27 -92 27 -110c0 -34 -21 -55 -51 -55c-59 0 -46 91 -139 91c-27 0 -36 -9 -36 -43v-477c0 -54 53 -30 53 -82c0 -25 -13 -40 -64 -40h-218c-51 0 -64 15 -64 40c0 52 53 28 53 82v477c0 34 -9 43 -36 43c-93 0 -80 -91 -139 -91
c-30 0 -51 21 -51 55c0 18 17 95 27 110c9 14 39 16 60 16z" />
    <glyph glyph-name="U" unicode="U" horiz-adv-x="760" 
d="M560 732h130c40 0 56 -10 56 -37c0 -53 -59 -29 -59 -81c0 -96 11 -234 11 -316c0 -160 -30 -314 -322 -314c-221 0 -325 86 -325 329c0 88 13 242 13 303c0 53 -51 30 -51 74c0 32 19 42 80 42h209c54 0 66 -14 66 -42c0 -40 -58 -21 -58 -74c0 -20 -19 -226 -19 -308
c0 -105 17 -234 149 -234c108 0 147 68 147 210c0 92 -13 243 -13 316c0 66 -70 42 -70 95c0 25 14 37 56 37z" />
    <glyph glyph-name="V" unicode="V" horiz-adv-x="760" 
d="M45 732h224c44 0 64 -12 64 -41c0 -46 -56 -33 -56 -76c0 -71 46 -167 176 -451c134 306 142 380 142 433c0 54 -75 43 -75 96c0 31 21 39 88 39h70c69 0 93 -8 93 -46c0 -42 -40 -36 -51 -69c-61 -185 -167 -505 -233 -579c-28 -32 -38 -38 -118 -38
c-52 0 -80 -1 -128 80c-52 87 -138 276 -200 508c-20 75 -52 67 -52 110c0 20 20 34 56 34z" />
    <glyph glyph-name="W" unicode="W" horiz-adv-x="1030" 
d="M439 732h222c42 0 52 -16 52 -42c0 -39 -49 -24 -49 -68c0 -123 83 -326 119 -422c45 107 100 273 100 388c0 77 -68 55 -68 105c0 23 20 39 54 39h134c32 0 44 -12 44 -37c0 -37 -44 -30 -58 -100c-33 -165 -100 -467 -166 -551c-33 -42 -42 -44 -114 -44
c-110 0 -118 30 -209 314h-2c-81 -292 -91 -314 -205 -314c-84 0 -86 4 -122 80c-30 65 -88 232 -139 522c-11 62 -48 45 -48 90c0 32 23 40 67 40h206c50 0 63 -18 63 -43c0 -38 -46 -24 -46 -67c0 -143 54 -282 97 -416h2c30 94 63 204 63 322c0 157 -61 118 -61 166
c0 26 14 38 64 38z" />
    <glyph glyph-name="X" unicode="X" horiz-adv-x="760" 
d="M196 0h-162c-30 0 -41 15 -41 42c0 20 27 42 44 50c47 22 57 86 207 270c-162 214 -162 249 -190 274c-22 20 -55 34 -55 59c0 27 11 37 71 37h190c68 0 93 -10 93 -43c0 -25 -28 -29 -28 -41s17 -36 115 -170c76 98 97 140 97 157c0 23 -45 24 -45 63c0 24 14 34 44 34
h136c32 0 56 -18 56 -41c0 -37 -39 -43 -52 -59l-178 -226c68 -88 204 -282 237 -320c7 -8 42 -10 42 -45c0 -25 -21 -41 -57 -41h-230c-60 0 -81 12 -81 41s29 33 29 42c0 13 -8 39 -135 207c-83 -120 -100 -152 -100 -184c0 -37 43 -40 43 -74c0 -18 -12 -32 -50 -32z" />
    <glyph glyph-name="Y" unicode="Y" horiz-adv-x="760" 
d="M48 732h258c48 0 59 -16 59 -44c0 -32 -45 -32 -45 -60c0 -54 125 -220 139 -241c35 39 140 198 140 241c0 23 -44 26 -44 62c0 22 17 42 59 42h94c48 0 67 -10 67 -40c0 -35 -36 -44 -66 -88l-203 -300v-182c0 -54 53 -30 53 -82c0 -25 -13 -40 -64 -40h-218
c-51 0 -64 15 -64 40c0 52 53 28 53 82v168c-46 58 -156 226 -194 300c-35 68 -87 51 -87 99c0 27 19 43 63 43z" />
    <glyph glyph-name="Z" unicode="Z" horiz-adv-x="640" 
d="M104 732h463c63 0 84 -6 84 -45c0 -147 -360 -539 -360 -585c0 -10 5 -12 21 -12h92c170 0 135 91 203 91c25 0 44 -13 44 -40s-8 -60 -12 -80c-9 -43 -17 -61 -64 -61h-481c-64 0 -83 30 -83 62c0 122 365 540 365 574c0 5 -9 6 -26 6h-76c-156 0 -118 -87 -185 -87
c-30 0 -47 19 -47 48c0 25 5 93 15 114c6 12 32 15 47 15z" />
    <glyph glyph-name="bracketleft" unicode="[" horiz-adv-x="360" 
d="M268 598v-684c0 -72 82 -32 82 -90c0 -30 -23 -44 -67 -44h-166c-38 0 -45 6 -45 52v848c0 46 7 52 45 52h166c44 0 67 -14 67 -44c0 -58 -82 -18 -82 -90z" />
    <glyph glyph-name="backslash" unicode="\" horiz-adv-x="520" 
d="M411 14l-440 661c-10 16 -19 31 -19 43c0 22 31 30 67 30c56 0 71 -1 90 -30l440 -661c10 -15 19 -31 19 -47c0 -18 -18 -26 -66 -26c-59 0 -72 1 -91 30z" />
    <glyph glyph-name="bracketright" unicode="]" horiz-adv-x="360" 
d="M92 -86v684c0 72 -82 32 -82 90c0 30 23 44 67 44h166c38 0 45 -6 45 -52v-848c0 -46 -7 -52 -45 -52h-166c-44 0 -67 14 -67 44c0 58 82 18 82 90z" />
    <glyph glyph-name="asciicircum" unicode="^" horiz-adv-x="600" 
d="M196 361h-157l181 371h160l181 -371h-158l-103 223z" />
    <glyph glyph-name="underscore" unicode="_" horiz-adv-x="500" 
d="M500 -125h-500v50h500v-50z" />
    <glyph glyph-name="quoteleft" unicode="&#x2018;" horiz-adv-x="340" 
d="M174 468c-57 0 -114 35 -114 98c0 92 120 182 157 182c12 0 32 -10 32 -23c0 -9 -54 -51 -72 -101c9 2 18 4 27 4c42 0 76 -28 76 -71c0 -55 -57 -89 -106 -89z" />
    <glyph glyph-name="a" unicode="a" horiz-adv-x="620" 
d="M568 304v-176c0 -62 51 -46 51 -91c0 -27 -18 -37 -50 -37h-149c-45 0 -57 7 -65 52c-32 -49 -95 -62 -149 -62c-127 0 -185 82 -185 158c0 104 88 172 322 172c-2 78 -18 96 -59 96c-57 0 -57 -75 -138 -75c-55 0 -84 25 -84 59c0 58 75 96 245 96
c138 0 261 -34 261 -192zM241 147c0 -35 18 -57 44 -57c48 0 63 70 63 156c-62 0 -107 -35 -107 -99z" />
    <glyph glyph-name="b" unicode="b" horiz-adv-x="670" 
d="M59 186v408c0 85 -57 44 -57 91c0 21 20 33 67 49c29 10 98 26 137 26c48 0 73 -26 73 -56v-242c39 24 88 34 134 34c139 0 240 -102 240 -241c0 -183 -164 -265 -327 -265c-141 0 -267 44 -267 196zM279 309v-136c0 -67 20 -97 66 -97c52 0 78 83 78 165
s-26 165 -78 165c-46 0 -66 -30 -66 -97z" />
    <glyph glyph-name="c" unicode="c" horiz-adv-x="550" 
d="M545 374c0 -42 -38 -61 -76 -61c-82 0 -82 97 -137 97c-49 0 -83 -56 -85 -165c-2 -107 60 -153 116 -153c80 0 118 72 156 72c20 0 36 -19 36 -39c0 -73 -142 -135 -244 -135c-150 0 -294 90 -294 253c0 164 136 253 288 253c146 0 240 -54 240 -122z" />
    <glyph glyph-name="d" unicode="d" horiz-adv-x="670" 
d="M396 466v128c0 85 -57 44 -57 91c0 21 20 33 67 49c29 10 98 26 137 26c48 0 73 -26 73 -56v-563c0 -101 53 -52 53 -104c0 -25 -12 -37 -63 -37h-132c-47 0 -51 13 -63 54c-34 -48 -88 -64 -146 -64c-142 0 -248 103 -248 246c0 158 132 260 286 260c38 0 59 -12 93 -30
zM398 199v98c0 83 -31 113 -68 113c-39 0 -83 -36 -83 -162s44 -162 83 -162c37 0 68 30 68 113z" />
    <glyph glyph-name="e" unicode="e" horiz-adv-x="590" 
d="M17 236c0 170 167 260 319 260c153 0 233 -78 233 -147c0 -119 -152 -151 -314 -179c14 -48 54 -86 110 -86c93 0 130 80 172 80c20 0 39 -12 39 -34c0 -69 -145 -140 -264 -140c-147 0 -295 84 -295 246zM367 358c0 23 -10 52 -38 52c-50 0 -82 -70 -82 -154
c58 2 120 38 120 102z" />
    <glyph glyph-name="f" unicode="f" horiz-adv-x="390" 
d="M300 390v-268c0 -60 51 -38 51 -83c0 -30 -25 -39 -64 -39h-194c-39 0 -64 9 -64 39c0 45 51 23 51 83v268h-16c-37 0 -51 17 -51 48s14 48 51 48h16v38c0 152 77 236 224 236c77 0 133 -28 133 -83c0 -40 -30 -69 -70 -69c-41 0 -58 25 -66 34c-1 -24 -5 -43 -5 -68v-88
h53c37 0 51 -17 51 -48s-14 -48 -51 -48h-49z" />
    <glyph glyph-name="g" unicode="g" horiz-adv-x="640" 
d="M17 258c0 177 150 238 305 238c78 0 156 -10 235 -10c58 0 78 -14 78 -49c0 -25 -16 -47 -78 -47c32 -34 46 -83 46 -129c0 -77 -42 -145 -110 -180v-2c61 -10 122 -41 122 -111c0 -90 -92 -154 -299 -154c-237 0 -293 54 -293 109c0 53 66 82 148 82c48 0 79 -9 79 -31
c0 -12 -13 -18 -13 -27c0 -19 26 -35 76 -35c68 0 102 32 102 66c0 32 -27 49 -53 61c-26 -3 -52 -7 -78 -7c-139 0 -267 73 -267 226zM247 266c0 -92 20 -154 63 -154s63 62 63 154s-20 154 -63 154s-63 -62 -63 -154z" />
    <glyph glyph-name="h" unicode="h" horiz-adv-x="650" 
d="M271 668v-212c41 24 90 40 135 40c132 0 193 -78 193 -203v-177c0 -53 38 -37 38 -77c0 -17 -18 -39 -52 -39h-192c-34 0 -52 22 -52 39c0 40 38 24 38 77v196c0 46 -15 82 -54 82s-54 -36 -54 -82v-196c0 -53 38 -37 38 -77c0 -17 -18 -39 -52 -39h-192
c-34 0 -52 22 -52 39c0 40 38 24 38 77v214v274c0 56 -58 34 -58 80c0 26 15 40 54 44c49 5 154 32 174 32c30 0 50 -20 50 -92z" />
    <glyph glyph-name="i" unicode="i" horiz-adv-x="330" 
d="M56 116v224c0 56 -58 34 -58 80c0 26 30 43 69 47c49 5 139 29 159 29c30 0 50 -20 50 -92v-288c0 -53 38 -37 38 -77c0 -17 -18 -39 -52 -39h-192c-34 0 -52 22 -52 39c0 40 38 24 38 77zM152 540c-78 0 -125 46 -125 96s47 96 125 96s125 -46 125 -96s-47 -96 -125 -96
z" />
    <glyph glyph-name="j" unicode="j" horiz-adv-x="340" 
d="M303 404v-416c0 -124 -96 -174 -199 -174c-95 0 -168 46 -168 97c0 36 35 57 68 57c40 0 67 -31 74 -58h2c3 10 3 24 3 34v396c0 56 -58 34 -58 80c0 26 30 43 69 47c49 5 139 29 159 29c30 0 50 -20 50 -92zM187 540c-78 0 -125 46 -125 96s47 96 125 96
s125 -46 125 -96s-47 -96 -125 -96z" />
    <glyph glyph-name="k" unicode="k" horiz-adv-x="650" 
d="M56 116v488c0 56 -58 34 -58 80c0 26 30 43 69 47c49 5 139 29 159 29c30 0 50 -20 50 -92v-368c34 5 138 71 138 103c0 19 -44 13 -44 48c0 27 20 35 52 35h142c36 0 44 -14 44 -32c0 -32 -33 -39 -55 -58l-100 -86c64 -52 110 -122 147 -194c23 -45 57 -44 57 -74
c0 -32 -17 -42 -78 -42h-183c-40 0 -59 12 -59 39c0 25 27 27 27 42c0 27 -61 119 -88 137v-102c0 -53 38 -37 38 -77c0 -17 -18 -39 -52 -39h-192c-34 0 -52 22 -52 39c0 40 38 24 38 77z" />
    <glyph glyph-name="l" unicode="l" horiz-adv-x="340" 
d="M69 116v488c0 56 -58 34 -58 80c0 26 30 43 69 47c49 5 139 29 159 29c30 0 50 -20 50 -92v-552c0 -53 52 -37 52 -77c0 -17 -18 -39 -52 -39h-220c-34 0 -52 22 -52 39c0 40 52 24 52 77z" />
    <glyph glyph-name="m" unicode="m" horiz-adv-x="960" 
d="M891 0h-166c-44 0 -65 16 -65 39c0 40 38 24 38 66v199c0 68 -17 90 -50 90s-50 -22 -50 -90v-199c0 -42 38 -26 38 -66c0 -23 -21 -39 -65 -39h-166c-44 0 -65 16 -65 39c0 40 38 24 38 66v199c0 68 -17 90 -50 90s-50 -22 -50 -90v-199c0 -42 38 -26 38 -66
c0 -23 -21 -39 -65 -39h-166c-44 0 -65 16 -65 39c0 40 38 24 38 66v223c0 72 -47 35 -47 81c0 28 49 42 70 50c30 12 100 37 132 37c38 0 44 -37 49 -66c39 44 98 66 157 66c57 0 117 -26 145 -78c36 56 104 78 167 78c121 0 187 -60 187 -180v-211c0 -42 38 -26 38 -66
c0 -23 -21 -39 -65 -39z" />
    <glyph glyph-name="n" unicode="n" horiz-adv-x="650" 
d="M60 116v214c0 68 -49 40 -49 82c0 26 23 39 75 56c24 8 98 28 124 28c37 0 43 -32 48 -66c43 48 97 66 157 66c132 0 193 -78 193 -203v-177c0 -53 38 -37 38 -77c0 -17 -18 -39 -52 -39h-192c-34 0 -52 22 -52 39c0 40 38 24 38 77v196c0 46 -15 82 -54 82
s-54 -36 -54 -82v-196c0 -53 38 -37 38 -77c0 -17 -18 -39 -52 -39h-192c-34 0 -52 22 -52 39c0 40 38 24 38 77z" />
    <glyph glyph-name="o" unicode="o" horiz-adv-x="650" 
d="M325 496c147 0 307 -89 308 -253c-1 -164 -161 -253 -308 -253s-307 89 -308 253c1 164 161 253 308 253zM247 243c0 -111 26 -167 78 -167s78 56 78 167s-26 167 -78 167s-78 -56 -78 -167z" />
    <glyph glyph-name="p" unicode="p" horiz-adv-x="670" 
d="M64 -56v386c0 85 -57 44 -57 91c0 21 20 33 67 49c29 10 98 26 131 26c40 0 47 -25 60 -56c38 38 92 56 146 56c144 0 242 -113 242 -254c0 -140 -109 -252 -250 -252c-60 0 -98 22 -98 63c0 22 12 35 32 35c50 0 86 56 86 148c0 94 -38 162 -82 162
c-46 0 -57 -42 -57 -100v-354c0 -60 51 -38 51 -83c0 -27 -20 -39 -64 -39h-194c-44 0 -64 12 -64 39c0 45 51 23 51 83z" />
    <glyph glyph-name="q" unicode="q" horiz-adv-x="670" 
d="M607 426v-482c0 -60 51 -38 51 -83c0 -27 -20 -39 -64 -39h-194c-44 0 -64 12 -64 39c0 45 51 23 51 83v84c-41 -27 -88 -38 -136 -38c-138 0 -234 101 -234 238c0 155 121 268 273 268c59 0 111 -21 158 -55c28 21 77 55 112 55c43 0 47 -37 47 -70zM387 178v130
c0 72 -26 102 -64 102c-34 0 -76 -40 -76 -165c0 -129 42 -169 76 -169c38 0 64 30 64 102z" />
    <glyph glyph-name="r" unicode="r" horiz-adv-x="480" 
d="M302 270v-148c0 -60 51 -38 51 -83c0 -27 -16 -39 -64 -39h-194c-48 0 -64 12 -64 39c0 45 51 23 51 83v174c0 96 -71 70 -71 118c0 22 16 35 63 51c26 9 109 31 136 31c47 0 56 -55 59 -92h2c25 49 72 92 130 92c50 0 85 -40 85 -89c0 -48 -34 -85 -83 -85
c-21 0 -40 10 -60 10c-22 0 -41 -22 -41 -62z" />
    <glyph glyph-name="s" unicode="s" horiz-adv-x="550" 
d="M522 172c0 -104 -100 -182 -268 -182c-150 0 -234 60 -234 119c0 29 22 54 52 54c61 0 63 -87 148 -87c34 0 72 14 72 45c0 79 -258 14 -258 189c0 112 110 186 261 186c53 0 128 -16 169 -33c32 -13 40 -33 40 -88c0 -26 -9 -52 -40 -52c-56 0 -42 93 -134 93
c-42 0 -66 -16 -66 -44c0 -79 258 -18 258 -200z" />
    <glyph glyph-name="t" unicode="t" horiz-adv-x="420" 
d="M288 591v-105h45c52 0 72 -13 72 -48s-20 -48 -72 -48h-39v-227c0 -59 13 -67 53 -67c58 0 67 -22 67 -46c0 -32 -27 -50 -87 -50h-152c-74 0 -101 26 -101 97v293h-9c-52 0 -72 9 -72 44c0 26 19 40 46 46c166 34 48 168 177 168c65 0 72 -6 72 -57z" />
    <glyph glyph-name="u" unicode="u" horiz-adv-x="670" 
d="M273 421v-241c0 -64 22 -88 53 -88s53 24 53 88v182c0 41 -44 29 -44 61c0 26 8 34 34 40l131 29c12 3 22 4 38 4c49 0 61 -22 61 -75v-297c0 -62 51 -38 51 -87c0 -27 -17 -37 -63 -37h-123c-47 0 -59 7 -68 54c-51 -47 -98 -64 -168 -64c-117 0 -175 44 -175 201v171
c-1 46 -44 32 -44 71c0 16 10 28 33 33l132 26c12 2 22 4 38 4c49 0 61 -22 61 -75z" />
    <glyph glyph-name="v" unicode="v" horiz-adv-x="580" 
d="M57 486h180c46 0 62 -18 62 -41c0 -32 -40 -37 -40 -57c0 -50 66 -208 94 -256c31 64 70 169 70 241c0 45 -52 36 -52 74c0 25 18 39 44 39h118c24 0 40 -14 40 -35c0 -15 -13 -31 -37 -55c-10 -10 -88 -257 -108 -298c-50 -103 -65 -108 -139 -108c-36 0 -59 0 -83 17
c-77 54 -158 332 -172 370c-16 44 -47 36 -47 71c0 30 24 38 70 38z" />
    <glyph glyph-name="w" unicode="w" horiz-adv-x="840" 
d="M376 486h155c52 0 66 -12 66 -39c0 -35 -32 -30 -32 -49c0 -66 62 -233 74 -270c29 62 68 180 68 246c0 42 -50 36 -50 75c0 29 16 37 50 37h96c40 0 48 -14 48 -39c0 -37 -29 -21 -49 -83c-21 -64 -63 -204 -79 -245c-31 -78 -52 -129 -151 -129
c-105 0 -123 59 -158 149c-48 -107 -67 -149 -161 -149c-88 0 -108 1 -204 324c-39 131 -62 96 -62 132c0 30 30 40 70 40h170c46 0 62 -10 62 -39c0 -41 -32 -26 -32 -54c0 -43 41 -205 74 -265c21 49 34 100 34 162c0 144 -57 115 -57 158c0 26 21 38 68 38z" />
    <glyph glyph-name="x" unicode="x" horiz-adv-x="590" 
d="M167 228l-130 174c-7 10 -44 10 -44 49c0 27 14 35 60 35h210c46 0 58 -14 58 -37c0 -18 -19 -29 -19 -40c0 -13 46 -66 58 -80c14 14 46 51 46 70c0 18 -35 21 -35 51c0 28 21 36 61 36h76c45 0 53 -14 53 -33c0 -34 -37 -40 -58 -72c-26 -40 -63 -75 -97 -109l136 -176
c21 -28 53 -30 53 -56c0 -24 -12 -40 -43 -40h-221c-44 0 -64 16 -64 39c0 25 23 32 23 40c0 13 -40 57 -69 93c-14 -16 -46 -57 -46 -76c0 -22 46 -20 46 -58c0 -28 -12 -38 -47 -38h-125c-34 0 -52 8 -52 34c0 42 34 38 52 58z" />
    <glyph glyph-name="y" unicode="y" horiz-adv-x="570" 
d="M419 486h109c39 0 53 -14 53 -35c0 -25 -41 -39 -41 -67c0 -88 -100 -570 -368 -570c-43 0 -114 19 -114 72c0 40 36 65 74 65c45 0 70 -31 87 -31c28 0 81 57 92 85c-15 -3 -30 -5 -45 -5c-119 0 -206 54 -247 378c-6 47 -32 51 -32 73c0 23 16 35 54 35h186
c42 0 59 -12 59 -41c0 -33 -31 -26 -31 -72c0 -159 72 -283 91 -283c29 0 74 140 74 294c0 46 -47 25 -47 68c0 26 12 34 46 34z" />
    <glyph glyph-name="z" unicode="z" horiz-adv-x="540" 
d="M265 418h-62c-97 0 -81 -82 -134 -82c-26 0 -39 18 -39 43c0 79 15 107 71 107h343c61 0 75 -14 75 -44c0 -79 -199 -289 -244 -362h77c97 0 81 82 134 82c20 0 35 -12 35 -33c0 -22 -9 -72 -16 -94c-9 -29 -22 -35 -63 -35h-344c-63 0 -87 18 -87 54c0 34 37 88 62 120z
" />
    <glyph glyph-name="braceleft" unicode="{" horiz-adv-x="360" 
d="M270 607v-205c0 -80 -12 -125 -81 -145v-2c69 -20 81 -65 81 -145v-205c0 -76 82 -34 82 -94c0 -32 -23 -47 -85 -47c-134 0 -193 30 -193 160v202c0 73 -14 109 -76 130c62 21 76 56 76 130v202c0 130 59 160 193 160c62 0 85 -15 85 -47c0 -60 -82 -18 -82 -94z" />
    <glyph glyph-name="bar" unicode="|" horiz-adv-x="340" 
d="M92 0v760h156v-760h-156z" />
    <glyph glyph-name="braceright" unicode="}" horiz-adv-x="360" 
d="M90 -95v205c0 80 12 125 81 145v2c-69 20 -81 65 -81 145v205c0 76 -82 34 -82 94c0 32 23 47 85 47c134 0 193 -30 193 -160v-202c0 -73 14 -109 76 -130c-62 -21 -76 -56 -76 -130v-202c0 -130 -59 -160 -193 -160c-62 0 -85 15 -85 47c0 60 82 18 82 94z" />
    <glyph glyph-name="asciitilde" unicode="~" horiz-adv-x="600" 
d="M495 349l44 -130c-38 -42 -71 -86 -133 -86c-40 0 -71 17 -104 34s-67 26 -113 26c-44 0 -68 -29 -84 -56l-44 130c30 42 66 86 133 86c37 0 78 -17 115 -34c38 -17 73 -26 98 -26c40 0 65 29 88 56z" />
    <glyph glyph-name="exclamdown" unicode="&#xa1;" horiz-adv-x="390" 
d="M195 578c80 0 122 -48 122 -91s-42 -91 -122 -91s-122 48 -122 91s42 91 122 91zM56 -97c0 57 38 192 75 400c7 41 21 59 64 59s57 -18 64 -59c37 -208 75 -343 75 -400c0 -61 -34 -89 -139 -89s-139 28 -139 89z" />
    <glyph glyph-name="cent" unicode="&#xa2;" 
d="M435 145v-69c0 -52 -17 -57 -46 -57s-46 5 -46 57v69c-125 5 -218 92 -218 229c0 133 99 227 218 241v81c0 52 17 57 46 57s46 -5 46 -57v-81c44 0 155 -33 155 -104c0 -37 -35 -59 -69 -59c-83 0 -80 85 -126 85c-37 0 -68 -53 -68 -141c0 -100 47 -159 102 -159
c67 0 89 72 135 72c23 0 43 -18 43 -43c0 -64 -121 -121 -172 -121z" />
    <glyph glyph-name="sterling" unicode="&#xa3;" 
d="M45 440h71v46c0 144 96 262 300 262c160 0 267 -64 267 -154c0 -40 -27 -68 -88 -68c-133 0 -37 136 -163 136c-60 0 -96 -43 -96 -102c0 -39 14 -80 20 -120h146c37 0 51 -17 51 -48s-14 -48 -51 -48h-129c2 -21 6 -39 6 -63c0 -52 -16 -96 -46 -136l2 -2
c29 23 62 47 103 47c55 0 104 -28 149 -28c63 0 79 66 116 66c21 0 35 -14 35 -33c0 -42 -110 -211 -218 -211c-101 0 -206 54 -296 54c-91 0 -124 -54 -155 -54c-27 0 -46 38 -46 61c0 55 130 19 130 168c0 45 -11 88 -20 131h-88c-37 0 -51 17 -51 48s14 48 51 48z" />
    <glyph glyph-name="fraction" unicode="&#x2044;" horiz-adv-x="167" 
d="M317 682l-371 -654c-14 -25 -33 -44 -71 -44c-26 0 -42 8 -42 26c0 14 8 22 19 42l369 652c14 25 33 44 71 44c26 0 42 -8 42 -26c0 -14 -7 -22 -17 -40z" />
    <glyph glyph-name="yen" unicode="&#xa5;" 
d="M248 215h-154c-42 0 -56 20 -56 48s14 48 56 48h122c-12 24 -24 48 -35 71h-94c-42 0 -56 20 -56 48s14 48 56 48h52c-21 49 -39 94 -55 133c-10 26 -74 39 -74 82c0 23 21 39 69 39h234c51 0 64 -16 64 -45c0 -35 -43 -24 -43 -60c0 -21 5 -79 98 -277
c73 148 110 254 110 280c0 17 -44 22 -44 59c0 31 11 43 54 43h106c32 0 52 -14 52 -42c0 -43 -45 -38 -72 -99l-52 -113h50c42 0 56 -20 56 -48s-14 -48 -56 -48h-95l-33 -71h120c43 0 56 -20 56 -48s-13 -48 -56 -48h-150v-93c0 -54 52 -31 52 -81c0 -33 -11 -41 -82 -41
h-169c-71 0 -82 8 -82 41c0 50 51 27 51 81v93z" />
    <glyph glyph-name="florin" unicode="&#x192;" 
d="M235 126l41 266h-33c-57 0 -71 16 -71 48s14 48 71 48h47c26 208 144 318 317 318c89 0 163 -52 163 -112c0 -40 -35 -77 -76 -77c-57 0 -71 65 -110 65c-46 0 -58 -56 -77 -194h30c57 0 71 -16 71 -48s-14 -48 -71 -48h-40l-49 -298c-36 -218 -198 -316 -350 -316
c-132 0 -217 72 -217 131c0 49 38 84 87 84c68 0 71 -107 141 -107c71 0 103 93 126 240z" />
    <glyph glyph-name="section" unicode="&#xa7;" horiz-adv-x="640" 
d="M586 0c0 -150 -158 -230 -290 -230c-57 0 -207 24 -226 76c-14 39 -29 113 -29 140c0 25 16 47 43 47c82 0 79 -179 209 -179c50 0 111 41 111 94c0 154 -376 86 -376 315c0 72 42 121 98 159c-35 40 -60 69 -60 124c0 120 98 202 267 202c56 0 117 -9 176 -34
c33 -14 55 -101 55 -131c0 -26 -17 -46 -43 -46c-61 0 -83 127 -197 127c-41 0 -82 -23 -82 -67c0 -128 360 -63 360 -292c0 -68 -32 -118 -82 -162c45 -43 66 -79 66 -143zM180 329c0 -68 118 -64 265 -136c12 16 21 31 21 51c0 53 -94 69 -261 133
c-16 -12 -25 -28 -25 -48z" />
    <glyph glyph-name="currency" unicode="&#xa4;" 
d="M666 602l-68 -66c35 -42 56 -106 56 -170s-21 -128 -56 -170l68 -66l-70 -69l-68 69c-38 -39 -103 -60 -168 -60c-66 0 -131 21 -169 60l-68 -69l-69 69l67 66c-36 42 -57 106 -57 170s21 128 57 170l-67 66l69 69l68 -69c38 38 103 60 169 60c65 0 130 -22 168 -60
l68 69zM361 194c93 0 163 80 163 172s-70 172 -163 172c-95 0 -167 -77 -167 -172c0 -97 73 -172 167 -172z" />
    <glyph glyph-name="quotesingle" unicode="'" horiz-adv-x="222" 
d="M111 748c40 0 58 -21 58 -69c0 -36 -6 -91 -19 -216c-3 -28 -8 -45 -35 -45c-35 0 -40 17 -43 45c-13 125 -19 180 -19 216c0 48 18 69 58 69z" />
    <glyph glyph-name="quotedblleft" unicode="&#x201c;" horiz-adv-x="580" 
d="M161 468c-57 0 -114 35 -114 98c0 92 120 182 157 182c12 0 32 -10 32 -23c0 -9 -54 -51 -72 -101c9 2 18 4 27 4c42 0 76 -28 76 -71c0 -55 -57 -89 -106 -89zM427 468c-57 0 -114 35 -114 98c0 92 120 182 157 182c12 0 32 -10 32 -23c0 -9 -54 -51 -72 -101
c9 2 18 4 27 4c42 0 76 -28 76 -71c0 -55 -57 -89 -106 -89z" />
    <glyph glyph-name="guillemotleft" unicode="&#xab;" horiz-adv-x="400" 
d="M17 246c0 35 147 185 167 185c12 0 25 -7 25 -21c0 -26 -74 -130 -74 -159c0 -24 78 -143 78 -174c0 -14 -13 -22 -26 -22c-21 0 -170 160 -170 191zM187 246c0 35 147 185 167 185c12 0 25 -7 25 -21c0 -26 -74 -130 -74 -159c0 -24 78 -143 78 -174
c0 -14 -13 -22 -26 -22c-21 0 -170 160 -170 191z" />
    <glyph glyph-name="guilsinglleft" unicode="&#x2039;" horiz-adv-x="230" 
d="M17 246c0 35 147 185 167 185c12 0 25 -7 25 -21c0 -26 -74 -130 -74 -159c0 -24 78 -143 78 -174c0 -14 -13 -22 -26 -22c-21 0 -170 160 -170 191z" />
    <glyph glyph-name="guilsinglright" unicode="&#x203a;" horiz-adv-x="230" 
d="M213 246c0 -31 -149 -191 -170 -191c-13 0 -26 8 -26 22c0 31 78 150 78 174c0 29 -74 133 -74 159c0 14 13 21 25 21c20 0 167 -150 167 -185z" />
    <glyph glyph-name="fi" unicode="&#xfb01;" horiz-adv-x="710" 
d="M300 486h279c58 0 72 -13 72 -90v-280c0 -53 38 -37 38 -77c0 -17 -18 -39 -52 -39h-192c-34 0 -52 22 -52 39c0 40 38 24 38 77v162c0 104 -6 112 -110 112h-21v-268c0 -60 51 -38 51 -83c0 -30 -25 -39 -64 -39h-194c-39 0 -64 9 -64 39c0 45 51 23 51 83v268h-16
c-37 0 -51 17 -51 48s14 48 51 48h16v17c0 214 103 257 290 257c209 0 260 -71 260 -127c0 -59 -38 -90 -103 -90c-48 0 -100 27 -108 78c-4 26 -19 37 -55 37c-51 0 -64 -10 -64 -71v-101z" />
    <glyph glyph-name="fl" unicode="&#xfb02;" horiz-adv-x="710" 
d="M300 390v-266c0 -60 51 -38 51 -83c0 -30 -25 -39 -64 -39h-194c-39 0 -64 9 -64 39c0 45 51 23 51 83v268h-16c-37 0 -51 17 -51 48s14 48 51 48h16v56c0 121 67 216 215 216h304c42 0 60 -16 60 -112v-532c0 -53 52 -37 52 -77c0 -17 -18 -39 -52 -39h-220
c-34 0 -52 22 -52 39c0 40 52 24 52 77v472c0 58 -28 72 -70 72c-54 0 -69 -22 -69 -88v-86h49c37 0 51 -17 51 -48s-14 -48 -51 -48h-49z" />
    <glyph glyph-name="endash" unicode="&#x2013;" horiz-adv-x="500" 
d="M460 161h-420c-44 0 -58 27 -58 82s14 82 58 82h420c44 0 58 -27 58 -82s-14 -82 -58 -82z" />
    <glyph glyph-name="dagger" unicode="&#x2020;" horiz-adv-x="530" 
d="M222 -163l-41 454l31 131c-41 -7 -95 -17 -131 -17c-41 0 -72 29 -72 72c0 40 33 70 72 70c38 0 113 -16 132 -19c-6 55 -21 121 -21 154c0 38 37 66 73 66s73 -28 73 -66c0 -33 -15 -99 -21 -154c19 3 94 19 132 19c39 0 72 -30 72 -70c0 -43 -31 -72 -72 -72
c-36 0 -90 10 -131 17l31 -131l-41 -454c-2 -27 -4 -59 -43 -59s-41 32 -43 59z" />
    <glyph glyph-name="daggerdbl" unicode="&#x2021;" horiz-adv-x="530" 
d="M318 422l13 -79l-13 -82c18 3 93 19 131 19c39 0 72 -30 72 -70c0 -43 -31 -72 -72 -72c-36 0 -90 10 -131 17l16 -107l-26 -239c-5 -48 -18 -61 -42 -61s-36 13 -42 61l-28 239l16 107c-41 -7 -95 -17 -131 -17c-41 0 -72 29 -72 72c0 40 33 70 72 70
c38 0 113 -16 131 -19l-14 82l14 79c-41 -7 -95 -17 -131 -17c-41 0 -72 29 -72 72c0 40 33 70 72 70c38 0 113 -16 131 -19c-5 55 -20 121 -20 154c0 38 37 66 73 66s73 -28 73 -66c0 -33 -15 -99 -20 -154c18 3 93 19 131 19c39 0 72 -30 72 -70c0 -43 -31 -72 -72 -72
c-36 0 -90 10 -131 17z" />
    <glyph glyph-name="periodcentered" unicode="&#xb7;" horiz-adv-x="360" 
d="M80 243c0 55 45 100 100 100s100 -45 100 -100s-45 -100 -100 -100s-100 45 -100 100z" />
    <glyph glyph-name="paragraph" unicode="&#xb6;" horiz-adv-x="810" 
d="M354 732h297c55 0 65 -13 65 -65v-785c0 -42 -13 -60 -64 -60s-64 18 -64 60v726c0 28 -8 34 -33 34s-33 -6 -33 -34v-726c0 -42 -13 -60 -64 -60s-64 18 -64 60v384c-34 -25 -63 -38 -106 -38c-131 0 -220 111 -220 237c0 165 127 267 286 267z" />
    <glyph glyph-name="bullet" unicode="&#x2022;" horiz-adv-x="400" 
d="M17 366c0 101 82 183 183 183s183 -82 183 -183s-82 -183 -183 -183s-183 82 -183 183z" />
    <glyph glyph-name="quotesinglbase" unicode="&#x201a;" horiz-adv-x="340" 
d="M166 160c57 0 114 -35 114 -98c0 -92 -120 -182 -157 -182c-12 0 -32 10 -32 23c0 9 54 51 72 101c-9 -2 -18 -4 -27 -4c-42 0 -76 28 -76 71c0 55 57 89 106 89z" />
    <glyph glyph-name="quotedblbase" unicode="&#x201e;" horiz-adv-x="580" 
d="M419 160c57 0 114 -35 114 -98c0 -92 -120 -182 -157 -182c-12 0 -32 10 -32 23c0 9 54 51 72 101c-9 -2 -18 -4 -27 -4c-42 0 -76 28 -76 71c0 55 57 89 106 89zM153 160c57 0 114 -35 114 -98c0 -92 -120 -182 -157 -182c-12 0 -32 10 -32 23c0 9 54 51 72 101
c-9 -2 -18 -4 -27 -4c-42 0 -76 28 -76 71c0 55 57 89 106 89z" />
    <glyph glyph-name="quotedblright" unicode="&#x201d;" horiz-adv-x="580" 
d="M419 748c57 0 114 -35 114 -98c0 -92 -120 -182 -157 -182c-12 0 -32 10 -32 23c0 9 54 51 72 101c-9 -2 -18 -4 -27 -4c-42 0 -76 28 -76 71c0 55 57 89 106 89zM153 748c57 0 114 -35 114 -98c0 -92 -120 -182 -157 -182c-12 0 -32 10 -32 23c0 9 54 51 72 101
c-9 -2 -18 -4 -27 -4c-42 0 -76 28 -76 71c0 55 57 89 106 89z" />
    <glyph glyph-name="guillemotright" unicode="&#xbb;" horiz-adv-x="400" 
d="M383 246c0 -31 -149 -191 -170 -191c-13 0 -26 8 -26 22c0 31 78 150 78 174c0 29 -74 133 -74 159c0 14 13 21 25 21c20 0 167 -150 167 -185zM213 246c0 -31 -149 -191 -170 -191c-13 0 -26 8 -26 22c0 31 78 150 78 174c0 29 -74 133 -74 159c0 14 13 21 25 21
c20 0 167 -150 167 -185z" />
    <glyph glyph-name="ellipsis" unicode="&#x2026;" horiz-adv-x="1000" 
d="M167 180c56 0 122 -37 122 -98s-66 -98 -122 -98s-122 37 -122 98s66 98 122 98zM500 180c56 0 122 -37 122 -98s-66 -98 -122 -98s-122 37 -122 98s66 98 122 98zM833 180c56 0 122 -37 122 -98s-66 -98 -122 -98s-122 37 -122 98s66 98 122 98z" />
    <glyph glyph-name="perthousand" unicode="&#x2030;" horiz-adv-x="1330" 
d="M924 177c0 112 85 193 195 193s195 -81 195 -193s-85 -193 -195 -193s-195 81 -195 193zM1119 26c34 0 47 45 47 151s-13 151 -47 151s-47 -45 -47 -151s13 -151 47 -151zM16 555c0 112 85 193 195 193s195 -81 195 -193s-85 -193 -195 -193s-195 81 -195 193zM211 404
c34 0 47 45 47 151s-13 151 -47 151s-47 -45 -47 -151s13 -151 47 -151zM478 177c0 112 85 193 195 193s195 -81 195 -193s-85 -193 -195 -193s-195 81 -195 193zM673 26c34 0 47 45 47 151s-13 151 -47 151s-47 -45 -47 -151s13 -151 47 -151zM125 38l530 666
c20 25 30 44 84 44c35 0 41 -10 41 -17c0 -11 -9 -22 -19 -34l-539 -685c-21 -26 -42 -28 -68 -28c-40 0 -51 4 -51 18c0 10 9 20 22 36z" />
    <glyph glyph-name="questiondown" unicode="&#xbf;" horiz-adv-x="580" 
d="M267 280v34c0 34 16 52 56 52c52 0 70 -10 70 -60v-110c0 -72 -127 -22 -127 -212c0 -58 25 -90 60 -90c34 0 48 22 48 52c0 62 23 95 93 95c62 0 91 -31 91 -76c0 -73 -93 -151 -251 -151c-176 0 -285 90 -285 213c0 94 61 140 122 171c62 31 123 47 123 82zM322 578
c80 0 122 -48 122 -91s-42 -91 -122 -91s-122 48 -122 91s42 91 122 91z" />
    <glyph glyph-name="grave" unicode="`" horiz-adv-x="330" 
d="M100 732h45c24 0 41 -2 67 -46c27 -44 67 -102 67 -121c0 -13 -12 -21 -25 -21c-18 0 -146 87 -177 106c-22 14 -36 31 -36 45c0 36 31 37 59 37z" />
    <glyph glyph-name="acute" unicode="&#xb4;" horiz-adv-x="330" 
d="M185 732h45c28 0 59 -1 59 -37c0 -14 -14 -31 -36 -45c-31 -19 -159 -106 -177 -106c-13 0 -25 8 -25 21c0 19 40 77 67 121c26 44 43 46 67 46z" />
    <glyph glyph-name="circumflex" unicode="&#x2c6;" horiz-adv-x="330" 
d="M166 636l-126 -75c-16 -11 -27 -17 -36 -17c-10 0 -18 9 -18 19c0 11 11 23 20 34l94 99c21 22 41 46 66 46c24 0 46 -26 65 -46l94 -99c10 -11 20 -22 20 -36c0 -9 -10 -17 -18 -17c-10 0 -23 9 -36 17z" />
    <glyph glyph-name="tilde" unicode="&#x2dc;" horiz-adv-x="330" 
d="M98 706c90 0 140 -67 184 -67c28 0 46 42 66 42c15 0 19 -9 19 -17c0 -40 -62 -110 -131 -110c-82 0 -140 68 -181 68c-42 0 -45 -61 -71 -61c-15 0 -21 7 -21 19c0 55 72 126 135 126z" />
    <glyph glyph-name="macron" unicode="&#xaf;" horiz-adv-x="330" 
d="M69 685h192c56 0 81 -10 81 -55s-25 -55 -81 -55h-192c-56 0 -81 10 -81 55s25 55 81 55z" />
    <glyph glyph-name="breve" unicode="&#x2d8;" horiz-adv-x="330" 
d="M326 707c15 0 19 -15 19 -28c0 -76 -85 -151 -180 -151c-96 0 -180 75 -180 151c0 16 3 32 18 32c35 0 46 -96 162 -96c115 0 129 92 161 92z" />
    <glyph glyph-name="dotaccent" unicode="&#x2d9;" horiz-adv-x="330" 
d="M165 554c-53 0 -84 39 -84 76s31 76 84 76s84 -39 84 -76s-31 -76 -84 -76z" />
    <glyph glyph-name="dieresis" unicode="&#xa8;" horiz-adv-x="330" 
d="M47 554c-53 0 -84 39 -84 76s31 76 84 76s84 -39 84 -76s-31 -76 -84 -76zM283 554c-53 0 -84 39 -84 76s31 76 84 76s84 -39 84 -76s-31 -76 -84 -76z" />
    <glyph glyph-name="ring" unicode="&#x2da;" horiz-adv-x="330" 
d="M165 775c65 0 120 -52 120 -120s-55 -120 -120 -120s-120 52 -120 120s55 120 120 120zM165 701c-24 0 -46 -19 -46 -46s22 -46 46 -46s46 19 46 46s-22 46 -46 46z" />
    <glyph glyph-name="cedilla" unicode="&#xb8;" horiz-adv-x="330" 
d="M179 0l-19 -55h20c65 0 102 -33 102 -92c0 -69 -54 -92 -126 -92c-66 0 -95 33 -95 54c0 13 9 24 22 24c19 0 39 -20 62 -20c22 0 41 14 41 37c0 21 -12 31 -33 31c-29 0 -44 -6 -53 -6c-7 0 -12 6 -12 12c0 11 4 20 6 26l28 81h57z" />
    <glyph glyph-name="hungarumlaut" unicode="&#x2dd;" horiz-adv-x="330" 
d="M86 732h46c28 0 59 -1 59 -37c0 -14 -14 -31 -37 -45c-30 -19 -151 -106 -169 -106c-13 0 -25 8 -25 21c0 19 40 77 67 121c22 44 39 46 59 46zM296 732h45c28 0 59 -1 59 -37c0 -14 -14 -31 -36 -45c-31 -19 -159 -106 -177 -106c-13 0 -25 8 -25 21c0 19 40 77 67 121
c26 44 43 46 67 46z" />
    <glyph glyph-name="ogonek" unicode="&#x2db;" horiz-adv-x="330" 
d="M106 0h91c-24 -19 -50 -51 -50 -87c0 -25 13 -41 42 -41c36 0 56 27 73 27c14 0 25 -9 25 -29c0 -28 -51 -56 -130 -56c-67 0 -106 33 -106 92c0 38 30 74 55 94z" />
    <glyph glyph-name="caron" unicode="&#x2c7;" horiz-adv-x="330" 
d="M164 650l126 75c16 11 27 17 36 17c10 0 18 -9 18 -19c0 -11 -11 -23 -20 -34l-94 -99c-21 -22 -41 -46 -66 -46c-24 0 -46 26 -65 46l-94 99c-10 11 -20 22 -20 36c0 9 10 17 18 17c10 0 23 -9 36 -17z" />
    <glyph glyph-name="emdash" unicode="&#x2014;" horiz-adv-x="1000" 
d="M960 161h-920c-44 0 -58 27 -58 82s14 82 58 82h920c44 0 58 -27 58 -82s-14 -82 -58 -82z" />
    <glyph glyph-name="AE" unicode="&#xc6;" horiz-adv-x="1050" 
d="M472 122v157h-234c-54 -115 -65 -151 -65 -165c0 -36 62 -24 62 -76c0 -26 -21 -38 -61 -38h-146c-38 0 -51 18 -51 43c0 41 49 31 65 66c90 198 207 418 298 554c40 60 68 69 116 69h470c56 0 81 -14 81 -60v-46c0 -42 -25 -60 -48 -60c-78 0 -38 76 -156 76
c-77 0 -91 -7 -91 -76v-138h78c79 0 63 41 106 41c28 0 42 -17 42 -90s-14 -92 -42 -92c-43 0 -27 41 -106 41h-78v-133c0 -95 19 -105 111 -105c139 0 88 93 160 93c32 0 51 -21 51 -53c0 -18 -10 -89 -22 -110c-10 -17 -31 -20 -74 -20h-455c-51 0 -64 15 -64 40
c0 52 53 28 53 82zM286 379h186v241c0 18 -4 22 -9 22c-15 0 -67 -64 -177 -263z" />
    <glyph glyph-name="ordfeminine" unicode="&#xaa;" horiz-adv-x="460" 
d="M400 632v-105c0 -37 34 -28 34 -55c0 -16 -12 -22 -33 -22h-97c-29 0 -37 4 -42 31c-21 -29 -62 -37 -97 -37c-82 0 -121 49 -121 95c0 62 58 103 210 103c-1 47 -11 58 -38 58c-37 0 -37 -45 -90 -45c-36 0 -54 15 -54 35c0 35 48 58 159 58c90 0 169 -21 169 -116z
M188 538c0 -21 12 -34 29 -34c31 0 39 42 39 94c-39 0 -68 -21 -68 -60z" />
    <glyph glyph-name="Lslash" unicode="&#x141;" horiz-adv-x="600" 
d="M307 348v-197c0 -58 11 -61 84 -61c123 0 101 113 175 113c25 0 48 -17 48 -44c0 -28 -24 -104 -37 -130c-12 -24 -23 -29 -64 -29h-435c-51 0 -64 15 -64 40c0 52 53 28 53 82v107l-13 -7c-13 -6 -29 -12 -48 -12c-16 0 -21 24 -21 40c0 26 24 41 48 53l34 17v290
c0 54 -53 30 -53 82c0 25 13 40 64 40h218c51 0 64 -15 64 -40c0 -52 -53 -28 -53 -82v-171l128 64c12 6 28 15 41 15c18 0 29 -22 29 -38c0 -33 -28 -47 -49 -58z" />
    <glyph glyph-name="Oslash" unicode="&#xd8;" horiz-adv-x="890" 
d="M296 199l249 420c-25 25 -58 39 -100 39c-116 0 -170 -104 -170 -292c0 -66 7 -122 21 -167zM594 531l-249 -418c26 -26 59 -39 100 -39c116 0 170 104 170 292c0 66 -7 122 -21 165zM731 761l-46 -77c107 -64 180 -173 180 -318c0 -240 -201 -382 -420 -382
c-56 0 -110 9 -160 27l-40 -67c-15 -25 -31 -36 -59 -36c-22 0 -36 11 -36 29c0 11 3 23 11 34l46 77c-108 62 -182 172 -182 318c0 240 201 382 420 382c56 0 110 -9 160 -28l40 68c15 25 31 36 59 36c22 0 36 -11 36 -29c0 -11 -3 -23 -9 -34z" />
    <glyph glyph-name="OE" unicode="&#x152;" horiz-adv-x="1220" 
d="M840 328v-133c0 -95 18 -105 110 -105c182 0 131 93 203 93c32 0 51 -21 51 -53c0 -18 -10 -89 -22 -110c-10 -17 -31 -20 -74 -20h-448c-36 0 -38 -1 -38 36v15c-65 -41 -153 -67 -232 -67c-215 0 -362 151 -362 368c0 224 177 396 397 396c75 0 136 -21 198 -59l-1 7
c0 29 6 36 39 36h435c56 0 81 -14 81 -60v-46c0 -42 -25 -60 -48 -60c-77 0 -25 76 -199 76c-77 0 -90 -7 -90 -76v-138h120c79 0 63 41 106 41c28 0 42 -17 42 -90s-14 -92 -42 -92c-43 0 -27 41 -106 41h-120zM278 366c0 -198 66 -292 159 -292s159 94 159 292
s-66 292 -159 292s-159 -94 -159 -292z" />
    <glyph glyph-name="ordmasculine" unicode="&#xba;" horiz-adv-x="460" 
d="M230 748c95 0 200 -54 201 -152c-1 -99 -106 -152 -201 -152c-96 0 -200 53 -201 152c1 98 105 152 201 152zM179 596c0 -67 17 -100 51 -100c33 0 51 33 51 100c0 66 -18 100 -51 100c-34 0 -51 -34 -51 -100z" />
    <glyph glyph-name="ae" unicode="&#xe6;" horiz-adv-x="930" 
d="M307 410c-76 0 -84 -82 -166 -82c-54 0 -84 26 -84 57c0 57 110 111 237 111c69 0 145 -17 192 -73c53 52 133 73 205 73c94 0 220 -44 220 -148s-112 -142 -316 -178c8 -38 37 -86 114 -86c93 0 131 70 168 70c20 0 39 -16 39 -36c0 -72 -151 -128 -246 -128
c-71 0 -146 20 -194 76c-57 -60 -142 -76 -221 -76c-124 0 -234 46 -234 152c0 108 116 154 358 154c0 98 -32 114 -72 114zM667 410c-38 0 -86 -66 -80 -154c92 12 122 64 122 102c0 30 -14 52 -42 52zM241 136c0 -32 22 -46 54 -46c61 0 84 64 84 122
c-92 0 -138 -32 -138 -76z" />
    <glyph glyph-name="dotlessi" unicode="&#x131;" horiz-adv-x="330" 
d="M56 116v224c0 56 -58 34 -58 80c0 26 30 43 69 47c49 5 139 29 159 29c30 0 50 -20 50 -92v-288c0 -53 38 -37 38 -77c0 -17 -18 -39 -52 -39h-192c-34 0 -52 22 -52 39c0 40 38 24 38 77z" />
    <glyph glyph-name="lslash" unicode="&#x142;" horiz-adv-x="340" 
d="M289 412v-296c0 -53 52 -37 52 -77c0 -17 -18 -39 -52 -39h-220c-34 0 -52 22 -52 39c0 40 52 24 52 77v168l-36 -21c-12 -7 -20 -12 -31 -12c-17 0 -23 20 -23 40c0 29 15 43 38 56l52 30v227c0 56 -58 34 -58 80c0 26 30 43 69 47c49 5 139 29 159 29
c30 0 50 -20 50 -92v-165l31 18c15 9 30 18 39 18c14 0 20 -21 20 -41c0 -29 -14 -42 -43 -59z" />
    <glyph glyph-name="oslash" unicode="&#xf8;" horiz-adv-x="650" 
d="M244 185l120 213c-11 8 -24 12 -39 12c-56 0 -86 -56 -86 -167c0 -21 1 -40 3 -58h2zM406 304l-123 -214c12 -9 26 -14 42 -14c56 0 86 56 86 167c0 23 -1 43 -3 61h-2zM526 510l-32 -55c79 -40 138 -112 139 -212c-1 -164 -161 -253 -308 -253c-31 0 -63 4 -93 12
l-38 -65c-11 -18 -29 -17 -48 -17c-26 0 -34 13 -34 26c0 16 10 27 16 38l27 48c-79 40 -137 112 -138 211c1 164 161 253 308 253c30 0 60 -4 89 -11l34 61c8 14 21 20 52 20c17 0 34 -6 38 -20c0 -12 -6 -25 -12 -36z" />
    <glyph glyph-name="oe" unicode="&#x153;" horiz-adv-x="990" 
d="M247 243c0 -111 26 -167 78 -167s78 56 78 167s-26 167 -78 167s-78 -56 -78 -167zM17 243c1 164 161 253 308 253c71 0 145 -21 203 -61c59 40 135 61 208 61c153 0 233 -78 233 -147c0 -119 -152 -151 -314 -179c14 -48 54 -86 110 -86c93 0 130 80 172 80
c20 0 39 -12 39 -34c0 -69 -145 -140 -264 -140c-69 0 -139 19 -193 56c-55 -37 -126 -56 -194 -56c-147 0 -307 89 -308 253zM767 358c0 23 -10 52 -38 52c-50 0 -82 -70 -82 -154c58 2 120 38 120 102z" />
    <glyph glyph-name="germandbls" unicode="&#xdf;" horiz-adv-x="730" 
d="M287 534v-422c0 -94 -16 -112 -61 -112h-145c-50 0 -64 16 -64 38c0 46 50 24 50 85v346c0 196 118 279 304 279c180 0 290 -86 290 -201c0 -84 -49 -135 -128 -154v-2c106 -11 181 -78 181 -193c0 -124 -93 -214 -230 -214c-113 0 -174 56 -174 144c0 51 27 112 85 112
c21 0 39 -16 39 -38c0 -27 -28 -35 -28 -60c0 -23 16 -40 38 -40c37 0 72 28 72 108c0 98 -54 146 -148 146c-37 0 -52 12 -52 40c0 32 15 46 53 46c54 0 86 32 86 98c0 60 -36 100 -86 100s-82 -34 -82 -106z" />
    <glyph glyph-name="onesuperior" unicode="&#xb9;" horiz-adv-x="420" 
d="M334 299h-234c-30 0 -38 8 -38 26c0 14 8 26 39 26c20 0 39 3 39 25v228c0 41 -7 48 -45 48c-37 0 -41 7 -41 24c0 12 9 18 23 23l99 28c16 5 49 21 76 21c28 0 44 -9 44 -51v-321c0 -22 17 -25 36 -25c31 0 39 -12 39 -26c0 -18 -8 -26 -37 -26z" />
    <glyph glyph-name="logicalnot" unicode="&#xac;" horiz-adv-x="600" 
d="M387 56v218h-330v156h486v-374h-156z" />
    <glyph glyph-name="mu" unicode="&#xb5;" horiz-adv-x="670" 
d="M273 421v-241c0 -64 22 -88 53 -88s53 24 53 88v182c0 41 -44 29 -44 61c0 26 8 34 34 40l131 29c12 3 22 4 38 4c49 0 61 -22 61 -75v-297c0 -62 51 -38 51 -87c0 -27 -17 -37 -63 -37h-123c-47 0 -59 7 -68 54c-38 -35 -73 -53 -123 -60v-126c0 -44 -25 -54 -110 -54
s-110 10 -110 54v494c-1 46 -44 32 -44 71c0 16 10 28 33 33l132 26c12 2 22 4 38 4c49 0 61 -22 61 -75z" />
    <glyph glyph-name="trademark" unicode="&#x2122;" horiz-adv-x="990" 
d="M256 692v-304c0 -32 4 -39 47 -42v-32h-217v32c44 3 48 10 48 42v304h-38c-38 0 -56 -17 -59 -48h-32v88h379v-88h-32c-3 31 -20 48 -59 48h-37zM663 315l-131 285h-2v-181c0 -59 16 -71 48 -73v-32h-135v32c32 2 43 14 43 73v220c-4 33 -33 53 -64 55v38h157l125 -266
l139 266h142v-38c-44 -2 -48 -12 -48 -42v-264c0 -32 4 -39 47 -42v-32h-216v32c43 3 47 10 47 42v204h-3l-133 -277h-16z" />
    <glyph glyph-name="Eth" unicode="&#xd0;" horiz-adv-x="860" 
d="M67 442v168c0 54 -53 30 -53 82c0 25 13 40 64 40h351c219 0 394 -114 394 -366s-175 -366 -394 -366h-351c-51 0 -64 15 -64 40c0 52 53 28 53 82v230h-22c-32 0 -46 14 -46 45s14 45 46 45h22zM307 442h138c32 0 46 -14 46 -45s-14 -45 -46 -45h-138v-185
c0 -61 11 -77 48 -77c132 0 218 132 218 276s-86 276 -218 276c-37 0 -48 -16 -48 -77v-123z" />
    <glyph glyph-name="onehalf" unicode="&#xbd;" horiz-adv-x="1080" 
d="M860 94h72c88 0 87 33 114 33c14 0 22 -7 22 -21c0 -11 -15 -51 -21 -76c-5 -24 -12 -30 -49 -30h-279c-30 0 -47 8 -47 31c0 93 223 185 223 312c0 35 -17 52 -46 52c-26 0 -51 -21 -51 -48c0 -18 13 -28 13 -43c0 -21 -27 -36 -61 -36c-41 0 -70 22 -70 61
c0 73 87 120 196 120c120 0 183 -55 183 -119c0 -103 -129 -172 -199 -236zM783 682l-371 -654c-14 -25 -33 -44 -71 -44c-26 0 -42 8 -42 26c0 14 8 22 19 42l369 652c14 25 33 44 71 44c26 0 42 -8 42 -26c0 -14 -7 -22 -17 -40zM334 299h-234c-30 0 -38 8 -38 26
c0 14 8 26 39 26c20 0 39 3 39 25v228c0 41 -7 48 -45 48c-37 0 -41 7 -41 24c0 12 9 18 23 23l99 28c16 5 49 21 76 21c28 0 44 -9 44 -51v-321c0 -22 17 -25 36 -25c31 0 39 -12 39 -26c0 -18 -8 -26 -37 -26z" />
    <glyph glyph-name="plusminus" unicode="&#xb1;" horiz-adv-x="600" 
d="M222 407v79h156v-79h165v-156h-165v-79h-156v79h-165v156h165zM57 0v144h486v-144h-486z" />
    <glyph glyph-name="Thorn" unicode="&#xde;" horiz-adv-x="710" 
d="M310 600h103c181 0 303 -56 303 -207c0 -153 -147 -231 -406 -251v-20c0 -54 53 -30 53 -82c0 -25 -13 -40 -64 -40h-218c-51 0 -67 15 -67 40c0 52 56 28 56 82v488c0 54 -56 30 -56 82c0 25 16 40 67 40h218c51 0 64 -15 64 -40c0 -52 -53 -28 -53 -82v-10zM310 489
v-254c83 20 156 73 156 163c0 66 -44 120 -112 120c-26 0 -39 -10 -44 -29z" />
    <glyph glyph-name="onequarter" unicode="&#xbc;" horiz-adv-x="1080" 
d="M999 108v-48c0 -29 31 -7 31 -37c0 -16 -9 -23 -38 -23h-155c-30 0 -38 7 -38 22c0 31 39 14 39 38v48h-125c-44 0 -52 8 -52 27c0 50 143 311 236 311h57c27 0 45 -13 45 -60v-226h36c24 0 32 -8 32 -26s-8 -26 -32 -26h-36zM843 160v180h-2c-45 -54 -83 -116 -108 -180
h110zM809 682l-371 -654c-14 -25 -33 -44 -71 -44c-26 0 -42 8 -42 26c0 14 8 22 19 42l369 652c14 25 33 44 71 44c26 0 42 -8 42 -26c0 -14 -7 -22 -17 -40zM334 299h-234c-30 0 -38 8 -38 26c0 14 8 26 39 26c20 0 39 3 39 25v228c0 41 -7 48 -45 48c-37 0 -41 7 -41 24
c0 12 9 18 23 23l99 28c16 5 49 21 76 21c28 0 44 -9 44 -51v-321c0 -22 17 -25 36 -25c31 0 39 -12 39 -26c0 -18 -8 -26 -37 -26z" />
    <glyph glyph-name="divide" unicode="&#xf7;" horiz-adv-x="600" 
d="M543 165h-486v156h486v-156zM205 462c0 52 43 95 95 95s95 -43 95 -95s-43 -95 -95 -95s-95 43 -95 95zM205 24c0 52 43 95 95 95s95 -43 95 -95s-43 -95 -95 -95s-95 43 -95 95z" />
    <glyph glyph-name="brokenbar" unicode="&#xa6;" horiz-adv-x="340" 
d="M92 0v296h156v-296h-156zM92 464v296h156v-296h-156z" />
    <glyph glyph-name="degree" unicode="&#xb0;" horiz-adv-x="400" 
d="M200 682c-49 0 -85 -40 -85 -89s36 -89 85 -89s85 40 85 89s-36 89 -85 89zM200 748c86 0 157 -71 157 -155s-71 -155 -157 -155s-157 71 -157 155s71 155 157 155z" />
    <glyph glyph-name="thorn" unicode="&#xfe;" horiz-adv-x="670" 
d="M64 -56v650c0 85 -57 44 -57 91c0 21 20 33 67 49c29 10 98 26 137 26c48 0 73 -26 73 -56v-250c39 30 87 42 127 42c144 0 242 -113 242 -254c0 -140 -109 -252 -250 -252c-60 0 -98 22 -98 63c0 22 12 35 32 35c50 0 86 56 86 148c0 94 -38 162 -82 162
c-46 0 -57 -42 -57 -100v-354c0 -60 51 -38 51 -83c0 -27 -20 -39 -64 -39h-194c-44 0 -64 12 -64 39c0 45 51 23 51 83z" />
    <glyph glyph-name="threequarters" unicode="&#xbe;" horiz-adv-x="1080" 
d="M999 108v-48c0 -29 31 -7 31 -37c0 -16 -9 -23 -38 -23h-155c-30 0 -38 7 -38 22c0 31 39 14 39 38v48h-125c-44 0 -52 8 -52 27c0 50 143 311 236 311h57c27 0 45 -13 45 -60v-226h36c24 0 32 -8 32 -26s-8 -26 -32 -26h-36zM843 160v180h-2c-45 -54 -83 -116 -108 -180
h110zM796 682l-371 -654c-14 -25 -33 -44 -71 -44c-26 0 -42 8 -42 26c0 14 8 22 19 42l369 652c14 25 33 44 71 44c26 0 42 -8 42 -26c0 -14 -7 -22 -17 -40zM38 645c0 61 66 103 169 103c107 0 178 -46 178 -114c0 -54 -43 -85 -97 -96v-2c65 -9 117 -50 117 -114
c0 -80 -84 -133 -201 -133c-120 0 -190 41 -190 95c0 36 31 49 65 49c39 0 53 -7 57 -43c5 -41 13 -55 46 -55c36 0 61 28 61 85c0 55 -17 84 -98 84c-31 0 -46 4 -46 24s7 28 40 28c62 0 88 27 88 86c0 41 -14 54 -37 54c-21 0 -34 -9 -34 -28c0 -10 7 -24 7 -35
c0 -21 -22 -33 -59 -33c-44 0 -66 15 -66 45z" />
    <glyph glyph-name="twosuperior" unicode="&#xb2;" horiz-adv-x="420" 
d="M200 393h72c88 0 87 33 114 33c14 0 22 -7 22 -21c0 -11 -15 -51 -21 -76c-5 -24 -12 -30 -49 -30h-279c-30 0 -47 8 -47 31c0 93 223 185 223 312c0 35 -17 52 -46 52c-26 0 -51 -21 -51 -48c0 -18 13 -28 13 -43c0 -21 -27 -36 -61 -36c-41 0 -70 22 -70 61
c0 73 87 120 196 120c120 0 183 -55 183 -119c0 -103 -129 -172 -199 -236z" />
    <glyph glyph-name="registered" unicode="&#xae;" horiz-adv-x="860" 
d="M250 557v26h220c67 0 118 -34 118 -111c0 -46 -29 -93 -82 -109l61 -90c22 -32 45 -62 65 -87v-15h-106c-31 0 -66 108 -108 178h-18v-115c0 -32 4 -40 42 -41v-22h-192v22c38 1 42 9 42 41v281c0 31 -4 40 -42 42zM400 545v-162h24c34 0 56 25 56 84s-18 78 -52 78h-28z
M430 748c227 0 382 -167 382 -382s-155 -382 -382 -382c-228 0 -382 167 -382 382s154 382 382 382zM712 366c0 173 -116 308 -282 306c-166 2 -282 -133 -282 -306s116 -306 282 -306s282 133 282 306z" />
    <glyph glyph-name="minus" unicode="&#x2212;" horiz-adv-x="600" 
d="M543 165h-486v156h486v-156z" />
    <glyph glyph-name="eth" unicode="&#xf0;" horiz-adv-x="650" 
d="M247 243c0 -111 26 -167 78 -167s78 56 78 167s-26 167 -78 167s-78 -56 -78 -167zM133 600l83 42c-33 22 -66 37 -91 43c-16 5 -32 18 -32 39c0 20 15 36 49 36c60 0 127 -22 192 -59l72 36c23 12 45 23 67 23c21 0 40 -20 40 -39c0 -9 -4 -26 -19 -34l-81 -40
c123 -94 221 -239 220 -373c-1 -182 -136 -284 -308 -284c-147 0 -307 89 -308 253c1 163 160 252 311 253c13 0 20 0 28 -2c-12 31 -37 63 -68 91l-98 -49c-17 -8 -31 -14 -47 -14c-20 0 -36 16 -36 36c0 16 12 34 26 42z" />
    <glyph glyph-name="multiply" unicode="&#xd7;" horiz-adv-x="600" 
d="M411 243l132 -133l-111 -110l-132 133l-132 -133l-111 110l132 133l-132 133l111 110l132 -133l132 133l111 -110z" />
    <glyph glyph-name="threesuperior" unicode="&#xb3;" horiz-adv-x="420" 
d="M38 645c0 61 66 103 169 103c107 0 178 -46 178 -114c0 -54 -43 -85 -97 -96v-2c65 -9 117 -50 117 -114c0 -80 -84 -133 -201 -133c-120 0 -190 41 -190 95c0 36 31 49 65 49c39 0 53 -7 57 -43c5 -41 13 -55 46 -55c36 0 61 28 61 85c0 55 -17 84 -98 84
c-31 0 -46 4 -46 24s7 28 40 28c62 0 88 27 88 86c0 41 -14 54 -37 54c-21 0 -34 -9 -34 -28c0 -10 7 -24 7 -35c0 -21 -22 -33 -59 -33c-44 0 -66 15 -66 45z" />
    <glyph glyph-name="copyright" unicode="&#xa9;" horiz-adv-x="860" 
d="M430 748c227 0 382 -167 382 -382s-155 -382 -382 -382c-228 0 -382 167 -382 382s154 382 382 382zM712 366c0 173 -116 308 -282 306c-166 2 -282 -133 -282 -306s116 -306 282 -306s282 133 282 306zM583 286h29l-16 -83c-2 -12 -13 -19 -32 -27
c-18 -5 -64 -21 -114 -21c-150 0 -238 80 -238 224c0 109 58 217 248 217c53 0 81 -11 110 -20c17 -6 24 -15 24 -27v-77h-38c-9 43 -31 86 -94 86c-62 0 -105 -66 -106 -190c-1 -68 26 -175 104 -175c55 0 92 33 123 93z" />
    <glyph glyph-name="Aacute" unicode="&#xc1;" horiz-adv-x="750" 
d="M435 226h-250c-21 -62 -34 -96 -34 -118c0 -40 51 -25 51 -67c0 -27 -17 -41 -59 -41h-112c-32 0 -48 12 -48 40c0 35 48 42 54 64c18 58 157 445 202 538c33 68 52 90 130 90c89 0 94 -5 129 -74c16 -32 212 -517 222 -554c11 -37 47 -24 47 -66c0 -28 -22 -38 -60 -38
h-206c-44 0 -69 14 -69 38c0 31 39 34 39 51c0 15 -10 39 -36 137zM217 326h181l-87 230zM401 958h45c28 0 59 -1 59 -37c0 -14 -14 -31 -36 -45c-31 -19 -159 -106 -177 -106c-13 0 -25 8 -25 21c0 19 40 77 67 121c26 44 43 46 67 46z" />
    <glyph glyph-name="Acircumflex" unicode="&#xc2;" horiz-adv-x="750" 
d="M435 226h-250c-21 -62 -34 -96 -34 -118c0 -40 51 -25 51 -67c0 -27 -17 -41 -59 -41h-112c-32 0 -48 12 -48 40c0 35 48 42 54 64c18 58 157 445 202 538c33 68 52 90 130 90c89 0 94 -5 129 -74c16 -32 212 -517 222 -554c11 -37 47 -24 47 -66c0 -28 -22 -38 -60 -38
h-206c-44 0 -69 14 -69 38c0 31 39 34 39 51c0 15 -10 39 -36 137zM217 326h181l-87 230zM376 862l-126 -75c-16 -11 -27 -17 -36 -17c-10 0 -18 9 -18 19c0 11 11 23 20 34l94 99c21 22 41 46 66 46c24 0 46 -26 65 -46l94 -99c10 -11 20 -22 20 -36c0 -9 -10 -17 -18 -17
c-10 0 -23 9 -36 17z" />
    <glyph glyph-name="Adieresis" unicode="&#xc4;" horiz-adv-x="750" 
d="M435 226h-250c-21 -62 -34 -96 -34 -118c0 -40 51 -25 51 -67c0 -27 -17 -41 -59 -41h-112c-32 0 -48 12 -48 40c0 35 48 42 54 64c18 58 157 445 202 538c33 68 52 90 130 90c89 0 94 -5 129 -74c16 -32 212 -517 222 -554c11 -37 47 -24 47 -66c0 -28 -22 -38 -60 -38
h-206c-44 0 -69 14 -69 38c0 31 39 34 39 51c0 15 -10 39 -36 137zM217 326h181l-87 230zM257 780c-53 0 -84 39 -84 76s31 76 84 76s84 -39 84 -76s-31 -76 -84 -76zM493 780c-53 0 -84 39 -84 76s31 76 84 76s84 -39 84 -76s-31 -76 -84 -76z" />
    <glyph glyph-name="Agrave" unicode="&#xc0;" horiz-adv-x="750" 
d="M435 226h-250c-21 -62 -34 -96 -34 -118c0 -40 51 -25 51 -67c0 -27 -17 -41 -59 -41h-112c-32 0 -48 12 -48 40c0 35 48 42 54 64c18 58 157 445 202 538c33 68 52 90 130 90c89 0 94 -5 129 -74c16 -32 212 -517 222 -554c11 -37 47 -24 47 -66c0 -28 -22 -38 -60 -38
h-206c-44 0 -69 14 -69 38c0 31 39 34 39 51c0 15 -10 39 -36 137zM217 326h181l-87 230zM310 958h45c24 0 41 -2 67 -46c27 -44 67 -102 67 -121c0 -13 -12 -21 -25 -21c-18 0 -146 87 -177 106c-22 14 -36 31 -36 45c0 36 31 37 59 37z" />
    <glyph glyph-name="Aring" unicode="&#xc5;" horiz-adv-x="750" 
d="M435 226h-250c-21 -62 -34 -96 -34 -118c0 -40 51 -25 51 -67c0 -27 -17 -41 -59 -41h-112c-32 0 -48 12 -48 40c0 35 48 42 54 64c18 58 157 445 202 538c33 68 52 90 130 90c89 0 94 -5 129 -74c16 -32 212 -517 222 -554c11 -37 47 -24 47 -66c0 -28 -22 -38 -60 -38
h-206c-44 0 -69 14 -69 38c0 31 39 34 39 51c0 15 -10 39 -36 137zM217 326h181l-87 230zM369 1001c65 0 120 -52 120 -120s-55 -120 -120 -120s-120 52 -120 120s55 120 120 120zM369 927c-24 0 -46 -19 -46 -46s22 -46 46 -46s46 19 46 46s-22 46 -46 46z" />
    <glyph glyph-name="Atilde" unicode="&#xc3;" horiz-adv-x="750" 
d="M435 226h-250c-21 -62 -34 -96 -34 -118c0 -40 51 -25 51 -67c0 -27 -17 -41 -59 -41h-112c-32 0 -48 12 -48 40c0 35 48 42 54 64c18 58 157 445 202 538c33 68 52 90 130 90c89 0 94 -5 129 -74c16 -32 212 -517 222 -554c11 -37 47 -24 47 -66c0 -28 -22 -38 -60 -38
h-206c-44 0 -69 14 -69 38c0 31 39 34 39 51c0 15 -10 39 -36 137zM217 326h181l-87 230zM300 932c90 0 140 -67 184 -67c28 0 46 42 66 42c15 0 19 -9 19 -17c0 -40 -62 -110 -131 -110c-82 0 -140 68 -181 68c-42 0 -45 -61 -71 -61c-15 0 -21 7 -21 19
c0 55 72 126 135 126z" />
    <glyph glyph-name="Ccedilla" unicode="&#xc7;" horiz-adv-x="780" 
d="M28 364c0 226 212 384 426 384c82 0 178 -24 246 -71c36 -25 41 -39 41 -140c0 -31 -22 -48 -53 -48c-77 0 -50 169 -218 169c-126 0 -192 -118 -192 -281c0 -211 96 -285 210 -285c131 0 173 120 228 120c25 0 43 -21 43 -45c0 -93 -178 -183 -290 -183
c-262 0 -441 151 -441 380zM468 0l-19 -55h20c65 0 102 -33 102 -92c0 -69 -54 -92 -126 -92c-66 0 -95 33 -95 54c0 13 9 24 22 24c19 0 39 -20 62 -20c22 0 41 14 41 37c0 21 -12 31 -33 31c-29 0 -44 -6 -53 -6c-7 0 -12 6 -12 12c0 11 4 20 6 26l28 81h57z" />
    <glyph glyph-name="Eacute" unicode="&#xc9;" horiz-adv-x="690" 
d="M68 122v488c0 54 -53 30 -53 82c0 25 13 40 64 40h488c56 0 81 -14 81 -60v-46c0 -42 -25 -60 -48 -60c-78 0 -11 76 -201 76c-77 0 -91 -7 -91 -76v-120h123c79 0 64 41 106 41c28 0 42 -17 42 -90s-14 -92 -42 -92c-43 0 -27 41 -106 41h-123v-151
c0 -95 19 -105 111 -105c184 0 133 93 205 93c32 0 51 -21 51 -53c0 -18 -10 -89 -22 -110c-10 -17 -31 -20 -74 -20h-500c-51 0 -64 15 -64 40c0 52 53 28 53 82zM379 958h45c28 0 59 -1 59 -37c0 -14 -14 -31 -36 -45c-31 -19 -159 -106 -177 -106c-13 0 -25 8 -25 21
c0 19 40 77 67 121c26 44 43 46 67 46z" />
    <glyph glyph-name="Ecircumflex" unicode="&#xca;" horiz-adv-x="690" 
d="M68 122v488c0 54 -53 30 -53 82c0 25 13 40 64 40h488c56 0 81 -14 81 -60v-46c0 -42 -25 -60 -48 -60c-78 0 -11 76 -201 76c-77 0 -91 -7 -91 -76v-120h123c79 0 64 41 106 41c28 0 42 -17 42 -90s-14 -92 -42 -92c-43 0 -27 41 -106 41h-123v-151
c0 -95 19 -105 111 -105c184 0 133 93 205 93c32 0 51 -21 51 -53c0 -18 -10 -89 -22 -110c-10 -17 -31 -20 -74 -20h-500c-51 0 -64 15 -64 40c0 52 53 28 53 82zM353 862l-126 -75c-16 -11 -27 -17 -36 -17c-10 0 -18 9 -18 19c0 11 11 23 20 34l94 99c21 22 41 46 66 46
c24 0 46 -26 65 -46l94 -99c10 -11 20 -22 20 -36c0 -9 -10 -17 -18 -17c-10 0 -23 9 -36 17z" />
    <glyph glyph-name="Edieresis" unicode="&#xcb;" horiz-adv-x="690" 
d="M68 122v488c0 54 -53 30 -53 82c0 25 13 40 64 40h488c56 0 81 -14 81 -60v-46c0 -42 -25 -60 -48 -60c-78 0 -11 76 -201 76c-77 0 -91 -7 -91 -76v-120h123c79 0 64 41 106 41c28 0 42 -17 42 -90s-14 -92 -42 -92c-43 0 -27 41 -106 41h-123v-151
c0 -95 19 -105 111 -105c184 0 133 93 205 93c32 0 51 -21 51 -53c0 -18 -10 -89 -22 -110c-10 -17 -31 -20 -74 -20h-500c-51 0 -64 15 -64 40c0 52 53 28 53 82zM234 780c-53 0 -84 39 -84 76s31 76 84 76s84 -39 84 -76s-31 -76 -84 -76zM470 780c-53 0 -84 39 -84 76
s31 76 84 76s84 -39 84 -76s-31 -76 -84 -76z" />
    <glyph glyph-name="Egrave" unicode="&#xc8;" horiz-adv-x="690" 
d="M68 122v488c0 54 -53 30 -53 82c0 25 13 40 64 40h488c56 0 81 -14 81 -60v-46c0 -42 -25 -60 -48 -60c-78 0 -11 76 -201 76c-77 0 -91 -7 -91 -76v-120h123c79 0 64 41 106 41c28 0 42 -17 42 -90s-14 -92 -42 -92c-43 0 -27 41 -106 41h-123v-151
c0 -95 19 -105 111 -105c184 0 133 93 205 93c32 0 51 -21 51 -53c0 -18 -10 -89 -22 -110c-10 -17 -31 -20 -74 -20h-500c-51 0 -64 15 -64 40c0 52 53 28 53 82zM280 958h45c24 0 41 -2 67 -46c27 -44 67 -102 67 -121c0 -13 -12 -21 -25 -21c-18 0 -146 87 -177 106
c-22 14 -36 31 -36 45c0 36 31 37 59 37z" />
    <glyph glyph-name="Iacute" unicode="&#xcd;" horiz-adv-x="380" 
d="M310 610v-488c0 -54 53 -30 53 -82c0 -25 -13 -40 -64 -40h-218c-51 0 -64 15 -64 40c0 52 53 28 53 82v488c0 54 -53 30 -53 82c0 25 13 40 64 40h218c51 0 64 -15 64 -40c0 -52 -53 -28 -53 -82zM218 958h45c28 0 59 -1 59 -37c0 -14 -14 -31 -36 -45
c-31 -19 -159 -106 -177 -106c-13 0 -25 8 -25 21c0 19 40 77 67 121c26 44 43 46 67 46z" />
    <glyph glyph-name="Icircumflex" unicode="&#xce;" horiz-adv-x="380" 
d="M310 610v-488c0 -54 53 -30 53 -82c0 -25 -13 -40 -64 -40h-218c-51 0 -64 15 -64 40c0 52 53 28 53 82v488c0 54 -53 30 -53 82c0 25 13 40 64 40h218c51 0 64 -15 64 -40c0 -52 -53 -28 -53 -82zM191 862l-126 -75c-16 -11 -27 -17 -36 -17c-10 0 -18 9 -18 19
c0 11 11 23 20 34l94 99c21 22 41 46 66 46c24 0 46 -26 65 -46l94 -99c10 -11 20 -22 20 -36c0 -9 -10 -17 -18 -17c-10 0 -23 9 -36 17z" />
    <glyph glyph-name="Idieresis" unicode="&#xcf;" horiz-adv-x="380" 
d="M310 610v-488c0 -54 53 -30 53 -82c0 -25 -13 -40 -64 -40h-218c-51 0 -64 15 -64 40c0 52 53 28 53 82v488c0 54 -53 30 -53 82c0 25 13 40 64 40h218c51 0 64 -15 64 -40c0 -52 -53 -28 -53 -82zM72 780c-53 0 -84 39 -84 76s31 76 84 76s84 -39 84 -76
s-31 -76 -84 -76zM308 780c-53 0 -84 39 -84 76s31 76 84 76s84 -39 84 -76s-31 -76 -84 -76z" />
    <glyph glyph-name="Igrave" unicode="&#xcc;" horiz-adv-x="380" 
d="M310 610v-488c0 -54 53 -30 53 -82c0 -25 -13 -40 -64 -40h-218c-51 0 -64 15 -64 40c0 52 53 28 53 82v488c0 54 -53 30 -53 82c0 25 13 40 64 40h218c51 0 64 -15 64 -40c0 -52 -53 -28 -53 -82zM113 958h45c24 0 41 -2 67 -46c27 -44 67 -102 67 -121
c0 -13 -12 -21 -25 -21c-18 0 -146 87 -177 106c-22 14 -36 31 -36 45c0 36 31 37 59 37z" />
    <glyph glyph-name="Ntilde" unicode="&#xd1;" horiz-adv-x="770" 
d="M608 332v248c0 95 -62 58 -62 111c0 29 12 41 62 41h100c50 0 62 -12 62 -41c0 -53 -62 -16 -62 -111v-512c0 -50 -8 -68 -74 -68c-78 0 -82 3 -110 41l-324 443h-2v-332c0 -106 70 -60 70 -114c0 -24 -14 -38 -70 -38h-100c-56 0 -70 14 -70 38c0 54 70 8 70 114v404
c0 132 -84 70 -84 133c0 27 6 43 62 43h186c40 0 54 -6 78 -39l266 -361h2zM327 932c90 0 140 -67 184 -67c28 0 46 42 66 42c15 0 19 -9 19 -17c0 -40 -62 -110 -131 -110c-82 0 -140 68 -181 68c-42 0 -45 -61 -71 -61c-15 0 -21 7 -21 19c0 55 72 126 135 126z" />
    <glyph glyph-name="Oacute" unicode="&#xd3;" horiz-adv-x="890" 
d="M445 748c219 0 420 -142 420 -382s-201 -382 -420 -382s-420 142 -420 382s201 382 420 382zM275 366c0 -188 54 -292 170 -292s170 104 170 292s-54 292 -170 292s-170 -104 -170 -292zM483 958h45c28 0 59 -1 59 -37c0 -14 -14 -31 -36 -45
c-31 -19 -159 -106 -177 -106c-13 0 -25 8 -25 21c0 19 40 77 67 121c26 44 43 46 67 46z" />
    <glyph glyph-name="Ocircumflex" unicode="&#xd4;" horiz-adv-x="890" 
d="M445 748c219 0 420 -142 420 -382s-201 -382 -420 -382s-420 142 -420 382s201 382 420 382zM275 366c0 -188 54 -292 170 -292s170 104 170 292s-54 292 -170 292s-170 -104 -170 -292zM446 862l-126 -75c-16 -11 -27 -17 -36 -17c-10 0 -18 9 -18 19c0 11 11 23 20 34
l94 99c21 22 41 46 66 46c24 0 46 -26 65 -46l94 -99c10 -11 20 -22 20 -36c0 -9 -10 -17 -18 -17c-10 0 -23 9 -36 17z" />
    <glyph glyph-name="Odieresis" unicode="&#xd6;" horiz-adv-x="890" 
d="M445 748c219 0 420 -142 420 -382s-201 -382 -420 -382s-420 142 -420 382s201 382 420 382zM275 366c0 -188 54 -292 170 -292s170 104 170 292s-54 292 -170 292s-170 -104 -170 -292zM327 780c-53 0 -84 39 -84 76s31 76 84 76s84 -39 84 -76s-31 -76 -84 -76z
M563 780c-53 0 -84 39 -84 76s31 76 84 76s84 -39 84 -76s-31 -76 -84 -76z" />
    <glyph glyph-name="Ograve" unicode="&#xd2;" horiz-adv-x="890" 
d="M445 748c219 0 420 -142 420 -382s-201 -382 -420 -382s-420 142 -420 382s201 382 420 382zM275 366c0 -188 54 -292 170 -292s170 104 170 292s-54 292 -170 292s-170 -104 -170 -292zM368 958h45c24 0 41 -2 67 -46c27 -44 67 -102 67 -121c0 -13 -12 -21 -25 -21
c-18 0 -146 87 -177 106c-22 14 -36 31 -36 45c0 36 31 37 59 37z" />
    <glyph glyph-name="Otilde" unicode="&#xd5;" horiz-adv-x="890" 
d="M445 748c219 0 420 -142 420 -382s-201 -382 -420 -382s-420 142 -420 382s201 382 420 382zM275 366c0 -188 54 -292 170 -292s170 104 170 292s-54 292 -170 292s-170 -104 -170 -292zM378 932c90 0 140 -67 184 -67c28 0 46 42 66 42c15 0 19 -9 19 -17
c0 -40 -62 -110 -131 -110c-82 0 -140 68 -181 68c-42 0 -45 -61 -71 -61c-15 0 -21 7 -21 19c0 55 72 126 135 126z" />
    <glyph glyph-name="Scaron" unicode="&#x160;" 
d="M704 263c0 -189 -187 -279 -353 -279c-161 0 -330 82 -330 178c0 36 27 68 64 68c91 0 72 -148 251 -148c84 0 128 48 128 92c0 136 -416 40 -416 318c0 148 132 256 324 256c104 0 157 -18 232 -50c53 -23 54 -43 54 -132c0 -33 -12 -60 -50 -60c-75 0 -40 160 -203 160
c-79 0 -117 -36 -117 -79c0 -148 416 -62 416 -324zM376 876l126 75c16 11 27 17 36 17c10 0 18 -9 18 -19c0 -11 -11 -23 -20 -34l-94 -99c-21 -22 -41 -46 -66 -46c-24 0 -46 26 -65 46l-94 99c-10 11 -20 22 -20 36c0 9 10 17 18 17c10 0 23 -9 36 -17z" />
    <glyph glyph-name="Uacute" unicode="&#xda;" horiz-adv-x="760" 
d="M560 732h130c40 0 56 -10 56 -37c0 -53 -59 -29 -59 -81c0 -96 11 -234 11 -316c0 -160 -30 -314 -322 -314c-221 0 -325 86 -325 329c0 88 13 242 13 303c0 53 -51 30 -51 74c0 32 19 42 80 42h209c54 0 66 -14 66 -42c0 -40 -58 -21 -58 -74c0 -20 -19 -226 -19 -308
c0 -105 17 -234 149 -234c108 0 147 68 147 210c0 92 -13 243 -13 316c0 66 -70 42 -70 95c0 25 14 37 56 37zM423 958h45c28 0 59 -1 59 -37c0 -14 -14 -31 -36 -45c-31 -19 -159 -106 -177 -106c-13 0 -25 8 -25 21c0 19 40 77 67 121c26 44 43 46 67 46z" />
    <glyph glyph-name="Ucircumflex" unicode="&#xdb;" horiz-adv-x="760" 
d="M560 732h130c40 0 56 -10 56 -37c0 -53 -59 -29 -59 -81c0 -96 11 -234 11 -316c0 -160 -30 -314 -322 -314c-221 0 -325 86 -325 329c0 88 13 242 13 303c0 53 -51 30 -51 74c0 32 19 42 80 42h209c54 0 66 -14 66 -42c0 -40 -58 -21 -58 -74c0 -20 -19 -226 -19 -308
c0 -105 17 -234 149 -234c108 0 147 68 147 210c0 92 -13 243 -13 316c0 66 -70 42 -70 95c0 25 14 37 56 37zM404 862l-126 -75c-16 -11 -27 -17 -36 -17c-10 0 -18 9 -18 19c0 11 11 23 20 34l94 99c21 22 41 46 66 46c24 0 46 -26 65 -46l94 -99c10 -11 20 -22 20 -36
c0 -9 -10 -17 -18 -17c-10 0 -23 9 -36 17z" />
    <glyph glyph-name="Udieresis" unicode="&#xdc;" horiz-adv-x="760" 
d="M560 732h130c40 0 56 -10 56 -37c0 -53 -59 -29 -59 -81c0 -96 11 -234 11 -316c0 -160 -30 -314 -322 -314c-221 0 -325 86 -325 329c0 88 13 242 13 303c0 53 -51 30 -51 74c0 32 19 42 80 42h209c54 0 66 -14 66 -42c0 -40 -58 -21 -58 -74c0 -20 -19 -226 -19 -308
c0 -105 17 -234 149 -234c108 0 147 68 147 210c0 92 -13 243 -13 316c0 66 -70 42 -70 95c0 25 14 37 56 37zM285 780c-53 0 -84 39 -84 76s31 76 84 76s84 -39 84 -76s-31 -76 -84 -76zM521 780c-53 0 -84 39 -84 76s31 76 84 76s84 -39 84 -76s-31 -76 -84 -76z" />
    <glyph glyph-name="Ugrave" unicode="&#xd9;" horiz-adv-x="760" 
d="M560 732h130c40 0 56 -10 56 -37c0 -53 -59 -29 -59 -81c0 -96 11 -234 11 -316c0 -160 -30 -314 -322 -314c-221 0 -325 86 -325 329c0 88 13 242 13 303c0 53 -51 30 -51 74c0 32 19 42 80 42h209c54 0 66 -14 66 -42c0 -40 -58 -21 -58 -74c0 -20 -19 -226 -19 -308
c0 -105 17 -234 149 -234c108 0 147 68 147 210c0 92 -13 243 -13 316c0 66 -70 42 -70 95c0 25 14 37 56 37zM315 958h45c24 0 41 -2 67 -46c27 -44 67 -102 67 -121c0 -13 -12 -21 -25 -21c-18 0 -146 87 -177 106c-22 14 -36 31 -36 45c0 36 31 37 59 37z" />
    <glyph glyph-name="Yacute" unicode="&#xdd;" horiz-adv-x="760" 
d="M48 732h258c48 0 59 -16 59 -44c0 -32 -45 -32 -45 -60c0 -54 125 -220 139 -241c35 39 140 198 140 241c0 23 -44 26 -44 62c0 22 17 42 59 42h94c48 0 67 -10 67 -40c0 -35 -36 -44 -66 -88l-203 -300v-182c0 -54 53 -30 53 -82c0 -25 -13 -40 -64 -40h-218
c-51 0 -64 15 -64 40c0 52 53 28 53 82v168c-46 58 -156 226 -194 300c-35 68 -87 51 -87 99c0 27 19 43 63 43zM423 958h45c28 0 59 -1 59 -37c0 -14 -14 -31 -36 -45c-31 -19 -159 -106 -177 -106c-13 0 -25 8 -25 21c0 19 40 77 67 121c26 44 43 46 67 46z" />
    <glyph glyph-name="Ydieresis" unicode="&#x178;" horiz-adv-x="760" 
d="M48 732h258c48 0 59 -16 59 -44c0 -32 -45 -32 -45 -60c0 -54 125 -220 139 -241c35 39 140 198 140 241c0 23 -44 26 -44 62c0 22 17 42 59 42h94c48 0 67 -10 67 -40c0 -35 -36 -44 -66 -88l-203 -300v-182c0 -54 53 -30 53 -82c0 -25 -13 -40 -64 -40h-218
c-51 0 -64 15 -64 40c0 52 53 28 53 82v168c-46 58 -156 226 -194 300c-35 68 -87 51 -87 99c0 27 19 43 63 43zM279 780c-53 0 -84 39 -84 76s31 76 84 76s84 -39 84 -76s-31 -76 -84 -76zM515 780c-53 0 -84 39 -84 76s31 76 84 76s84 -39 84 -76s-31 -76 -84 -76z" />
    <glyph glyph-name="Zcaron" unicode="&#x17d;" horiz-adv-x="640" 
d="M104 732h463c63 0 84 -6 84 -45c0 -147 -360 -539 -360 -585c0 -10 5 -12 21 -12h92c170 0 135 91 203 91c25 0 44 -13 44 -40s-8 -60 -12 -80c-9 -43 -17 -61 -64 -61h-481c-64 0 -83 30 -83 62c0 122 365 540 365 574c0 5 -9 6 -26 6h-76c-156 0 -118 -87 -185 -87
c-30 0 -47 19 -47 48c0 25 5 93 15 114c6 12 32 15 47 15zM336 876l126 75c16 11 27 17 36 17c10 0 18 -9 18 -19c0 -11 -11 -23 -20 -34l-94 -99c-21 -22 -41 -46 -66 -46c-24 0 -46 26 -65 46l-94 99c-10 11 -20 22 -20 36c0 9 10 17 18 17c10 0 23 -9 36 -17z" />
    <glyph glyph-name="aacute" unicode="&#xe1;" horiz-adv-x="620" 
d="M568 304v-176c0 -62 51 -46 51 -91c0 -27 -18 -37 -50 -37h-149c-45 0 -57 7 -65 52c-32 -49 -95 -62 -149 -62c-127 0 -185 82 -185 158c0 104 88 172 322 172c-2 78 -18 96 -59 96c-57 0 -57 -75 -138 -75c-55 0 -84 25 -84 59c0 58 75 96 245 96
c138 0 261 -34 261 -192zM241 147c0 -35 18 -57 44 -57c48 0 63 70 63 156c-62 0 -107 -35 -107 -99zM330 732h45c28 0 59 -1 59 -37c0 -14 -14 -31 -36 -45c-31 -19 -159 -106 -177 -106c-13 0 -25 8 -25 21c0 19 40 77 67 121c26 44 43 46 67 46z" />
    <glyph glyph-name="acircumflex" unicode="&#xe2;" horiz-adv-x="620" 
d="M568 304v-176c0 -62 51 -46 51 -91c0 -27 -18 -37 -50 -37h-149c-45 0 -57 7 -65 52c-32 -49 -95 -62 -149 -62c-127 0 -185 82 -185 158c0 104 88 172 322 172c-2 78 -18 96 -59 96c-57 0 -57 -75 -138 -75c-55 0 -84 25 -84 59c0 58 75 96 245 96
c138 0 261 -34 261 -192zM241 147c0 -35 18 -57 44 -57c48 0 63 70 63 156c-62 0 -107 -35 -107 -99zM311 636l-126 -75c-16 -11 -27 -17 -36 -17c-10 0 -18 9 -18 19c0 11 11 23 20 34l94 99c21 22 41 46 66 46c24 0 46 -26 65 -46l94 -99c10 -11 20 -22 20 -36
c0 -9 -10 -17 -18 -17c-10 0 -23 9 -36 17z" />
    <glyph glyph-name="adieresis" unicode="&#xe4;" horiz-adv-x="620" 
d="M568 304v-176c0 -62 51 -46 51 -91c0 -27 -18 -37 -50 -37h-149c-45 0 -57 7 -65 52c-32 -49 -95 -62 -149 -62c-127 0 -185 82 -185 158c0 104 88 172 322 172c-2 78 -18 96 -59 96c-57 0 -57 -75 -138 -75c-55 0 -84 25 -84 59c0 58 75 96 245 96
c138 0 261 -34 261 -192zM241 147c0 -35 18 -57 44 -57c48 0 63 70 63 156c-62 0 -107 -35 -107 -99zM192 554c-53 0 -84 39 -84 76s31 76 84 76s84 -39 84 -76s-31 -76 -84 -76zM428 554c-53 0 -84 39 -84 76s31 76 84 76s84 -39 84 -76s-31 -76 -84 -76z" />
    <glyph glyph-name="agrave" unicode="&#xe0;" horiz-adv-x="620" 
d="M568 304v-176c0 -62 51 -46 51 -91c0 -27 -18 -37 -50 -37h-149c-45 0 -57 7 -65 52c-32 -49 -95 -62 -149 -62c-127 0 -185 82 -185 158c0 104 88 172 322 172c-2 78 -18 96 -59 96c-57 0 -57 -75 -138 -75c-55 0 -84 25 -84 59c0 58 75 96 245 96
c138 0 261 -34 261 -192zM241 147c0 -35 18 -57 44 -57c48 0 63 70 63 156c-62 0 -107 -35 -107 -99zM239 732h45c24 0 41 -2 67 -46c27 -44 67 -102 67 -121c0 -13 -12 -21 -25 -21c-18 0 -146 87 -177 106c-22 14 -36 31 -36 45c0 36 31 37 59 37z" />
    <glyph glyph-name="aring" unicode="&#xe5;" horiz-adv-x="620" 
d="M568 304v-176c0 -62 51 -46 51 -91c0 -27 -18 -37 -50 -37h-149c-45 0 -57 7 -65 52c-32 -49 -95 -62 -149 -62c-127 0 -185 82 -185 158c0 104 88 172 322 172c-2 78 -18 96 -59 96c-57 0 -57 -75 -138 -75c-55 0 -84 25 -84 59c0 58 75 96 245 96
c138 0 261 -34 261 -192zM241 147c0 -35 18 -57 44 -57c48 0 63 70 63 156c-62 0 -107 -35 -107 -99zM310 775c65 0 120 -52 120 -120s-55 -120 -120 -120s-120 52 -120 120s55 120 120 120zM310 701c-24 0 -46 -19 -46 -46s22 -46 46 -46s46 19 46 46s-22 46 -46 46z" />
    <glyph glyph-name="atilde" unicode="&#xe3;" horiz-adv-x="620" 
d="M568 304v-176c0 -62 51 -46 51 -91c0 -27 -18 -37 -50 -37h-149c-45 0 -57 7 -65 52c-32 -49 -95 -62 -149 -62c-127 0 -185 82 -185 158c0 104 88 172 322 172c-2 78 -18 96 -59 96c-57 0 -57 -75 -138 -75c-55 0 -84 25 -84 59c0 58 75 96 245 96
c138 0 261 -34 261 -192zM241 147c0 -35 18 -57 44 -57c48 0 63 70 63 156c-62 0 -107 -35 -107 -99zM243 706c90 0 140 -67 184 -67c28 0 46 42 66 42c15 0 19 -9 19 -17c0 -40 -62 -110 -131 -110c-82 0 -140 68 -181 68c-42 0 -45 -61 -71 -61c-15 0 -21 7 -21 19
c0 55 72 126 135 126z" />
    <glyph glyph-name="ccedilla" unicode="&#xe7;" horiz-adv-x="550" 
d="M545 374c0 -42 -38 -61 -76 -61c-82 0 -82 97 -137 97c-49 0 -83 -56 -85 -165c-2 -107 60 -153 116 -153c80 0 118 72 156 72c20 0 36 -19 36 -39c0 -73 -142 -135 -244 -135c-150 0 -294 90 -294 253c0 164 136 253 288 253c146 0 240 -54 240 -122zM310 0l-19 -55h20
c65 0 102 -33 102 -92c0 -69 -54 -92 -126 -92c-66 0 -95 33 -95 54c0 13 9 24 22 24c19 0 39 -20 62 -20c22 0 41 14 41 37c0 21 -12 31 -33 31c-29 0 -44 -6 -53 -6c-7 0 -12 6 -12 12c0 11 4 20 6 26l28 81h57z" />
    <glyph glyph-name="eacute" unicode="&#xe9;" horiz-adv-x="590" 
d="M17 236c0 170 167 260 319 260c153 0 233 -78 233 -147c0 -119 -152 -151 -314 -179c14 -48 54 -86 110 -86c93 0 130 80 172 80c20 0 39 -12 39 -34c0 -69 -145 -140 -264 -140c-147 0 -295 84 -295 246zM367 358c0 23 -10 52 -38 52c-50 0 -82 -70 -82 -154
c58 2 120 38 120 102zM345 732h45c28 0 59 -1 59 -37c0 -14 -14 -31 -36 -45c-31 -19 -159 -106 -177 -106c-13 0 -25 8 -25 21c0 19 40 77 67 121c26 44 43 46 67 46z" />
    <glyph glyph-name="ecircumflex" unicode="&#xea;" horiz-adv-x="590" 
d="M17 236c0 170 167 260 319 260c153 0 233 -78 233 -147c0 -119 -152 -151 -314 -179c14 -48 54 -86 110 -86c93 0 130 80 172 80c20 0 39 -12 39 -34c0 -69 -145 -140 -264 -140c-147 0 -295 84 -295 246zM367 358c0 23 -10 52 -38 52c-50 0 -82 -70 -82 -154
c58 2 120 38 120 102zM317 636l-126 -75c-16 -11 -27 -17 -36 -17c-10 0 -18 9 -18 19c0 11 11 23 20 34l94 99c21 22 41 46 66 46c24 0 46 -26 65 -46l94 -99c10 -11 20 -22 20 -36c0 -9 -10 -17 -18 -17c-10 0 -23 9 -36 17z" />
    <glyph glyph-name="edieresis" unicode="&#xeb;" horiz-adv-x="590" 
d="M17 236c0 170 167 260 319 260c153 0 233 -78 233 -147c0 -119 -152 -151 -314 -179c14 -48 54 -86 110 -86c93 0 130 80 172 80c20 0 39 -12 39 -34c0 -69 -145 -140 -264 -140c-147 0 -295 84 -295 246zM367 358c0 23 -10 52 -38 52c-50 0 -82 -70 -82 -154
c58 2 120 38 120 102zM198 554c-53 0 -84 39 -84 76s31 76 84 76s84 -39 84 -76s-31 -76 -84 -76zM434 554c-53 0 -84 39 -84 76s31 76 84 76s84 -39 84 -76s-31 -76 -84 -76z" />
    <glyph glyph-name="egrave" unicode="&#xe8;" horiz-adv-x="590" 
d="M17 236c0 170 167 260 319 260c153 0 233 -78 233 -147c0 -119 -152 -151 -314 -179c14 -48 54 -86 110 -86c93 0 130 80 172 80c20 0 39 -12 39 -34c0 -69 -145 -140 -264 -140c-147 0 -295 84 -295 246zM367 358c0 23 -10 52 -38 52c-50 0 -82 -70 -82 -154
c58 2 120 38 120 102zM240 732h45c24 0 41 -2 67 -46c27 -44 67 -102 67 -121c0 -13 -12 -21 -25 -21c-18 0 -146 87 -177 106c-22 14 -36 31 -36 45c0 36 31 37 59 37z" />
    <glyph glyph-name="iacute" unicode="&#xed;" horiz-adv-x="330" 
d="M56 116v224c0 56 -58 34 -58 80c0 26 30 43 69 47c49 5 139 29 159 29c30 0 50 -20 50 -92v-288c0 -53 38 -37 38 -77c0 -17 -18 -39 -52 -39h-192c-34 0 -52 22 -52 39c0 40 38 24 38 77zM185 732h45c28 0 59 -1 59 -37c0 -14 -14 -31 -36 -45
c-31 -19 -159 -106 -177 -106c-13 0 -25 8 -25 21c0 19 40 77 67 121c26 44 43 46 67 46z" />
    <glyph glyph-name="icircumflex" unicode="&#xee;" horiz-adv-x="330" 
d="M56 116v224c0 56 -58 34 -58 80c0 26 30 43 69 47c49 5 139 29 159 29c30 0 50 -20 50 -92v-288c0 -53 38 -37 38 -77c0 -17 -18 -39 -52 -39h-192c-34 0 -52 22 -52 39c0 40 38 24 38 77zM161 636l-126 -75c-16 -11 -27 -17 -36 -17c-10 0 -18 9 -18 19
c0 11 11 23 20 34l94 99c21 22 41 46 66 46c24 0 46 -26 65 -46l94 -99c10 -11 20 -22 20 -36c0 -9 -10 -17 -18 -17c-10 0 -23 9 -36 17z" />
    <glyph glyph-name="idieresis" unicode="&#xef;" horiz-adv-x="330" 
d="M56 116v224c0 56 -58 34 -58 80c0 26 30 43 69 47c49 5 139 29 159 29c30 0 50 -20 50 -92v-288c0 -53 38 -37 38 -77c0 -17 -18 -39 -52 -39h-192c-34 0 -52 22 -52 39c0 40 38 24 38 77zM42 554c-53 0 -84 39 -84 76s31 76 84 76s84 -39 84 -76s-31 -76 -84 -76z
M278 554c-53 0 -84 39 -84 76s31 76 84 76s84 -39 84 -76s-31 -76 -84 -76z" />
    <glyph glyph-name="igrave" unicode="&#xec;" horiz-adv-x="330" 
d="M56 116v224c0 56 -58 34 -58 80c0 26 30 43 69 47c49 5 139 29 159 29c30 0 50 -20 50 -92v-288c0 -53 38 -37 38 -77c0 -17 -18 -39 -52 -39h-192c-34 0 -52 22 -52 39c0 40 38 24 38 77zM85 732h45c24 0 41 -2 67 -46c27 -44 67 -102 67 -121c0 -13 -12 -21 -25 -21
c-18 0 -146 87 -177 106c-22 14 -36 31 -36 45c0 36 31 37 59 37z" />
    <glyph glyph-name="ntilde" unicode="&#xf1;" horiz-adv-x="650" 
d="M60 116v214c0 68 -49 40 -49 82c0 26 23 39 75 56c24 8 98 28 124 28c37 0 43 -32 48 -66c43 48 97 66 157 66c132 0 193 -78 193 -203v-177c0 -53 38 -37 38 -77c0 -17 -18 -39 -52 -39h-192c-34 0 -52 22 -52 39c0 40 38 24 38 77v196c0 46 -15 82 -54 82
s-54 -36 -54 -82v-196c0 -53 38 -37 38 -77c0 -17 -18 -39 -52 -39h-192c-34 0 -52 22 -52 39c0 40 38 24 38 77zM258 706c90 0 140 -67 184 -67c28 0 46 42 66 42c15 0 19 -9 19 -17c0 -40 -62 -110 -131 -110c-82 0 -140 68 -181 68c-42 0 -45 -61 -71 -61
c-15 0 -21 7 -21 19c0 55 72 126 135 126z" />
    <glyph glyph-name="oacute" unicode="&#xf3;" horiz-adv-x="650" 
d="M325 496c147 0 307 -89 308 -253c-1 -164 -161 -253 -308 -253s-307 89 -308 253c1 164 161 253 308 253zM247 243c0 -111 26 -167 78 -167s78 56 78 167s-26 167 -78 167s-78 -56 -78 -167zM363 732h45c28 0 59 -1 59 -37c0 -14 -14 -31 -36 -45
c-31 -19 -159 -106 -177 -106c-13 0 -25 8 -25 21c0 19 40 77 67 121c26 44 43 46 67 46z" />
    <glyph glyph-name="ocircumflex" unicode="&#xf4;" horiz-adv-x="650" 
d="M325 496c147 0 307 -89 308 -253c-1 -164 -161 -253 -308 -253s-307 89 -308 253c1 164 161 253 308 253zM247 243c0 -111 26 -167 78 -167s78 56 78 167s-26 167 -78 167s-78 -56 -78 -167zM326 636l-126 -75c-16 -11 -27 -17 -36 -17c-10 0 -18 9 -18 19
c0 11 11 23 20 34l94 99c21 22 41 46 66 46c24 0 46 -26 65 -46l94 -99c10 -11 20 -22 20 -36c0 -9 -10 -17 -18 -17c-10 0 -23 9 -36 17z" />
    <glyph glyph-name="odieresis" unicode="&#xf6;" horiz-adv-x="650" 
d="M325 496c147 0 307 -89 308 -253c-1 -164 -161 -253 -308 -253s-307 89 -308 253c1 164 161 253 308 253zM247 243c0 -111 26 -167 78 -167s78 56 78 167s-26 167 -78 167s-78 -56 -78 -167zM207 554c-53 0 -84 39 -84 76s31 76 84 76s84 -39 84 -76s-31 -76 -84 -76z
M443 554c-53 0 -84 39 -84 76s31 76 84 76s84 -39 84 -76s-31 -76 -84 -76z" />
    <glyph glyph-name="ograve" unicode="&#xf2;" horiz-adv-x="650" 
d="M325 496c147 0 307 -89 308 -253c-1 -164 -161 -253 -308 -253s-307 89 -308 253c1 164 161 253 308 253zM247 243c0 -111 26 -167 78 -167s78 56 78 167s-26 167 -78 167s-78 -56 -78 -167zM254 732h45c24 0 41 -2 67 -46c27 -44 67 -102 67 -121c0 -13 -12 -21 -25 -21
c-18 0 -146 87 -177 106c-22 14 -36 31 -36 45c0 36 31 37 59 37z" />
    <glyph glyph-name="otilde" unicode="&#xf5;" horiz-adv-x="650" 
d="M325 496c147 0 307 -89 308 -253c-1 -164 -161 -253 -308 -253s-307 89 -308 253c1 164 161 253 308 253zM247 243c0 -111 26 -167 78 -167s78 56 78 167s-26 167 -78 167s-78 -56 -78 -167zM258 706c90 0 140 -67 184 -67c28 0 46 42 66 42c15 0 19 -9 19 -17
c0 -40 -62 -110 -131 -110c-82 0 -140 68 -181 68c-42 0 -45 -61 -71 -61c-15 0 -21 7 -21 19c0 55 72 126 135 126z" />
    <glyph glyph-name="scaron" unicode="&#x161;" horiz-adv-x="550" 
d="M522 172c0 -104 -100 -182 -268 -182c-150 0 -234 60 -234 119c0 29 22 54 52 54c61 0 63 -87 148 -87c34 0 72 14 72 45c0 79 -258 14 -258 189c0 112 110 186 261 186c53 0 128 -16 169 -33c32 -13 40 -33 40 -88c0 -26 -9 -52 -40 -52c-56 0 -42 93 -134 93
c-42 0 -66 -16 -66 -44c0 -79 258 -18 258 -200zM274 650l126 75c16 11 27 17 36 17c10 0 18 -9 18 -19c0 -11 -11 -23 -20 -34l-94 -99c-21 -22 -41 -46 -66 -46c-24 0 -46 26 -65 46l-94 99c-10 11 -20 22 -20 36c0 9 10 17 18 17c10 0 23 -9 36 -17z" />
    <glyph glyph-name="uacute" unicode="&#xfa;" horiz-adv-x="670" 
d="M273 421v-241c0 -64 22 -88 53 -88s53 24 53 88v182c0 41 -44 29 -44 61c0 26 8 34 34 40l131 29c12 3 22 4 38 4c49 0 61 -22 61 -75v-297c0 -62 51 -38 51 -87c0 -27 -17 -37 -63 -37h-123c-47 0 -59 7 -68 54c-51 -47 -98 -64 -168 -64c-117 0 -175 44 -175 201v171
c-1 46 -44 32 -44 71c0 16 10 28 33 33l132 26c12 2 22 4 38 4c49 0 61 -22 61 -75zM346 732h45c28 0 59 -1 59 -37c0 -14 -14 -31 -36 -45c-31 -19 -159 -106 -177 -106c-13 0 -25 8 -25 21c0 19 40 77 67 121c26 44 43 46 67 46z" />
    <glyph glyph-name="ucircumflex" unicode="&#xfb;" horiz-adv-x="670" 
d="M273 421v-241c0 -64 22 -88 53 -88s53 24 53 88v182c0 41 -44 29 -44 61c0 26 8 34 34 40l131 29c12 3 22 4 38 4c49 0 61 -22 61 -75v-297c0 -62 51 -38 51 -87c0 -27 -17 -37 -63 -37h-123c-47 0 -59 7 -68 54c-51 -47 -98 -64 -168 -64c-117 0 -175 44 -175 201v171
c-1 46 -44 32 -44 71c0 16 10 28 33 33l132 26c12 2 22 4 38 4c49 0 61 -22 61 -75zM327 636l-126 -75c-16 -11 -27 -17 -36 -17c-10 0 -18 9 -18 19c0 11 11 23 20 34l94 99c21 22 41 46 66 46c24 0 46 -26 65 -46l94 -99c10 -11 20 -22 20 -36c0 -9 -10 -17 -18 -17
c-10 0 -23 9 -36 17z" />
    <glyph glyph-name="udieresis" unicode="&#xfc;" horiz-adv-x="670" 
d="M273 421v-241c0 -64 22 -88 53 -88s53 24 53 88v182c0 41 -44 29 -44 61c0 26 8 34 34 40l131 29c12 3 22 4 38 4c49 0 61 -22 61 -75v-297c0 -62 51 -38 51 -87c0 -27 -17 -37 -63 -37h-123c-47 0 -59 7 -68 54c-51 -47 -98 -64 -168 -64c-117 0 -175 44 -175 201v171
c-1 46 -44 32 -44 71c0 16 10 28 33 33l132 26c12 2 22 4 38 4c49 0 61 -22 61 -75zM208 554c-53 0 -84 39 -84 76s31 76 84 76s84 -39 84 -76s-31 -76 -84 -76zM444 554c-53 0 -84 39 -84 76s31 76 84 76s84 -39 84 -76s-31 -76 -84 -76z" />
    <glyph glyph-name="ugrave" unicode="&#xf9;" horiz-adv-x="670" 
d="M273 421v-241c0 -64 22 -88 53 -88s53 24 53 88v182c0 41 -44 29 -44 61c0 26 8 34 34 40l131 29c12 3 22 4 38 4c49 0 61 -22 61 -75v-297c0 -62 51 -38 51 -87c0 -27 -17 -37 -63 -37h-123c-47 0 -59 7 -68 54c-51 -47 -98 -64 -168 -64c-117 0 -175 44 -175 201v171
c-1 46 -44 32 -44 71c0 16 10 28 33 33l132 26c12 2 22 4 38 4c49 0 61 -22 61 -75zM240 732h45c24 0 41 -2 67 -46c27 -44 67 -102 67 -121c0 -13 -12 -21 -25 -21c-18 0 -146 87 -177 106c-22 14 -36 31 -36 45c0 36 31 37 59 37z" />
    <glyph glyph-name="yacute" unicode="&#xfd;" horiz-adv-x="570" 
d="M419 486h109c39 0 53 -14 53 -35c0 -25 -41 -39 -41 -67c0 -88 -100 -570 -368 -570c-43 0 -114 19 -114 72c0 40 36 65 74 65c45 0 70 -31 87 -31c28 0 81 57 92 85c-15 -3 -30 -5 -45 -5c-119 0 -206 54 -247 378c-6 47 -32 51 -32 73c0 23 16 35 54 35h186
c42 0 59 -12 59 -41c0 -33 -31 -26 -31 -72c0 -159 72 -283 91 -283c29 0 74 140 74 294c0 46 -47 25 -47 68c0 26 12 34 46 34zM323 732h45c28 0 59 -1 59 -37c0 -14 -14 -31 -36 -45c-31 -19 -159 -106 -177 -106c-13 0 -25 8 -25 21c0 19 40 77 67 121c26 44 43 46 67 46
z" />
    <glyph glyph-name="ydieresis" unicode="&#xff;" horiz-adv-x="570" 
d="M419 486h109c39 0 53 -14 53 -35c0 -25 -41 -39 -41 -67c0 -88 -100 -570 -368 -570c-43 0 -114 19 -114 72c0 40 36 65 74 65c45 0 70 -31 87 -31c28 0 81 57 92 85c-15 -3 -30 -5 -45 -5c-119 0 -206 54 -247 378c-6 47 -32 51 -32 73c0 23 16 35 54 35h186
c42 0 59 -12 59 -41c0 -33 -31 -26 -31 -72c0 -159 72 -283 91 -283c29 0 74 140 74 294c0 46 -47 25 -47 68c0 26 12 34 46 34zM167 554c-53 0 -84 39 -84 76s31 76 84 76s84 -39 84 -76s-31 -76 -84 -76zM403 554c-53 0 -84 39 -84 76s31 76 84 76s84 -39 84 -76
s-31 -76 -84 -76z" />
    <glyph glyph-name="zcaron" unicode="&#x17e;" horiz-adv-x="540" 
d="M265 418h-62c-97 0 -81 -82 -134 -82c-26 0 -39 18 -39 43c0 79 15 107 71 107h343c61 0 75 -14 75 -44c0 -79 -199 -289 -244 -362h77c97 0 81 82 134 82c20 0 35 -12 35 -33c0 -22 -9 -72 -16 -94c-9 -29 -22 -35 -63 -35h-344c-63 0 -87 18 -87 54c0 34 37 88 62 120z
M269 650l126 75c16 11 27 17 36 17c10 0 18 -9 18 -19c0 -11 -11 -23 -20 -34l-94 -99c-21 -22 -41 -46 -66 -46c-24 0 -46 26 -65 46l-94 99c-10 11 -20 22 -20 36c0 9 10 17 18 17c10 0 23 -9 36 -17z" />
    </font>
</defs>
</svg>
