<?xml version="1.0" standalone="no"?>
<!DOCTYPE svg PUBLIC "-//W3C//DTD SVG 1.1//EN" "http://www.w3.org/Graphics/SVG/1.1/DTD/svg11.dtd" >
<svg xmlns="http://www.w3.org/2000/svg" xmlns:xlink="http://www.w3.org/1999/xlink" version="1.1">
<metadata>
Created by FontForge 20170812 at Tue May  8 13:07:44 2007
 By www-data
ITC Souvenir is a registered trademark of International Typeface Corporation.
</metadata>
<defs>
<font id="Souvenir-Demi" horiz-adv-x="680" >
  <font-face 
    font-family="ITC Souvenir"
    font-weight="500"
    font-stretch="normal"
    units-per-em="1000"
    panose-1="0 0 0 0 0 0 0 0 0 0"
    ascent="800"
    descent="-200"
    x-height="481"
    cap-height="732"
    bbox="-171 -283 1377 1007"
    underline-thickness="54"
    underline-position="-98"
    unicode-range="U+0020-FB02"
  />
<missing-glyph horiz-adv-x="340" 
 />
    <glyph glyph-name=".notdef" horiz-adv-x="340" 
 />
    <glyph glyph-name="space" unicode=" " horiz-adv-x="340" 
 />
    <glyph glyph-name="exclam" unicode="!" horiz-adv-x="360" 
d="M179 -15c-42 0 -92 29 -92 76c0 50 51 76 96 76c43 0 94 -28 94 -77c0 -50 -55 -75 -98 -75zM278 615l-52 -371c-5 -30 -8 -55 -45 -55c-40 0 -40 29 -45 60l-60 424c0 63 54 74 105 74c56 0 102 -12 102 -78z" />
    <glyph glyph-name="quotedbl" unicode="&#x22;" horiz-adv-x="580" 
d="M202 428h-46l-44 239c-7 36 27 80 67 80s74 -44 67 -80zM424 428h-46l-44 239c-7 36 27 80 67 80s74 -44 67 -80z" />
    <glyph glyph-name="numbersign" unicode="#" 
d="M448 247l-32 -92c-10 -29 -17 -58 -54 -58c-26 0 -46 21 -46 46c0 9 3 17 6 25l27 79h-115l-32 -91c-9 -27 -18 -59 -53 -59c-27 0 -49 20 -49 48c0 8 3 17 6 25l26 77h-48c-28 0 -54 11 -54 43s25 43 52 43h80l42 121h-53c-28 0 -53 10 -53 43c0 31 24 43 51 43h85
l26 75c10 29 17 58 55 58c26 0 47 -22 47 -47c0 -9 -3 -18 -6 -26l-20 -60h115l26 76c10 28 17 57 54 57c25 0 45 -21 45 -46c0 -9 -2 -17 -5 -25l-21 -62h46c28 0 53 -11 53 -43c0 -31 -24 -43 -51 -43h-79l-41 -121h50c29 0 54 -10 54 -43c0 -31 -24 -43 -52 -43h-82z
M420 454h-115l-42 -120h116z" />
    <glyph glyph-name="dollar" unicode="$" 
d="M302 724v86c0 30 2 57 41 57c37 0 39 -27 39 -56v-87c68 -3 186 -40 186 -123c0 -32 -23 -57 -56 -57c-99 0 -16 125 -166 125c-62 0 -123 -27 -123 -97c0 -160 380 -90 380 -349c0 -120 -107 -200 -221 -203v-63c0 -32 7 -80 -39 -80c-36 0 -41 25 -41 55v88
c-44 3 -88 11 -128 30c-48 23 -103 79 -103 136c0 31 29 37 55 37c37 0 44 -16 58 -48c11 -26 18 -47 40 -67c28 -27 69 -34 107 -34c69 0 140 26 140 106c0 30 -13 55 -37 73c-35 25 -85 43 -125 58l-39 15c-42 15 -83 32 -117 62c-36 32 -61 89 -61 138
c0 120 99 188 210 198z" />
    <glyph glyph-name="percent" unicode="%" horiz-adv-x="940" 
d="M224 316c-131 0 -200 110 -200 231c0 120 75 223 203 223c129 0 203 -104 203 -226c0 -127 -70 -228 -206 -228zM226 362c74 0 72 142 72 191c0 47 -1 171 -71 171s-71 -128 -71 -176c0 -46 0 -186 70 -186zM712 -40c-131 0 -200 110 -200 231s75 223 203 223
c129 0 203 -103 203 -225c0 -128 -70 -229 -206 -229zM714 6c74 0 72 142 72 191c0 47 -1 172 -71 172c-72 0 -71 -135 -71 -183c0 -46 1 -180 70 -180zM758 698l-485 -666c-23 -32 -24 -38 -63 -38c-11 0 -39 -1 -39 16c0 8 15 26 19 32l484 662c23 31 24 37 65 37
c8 0 34 1 34 -12c0 -12 -9 -23 -15 -31z" />
    <glyph glyph-name="ampersand" unicode="&#x26;" horiz-adv-x="840" 
d="M394 403l153 -186l13 -15c27 31 64 78 64 121c0 45 -60 33 -60 71c0 25 26 27 45 27h155c23 0 45 -4 45 -32c0 -15 -12 -22 -24 -27c-36 -15 -40 -20 -61 -55l-114 -160c37 -39 87 -67 143 -67c23 0 42 9 60 9c13 0 25 -13 25 -27c0 -22 -18 -35 -36 -44
c-40 -21 -82 -29 -127 -29c-74 0 -128 24 -187 67c-67 -48 -136 -71 -219 -71c-116 0 -251 61 -251 193c0 109 80 177 171 219c-36 47 -65 103 -65 163c0 59 33 114 82 145c49 30 107 42 164 42c97 0 205 -44 205 -156c0 -94 -104 -157 -181 -188zM427 110l-188 224
c-44 -34 -72 -72 -72 -129c0 -81 60 -137 140 -137c50 0 80 16 120 42zM343 469c47 26 102 64 102 124c0 48 -36 83 -85 83c-44 0 -79 -34 -79 -77c0 -48 34 -93 62 -130z" />
    <glyph glyph-name="quoteright" unicode="&#x2019;" horiz-adv-x="320" 
d="M164 616c-9 -2 -18 -3 -27 -3c-36 0 -66 26 -66 63c0 46 46 71 87 71c54 0 90 -40 90 -93c0 -52 -30 -100 -68 -133c-10 -9 -44 -37 -60 -37c-10 0 -24 8 -24 18c0 5 4 9 7 12c29 27 55 61 61 102z" />
    <glyph glyph-name="parenleft" unicode="(" horiz-adv-x="340" 
d="M311 -181c0 -20 -23 -29 -39 -29c-41 0 -69 35 -91 65c-87 114 -140 279 -140 422c0 111 31 218 86 315c25 45 59 92 96 129c16 17 35 26 59 26c17 0 33 -9 33 -27c0 -17 -17 -50 -24 -65c-57 -118 -89 -242 -89 -373c0 -139 33 -274 88 -402c6 -14 21 -46 21 -61z" />
    <glyph glyph-name="parenright" unicode=")" horiz-adv-x="340" 
d="M23 719c0 20 23 28 39 28c41 0 69 -35 91 -64c88 -115 140 -279 140 -422c0 -112 -31 -219 -86 -315c-26 -46 -59 -92 -96 -130c-16 -16 -35 -26 -59 -26c-17 0 -33 9 -33 28c0 17 17 50 24 65c57 118 89 241 89 372c0 140 -33 275 -88 403c-6 13 -21 46 -21 61z" />
    <glyph glyph-name="asterisk" unicode="*" horiz-adv-x="400" 
d="M211 505l13 -31c8 -17 15 -30 15 -49c0 -24 -15 -44 -40 -44c-22 0 -40 18 -40 40c0 18 4 28 10 44l12 34c3 7 10 25 10 33c0 4 -1 10 -6 10c-13 0 -30 -27 -36 -35c-16 -21 -37 -58 -66 -58c-23 0 -41 17 -41 40c0 40 56 45 85 50c5 1 49 6 49 18c0 15 -52 18 -61 19
c-30 3 -77 6 -77 48c0 21 18 37 39 37c47 0 83 -87 107 -87c5 0 6 5 6 9c0 8 -6 22 -9 29l-11 28c-8 17 -15 32 -15 51c0 23 18 39 40 39c23 0 39 -21 39 -42c0 -35 -31 -83 -31 -104c0 -3 1 -9 5 -9c25 0 55 93 104 93c22 0 39 -16 39 -38c0 -67 -136 -48 -136 -71
c0 -27 140 -1 140 -66c0 -24 -16 -39 -39 -39c-31 0 -58 40 -76 61c-5 6 -20 28 -31 28c-4 0 -6 -5 -6 -9c0 -9 5 -21 8 -29z" />
    <glyph glyph-name="plus" unicode="+" horiz-adv-x="660" 
d="M73 335h213v212h95v-212h212v-95h-212v-213h-95v213h-213v95z" />
    <glyph glyph-name="comma" unicode="," horiz-adv-x="340" 
d="M174 0c-10 -2 -20 -3 -30 -3c-40 0 -73 28 -73 70c0 51 51 79 97 79c59 0 100 -45 100 -103c0 -60 -37 -115 -81 -152c-11 -10 -45 -38 -62 -38c-11 0 -26 9 -26 21c0 5 4 9 7 12c33 31 61 69 68 114z" />
    <glyph glyph-name="hyphen" unicode="-" horiz-adv-x="340" 
d="M234 226h-124c-18 0 -48 -3 -64 10c-15 13 -19 35 -19 54c0 53 32 57 75 57h127c49 0 84 1 84 -59c0 -59 -29 -62 -79 -62z" />
    <glyph glyph-name="period" unicode="." horiz-adv-x="340" 
d="M172 -15c-46 0 -97 29 -97 80c0 52 49 81 96 81c46 0 94 -32 94 -82c0 -49 -48 -79 -93 -79z" />
    <glyph glyph-name="slash" unicode="/" horiz-adv-x="460" 
d="M443 688l-362 -790c-13 -30 -14 -44 -48 -44c-9 0 -33 0 -33 14c0 7 6 18 9 24l365 799c14 30 15 41 51 41c8 0 29 0 29 -12c0 -9 -7 -24 -11 -32z" />
    <glyph glyph-name="zero" unicode="0" 
d="M338 -15c-215 0 -305 205 -305 390c0 87 21 177 70 248c54 78 136 127 232 127c97 0 174 -46 230 -124c52 -73 73 -168 73 -258c0 -86 -19 -181 -67 -254c-52 -78 -137 -129 -233 -129zM338 55c108 0 110 246 110 318c0 75 -4 308 -113 308c-61 0 -88 -86 -99 -134
c-11 -55 -13 -123 -13 -179c0 -79 0 -313 115 -313z" />
    <glyph glyph-name="one" unicode="1" 
d="M256 152v378c0 60 -4 77 -71 77h-31c-22 0 -44 4 -44 31c0 28 29 32 51 36c45 7 94 23 135 43c27 14 60 33 90 33c45 0 52 -29 52 -67v-527c0 -53 0 -79 61 -84c26 -3 60 -2 60 -37c0 -28 -23 -35 -47 -35h-331c-27 0 -53 2 -53 35c0 31 40 34 63 36c64 5 65 22 65 81z
" />
    <glyph glyph-name="two" unicode="2" 
d="M516 0h-403c-28 0 -59 2 -59 38c0 60 88 160 129 202l89 90c63 63 145 149 145 243c0 58 -38 104 -97 104c-50 0 -110 -41 -110 -95c0 -16 3 -22 11 -37c6 -11 13 -21 13 -34c0 -38 -44 -52 -75 -52c-55 0 -91 36 -91 91c0 62 37 113 87 146c54 38 127 54 193 54
c57 0 114 -10 164 -39c57 -33 93 -89 93 -156c0 -104 -80 -185 -153 -249l-184 -181h151c55 0 82 1 126 37c11 9 28 24 44 24c14 0 27 -12 27 -27c0 -11 -5 -27 -9 -37c-9 -23 -15 -51 -21 -75c-10 -47 -27 -47 -70 -47z" />
    <glyph glyph-name="three" unicode="3" 
d="M286 352l-51 2c-28 1 -50 5 -50 37c0 33 34 32 58 33c47 4 90 6 122 46c21 24 30 68 30 100c0 57 -25 111 -90 111c-38 0 -74 -20 -74 -60c0 -19 6 -37 6 -55c0 -34 -41 -45 -69 -45c-44 0 -84 16 -84 66c0 47 29 86 67 113c52 38 121 50 185 50c112 0 244 -57 244 -186
c0 -91 -70 -144 -151 -164c96 -17 184 -86 184 -190c0 -70 -36 -130 -93 -170c-58 -40 -130 -55 -200 -55c-57 0 -128 11 -180 36c-47 23 -90 65 -90 120c0 49 33 70 78 70c44 0 64 -9 69 -54c3 -25 5 -48 20 -69c19 -27 46 -37 77 -37c93 0 128 66 128 151
c0 37 -9 78 -32 107c-27 33 -65 42 -104 43z" />
    <glyph glyph-name="four" unicode="4" 
d="M517 190v-70c0 -12 0 -33 5 -44c6 -11 18 -13 29 -17c14 -5 21 -13 21 -28c0 -28 -28 -31 -50 -31h-201c-23 0 -53 -1 -53 31c0 20 17 25 33 30c14 4 22 4 28 18c4 11 3 29 3 40v69h-224c-29 0 -70 -3 -70 38c0 47 56 161 79 205c38 71 92 152 144 214c21 26 54 63 80 82
c27 20 49 23 82 23c75 0 93 -6 93 -84v-403h67c29 0 49 -3 49 -37c0 -32 -19 -36 -45 -36h-70zM334 260v349c-85 -105 -159 -221 -203 -349h203z" />
    <glyph glyph-name="five" unicode="5" 
d="M210 616l-13 -180c49 22 95 31 150 31c137 0 266 -74 266 -226c0 -73 -33 -144 -89 -191c-60 -48 -140 -65 -215 -65c-56 0 -114 8 -164 34c-45 22 -88 64 -88 117c0 47 34 69 77 69c34 0 72 -18 72 -56l-2 -31c0 -48 41 -66 85 -66c97 0 134 86 134 172
c0 87 -37 170 -136 170c-86 0 -111 -63 -149 -63c-34 0 -33 34 -31 59l29 360c76 -5 152 -11 228 -11c60 0 120 6 181 11c19 0 27 -11 27 -29c0 -40 -53 -79 -86 -91c-47 -16 -127 -16 -178 -16z" />
    <glyph glyph-name="six" unicode="6" 
d="M247 415c48 27 94 44 149 44c130 0 234 -84 234 -218c0 -71 -29 -140 -83 -187c-56 -50 -130 -69 -204 -69c-195 0 -303 121 -303 312c0 253 192 453 449 453c28 0 93 1 93 -39c0 -30 -39 -33 -60 -34c-156 -6 -255 -112 -275 -262zM342 53c84 0 99 111 99 173
c0 60 -16 159 -94 159c-88 0 -112 -87 -112 -159c0 -66 22 -173 107 -173z" />
    <glyph glyph-name="seven" unicode="7" 
d="M457 610h-231c-42 0 -68 3 -85 -40c-7 -15 -14 -27 -34 -27c-33 0 -33 26 -33 51c0 18 3 106 9 118c11 22 31 20 52 20h417c17 0 45 5 45 -19c0 -9 -10 -32 -14 -41l-106 -290l-87 -309c-19 -77 -34 -73 -113 -73h-72c-19 2 -46 5 -46 29c0 12 8 29 13 39l233 451z" />
    <glyph glyph-name="eight" unicode="8" 
d="M474 423c89 -43 160 -105 160 -211c0 -72 -38 -132 -97 -171c-62 -42 -138 -56 -212 -56c-63 0 -128 10 -184 41c-60 32 -104 87 -104 157c0 91 77 153 156 181c-70 38 -130 92 -130 178c0 65 40 123 94 157c58 38 126 51 194 51c56 0 113 -8 163 -34
c54 -27 95 -75 95 -137c0 -73 -73 -129 -135 -156zM285 314l-18 9c-46 -33 -82 -73 -82 -133c0 -80 68 -131 145 -131c56 0 128 37 128 100c0 81 -111 125 -173 155zM398 458c36 35 69 61 69 116c0 63 -53 108 -115 108c-58 0 -111 -39 -111 -99c0 -68 104 -105 157 -125z
" />
    <glyph glyph-name="nine" unicode="9" 
d="M423 318c-45 -29 -87 -42 -141 -42c-135 0 -240 84 -240 223c0 69 33 140 85 184c54 48 128 67 200 67c194 0 303 -124 303 -313c0 -247 -189 -452 -441 -452c-27 0 -103 -3 -103 38c0 33 42 33 65 34c160 7 247 111 272 261zM328 348c84 0 109 87 109 156
c0 43 -5 94 -28 132c-15 25 -44 47 -75 47c-86 0 -102 -107 -102 -172c0 -61 17 -163 96 -163z" />
    <glyph glyph-name="colon" unicode=":" horiz-adv-x="340" 
d="M171 -15c-46 0 -97 29 -97 80c0 52 49 81 96 81c46 0 94 -32 94 -82c0 -49 -48 -79 -93 -79zM171 292c-46 0 -97 29 -97 80c0 52 49 81 96 81c46 0 94 -32 94 -82c0 -49 -48 -79 -93 -79z" />
    <glyph glyph-name="semicolon" unicode=";" horiz-adv-x="340" 
d="M169 292c-46 0 -97 29 -97 80c0 52 49 81 96 81c46 0 94 -32 94 -82c0 -49 -48 -79 -93 -79zM177 0c-10 -2 -20 -3 -30 -3c-40 0 -73 28 -73 70c0 51 51 79 97 79c59 0 100 -45 100 -103c0 -60 -37 -115 -81 -152c-11 -10 -45 -38 -62 -38c-11 0 -26 9 -26 21
c0 5 4 9 7 12c33 31 61 69 68 114z" />
    <glyph glyph-name="less" unicode="&#x3c;" horiz-adv-x="660" 
d="M610 81v-93l-554 253v90l554 255v-94l-461 -207z" />
    <glyph glyph-name="equal" unicode="=" horiz-adv-x="660" 
d="M70 415h520v-95h-520v95zM70 255h520v-95h-520v95z" />
    <glyph glyph-name="greater" unicode="&#x3e;" horiz-adv-x="660" 
d="M56 81l462 204l-462 207v94l554 -255v-90l-554 -253v93z" />
    <glyph glyph-name="question" unicode="?" horiz-adv-x="540" 
d="M233 -15c-43 0 -92 28 -92 75c0 51 51 76 96 76c43 0 94 -28 94 -77c0 -50 -55 -74 -98 -74zM182 281v46c1 53 -4 54 42 79c34 19 57 32 80 64s31 69 31 107c0 58 -22 117 -89 117c-18 0 -37 -6 -51 -18c-17 -15 -18 -32 -17 -53c0 -22 2 -35 -15 -52
c-15 -15 -38 -21 -59 -21c-36 0 -69 21 -69 60c0 107 140 147 226 147c59 0 124 -11 173 -46c52 -37 81 -95 81 -158c0 -55 -26 -110 -67 -147c-42 -38 -86 -55 -137 -78c-33 -14 -34 -33 -34 -67c0 -32 -1 -62 -43 -62c-58 0 -52 37 -52 82z" />
    <glyph glyph-name="at" unicode="@" horiz-adv-x="860" 
d="M653 563l-104 -263c-6 -15 -18 -42 -18 -58c0 -12 16 -19 28 -19c46 0 90 35 118 68c38 43 59 92 59 149c0 155 -142 248 -291 248c-82 0 -170 -35 -229 -90c-65 -61 -102 -148 -102 -235c0 -182 152 -317 337 -317c116 0 225 55 285 154h59
c-58 -142 -199 -215 -352 -215c-216 0 -393 168 -393 379c0 104 39 197 116 271c79 77 175 112 286 112c182 0 348 -121 348 -308c0 -139 -120 -281 -269 -281c-40 0 -77 18 -72 63c-38 -35 -78 -59 -132 -59c-77 0 -114 61 -114 130c0 121 96 287 237 287
c36 0 66 -14 87 -43l11 27h105zM354 225c49 0 88 81 105 118c16 33 43 101 43 137c0 16 -11 34 -29 34c-81 0 -153 -184 -153 -248c0 -22 10 -41 34 -41z" />
    <glyph glyph-name="A" unicode="A" horiz-adv-x="740" 
d="M118 0h-55c-27 0 -72 -5 -72 34c0 14 10 22 21 30c16 10 23 14 30 32l36 112c38 119 90 230 141 346c22 50 46 100 74 151c18 33 36 35 73 35c56 0 68 -12 89 -61l205 -480l35 -104c8 -19 13 -22 30 -32c12 -7 19 -14 19 -29c0 -29 -27 -34 -51 -34h-169
c-23 0 -61 0 -61 32s43 28 43 51c0 17 -33 116 -40 138l-5 16h-280c-10 -35 -38 -102 -38 -134c0 -44 52 -34 52 -71s-52 -32 -77 -32zM209 319h224l-5 16l-107 250z" />
    <glyph glyph-name="B" unicode="B" horiz-adv-x="740" 
d="M458 0h-387c-22 0 -49 7 -49 34c0 18 11 24 24 32l11 6c22 11 18 34 18 55v478c0 21 4 44 -18 55l-11 6c-13 8 -24 14 -24 32c0 27 27 34 49 34h363c52 0 107 -3 154 -30c49 -28 80 -75 80 -132c0 -81 -73 -139 -141 -167c101 -19 190 -86 190 -197
c0 -62 -29 -117 -78 -154c-53 -40 -116 -52 -181 -52zM257 591v-192c87 18 221 69 221 175c0 79 -75 90 -137 90c-21 0 -57 -1 -73 -18c-12 -13 -11 -38 -11 -55zM257 318v-172c0 -21 -2 -43 15 -58s47 -15 69 -15c90 0 181 38 181 142c0 67 -54 121 -115 139z" />
    <glyph glyph-name="C" unicode="C" horiz-adv-x="760" 
d="M628 550c-17 36 -29 61 -62 86c-32 25 -72 38 -109 38c-71 0 -132 -36 -173 -95c-42 -61 -57 -133 -57 -206c0 -65 18 -147 51 -203c40 -66 109 -97 184 -97c63 0 127 30 173 78c16 16 36 42 61 42c19 0 35 -16 35 -35c0 -48 -67 -99 -104 -121
c-59 -35 -132 -52 -201 -52c-212 0 -394 146 -394 368c0 224 196 394 413 394c78 0 167 -22 232 -66c14 -8 28 -18 33 -33c6 -19 9 -88 9 -110c0 -24 -17 -39 -42 -39c-27 0 -39 31 -49 51z" />
    <glyph glyph-name="D" unicode="D" horiz-adv-x="820" 
d="M71 732h289c105 0 201 -11 287 -79c90 -70 131 -170 131 -282c0 -99 -31 -199 -101 -270c-76 -76 -178 -101 -283 -101h-323c-22 0 -49 7 -49 34c0 18 11 24 24 32l11 6c22 11 18 34 18 55v478c0 21 4 44 -18 55l-11 6c-13 8 -24 14 -24 32c0 27 27 34 49 34zM257 575
v-407c0 -70 1 -97 77 -97c167 0 249 134 249 289c0 158 -83 301 -255 301c-71 0 -71 -23 -71 -86z" />
    <glyph glyph-name="E" unicode="E" horiz-adv-x="660" 
d="M257 356v-173c0 -103 12 -110 148 -111c60 0 99 3 142 50c16 18 39 48 65 48c18 0 36 -14 36 -33c0 -27 -13 -66 -22 -91c-13 -42 -21 -46 -66 -46h-489c-22 0 -49 7 -49 34c0 18 11 24 24 32l11 6c22 11 18 34 18 55v478c0 21 4 44 -18 55l-11 6c-13 8 -24 14 -24 32
c0 27 27 34 49 34h467c16 0 43 2 55 -12c13 -16 17 -74 17 -95c0 -23 -10 -43 -36 -43c-22 0 -33 14 -46 30c-19 22 -35 34 -63 41c-26 6 -70 8 -100 8c-21 0 -65 -1 -83 -8c-15 -6 -25 -17 -25 -30v-186h151c71 0 60 37 94 37c35 0 35 -44 35 -69c0 -27 5 -84 -35 -84
c-34 0 -26 35 -94 35h-151z" />
    <glyph glyph-name="F" unicode="F" horiz-adv-x="620" 
d="M256 335v-208c0 -21 -4 -44 18 -55l11 -6c13 -8 24 -14 24 -32c0 -27 -27 -34 -49 -34h-190c-22 0 -49 7 -49 34c0 18 11 24 24 32l11 6c22 11 18 34 18 55v478c0 21 4 44 -18 55l-11 6c-13 8 -24 14 -24 32c0 27 27 34 49 34h434c16 0 52 2 66 -8c24 -16 25 -68 28 -95
c1 -21 6 -56 -26 -56c-20 0 -32 14 -44 27c-52 59 -95 61 -170 61c-20 0 -71 0 -88 -14c-16 -14 -14 -42 -14 -62v-169h146c71 0 60 37 94 37c35 0 35 -44 35 -69c0 -27 5 -84 -35 -84c-34 0 -26 35 -94 35h-146z" />
    <glyph glyph-name="G" unicode="G" horiz-adv-x="780" 
d="M726 569v-25c-4 -19 -16 -32 -37 -32c-23 0 -31 14 -40 33c-16 34 -30 61 -60 85c-34 28 -78 41 -120 41c-169 0 -242 -167 -242 -313c0 -128 69 -290 218 -290c34 0 80 10 106 37c28 29 29 80 29 119c0 65 -5 83 -74 83c-30 0 -78 -7 -78 38c0 40 45 40 74 40h161
c20 0 61 -1 79 -7c13 -5 17 -13 17 -27s-3 -33 -5 -46l-6 -70c0 -34 3 -65 11 -98c1 -5 3 -15 3 -20c0 -43 -87 -80 -121 -92c-73 -27 -127 -40 -205 -40c-224 0 -404 136 -404 372c0 240 188 390 419 390c70 0 163 -18 225 -53c17 -10 33 -20 42 -37c9 -18 8 -67 8 -88z
" />
    <glyph glyph-name="H" unicode="H" horiz-adv-x="820" 
d="M259 360v-233c0 -21 -4 -44 18 -55l11 -6c13 -8 24 -14 24 -32c0 -27 -27 -34 -49 -34h-190c-22 0 -49 7 -49 34c0 18 11 24 24 32l11 6c22 11 18 34 18 55v478c0 21 4 44 -18 55l-11 6c-13 8 -24 14 -24 32c0 27 27 34 49 34h190c22 0 49 -7 49 -34
c0 -18 -11 -24 -24 -32l-11 -6c-22 -11 -18 -34 -18 -55v-170h298v170c0 21 4 44 -18 55l-11 6c-13 8 -24 14 -24 32c0 27 27 34 49 34h190c22 0 49 -7 49 -34c0 -18 -11 -24 -24 -32l-11 -6c-22 -11 -18 -34 -18 -55v-478c0 -21 -4 -44 18 -55l11 -6c13 -8 24 -14 24 -32
c0 -27 -27 -34 -49 -34h-190c-22 0 -49 7 -49 34c0 18 11 24 24 32l11 6c22 11 18 34 18 55v233h-298z" />
    <glyph glyph-name="I" unicode="I" horiz-adv-x="340" 
d="M76 127v478c0 21 4 44 -18 55l-11 6c-13 8 -24 14 -24 32c0 27 27 34 49 34h190c22 0 49 -7 49 -34c0 -18 -11 -24 -24 -32l-11 -6c-22 -11 -18 -34 -18 -55v-478c0 -21 -4 -44 18 -55l11 -6c13 -8 24 -14 24 -32c0 -27 -27 -34 -49 -34h-190c-22 0 -49 7 -49 34
c0 18 11 24 24 32l11 6c22 11 18 34 18 55z" />
    <glyph glyph-name="J" unicode="J" horiz-adv-x="560" 
d="M308 201v404c0 21 4 44 -18 55l-11 6c-13 8 -24 14 -24 32c0 27 27 34 49 34h190c22 0 49 -7 49 -34c0 -18 -11 -24 -24 -32l-11 -6c-22 -11 -18 -34 -18 -55v-380c0 -66 -4 -134 -57 -181c-49 -43 -131 -59 -194 -59c-109 0 -238 44 -238 174c0 82 64 136 144 136
c35 0 84 -17 84 -59c0 -60 -96 -23 -96 -101c0 -47 40 -73 84 -73c82 0 91 74 91 139z" />
    <glyph glyph-name="K" unicode="K" horiz-adv-x="780" 
d="M262 283v-156c0 -21 -4 -44 18 -55l11 -6c13 -8 24 -14 24 -32c0 -27 -27 -34 -49 -34h-190c-22 0 -49 7 -49 34c0 18 11 24 24 32l11 6c22 11 18 34 18 55v478c0 21 4 44 -18 55l-11 6c-13 8 -24 14 -24 32c0 27 27 34 49 34h190c22 0 49 -7 49 -34
c0 -18 -11 -24 -24 -32l-11 -6c-22 -11 -18 -34 -18 -55v-229l164 131c21 20 115 109 115 137c0 29 -43 22 -43 57c0 25 25 31 46 31h123c16 0 31 -3 40 -6c16 -6 23 -17 23 -33c0 -19 -18 -29 -33 -36c-44 -22 -61 -46 -92 -84l-130 -134c92 -96 165 -206 230 -322
c12 -22 22 -39 46 -51c18 -10 28 -14 28 -37c0 -27 -29 -29 -48 -29h-191c-23 0 -62 1 -62 33c0 30 35 32 35 50c0 50 -132 218 -173 260z" />
    <glyph glyph-name="L" unicode="L" horiz-adv-x="600" 
d="M77 127v478c0 21 4 44 -18 55l-11 6c-13 8 -24 14 -24 32c0 27 27 34 49 34h190c22 0 49 -7 49 -34c0 -18 -11 -24 -24 -32l-11 -6c-22 -11 -18 -34 -18 -55v-471c0 -59 14 -59 71 -62h37c60 0 99 3 142 50c16 18 39 48 65 48c18 0 36 -14 36 -33c0 -27 -13 -66 -22 -91
c-13 -42 -21 -46 -66 -46h-449c-22 0 -49 7 -49 34c0 18 11 24 24 32l11 6c22 11 18 34 18 55z" />
    <glyph glyph-name="M" unicode="M" horiz-adv-x="920" 
d="M463 302l155 378c17 41 21 52 66 52h186c19 0 34 -13 34 -36c0 -25 -20 -31 -39 -37c-27 -8 -29 -23 -29 -49v-483c0 -21 -4 -44 18 -55l11 -6c13 -8 24 -14 24 -32c0 -27 -27 -34 -49 -34h-190c-22 0 -49 7 -49 34c0 18 11 24 24 32l11 6c22 11 18 34 18 55v434
l-162 -402c-18 -42 -22 -63 -73 -63c-44 0 -57 3 -75 42l-176 412v-425c1 -12 3 -24 6 -33c7 -18 22 -22 38 -28c17 -7 25 -14 25 -33c0 -34 -45 -31 -68 -31h-87c-23 0 -68 -3 -68 31c0 19 8 26 25 33c16 6 31 10 38 28c3 9 5 21 6 33v480c0 4 0 13 -3 21
c-4 17 -15 30 -39 37c-19 6 -38 11 -38 35c0 33 31 34 57 34h195c48 0 53 -31 68 -71z" />
    <glyph glyph-name="N" unicode="N" horiz-adv-x="760" 
d="M602 276v331c-1 12 -3 24 -6 33c-7 18 -22 22 -38 28c-17 7 -25 14 -25 33c0 34 45 31 68 31h87c23 0 68 3 68 -31c0 -19 -8 -26 -25 -33c-16 -6 -31 -10 -38 -28c-3 -9 -5 -21 -6 -33v-543c0 -55 -3 -71 -64 -71c-22 0 -36 0 -51 16c-18 18 -57 80 -73 104l-313 431
v-419c1 -12 3 -24 6 -33c7 -18 22 -22 38 -28c17 -7 25 -14 25 -33c0 -34 -45 -31 -68 -31h-87c-23 0 -68 -3 -68 31c0 19 8 26 25 33c16 6 31 10 38 28c3 9 5 21 6 33v443c-1 43 6 80 -42 95c-19 6 -38 11 -38 35c0 33 31 34 57 34h137c37 0 43 1 68 -26
c60 -63 132 -168 184 -241z" />
    <glyph glyph-name="O" unicode="O" horiz-adv-x="860" 
d="M423 -15c-100 0 -205 39 -278 108c-76 73 -113 169 -113 275c0 222 176 379 394 379c220 0 400 -152 400 -379c0 -224 -185 -383 -403 -383zM427 61c160 0 204 174 204 303c0 127 -44 307 -203 307c-75 0 -129 -47 -162 -111c-30 -59 -39 -123 -39 -189
c0 -124 43 -310 200 -310z" />
    <glyph glyph-name="P" unicode="P" 
d="M256 276v-151c1 -12 3 -24 6 -33c7 -18 22 -22 38 -28c17 -7 25 -14 25 -33c0 -34 -45 -31 -68 -31h-187c-22 0 -49 7 -49 34c0 18 11 24 24 32l11 6c22 11 18 34 18 55v478c0 21 4 44 -18 55l-11 6c-13 8 -24 14 -24 32c0 27 27 34 49 34h309c64 0 131 -5 190 -35
c64 -33 104 -90 104 -164c0 -95 -68 -164 -148 -203c-81 -40 -179 -50 -269 -54zM256 586v-233c96 13 222 56 222 174c0 86 -61 135 -144 135c-20 0 -48 -2 -63 -17c-16 -15 -15 -38 -15 -59z" />
    <glyph glyph-name="Q" unicode="Q" horiz-adv-x="860" 
d="M457 -12l-54 -3c-213 0 -372 166 -372 377c0 226 178 385 399 385c101 0 204 -33 278 -104c71 -69 114 -173 114 -272c0 -165 -109 -310 -266 -360c37 -27 70 -40 116 -40c29 0 57 8 86 8c31 0 54 -23 54 -54c0 -51 -68 -62 -107 -62c-98 0 -187 49 -248 125zM415 66
c-11 32 -20 65 -20 99c0 26 7 58 40 58c37 0 36 -37 38 -64c2 -31 12 -57 25 -85c104 37 129 186 129 283c0 124 -43 314 -200 314c-159 0 -201 -172 -201 -301c0 -120 43 -294 189 -304z" />
    <glyph glyph-name="R" unicode="R" horiz-adv-x="740" 
d="M259 305v-178c0 -21 -4 -44 18 -55l11 -6c13 -8 24 -14 24 -32c0 -27 -27 -34 -49 -34h-191c-22 0 -49 7 -49 34c0 18 11 24 24 32l11 6c22 11 18 34 18 55v477c0 21 4 44 -18 55l-11 6c-13 8 -24 14 -24 32c0 27 27 34 49 34l356 1c54 0 117 -2 166 -27
c56 -28 93 -84 93 -147c0 -94 -72 -157 -152 -194c65 -70 105 -156 139 -244c13 -30 19 -45 48 -61c13 -8 24 -12 24 -30c0 -27 -33 -29 -52 -29h-196c-24 0 -60 -1 -60 33c0 30 43 27 43 55c0 51 -84 189 -123 233zM258 575v-193c94 2 234 39 234 156
c0 87 -66 123 -145 123c-21 0 -59 -4 -74 -20c-15 -15 -15 -45 -15 -66z" />
    <glyph glyph-name="S" unicode="S" 
d="M355 474l79 -20c48 -11 108 -30 147 -61c45 -37 72 -91 72 -149c0 -76 -37 -146 -98 -191c-65 -49 -142 -68 -223 -68c-65 0 -132 11 -191 38c-50 24 -119 78 -119 138c0 28 20 55 49 55c27 0 42 -16 56 -37c21 -32 35 -57 68 -79c37 -24 84 -36 128 -36
c69 0 154 36 154 116c0 35 -18 63 -50 78c-32 16 -92 29 -128 36c-51 9 -119 27 -162 56c-54 37 -88 94 -88 160c0 71 39 139 96 181s131 56 201 56c74 0 155 -18 221 -52c12 -7 23 -15 27 -29c7 -24 7 -65 7 -90c0 -24 -12 -41 -37 -41c-54 0 -46 142 -210 142
c-57 0 -125 -32 -125 -97c0 -72 69 -92 126 -106z" />
    <glyph glyph-name="T" unicode="T" 
d="M246 127v477c0 36 3 54 -40 54c-114 0 -116 -83 -162 -83c-24 0 -38 15 -38 38c0 11 3 22 5 32c3 18 10 69 25 81c9 7 33 6 45 6h512c12 0 36 1 45 -6c15 -12 22 -63 25 -81c2 -10 5 -21 5 -32c0 -23 -14 -38 -38 -38c-46 0 -48 83 -162 83c-43 0 -40 -18 -40 -54v-477
c0 -21 -4 -44 18 -55l11 -6c13 -8 24 -14 24 -32c0 -27 -27 -34 -49 -34h-190c-22 0 -49 7 -49 34c0 18 11 24 24 32l11 6c22 11 18 34 18 55z" />
    <glyph glyph-name="U" unicode="U" horiz-adv-x="760" 
d="M243 604v-289c0 -54 1 -118 26 -167c30 -61 90 -86 152 -86c54 0 119 26 147 78c26 48 26 119 26 173v310c0 29 -10 32 -34 44c-14 7 -26 14 -26 32c0 32 34 33 59 33h87c25 0 59 -1 59 -33c0 -18 -12 -25 -26 -32c-24 -12 -34 -15 -34 -44v-295c0 -84 -2 -183 -59 -251
c-59 -70 -162 -92 -248 -92c-72 0 -172 19 -232 76c-70 67 -79 163 -79 254v290c0 21 4 44 -18 55l-11 6c-13 8 -24 14 -24 32c0 27 27 34 49 34h193c23 0 54 -4 54 -34c0 -17 -10 -25 -24 -30c-37 -16 -33 -22 -37 -64z" />
    <glyph glyph-name="V" unicode="V" horiz-adv-x="740" 
d="M301 371l114 -241h1c34 76 68 154 96 230c21 57 72 198 72 253c0 56 -71 42 -71 88c0 30 35 31 57 31h114c22 0 55 -3 55 -33c0 -16 -8 -25 -20 -35c-26 -21 -28 -29 -37 -62c-38 -139 -98 -274 -156 -412c-20 -48 -40 -101 -68 -150c-24 -41 -40 -55 -89 -55
c-62 0 -69 8 -101 60c-55 88 -97 177 -134 273l-93 301c-12 59 -49 46 -49 79c0 32 41 34 64 34h165c23 0 62 -1 62 -33c0 -40 -58 -28 -58 -72c0 -64 52 -194 76 -256z" />
    <glyph glyph-name="W" unicode="W" horiz-adv-x="1000" 
d="M484 368l-75 -244c-11 -30 -33 -83 -50 -107c-18 -26 -41 -32 -71 -32c-71 0 -82 29 -108 89c-60 140 -100 314 -127 464l-13 74c-5 28 -4 35 -27 52c-12 9 -21 18 -21 34c0 38 43 34 70 34h162c24 0 50 -4 50 -35c0 -16 -12 -24 -25 -31c-21 -11 -26 -17 -26 -41
c0 -64 25 -176 41 -240l71 -225c54 138 96 275 96 424c0 34 3 65 -29 85c-11 8 -23 14 -23 30c0 30 27 33 50 33h181c25 0 46 -6 46 -35c0 -34 -50 -22 -50 -70c0 -57 35 -186 53 -245l86 -225l70 207c18 66 44 177 44 243c0 69 -66 48 -66 93c0 37 49 32 72 32h88
c21 0 49 -4 49 -31c0 -13 -10 -22 -18 -30c-20 -18 -28 -27 -34 -54l-17 -102c-13 -91 -52 -233 -82 -320l-38 -99c-10 -23 -27 -69 -42 -87c-17 -20 -46 -24 -71 -24c-46 0 -65 10 -88 50c-58 104 -91 221 -128 333z" />
    <glyph glyph-name="X" unicode="X" horiz-adv-x="740" 
d="M203 0h-151c-22 0 -53 3 -53 33c0 21 16 28 33 36c32 16 44 36 64 65l165 227c-73 79 -132 169 -187 263c-11 19 -17 28 -37 39c-16 8 -33 16 -33 37s15 29 32 32h215c21 -2 49 -3 49 -32c0 -26 -32 -30 -32 -47c0 -26 112 -165 136 -195c27 33 122 150 122 185
c0 30 -49 25 -49 61c0 25 25 28 44 28h114c24 0 65 1 65 -33c0 -21 -16 -29 -32 -38c-18 -10 -19 -10 -32 -27l-41 -58l-139 -178l184 -238l29 -45c19 -30 22 -35 51 -49c15 -7 27 -16 27 -34c0 -31 -34 -32 -57 -32h-224c-16 6 -29 15 -29 34c0 28 36 30 36 43
c0 26 -132 197 -160 224c-30 -36 -125 -169 -125 -209c0 -33 44 -33 44 -63c0 -18 -13 -26 -29 -29z" />
    <glyph glyph-name="Y" unicode="Y" horiz-adv-x="740" 
d="M423 373l89 121l33 53c13 20 43 67 43 91c0 30 -48 27 -48 60c0 31 30 34 53 34h87c26 0 64 5 64 -33c0 -13 -9 -23 -19 -31c-25 -18 -27 -18 -43 -45l-219 -323v-173c0 -38 -5 -46 30 -62c14 -6 25 -14 25 -31c0 -27 -27 -34 -49 -34h-189c-23 0 -54 4 -54 34
c0 16 10 24 23 30c35 18 31 21 32 64v164l-208 319c-17 32 -21 34 -52 51c-16 8 -29 18 -29 37c0 38 60 33 108 33h152c26 0 53 -3 53 -36c0 -30 -45 -26 -45 -50c0 -29 32 -79 48 -103z" />
    <glyph glyph-name="Z" unicode="Z" horiz-adv-x="620" 
d="M105 732h431c32 0 70 1 70 -40c0 -71 -143 -268 -189 -332l-157 -217c-8 -11 -31 -42 -31 -56c0 -13 18 -10 26 -10h99c71 0 126 4 178 58c12 13 27 30 47 30c21 0 34 -10 34 -32c0 -26 -6 -50 -11 -76l-6 -33c-11 -25 -25 -24 -49 -24h-449c-38 0 -83 3 -83 53
c0 47 59 128 86 167l117 168l109 150l41 63c4 7 27 41 27 48c0 13 -19 11 -26 11h-69c-32 0 -65 -2 -97 -8c-36 -8 -52 -16 -75 -45c-11 -14 -25 -34 -46 -34c-19 0 -35 13 -35 33c0 24 5 90 13 110c7 18 29 16 45 16z" />
    <glyph glyph-name="bracketleft" unicode="[" horiz-adv-x="320" 
d="M70 -147v831c0 52 8 48 60 48h99c27 0 70 4 70 -35c0 -18 -14 -27 -29 -33c-61 -21 -54 -26 -54 -90v-615c0 -33 -8 -64 34 -79c19 -6 49 -12 49 -39c0 -39 -43 -36 -70 -36h-99c-51 0 -60 -4 -60 48z" />
    <glyph glyph-name="backslash" unicode="\" horiz-adv-x="640" 
d="M441 0l-313 757h72l313 -757h-72z" />
    <glyph glyph-name="bracketright" unicode="]" horiz-adv-x="320" 
d="M93 732h99c51 0 59 4 59 -48v-831c0 -52 -8 -48 -59 -48h-99c-27 0 -71 -3 -71 36c0 27 30 33 50 39c42 15 33 46 33 83v611c0 64 7 69 -54 90c-15 6 -29 15 -29 33c0 39 44 35 71 35z" />
    <glyph glyph-name="asciicircum" unicode="^" horiz-adv-x="660" 
d="M123 178h-93l253 554h90l256 -554h-95l-207 455z" />
    <glyph glyph-name="underscore" unicode="_" horiz-adv-x="500" 
d="M0 -50h500v-96h-500v96z" />
    <glyph glyph-name="quoteleft" unicode="&#x2018;" horiz-adv-x="320" 
d="M155 615c9 2 18 3 27 3c36 0 66 -26 66 -63c0 -46 -46 -72 -87 -72c-54 0 -90 41 -90 94c0 52 30 99 68 133c10 9 44 37 60 37c10 0 24 -8 24 -18c0 -5 -4 -9 -7 -12c-30 -27 -54 -61 -61 -102z" />
    <glyph glyph-name="a" unicode="a" horiz-adv-x="580" 
d="M516 295v-158c0 -14 -1 -42 5 -55c5 -10 13 -15 22 -19c14 -7 25 -14 25 -31c0 -32 -30 -32 -54 -32h-100c-51 0 -51 17 -54 62c-34 -56 -94 -77 -155 -77c-94 0 -180 52 -180 155c0 142 180 177 290 177h34c0 60 -29 105 -93 105c-61 0 -70 -64 -133 -64
c-29 0 -62 13 -62 48c0 70 158 83 207 83c56 0 118 -9 167 -37c62 -36 81 -87 81 -157zM354 254h-18c-71 0 -143 -35 -143 -115c0 -38 22 -72 63 -72c33 0 59 21 77 48c22 35 21 67 21 107v32z" />
    <glyph glyph-name="b" unicode="b" horiz-adv-x="620" 
d="M221 659v-222c41 33 88 52 141 52c141 0 227 -100 227 -239c0 -172 -138 -265 -300 -265c-55 0 -122 13 -167 45c-58 42 -64 103 -64 169v352c0 22 0 53 -3 75c-4 21 -12 26 -29 36c-12 7 -25 12 -25 28c0 27 42 33 61 38c30 10 87 29 118 29c47 0 41 -68 41 -98z
M224 288v-78c0 -61 5 -156 87 -156c86 0 105 107 105 174c0 60 -17 185 -98 185c-31 0 -59 -16 -76 -41s-18 -55 -18 -84z" />
    <glyph glyph-name="c" unicode="c" horiz-adv-x="520" 
d="M196 234c0 -79 37 -164 127 -164h4c42 0 84 21 114 51c11 11 24 25 41 25s29 -15 29 -31c0 -32 -34 -61 -56 -77c-48 -32 -105 -53 -163 -53c-144 0 -269 93 -269 246c0 157 121 258 272 258c63 0 205 -28 205 -110c0 -33 -27 -54 -58 -54c-73 0 -69 91 -143 91
c-83 0 -103 -118 -104 -182h1z" />
    <glyph glyph-name="d" unicode="d" horiz-adv-x="620" 
d="M391 456v95c0 22 0 53 -3 75c-4 21 -12 26 -29 36c-12 7 -25 12 -25 28c0 27 42 33 61 38c30 10 87 29 118 29c47 0 41 -68 41 -98v-522c0 -14 -1 -42 5 -55c5 -10 13 -15 22 -19c14 -7 25 -14 25 -31c0 -32 -30 -32 -54 -32h-100c-51 0 -51 17 -54 62
c-34 -57 -86 -77 -147 -77c-136 0 -232 109 -232 244c0 147 108 260 255 260c45 0 78 -11 117 -33zM391 178v134c0 27 -2 52 -21 74c-16 19 -41 30 -66 30c-89 0 -112 -109 -112 -180c0 -69 19 -171 107 -171c31 0 60 16 77 42c14 23 15 45 15 71z" />
    <glyph glyph-name="e" unicode="e" horiz-adv-x="560" 
d="M203 172c14 -63 64 -107 129 -107c54 0 95 24 135 60c14 12 21 22 41 22c14 0 29 -12 29 -27c0 -36 -54 -78 -81 -93c-52 -31 -104 -42 -166 -42c-136 0 -269 89 -269 236c0 168 145 268 301 268c89 0 205 -41 205 -146c0 -74 -76 -116 -137 -136
c-60 -19 -125 -25 -187 -35zM194 239c66 5 177 32 177 115c0 38 -20 65 -60 65c-84 0 -122 -110 -117 -180z" />
    <glyph glyph-name="f" unicode="f" horiz-adv-x="360" 
d="M253 404v-269c0 -14 0 -42 5 -55c4 -9 14 -14 22 -18c13 -7 24 -14 24 -30c0 -32 -30 -32 -54 -32h-157c-24 0 -54 0 -54 32c0 16 11 23 24 30c8 4 18 9 22 18c5 13 5 41 5 55v269h-13c-32 0 -57 0 -57 39c0 9 3 19 9 26c12 15 26 12 43 12h19c-1 56 -1 124 25 179
c30 66 93 97 164 97c41 0 105 -18 105 -68c0 -32 -23 -58 -55 -58c-30 0 -54 29 -62 29c-16 0 -15 -48 -15 -56v-123h29c30 0 73 6 73 -37c0 -45 -36 -40 -70 -40h-32z" />
    <glyph glyph-name="g" unicode="g" horiz-adv-x="600" 
d="M299 489l68 -4l92 -5h55c32 0 67 1 67 -41c0 -34 -37 -35 -61 -36h-26c36 -39 55 -91 55 -143c0 -79 -35 -142 -101 -185c59 -14 118 -49 118 -118c0 -129 -183 -152 -280 -152c-63 0 -257 7 -257 97c0 57 63 80 110 80c16 0 55 -3 55 -26c0 -5 -2 -8 -4 -12
c-3 -5 -5 -9 -5 -15c0 -34 74 -41 97 -41c48 0 129 11 129 75c0 40 -33 60 -66 74c-25 -7 -51 -10 -77 -10c-135 0 -246 80 -246 223c0 70 26 139 82 183c55 43 127 56 195 56zM281 99c83 0 96 107 96 169c0 56 -17 158 -90 158c-74 0 -93 -109 -93 -165s10 -162 87 -162z
" />
    <glyph glyph-name="h" unicode="h" horiz-adv-x="620" 
d="M561 286v-159c0 -13 -1 -40 4 -53c4 -7 12 -12 19 -17c10 -6 18 -13 18 -26c0 -23 -18 -31 -38 -31h-169c-20 0 -38 8 -38 31c0 13 8 20 18 26c7 5 15 10 19 17c5 13 4 40 4 53v166c0 57 -9 115 -81 115c-25 0 -50 -10 -67 -29c-19 -21 -22 -42 -22 -70v-182
c0 -13 -1 -40 4 -53c4 -7 12 -12 19 -17c10 -6 18 -13 18 -26c0 -23 -18 -31 -38 -31h-169c-20 0 -38 8 -38 31c0 13 8 20 18 26c7 5 15 10 19 17c5 13 4 40 4 53v424c0 22 0 53 -3 75c-4 21 -12 26 -29 36c-12 7 -25 12 -25 28c0 27 42 33 61 38c30 10 87 29 118 29
c47 0 41 -68 41 -98v-218c42 30 94 48 146 48c51 0 106 -16 142 -54c39 -41 45 -94 45 -149z" />
    <glyph glyph-name="i" unicode="i" horiz-adv-x="300" 
d="M143 546c-44 0 -95 26 -95 75c0 53 49 84 97 84c49 0 98 -26 98 -80c0 -52 -55 -79 -100 -79zM78 127v156c0 22 0 53 -3 75c-4 21 -12 26 -29 36c-12 7 -25 12 -25 28c0 27 42 33 61 38c30 10 87 29 118 29c47 0 41 -68 41 -98v-264c0 -13 -1 -40 4 -53
c4 -7 12 -12 19 -17c10 -6 18 -13 18 -26c0 -23 -18 -31 -38 -31h-169c-20 0 -38 8 -38 31c0 13 8 20 18 26c7 5 15 10 19 17c5 13 4 40 4 53z" />
    <glyph glyph-name="j" unicode="j" horiz-adv-x="300" 
d="M157 546c-44 0 -95 26 -95 75c0 53 49 84 97 84c49 0 98 -26 98 -80c0 -52 -55 -79 -100 -79zM89 -64v347c0 22 0 53 -3 75c-4 21 -12 26 -29 36c-12 7 -25 12 -25 28c0 27 42 33 61 38c30 10 87 29 118 29c47 0 41 -68 41 -98v-350c0 -53 0 -110 -30 -156
c-32 -51 -89 -80 -149 -80c-43 0 -120 17 -120 73c0 31 22 55 53 55c41 0 61 -38 73 -38c13 0 10 34 10 41z" />
    <glyph glyph-name="k" unicode="k" horiz-adv-x="600" 
d="M455 362l-54 -49l-13 -11c65 -58 115 -131 157 -206c8 -16 13 -23 28 -32c14 -8 23 -14 23 -31c0 -26 -25 -33 -46 -33h-165c-22 0 -50 3 -50 32c0 23 30 23 30 42c0 31 -74 128 -102 150l-37 -21v-76c0 -13 -1 -40 4 -53c4 -7 12 -12 19 -17c10 -6 18 -13 18 -26
c0 -23 -18 -31 -38 -31h-169c-20 0 -38 8 -38 31c0 13 8 20 18 26c7 5 15 10 19 17c5 13 4 40 4 53v424c0 22 0 53 -3 75c-4 21 -12 26 -29 36c-12 7 -25 12 -25 28c0 27 42 33 61 38c30 10 87 29 118 29c47 0 41 -68 41 -98v-386c38 14 153 99 153 134c0 9 -6 13 -13 17
c-12 6 -23 13 -23 28c0 16 11 22 26 25c22 4 79 4 102 4c22 0 79 6 79 -29c0 -21 -20 -29 -36 -39c-20 -11 -43 -35 -59 -51z" />
    <glyph glyph-name="l" unicode="l" horiz-adv-x="300" 
d="M73 135v416c0 22 0 53 -3 75c-4 21 -12 26 -29 36c-12 7 -25 12 -25 28c0 27 42 33 61 38c30 10 87 29 118 29c47 0 41 -68 41 -98v-524c0 -14 0 -42 5 -55c4 -9 14 -14 22 -18c13 -7 24 -14 24 -30c0 -32 -30 -32 -54 -32h-157c-24 0 -54 0 -54 32c0 16 11 23 24 30
c8 4 18 9 22 18c5 13 5 41 5 55z" />
    <glyph glyph-name="m" unicode="m" horiz-adv-x="920" 
d="M861 306v-179c0 -13 -1 -40 4 -53c4 -7 12 -12 19 -17c10 -6 18 -13 18 -26c0 -23 -18 -31 -38 -31h-169c-20 0 -38 8 -38 31c0 13 8 20 18 26c7 5 15 10 19 17c5 13 4 40 4 53v155c0 48 1 117 -65 117c-29 0 -52 -12 -69 -34c-18 -24 -18 -59 -18 -88v-150
c0 -13 -1 -40 4 -53c4 -7 12 -12 19 -17c10 -6 18 -13 18 -26c0 -23 -18 -31 -38 -31h-169c-20 0 -38 8 -38 31c0 13 8 20 18 26c7 5 15 10 19 17c5 13 4 40 4 53v155c0 48 1 117 -65 117c-29 0 -52 -12 -69 -34c-18 -24 -18 -59 -18 -88v-150c0 -13 -1 -40 4 -53
c4 -7 12 -12 19 -17c10 -6 18 -13 18 -26c0 -23 -18 -31 -38 -31h-169c-20 0 -38 8 -38 31c0 13 8 20 18 26c7 5 15 10 19 17c5 13 4 40 4 53v191c0 35 4 53 -30 70c-10 4 -21 11 -21 27c0 36 123 74 154 74c34 0 41 -46 45 -72c40 46 98 72 161 72c60 0 113 -27 143 -81
c39 58 103 81 171 81c44 0 93 -15 126 -46c38 -36 44 -87 44 -137z" />
    <glyph glyph-name="n" unicode="n" horiz-adv-x="620" 
d="M561 291v-164c0 -13 -1 -40 4 -53c4 -7 12 -12 19 -17c10 -6 18 -13 18 -26c0 -23 -18 -31 -38 -31h-169c-20 0 -38 8 -38 31c0 13 8 20 18 26c7 5 15 10 19 17c5 13 4 40 4 53v161c0 55 -2 117 -74 117c-33 0 -60 -13 -77 -41c-15 -24 -15 -55 -15 -82v-155
c0 -13 -1 -40 4 -53c4 -7 12 -12 19 -17c10 -6 18 -13 18 -26c0 -23 -18 -31 -38 -31h-169c-20 0 -38 8 -38 31c0 13 8 20 18 26c7 5 15 10 19 17c5 13 4 40 4 53v191c0 35 4 53 -30 70c-10 4 -21 11 -21 27c0 36 123 74 154 74c34 0 41 -46 45 -72c40 49 94 72 159 72
c51 0 106 -15 142 -53c36 -39 43 -95 43 -145z" />
    <glyph glyph-name="o" unicode="o" horiz-adv-x="620" 
d="M309 -15c-69 0 -140 18 -194 62c-57 47 -89 115 -89 188c0 70 34 136 85 182c58 51 131 72 207 72c141 0 277 -99 277 -249c0 -157 -141 -255 -286 -255zM310 54c100 0 113 114 113 192c0 72 -22 171 -111 171c-91 0 -114 -102 -114 -176c0 -75 16 -187 112 -187z" />
    <glyph glyph-name="p" unicode="p" horiz-adv-x="640" 
d="M242 277v-326c0 -14 0 -42 5 -55c4 -9 14 -14 22 -18c13 -7 24 -14 24 -30c0 -32 -30 -32 -54 -32h-157c-24 0 -54 0 -54 32c0 16 11 23 24 30c8 4 18 9 22 18c5 13 5 41 5 55v367c0 35 4 53 -30 70c-10 4 -21 11 -21 27c0 36 123 74 154 74c34 0 41 -46 45 -72
c44 47 94 72 154 72c145 0 234 -111 234 -250c0 -142 -103 -254 -244 -254c-34 0 -104 13 -104 59c0 13 8 25 22 25c15 0 30 -3 46 -3c30 0 57 17 75 41c25 35 33 84 33 126c0 66 -23 171 -107 171c-28 0 -52 -11 -70 -32c-23 -26 -24 -63 -24 -95z" />
    <glyph glyph-name="q" unicode="q" horiz-adv-x="620" 
d="M393 -55v94c-38 -35 -91 -54 -144 -54c-131 0 -224 105 -224 235c0 149 107 269 257 269c56 0 104 -16 150 -48c22 18 61 48 90 48c34 0 34 -29 34 -55v-489c0 -14 0 -42 5 -55c4 -9 14 -14 22 -18c13 -7 24 -14 24 -30c0 -32 -30 -32 -54 -32h-157c-24 0 -54 0 -54 32
c0 16 11 23 24 30c8 4 18 9 22 18c5 13 5 41 5 55zM393 170v117c0 57 -17 129 -88 129c-90 0 -108 -114 -108 -183c0 -68 20 -174 107 -174c29 0 55 14 72 37s17 46 17 74z" />
    <glyph glyph-name="r" unicode="r" horiz-adv-x="440" 
d="M253 214v-79c0 -14 0 -42 5 -55c4 -9 14 -14 22 -18c13 -7 24 -14 24 -30c0 -32 -30 -32 -54 -32h-157c-24 0 -54 0 -54 32c0 16 11 23 24 30c8 4 18 9 22 18c5 13 5 41 5 55v183c0 -14 0 7 -6 27c-6 22 -15 27 -36 37c-15 7 -27 15 -27 33c0 25 30 37 49 45
c21 8 83 29 105 29c45 0 52 -71 57 -104c24 49 73 104 131 104c43 0 75 -31 75 -74c0 -31 -18 -69 -53 -69c-26 0 -46 13 -67 13s-37 -19 -46 -37c-17 -31 -19 -73 -19 -108z" />
    <glyph glyph-name="s" unicode="s" horiz-adv-x="500" 
d="M275 311l47 -12c76 -20 146 -48 146 -141c0 -56 -33 -104 -80 -134c-45 -27 -102 -39 -155 -39c-47 0 -90 7 -132 26c-34 15 -79 45 -79 86c0 24 18 46 42 46c23 0 32 -13 46 -29c32 -35 53 -58 103 -58c34 0 85 16 85 59c0 102 -260 24 -260 204c0 124 125 170 229 170
c46 0 119 -12 158 -38c21 -13 21 -45 21 -67s-1 -49 -30 -49c-45 0 -41 86 -138 86c-34 0 -76 -16 -76 -56c0 -36 45 -47 73 -54z" />
    <glyph glyph-name="t" unicode="t" horiz-adv-x="380" 
d="M242 402v-255c0 -45 5 -70 57 -70c30 0 68 4 68 -39c0 -36 -41 -38 -67 -38h-137c-63 0 -84 9 -84 77v325h-20c-29 0 -60 0 -60 39c0 26 18 32 40 36c27 4 51 7 67 31c13 21 24 66 28 91c7 37 15 50 55 50c46 0 50 -6 50 -48v-120h59c30 0 62 -1 62 -40
c0 -35 -32 -39 -60 -39h-58z" />
    <glyph glyph-name="u" unicode="u" horiz-adv-x="620" 
d="M61 169v166c0 34 4 50 -22 68c-9 7 -17 13 -17 26c0 10 6 18 15 24c21 13 74 23 99 28c1 3 20 8 34 8c53 0 54 -39 54 -82v-229c0 -50 2 -110 68 -110c26 0 57 15 73 35c18 22 18 52 18 78v154c0 34 4 50 -22 68c-9 7 -17 13 -17 26c0 10 6 18 15 24c21 13 74 23 99 28
c15 3 29 6 45 6c25 0 37 -9 43 -23v-327c0 -14 -1 -42 5 -55c5 -10 13 -15 22 -19c14 -7 25 -14 25 -31c0 -32 -30 -32 -54 -32h-86c-49 0 -56 13 -63 60c-48 -50 -102 -75 -170 -75c-65 0 -112 24 -145 75c-9 14 -19 58 -19 109z" />
    <glyph glyph-name="v" unicode="v" horiz-adv-x="540" 
d="M316 109l52 119c15 35 40 117 40 152c0 46 -46 38 -46 73c0 31 35 28 55 28h55c21 0 63 6 63 -26c0 -13 -6 -22 -14 -30c-23 -24 -22 -24 -31 -60l-11 -42c-22 -81 -54 -160 -93 -235c-12 -24 -33 -64 -51 -83c-16 -17 -37 -20 -60 -20c-44 0 -63 8 -88 45
c-74 112 -111 220 -146 347c-5 19 -7 30 -22 42c-11 8 -22 15 -22 31c0 32 35 31 58 31h130c23 0 65 2 65 -30c0 -33 -41 -30 -41 -64c0 -63 70 -221 107 -278z" />
    <glyph glyph-name="w" unicode="w" horiz-adv-x="800" 
d="M690 481h52c22 0 62 5 62 -28c0 -12 -6 -20 -14 -29c-18 -20 -20 -22 -28 -51l-83 -257c-14 -33 -37 -84 -62 -109c-18 -18 -40 -22 -65 -22c-36 0 -55 5 -77 34c-35 47 -57 108 -78 164c-21 -56 -45 -112 -79 -160c-21 -29 -39 -38 -75 -38c-65 0 -79 27 -107 85
c-40 81 -69 170 -89 258l-11 50c-2 8 -5 28 -13 35c-11 9 -25 20 -25 37c0 28 25 31 47 31h144c25 1 51 -2 51 -32c0 -34 -35 -23 -35 -53c0 -36 21 -115 31 -153c13 -48 30 -95 56 -138c40 78 60 155 60 243c0 31 1 54 -24 74c-10 9 -18 17 -18 31c0 25 27 28 46 28h132
c24 0 54 0 54 -31c0 -32 -34 -22 -34 -53s20 -105 29 -136l60 -156c34 64 83 201 83 271c0 55 -45 37 -45 78c0 30 35 27 55 27z" />
    <glyph glyph-name="x" unicode="x" horiz-adv-x="560" 
d="M135 0h-61c-25 0 -69 -4 -69 33c0 15 11 24 23 30c33 18 29 18 55 51l100 116l-122 159c-12 17 -16 21 -34 31c-12 7 -23 15 -23 31c0 27 22 30 44 30h171c21 0 48 -1 48 -29c0 -19 -21 -26 -21 -40c0 -18 60 -83 74 -99c17 17 64 70 64 93c0 18 -34 19 -34 46
c0 33 33 29 56 29h58c20 0 58 4 58 -27c0 -18 -13 -26 -27 -35c-18 -12 -17 -11 -30 -31c-31 -44 -67 -85 -105 -123l103 -126c18 -24 37 -58 64 -73c16 -8 32 -15 32 -36c0 -17 -18 -32 -36 -30h-179c-21 0 -53 3 -53 31c0 23 24 29 24 40c0 15 -63 83 -74 95l-14 16
c-17 -17 -65 -75 -65 -97c0 -26 43 -20 43 -55c0 -36 -47 -30 -70 -30z" />
    <glyph glyph-name="y" unicode="y" horiz-adv-x="540" 
d="M46 481h130c27 0 63 3 63 -33c0 -26 -34 -24 -34 -71c0 -55 14 -129 32 -181c10 -28 43 -113 80 -113c61 0 94 235 94 282c0 31 0 43 -26 58c-11 7 -21 16 -21 30c0 33 35 28 57 28h57c21 0 63 6 63 -26c0 -13 -8 -23 -16 -32c-6 -8 -10 -12 -13 -22
c-7 -18 -13 -70 -17 -91c-26 -172 -145 -505 -356 -505c-36 0 -89 19 -89 62c0 33 29 53 59 53c32 0 60 -22 77 -22c22 0 59 33 73 49c18 20 32 43 44 67c-16 -4 -32 -6 -48 -6c-44 0 -92 24 -122 54c-62 64 -89 239 -102 327c-7 46 -34 34 -34 64c0 27 30 29 49 28z" />
    <glyph glyph-name="z" unicode="z" horiz-adv-x="500" 
d="M401 0h-307c-32 0 -77 2 -77 45c0 30 24 63 42 87l224 286h-75c-43 0 -73 -3 -100 -41c-10 -15 -21 -33 -41 -33c-17 0 -27 14 -27 31c0 22 7 67 15 87c9 20 31 19 49 19h303c29 0 68 2 68 -38c0 -35 -38 -83 -58 -111l-201 -264h75c23 0 43 0 66 7c28 8 38 20 54 45
c9 13 19 27 37 27c16 0 26 -9 26 -26c0 -22 -9 -72 -16 -92c-9 -27 -32 -29 -57 -29z" />
    <glyph glyph-name="braceleft" unicode="{" horiz-adv-x="340" 
d="M96 -51v204c0 32 0 54 -21 81c-16 20 -37 32 -60 38c19 2 37 12 52 25c30 24 29 56 29 94v180c0 42 1 92 31 124c39 41 101 38 173 37c-38 -18 -58 -57 -58 -122v-191c0 -77 -12 -130 -89 -147c74 -19 89 -64 89 -139v-205c0 -67 17 -102 58 -123c-73 0 -117 -4 -162 27
c-39 28 -42 70 -42 117z" />
    <glyph glyph-name="bar" unicode="|" horiz-adv-x="660" 
d="M296 0v757h69v-757h-69z" />
    <glyph glyph-name="braceright" unicode="}" horiz-adv-x="340" 
d="M97 -72v205c0 75 15 120 89 139c-77 17 -89 70 -89 147v191c0 65 -20 104 -58 122c72 1 134 4 173 -37c30 -32 31 -82 31 -124v-180c0 -38 -1 -70 29 -94c15 -13 33 -23 52 -25c-23 -6 -44 -18 -60 -38c-21 -27 -21 -49 -21 -81v-204c0 -47 -3 -89 -42 -117
c-45 -31 -89 -27 -162 -27c41 21 58 56 58 123z" />
    <glyph glyph-name="asciitilde" unicode="~" horiz-adv-x="660" 
d="M548 380l74 -47c-43 -60 -84 -122 -167 -122c-38 0 -69 12 -103 25l-53 20c-26 9 -59 24 -87 24c-53 0 -76 -47 -101 -86l-74 49c40 64 89 128 173 128c87 0 185 -69 245 -69c45 0 71 46 93 78z" />
    <glyph glyph-name="exclamdown" unicode="&#xa1;" horiz-adv-x="360" 
d="M180 489c43 0 93 -29 93 -76c0 -50 -52 -75 -96 -75s-94 28 -94 77s54 74 97 74zM81 -141l53 370c4 30 8 56 45 56c39 0 39 -29 44 -61l61 -424c0 -62 -55 -73 -105 -73c-56 0 -103 11 -103 78z" />
    <glyph glyph-name="cent" unicode="&#xa2;" 
d="M399 142v-78c0 -27 0 -52 -35 -52s-37 18 -37 47v80c-133 7 -219 102 -219 235c0 130 93 226 219 245v90c0 26 3 48 35 48s34 -21 34 -48v-90c52 0 157 -37 157 -99c0 -33 -27 -53 -58 -53c-71 0 -62 89 -131 89c-78 0 -99 -111 -99 -171c0 -75 37 -173 125 -173
c40 0 76 23 102 51c11 12 23 26 41 26s30 -14 30 -31c0 -28 -36 -59 -56 -73c-33 -23 -69 -37 -108 -43z" />
    <glyph glyph-name="sterling" unicode="&#xa3;" 
d="M310 342l6 -79c0 -58 -18 -109 -54 -155c34 22 68 42 109 42c61 0 111 -30 159 -30c33 0 46 16 66 39c10 12 19 27 36 27c15 0 27 -14 27 -29c0 -29 -33 -76 -51 -97c-37 -45 -80 -75 -139 -75c-79 0 -176 48 -251 48c-38 0 -67 -9 -98 -28c-10 -7 -25 -18 -38 -18
c-22 0 -39 32 -39 50c0 45 109 20 109 167c0 46 -12 93 -21 138h-64c-15 0 -44 -4 -44 19c0 14 9 38 18 49c10 12 37 9 50 9h27l-6 74c0 162 111 257 268 257c52 0 110 -12 156 -36c39 -21 77 -64 77 -111c0 -41 -24 -61 -63 -61c-42 0 -61 15 -68 57c-4 21 -5 38 -21 53
c-19 20 -48 28 -74 28c-70 0 -109 -54 -109 -120c0 -36 10 -87 16 -123l4 -18h159c13 0 41 4 41 -16c0 -11 -13 -40 -20 -49c-10 -13 -29 -12 -44 -12h-124z" />
    <glyph glyph-name="fraction" unicode="&#x2044;" horiz-adv-x="160" 
d="M311 706l-394 -668c-17 -28 -21 -38 -55 -38c-11 0 -33 0 -33 16c0 7 12 26 16 32l395 664c17 29 21 38 56 38c8 0 30 0 30 -13c0 -9 -11 -24 -15 -31z" />
    <glyph glyph-name="yen" unicode="&#xa5;" 
d="M43 732h194c20 0 38 -9 38 -34c0 -17 -8 -22 -21 -29c-9 -5 -21 -10 -21 -24c0 -46 120 -226 151 -272c33 42 152 220 152 265c0 16 -11 22 -22 30c-13 9 -22 14 -22 33c0 31 32 31 52 31h84c22 0 52 3 52 -31c0 -16 -7 -24 -18 -33c-27 -20 -30 -29 -46 -59l-146 -240
h68c21 0 35 -7 35 -32c0 -26 -13 -33 -35 -32h-115v-71h100c25 0 49 3 49 -32c0 -30 -15 -33 -39 -32h-19h-91v-22c0 -9 0 -51 3 -61c4 -13 18 -18 28 -24c12 -6 18 -13 18 -28c0 -28 -22 -35 -43 -35h-151c-25 0 -62 -2 -62 36c0 16 13 25 25 31c21 9 25 16 25 41v62h-90
c-25 0 -59 -6 -59 32s34 32 59 32h90v58l-9 13h-86c-24 0 -56 -5 -56 33c0 39 43 31 67 31h31l-137 237c-14 28 -15 35 -42 51c-16 10 -34 18 -34 42c0 27 22 33 43 33z" />
    <glyph glyph-name="florin" unicode="&#x192;" 
d="M439 404l-43 -265c-13 -83 -31 -159 -83 -228c-55 -73 -129 -117 -222 -117c-63 0 -155 32 -155 108c0 35 25 68 62 68c31 0 50 -26 67 -48s31 -39 62 -39c44 0 61 50 72 85c16 50 27 123 35 177l42 258h-33c-30 0 -79 -6 -79 39c0 38 35 39 64 39h60l3 16
c12 73 36 145 83 203s117 101 194 101c31 0 66 -7 88 -31c14 -15 24 -41 24 -61c0 -33 -21 -64 -57 -64c-55 0 -60 65 -99 65c-41 0 -54 -102 -59 -128l-17 -101h32c32 0 79 9 79 -37c0 -40 -34 -40 -65 -40h-55z" />
    <glyph glyph-name="section" unicode="&#xa7;" horiz-adv-x="600" 
d="M293 70l-100 34c-86 28 -167 68 -167 172c0 69 41 116 93 156c-35 40 -56 68 -56 123c0 56 31 110 75 143c47 36 108 49 166 49c54 0 122 -12 171 -35c36 -18 36 -48 44 -85c3 -14 9 -34 9 -49c0 -21 -16 -35 -36 -35s-33 22 -43 36c-38 54 -73 101 -145 101
c-49 0 -107 -29 -107 -84c0 -58 57 -79 104 -94l91 -30c35 -12 84 -29 112 -51c36 -29 57 -75 57 -121c0 -67 -32 -117 -78 -162c38 -39 59 -75 59 -130c0 -145 -139 -226 -270 -226c-52 0 -99 11 -146 32c-28 12 -47 18 -57 48c-10 26 -27 104 -27 129c0 20 13 37 33 37
c66 0 64 -174 197 -174c60 0 129 43 129 109c0 62 -57 90 -108 107zM240 245l94 -29l89 -37c14 23 27 42 27 71c0 50 -53 70 -93 83l-110 36l-66 26c-20 -19 -33 -39 -33 -67c0 -52 52 -70 92 -83z" />
    <glyph glyph-name="currency" unicode="&#xa4;" 
d="M500 576l48 49c10 10 18 21 32 21s30 -17 30 -31c0 -9 -5 -15 -12 -21l-57 -58c44 -61 62 -98 62 -175c0 -55 -18 -111 -53 -154l49 -49c9 -8 20 -17 20 -30c0 -15 -19 -34 -33 -34c-13 0 -23 12 -31 21l-49 48c-45 -34 -106 -58 -164 -58c-59 0 -115 21 -162 56l-53 -53
c-9 -8 -18 -20 -31 -20c-14 0 -30 16 -30 30s11 22 20 31l53 53c-41 49 -61 111 -61 175c0 54 17 110 53 151l-49 49c-8 9 -20 17 -20 31c0 15 16 30 31 30c21 0 61 -58 78 -69c44 43 105 62 165 62c57 0 118 -21 164 -55zM511 368c0 97 -80 170 -175 170
c-94 0 -167 -80 -167 -172c0 -95 78 -170 172 -170s170 79 170 172z" />
    <glyph glyph-name="quotesingle" unicode="'" horiz-adv-x="260" 
d="M153 428h-46l-44 239c-7 36 27 80 67 80s74 -44 67 -80z" />
    <glyph glyph-name="quotedblleft" unicode="&#x201c;" horiz-adv-x="540" 
d="M155 615c9 2 18 3 27 3c36 0 66 -26 66 -63c0 -46 -46 -72 -87 -72c-54 0 -90 41 -90 94c0 52 30 99 68 133c10 9 44 37 60 37c10 0 24 -8 24 -18c0 -5 -4 -9 -7 -12c-30 -27 -54 -61 -61 -102zM384 615c9 1 18 3 27 3c36 0 66 -26 66 -63c0 -46 -46 -72 -87 -72
c-53 0 -90 41 -90 94c0 51 31 99 68 133c11 9 44 37 61 37c9 0 23 -8 23 -19c0 -4 -4 -8 -7 -11c-29 -27 -54 -62 -61 -102z" />
    <glyph glyph-name="guillemotleft" unicode="&#xab;" horiz-adv-x="380" 
d="M178 414l-48 -99c-3 -7 -9 -17 -9 -25c0 -6 3 -9 5 -15l51 -107c5 -9 15 -29 15 -40c0 -12 -10 -19 -21 -19c-17 0 -30 20 -39 31l-86 104c-9 11 -25 28 -25 45c0 16 15 32 26 44l86 105c8 10 20 28 35 28c11 0 22 -7 22 -19c0 -10 -8 -24 -12 -33zM340 414l-48 -99
c-3 -7 -8 -16 -8 -25c0 -6 2 -10 5 -15l51 -107c4 -9 15 -29 15 -40c0 -12 -11 -19 -22 -19c-16 0 -30 20 -39 31l-86 104c-9 11 -25 29 -25 45s16 32 26 44l86 105c8 10 20 28 35 28c11 0 22 -7 22 -19c0 -9 -8 -24 -12 -33z" />
    <glyph glyph-name="guilsinglleft" unicode="&#x2039;" horiz-adv-x="220" 
d="M178 414l-48 -99c-3 -7 -9 -16 -9 -25c0 -6 3 -10 6 -15l50 -107c5 -9 15 -29 15 -40c0 -12 -10 -19 -21 -19c-17 0 -30 20 -39 31l-86 104c-9 11 -25 29 -25 45s15 32 25 44l87 105c8 10 20 28 35 28c11 0 22 -7 22 -19c0 -9 -8 -24 -12 -33z" />
    <glyph glyph-name="guilsinglright" unicode="&#x203a;" horiz-adv-x="220" 
d="M84 438l86 -105c10 -12 26 -27 26 -44s-16 -34 -25 -45l-86 -104c-9 -11 -23 -31 -39 -31c-11 0 -22 7 -22 19c0 11 11 31 15 40l51 107c3 6 5 9 5 15c0 8 -5 18 -8 25l-48 99c-4 8 -12 24 -12 33c0 12 11 19 22 19c15 0 27 -18 35 -28z" />
    <glyph glyph-name="fi" unicode="&#xfb01;" horiz-adv-x="660" 
d="M91 481v7c0 60 0 124 33 177c45 73 122 92 203 92c54 0 123 -9 173 -29c47 -18 105 -57 105 -114c0 -51 -55 -80 -102 -80c-45 0 -93 31 -93 79c0 7 1 12 3 18c0 3 2 8 2 12c0 27 -56 33 -73 33c-91 0 -88 -63 -88 -130v-65h295c17 0 30 0 39 -13c17 -22 15 -76 15 -105
v-233c0 -13 -1 -34 1 -46c3 -17 9 -20 24 -28c12 -7 19 -14 19 -27c0 -37 -55 -29 -77 -29h-105c-23 0 -68 -6 -68 31c0 13 7 20 19 27s18 10 22 25c3 17 2 58 2 75v146c-4 99 -14 101 -105 101h-81v-274c0 -35 -6 -53 26 -73c11 -8 16 -14 16 -27c0 -38 -31 -31 -60 -31
h-136c-22 0 -60 -4 -60 30c0 12 11 24 22 31c8 5 21 10 25 20c4 16 4 44 4 62v262h-11c-29 0 -59 -1 -59 38c0 19 11 38 34 38h36z" />
    <glyph glyph-name="fl" unicode="&#xfb02;" 
d="M90 481l1 16c0 148 32 260 207 260c46 0 107 -11 145 -38c32 10 87 30 118 30c13 0 28 0 35 -14c13 -21 10 -96 10 -122v-484c0 -31 -4 -50 27 -67c14 -8 23 -15 23 -31c0 -36 -44 -31 -68 -31h-128c-24 0 -68 -5 -68 31c0 16 8 23 22 30c10 5 20 8 24 20c6 13 5 36 5 49
v419c0 30 4 72 -18 95c-21 24 -59 32 -88 32c-87 0 -85 -59 -85 -126v-69h78c16 -6 27 -16 27 -41c0 -21 -15 -36 -38 -37h-67v-264c0 -14 0 -35 3 -49c5 -18 11 -21 26 -30c14 -7 24 -15 24 -30c0 -37 -55 -30 -77 -30h-117c-25 0 -71 -6 -71 32c0 15 11 23 24 30
c16 9 20 11 24 29c2 14 1 36 1 51v261h-13c-12 0 -33 -2 -43 6c-9 7 -13 23 -13 32c0 37 23 40 52 40h18z" />
    <glyph glyph-name="endash" unicode="&#x2013;" horiz-adv-x="500" 
d="M431 226h-348c-47 0 -83 2 -83 60c0 57 27 61 75 61h352c43 0 83 2 83 -54c0 -62 -23 -67 -79 -67z" />
    <glyph glyph-name="dagger" unicode="&#x2020;" horiz-adv-x="520" 
d="M304 444l22 -133l-33 -444c-1 -21 -1 -49 -30 -49c-20 0 -28 14 -30 32l-38 461l28 133l-107 -17c-24 -4 -47 -6 -68 9c-16 12 -25 32 -25 52c0 17 7 33 19 44c20 19 41 18 66 14l115 -18l-18 129c-3 23 -6 49 8 69c12 17 32 26 53 26c17 0 35 -9 47 -21
c17 -20 15 -43 12 -67l-19 -136l107 18c23 4 45 7 65 -6c18 -12 29 -33 29 -55c0 -16 -8 -33 -20 -45c-21 -20 -47 -17 -73 -13z" />
    <glyph glyph-name="daggerdbl" unicode="&#x2021;" horiz-adv-x="520" 
d="M304 466l19 -85l-19 -83l110 18c24 4 47 6 67 -9c15 -11 26 -31 26 -50s-9 -37 -23 -50c-21 -18 -46 -15 -71 -10l-107 17l20 -121l-32 -277c-2 -19 -8 -34 -29 -34c-20 0 -28 15 -30 32l-1 16l-31 263l20 121l-107 -17c-22 -4 -45 -7 -65 6c-18 12 -29 33 -29 54
c0 17 9 34 21 46c20 19 47 17 72 13l110 -18l-18 83l18 85v0l-110 -17c-23 -4 -47 -7 -67 9c-15 11 -26 31 -26 50s9 37 23 49c21 19 46 15 71 11l107 -18l-18 114c-4 23 -5 45 10 64c11 15 31 24 50 24c17 0 33 -7 45 -19c20 -19 18 -44 14 -69l-18 -114l107 18
c23 4 45 7 65 -6c18 -12 29 -33 29 -54c0 -17 -9 -34 -20 -46c-21 -20 -47 -17 -73 -13l-110 17v0z" />
    <glyph glyph-name="periodcentered" unicode="&#xb7;" horiz-adv-x="340" 
d="M172 207c-46 0 -97 29 -97 80c0 52 49 80 96 80c46 0 94 -32 94 -81s-48 -79 -93 -79z" />
    <glyph glyph-name="paragraph" unicode="&#xb6;" horiz-adv-x="780" 
d="M651 659v-779c0 -18 1 -39 -12 -53c-9 -11 -22 -17 -35 -17s-25 5 -34 13c-15 15 -14 33 -14 53v785h-65v-781c0 -18 1 -39 -11 -53c-10 -11 -23 -17 -37 -17c-12 0 -24 5 -33 13c-15 15 -14 33 -14 53v362c-166 7 -380 72 -380 273c0 66 22 132 76 173
c51 40 127 48 190 48h398c28 0 72 7 72 -35c0 -44 -40 -38 -72 -38h-29zM396 661h-36c-105 0 -193 -30 -193 -151c0 -128 114 -204 229 -220v371z" />
    <glyph glyph-name="bullet" unicode="&#x2022;" horiz-adv-x="280" 
d="M143 246c-70 0 -146 43 -146 120c0 78 74 121 145 121c68 0 141 -48 141 -122s-73 -119 -140 -119z" />
    <glyph glyph-name="quotesinglbase" unicode="&#x201a;" horiz-adv-x="340" 
d="M174 0c-10 -2 -20 -3 -30 -3c-40 0 -73 28 -73 70c0 51 51 79 97 79c59 0 100 -45 100 -103c0 -60 -37 -115 -81 -152c-11 -10 -45 -38 -62 -38c-11 0 -26 9 -26 21c0 5 4 9 7 12c33 31 61 69 68 114z" />
    <glyph glyph-name="quotedblbase" unicode="&#x201e;" horiz-adv-x="540" 
d="M393 1c-9 -1 -17 -3 -27 -3c-35 0 -66 26 -66 63c0 46 46 72 88 72c53 0 90 -41 90 -93c0 -53 -31 -100 -69 -134c-10 -9 -44 -37 -60 -37c-9 0 -23 9 -23 19c0 4 3 8 7 11c29 28 54 61 60 102zM164 1c-9 -2 -18 -3 -27 -3c-36 0 -66 26 -66 63c0 46 46 72 88 72
c53 0 89 -41 89 -94c0 -52 -30 -100 -68 -133c-10 -9 -44 -37 -60 -37c-9 0 -24 8 -24 18c0 5 4 9 7 12c29 27 55 61 61 102z" />
    <glyph glyph-name="quotedblright" unicode="&#x201d;" horiz-adv-x="540" 
d="M393 616c-9 -2 -17 -3 -27 -3c-35 0 -66 26 -66 63c0 46 46 71 88 71c53 0 90 -40 90 -93c0 -52 -31 -100 -69 -133c-10 -9 -44 -37 -60 -37c-9 0 -23 8 -23 18c0 5 3 9 7 12c29 27 54 61 60 102zM164 615c-9 -2 -18 -3 -27 -3c-36 0 -66 26 -66 63c0 46 46 72 87 72
c54 0 90 -41 90 -94c0 -52 -30 -99 -68 -133c-10 -9 -44 -36 -61 -36c-9 0 -23 7 -23 17c0 5 4 9 7 12c29 28 55 61 61 102z" />
    <glyph glyph-name="guillemotright" unicode="&#xbb;" horiz-adv-x="380" 
d="M246 438l87 -105c10 -12 25 -27 25 -44s-16 -34 -25 -45l-86 -104c-9 -11 -22 -31 -39 -31c-11 0 -21 7 -21 19c0 11 10 31 15 40l41 88l10 19c2 6 5 9 5 15c0 8 -6 18 -9 25l-48 99c-4 9 -12 23 -12 33c0 12 11 19 22 19c15 0 27 -18 35 -28zM84 438l86 -105
c10 -12 26 -28 26 -44s-16 -34 -25 -45l-86 -104c-9 -11 -23 -31 -39 -31c-11 0 -22 7 -22 19c0 11 11 31 15 40l51 107c3 5 5 9 5 15c0 9 -5 18 -8 25l-48 99c-4 8 -12 24 -12 33c0 12 11 19 22 19c15 0 27 -18 35 -28z" />
    <glyph glyph-name="ellipsis" unicode="&#x2026;" horiz-adv-x="1000" 
d="M169 -15c-46 0 -97 29 -97 80c0 52 49 81 96 81c46 0 94 -32 94 -82c0 -49 -48 -79 -93 -79zM501 -15c-46 0 -96 29 -96 80c0 52 49 81 96 81c46 0 94 -32 94 -82c0 -49 -49 -79 -94 -79zM835 -15c-47 0 -97 29 -97 80c0 52 49 81 96 81c46 0 94 -32 94 -82
c0 -49 -48 -79 -93 -79z" />
    <glyph glyph-name="perthousand" unicode="&#x2030;" horiz-adv-x="1400" 
d="M222 316c-131 0 -200 110 -200 231c0 120 75 223 203 223c129 0 203 -104 203 -226c0 -127 -70 -228 -206 -228zM224 362c74 0 72 142 72 191c0 47 -1 171 -71 171s-71 -128 -71 -176c0 -46 0 -186 70 -186zM710 -40c-131 0 -200 110 -200 231s75 223 203 223
c129 0 203 -103 203 -225c0 -128 -71 -229 -206 -229zM712 6c74 0 72 142 72 191c0 47 -1 172 -71 172c-72 0 -71 -135 -71 -183c0 -46 1 -180 70 -180zM755 698l-485 -666c-22 -32 -23 -38 -62 -38c-12 0 -39 -1 -39 16c0 8 15 26 19 32l484 662c23 31 24 37 64 37
c9 0 35 1 35 -12c0 -12 -9 -23 -16 -31zM1171 -40c-131 0 -200 110 -200 231s75 223 203 223c129 0 203 -104 203 -225c0 -128 -70 -229 -206 -229zM1173 6c74 0 72 142 72 191c0 47 -1 172 -71 172s-71 -129 -71 -176s0 -187 70 -187z" />
    <glyph glyph-name="questiondown" unicode="&#xbf;" horiz-adv-x="540" 
d="M315 489c43 0 92 -28 92 -75c0 -51 -51 -76 -96 -76c-43 0 -94 28 -94 77c0 50 55 74 98 74zM366 193v-45c-1 -54 4 -54 -42 -80c-33 -19 -57 -32 -80 -64s-31 -68 -31 -107c0 -58 22 -117 89 -117c18 0 37 6 51 18c17 15 18 32 17 53c0 22 -2 35 15 52
c15 15 38 21 59 21c36 0 69 -20 69 -60c0 -107 -140 -147 -226 -147c-59 0 -124 11 -173 46c-52 37 -80 95 -80 158c0 55 25 110 66 147c43 39 85 55 137 78c35 15 34 36 34 72c0 31 4 57 44 57c57 0 51 -37 51 -82z" />
    <glyph glyph-name="grave" unicode="`" horiz-adv-x="380" 
d="M125 731h44c40 -2 42 -10 61 -43l52 -91c5 -8 15 -23 15 -33c0 -12 -11 -20 -23 -20c-14 0 -30 14 -41 22l-128 95c-15 12 -32 21 -32 42c0 31 31 29 52 28z" />
    <glyph glyph-name="acute" unicode="&#xb4;" horiz-adv-x="380" 
d="M265 660l-128 -95c-11 -8 -27 -22 -41 -22c-12 0 -23 8 -23 20c0 11 10 25 15 33l52 91c19 33 21 41 60 42h45c21 2 52 4 52 -27c0 -21 -17 -31 -32 -42z" />
    <glyph glyph-name="circumflex" unicode="&#x2c6;" horiz-adv-x="520" 
d="M260 634l-129 -81c-11 -7 -26 -17 -39 -17c-10 0 -19 10 -19 19c0 15 12 26 22 36l102 106c15 16 39 43 62 43s48 -28 62 -42l103 -105c10 -10 23 -23 23 -38c0 -9 -9 -20 -19 -20c-12 0 -29 12 -39 18z" />
    <glyph glyph-name="tilde" unicode="&#x2dc;" horiz-adv-x="540" 
d="M274 590l-55 27c-17 8 -33 17 -53 17c-24 0 -36 -15 -48 -33c-6 -9 -13 -24 -26 -24s-19 9 -19 21c0 23 16 50 30 66c27 32 64 51 106 51c71 0 115 -59 164 -59c42 0 57 47 75 47c13 0 19 -9 19 -21c0 -18 -15 -41 -26 -54c-30 -36 -67 -53 -114 -53c-22 0 -33 5 -53 15z
" />
    <glyph glyph-name="macron" unicode="&#xaf;" horiz-adv-x="440" 
d="M299 584h-153c-43 0 -69 -1 -69 51c0 44 28 46 63 46h155c39 0 69 2 69 -48c0 -49 -25 -49 -65 -49z" />
    <glyph glyph-name="breve" unicode="&#x2d8;" horiz-adv-x="500" 
d="M412 727c14 0 19 -13 19 -25c0 -28 -22 -64 -39 -83c-37 -41 -88 -60 -143 -60c-44 0 -89 16 -123 44c-29 23 -58 63 -58 101c0 13 6 28 21 28c34 0 44 -97 164 -97c47 0 96 23 123 62c9 12 18 30 36 30z" />
    <glyph glyph-name="dotaccent" unicode="&#x2d9;" horiz-adv-x="300" 
d="M147 544c-43 0 -94 26 -94 76c0 52 48 83 97 83s97 -25 97 -80c0 -51 -55 -79 -100 -79z" />
    <glyph glyph-name="dieresis" unicode="&#xa8;" horiz-adv-x="540" 
d="M153 566c-39 0 -76 30 -76 71c0 42 36 72 77 72c42 0 75 -29 75 -72c0 -40 -37 -71 -76 -71zM387 565c-40 0 -75 32 -75 73c0 39 35 70 73 70c44 0 79 -27 79 -72c0 -41 -39 -71 -77 -71z" />
    <glyph glyph-name="ring" unicode="&#x2da;" horiz-adv-x="360" 
d="M180 542c-58 0 -107 47 -107 105c0 59 46 110 106 110c59 0 109 -47 109 -107s-48 -108 -108 -108zM180 602c28 0 47 22 47 49s-23 45 -49 45c-25 0 -44 -23 -44 -47c0 -25 21 -47 46 -47z" />
    <glyph glyph-name="cedilla" unicode="&#xb8;" horiz-adv-x="340" 
d="M171 0l-20 -60h26c47 0 81 -29 81 -77c0 -56 -51 -88 -103 -88c-26 0 -82 16 -82 51c0 9 8 18 18 18c7 0 13 -5 19 -9c13 -8 22 -15 38 -15c23 0 48 18 48 43c0 26 -18 39 -43 39c-15 0 -29 -5 -43 -5c-6 0 -10 5 -10 10c0 7 4 16 6 22l23 71h42z" />
    <glyph glyph-name="hungarumlaut" unicode="&#x2dd;" horiz-adv-x="600" 
d="M265 660l-128 -95c-11 -8 -27 -22 -41 -22c-12 0 -23 8 -23 20c0 11 10 25 15 33l52 91c19 33 21 41 60 42h45c21 2 52 4 52 -27c0 -21 -17 -31 -32 -42zM499 660l-128 -95c-10 -8 -27 -22 -41 -22c-11 0 -22 8 -22 20c0 11 9 25 14 33l53 91c19 33 21 41 60 42h44
c22 2 52 4 52 -27c0 -21 -16 -31 -32 -42z" />
    <glyph glyph-name="ogonek" unicode="&#x2db;" horiz-adv-x="340" 
d="M116 0h74c-20 -19 -51 -51 -51 -79c0 -21 20 -36 39 -36c31 0 47 21 64 21c10 0 17 -5 17 -15c0 -36 -72 -51 -96 -51c-43 0 -90 23 -90 73c0 35 18 64 43 87z" />
    <glyph glyph-name="caron" unicode="&#x2c7;" horiz-adv-x="520" 
d="M260 642l129 81c10 6 27 18 39 18c10 0 19 -10 19 -20c0 -15 -13 -28 -23 -37l-103 -105c-14 -15 -39 -43 -62 -43s-47 28 -62 43l-102 106c-10 10 -22 21 -22 36c0 10 9 20 19 20c13 0 28 -11 39 -18z" />
    <glyph glyph-name="emdash" unicode="&#x2014;" horiz-adv-x="1000" 
d="M931 235h-848c-18 0 -49 -2 -64 10c-15 13 -19 35 -19 54c0 54 31 57 75 57h852c43 0 83 3 83 -54c0 -62 -23 -67 -79 -67z" />
    <glyph glyph-name="AE" unicode="&#xc6;" horiz-adv-x="1020" 
d="M457 106v164h-237c-15 -37 -62 -137 -62 -171c0 -40 61 -24 61 -67c0 -42 -65 -33 -91 -32h-90c-23 0 -53 5 -53 34c0 19 12 27 28 34c23 11 28 16 39 40c37 81 72 164 114 242c45 84 93 166 138 248c17 31 51 89 76 111c30 26 55 23 92 23h448c16 0 43 2 55 -12
c13 -16 17 -74 17 -95c0 -23 -10 -43 -36 -43c-22 0 -33 14 -46 30c-19 22 -35 34 -63 41c-26 6 -70 8 -100 8c-21 0 -65 -1 -83 -8c-15 -6 -25 -17 -25 -30v-186h151c71 0 60 37 94 37c35 0 35 -44 35 -69c0 -27 5 -84 -35 -84c-34 0 -26 35 -94 35h-151v-173
c0 -103 12 -110 148 -111c60 0 99 3 142 50c16 18 39 48 65 48c18 0 36 -14 36 -33c0 -27 -13 -66 -22 -91c-13 -42 -21 -46 -66 -46h-487c-21 0 -53 5 -53 34c0 16 10 24 22 31l11 5c17 9 20 16 22 36zM260 351h199v262c0 5 3 39 -8 39c-31 0 -169 -259 -191 -301z" />
    <glyph glyph-name="ordfeminine" unicode="&#xaa;" horiz-adv-x="440" 
d="M371 612v-89c0 -21 -3 -31 16 -40c9 -4 17 -9 17 -21c0 -24 -25 -22 -42 -22h-55c-27 0 -40 1 -42 30c-23 -28 -61 -38 -96 -38c-58 0 -119 29 -119 94c0 88 121 108 188 108h19c0 32 -20 54 -52 54c-44 0 -46 -37 -88 -37c-20 0 -44 8 -44 31c0 45 105 53 134 53
c41 0 85 -6 121 -28c36 -23 43 -55 43 -95zM260 590h-10c-39 0 -85 -18 -85 -64c0 -22 14 -38 36 -38c18 0 34 10 45 24c15 21 14 40 14 65v13zM89 362h281c16 0 43 5 43 -18c0 -20 -29 -18 -42 -18h-282c-14 0 -48 -4 -48 18c0 23 33 18 48 18z" />
    <glyph glyph-name="Lslash" unicode="&#x141;" horiz-adv-x="600" 
d="M291 668l-10 -6c-26 -13 -22 -31 -22 -58v-126l82 64c11 9 29 24 44 24c23 0 37 -16 37 -39c0 -22 -22 -39 -38 -51l-125 -98v-243c0 -59 14 -59 70 -62h37c61 0 99 3 143 51c16 17 39 47 65 47c18 0 36 -13 36 -33c0 -27 -14 -65 -22 -91c-13 -42 -21 -46 -66 -46h-446
c-14 0 -27 -1 -39 8c-8 5 -15 16 -15 26c0 16 10 24 23 30l11 6c25 13 20 31 21 58v131l-46 -35c-12 -9 -30 -24 -45 -24c-21 0 -34 17 -34 37c0 26 18 37 36 52l89 71v243c-1 38 4 47 -31 62c-14 6 -25 15 -25 32c0 30 31 34 54 34h183c23 0 56 -3 56 -34
c0 -16 -10 -24 -23 -30z" />
    <glyph glyph-name="Oslash" unicode="&#xd8;" horiz-adv-x="860" 
d="M220 47l-46 -67c-12 -17 -17 -28 -38 -28c-10 0 -31 1 -31 15c0 10 7 17 12 25l59 84c-84 71 -143 160 -143 273c0 95 34 207 99 277c74 80 182 121 291 121c66 0 134 -15 193 -47l46 62c6 9 14 23 27 23c10 0 37 -2 37 -16c0 -10 -6 -17 -12 -24l-51 -71
c103 -72 161 -182 161 -309c0 -219 -183 -380 -397 -380c-75 0 -144 19 -207 62zM590 566l-307 -422c31 -49 86 -84 145 -84c74 0 132 46 165 110c26 53 36 136 36 196c0 69 -10 138 -39 200zM255 198l302 417c-32 36 -77 57 -126 57c-76 0 -131 -41 -166 -107
c-28 -53 -37 -129 -37 -189c0 -61 10 -121 27 -178z" />
    <glyph glyph-name="OE" unicode="&#x152;" horiz-adv-x="1200" 
d="M643 43v24c-71 -54 -152 -82 -241 -82c-215 0 -368 152 -368 367c0 228 162 395 390 395c86 0 151 -27 219 -77v20c0 39 -3 42 37 42h409c16 0 43 2 55 -12c13 -16 17 -74 17 -95c0 -23 -10 -43 -36 -43c-22 0 -33 14 -46 30c-19 22 -35 34 -63 41c-26 6 -70 8 -100 8
c-21 0 -65 -1 -83 -8c-15 -6 -25 -17 -25 -30v-186h151c71 0 60 37 94 37c35 0 35 -44 35 -69c0 -27 5 -84 -35 -84c-34 0 -26 35 -94 35h-151v-173c0 -103 12 -110 148 -111c60 0 99 3 142 50c16 18 39 48 65 48c18 0 36 -14 36 -33c0 -27 -13 -66 -22 -91
c-13 -42 -21 -46 -66 -46h-432c-40 0 -36 2 -36 43zM435 61c73 0 129 35 162 101c29 55 30 133 30 194c0 62 -2 152 -29 208c-31 65 -89 105 -161 105c-158 0 -208 -172 -208 -303c0 -130 44 -305 206 -305z" />
    <glyph glyph-name="ordmasculine" unicode="&#xba;" horiz-adv-x="440" 
d="M223 432c-43 0 -84 10 -120 33c-38 25 -65 70 -65 116c0 98 97 154 186 154s186 -52 186 -151c0 -98 -100 -152 -187 -152zM293 590c0 43 -16 95 -68 95c-56 0 -70 -56 -70 -102c0 -45 13 -101 68 -101c61 0 70 60 70 108zM86 362h280c16 0 43 4 43 -19
c0 -20 -28 -17 -41 -17h-283c-13 0 -47 -5 -47 17c0 23 33 19 48 19z" />
    <glyph glyph-name="ae" unicode="&#xe6;" horiz-adv-x="880" 
d="M312 303l59 -3c2 59 -34 118 -98 118c-79 0 -86 -68 -154 -68c-23 0 -60 14 -60 42c0 74 150 97 205 97c71 0 151 -20 193 -81c53 57 132 81 208 81c90 0 198 -37 198 -144c0 -75 -77 -112 -140 -126c-65 -15 -133 -15 -199 -15c5 -76 63 -137 140 -137
c101 0 138 70 169 70c17 0 32 -12 32 -30c0 -35 -52 -69 -79 -83c-52 -28 -95 -39 -153 -39c-74 0 -147 31 -193 89c-53 -64 -131 -89 -212 -89c-87 0 -203 42 -203 147c0 142 178 171 287 171zM525 270c62 -3 190 7 190 92c0 36 -35 56 -67 56c-74 0 -120 -82 -123 -148z
M373 231h-29c-35 0 -74 -4 -104 -21c-26 -14 -49 -41 -49 -72c0 -41 30 -67 69 -67c40 0 80 22 98 60c16 33 15 64 15 100z" />
    <glyph glyph-name="dotlessi" unicode="&#x131;" horiz-adv-x="300" 
d="M78 129v155c0 23 0 54 -4 76c-3 20 -13 23 -30 32c-13 7 -27 12 -27 29c0 24 33 34 49 39c38 12 86 29 125 29c17 0 28 -5 37 -20c13 -24 13 -73 13 -100v-242c0 -31 -6 -52 24 -69c10 -6 19 -13 19 -27c0 -28 -24 -31 -46 -31h-165c-20 0 -39 8 -39 31c0 13 8 21 18 27
c8 4 16 8 20 16c7 12 6 42 6 55z" />
    <glyph glyph-name="lslash" unicode="&#x142;" horiz-adv-x="300" 
d="M75 135v177l-44 -34c-12 -9 -21 -17 -37 -17c-21 0 -36 19 -36 39c0 23 15 34 32 47l85 63v141c0 22 0 53 -3 75c-4 21 -12 26 -29 36c-12 7 -25 12 -25 28c0 27 42 33 61 38c30 10 87 29 118 29c47 0 41 -68 41 -98v-158l48 37c9 8 24 21 38 21c21 0 32 -17 32 -36
c0 -26 -22 -39 -40 -53l-78 -59v-276c0 -14 0 -42 5 -55c4 -9 14 -14 22 -18c13 -7 24 -14 24 -30c0 -32 -30 -32 -54 -32h-157c-24 0 -54 0 -54 32c0 16 11 23 24 30c8 4 18 9 22 18c5 13 5 41 5 55z" />
    <glyph glyph-name="oslash" unicode="&#xf8;" horiz-adv-x="620" 
d="M178 19l-33 -45c-6 -8 -14 -21 -26 -21c-6 0 -23 2 -23 11c0 7 8 17 12 23l36 51c-73 44 -116 108 -116 195c0 158 142 256 288 256c43 0 88 -9 126 -31l36 49c6 9 12 20 24 20c6 0 26 -1 26 -10c0 -6 -9 -17 -12 -22l-40 -56c73 -47 117 -112 117 -201
c0 -157 -138 -253 -284 -253c-47 0 -89 12 -131 34zM411 338l-182 -242c20 -27 46 -41 81 -41c100 0 115 111 115 189c0 32 -4 64 -14 94zM209 140l182 240c-21 26 -46 38 -79 38c-96 0 -116 -103 -116 -180c0 -33 4 -66 13 -98z" />
    <glyph glyph-name="oe" unicode="&#x153;" horiz-adv-x="960" 
d="M499 60c-56 -53 -114 -75 -190 -75c-147 0 -284 91 -284 250c0 158 139 254 285 254c84 0 142 -25 200 -86c62 60 138 86 223 86s199 -43 199 -145c0 -147 -229 -162 -335 -164c13 -71 70 -113 140 -113c50 0 94 24 132 54c12 10 24 23 41 23c15 0 29 -14 29 -30
c0 -35 -61 -77 -89 -91c-49 -25 -101 -38 -156 -38c-73 0 -143 23 -195 75zM590 245c72 -1 188 29 188 120c0 37 -36 55 -69 55c-84 0 -120 -104 -119 -175zM309 57c36 0 67 23 85 53c22 35 30 88 30 129c0 74 -24 178 -116 178c-89 0 -112 -111 -112 -182
c0 -74 22 -178 113 -178z" />
    <glyph glyph-name="germandbls" unicode="&#xdf;" horiz-adv-x="660" 
d="M232 524v-471c0 -40 -7 -53 -49 -53h-115c-24 0 -54 0 -54 32c0 16 10 24 23 29c11 6 19 8 25 19c7 11 6 37 7 50v349c0 75 8 146 64 201c53 51 126 70 198 70c114 0 249 -50 249 -182c0 -96 -77 -143 -157 -172c110 -20 211 -103 211 -224c0 -110 -89 -187 -197 -187
c-77 0 -157 33 -157 123c0 35 20 76 59 76c14 0 30 -8 30 -24c0 -12 -7 -23 -7 -35c0 -28 24 -47 51 -47c51 0 71 51 71 95c0 32 -11 62 -31 87c-30 37 -62 48 -105 64c-29 11 -59 25 -59 63c0 78 134 43 134 178c0 59 -33 99 -93 99c-83 0 -98 -72 -98 -140z" />
    <glyph glyph-name="Aacute" unicode="&#xc1;" horiz-adv-x="740" 
d="M118 0h-55c-27 0 -72 -5 -72 34c0 14 10 22 21 30c16 10 23 14 30 32l36 112c38 119 90 230 141 346c22 50 46 100 74 151c18 33 36 35 73 35c56 0 68 -12 89 -61l205 -480l35 -104c8 -19 13 -22 30 -32c12 -7 19 -14 19 -29c0 -29 -27 -34 -51 -34h-169
c-23 0 -61 0 -61 32s43 28 43 51c0 17 -33 116 -40 138l-5 16h-280c-10 -35 -38 -102 -38 -134c0 -44 52 -34 52 -71s-52 -32 -77 -32zM209 319h224l-5 16l-107 250zM445 910l-128 -95c-11 -8 -27 -22 -41 -22c-12 0 -23 8 -23 20c0 11 10 25 15 33l52 91c19 33 21 41 60 42
h45c21 2 52 4 52 -27c0 -21 -17 -31 -32 -42z" />
    <glyph glyph-name="Acircumflex" unicode="&#xc2;" horiz-adv-x="740" 
d="M118 0h-55c-27 0 -72 -5 -72 34c0 14 10 22 21 30c16 10 23 14 30 32l36 112c38 119 90 230 141 346c22 50 46 100 74 151c18 33 36 35 73 35c56 0 68 -12 89 -61l205 -480l35 -104c8 -19 13 -22 30 -32c12 -7 19 -14 19 -29c0 -29 -27 -34 -51 -34h-169
c-23 0 -61 0 -61 32s43 28 43 51c0 17 -33 116 -40 138l-5 16h-280c-10 -35 -38 -102 -38 -134c0 -44 52 -34 52 -71s-52 -32 -77 -32zM209 319h224l-5 16l-107 250zM370 884l-129 -81c-11 -7 -26 -17 -39 -17c-10 0 -19 10 -19 19c0 15 12 26 22 36l102 106
c15 16 39 43 62 43s48 -28 62 -42l103 -105c10 -10 23 -23 23 -38c0 -9 -9 -20 -19 -20c-12 0 -29 12 -39 18z" />
    <glyph glyph-name="Adieresis" unicode="&#xc4;" horiz-adv-x="740" 
d="M118 0h-55c-27 0 -72 -5 -72 34c0 14 10 22 21 30c16 10 23 14 30 32l36 112c38 119 90 230 141 346c22 50 46 100 74 151c18 33 36 35 73 35c56 0 68 -12 89 -61l205 -480l35 -104c8 -19 13 -22 30 -32c12 -7 19 -14 19 -29c0 -29 -27 -34 -51 -34h-169
c-23 0 -61 0 -61 32s43 28 43 51c0 17 -33 116 -40 138l-5 16h-280c-10 -35 -38 -102 -38 -134c0 -44 52 -34 52 -71s-52 -32 -77 -32zM209 319h224l-5 16l-107 250zM253 816c-39 0 -76 30 -76 71c0 42 36 72 77 72c42 0 75 -29 75 -72c0 -40 -37 -71 -76 -71zM487 815
c-40 0 -75 32 -75 73c0 39 35 70 73 70c44 0 79 -27 79 -72c0 -41 -39 -71 -77 -71z" />
    <glyph glyph-name="Agrave" unicode="&#xc0;" horiz-adv-x="740" 
d="M118 0h-55c-27 0 -72 -5 -72 34c0 14 10 22 21 30c16 10 23 14 30 32l36 112c38 119 90 230 141 346c22 50 46 100 74 151c18 33 36 35 73 35c56 0 68 -12 89 -61l205 -480l35 -104c8 -19 13 -22 30 -32c12 -7 19 -14 19 -29c0 -29 -27 -34 -51 -34h-169
c-23 0 -61 0 -61 32s43 28 43 51c0 17 -33 116 -40 138l-5 16h-280c-10 -35 -38 -102 -38 -134c0 -44 52 -34 52 -71s-52 -32 -77 -32zM209 319h224l-5 16l-107 250zM305 981h44c40 -2 42 -10 61 -43l52 -91c5 -8 15 -23 15 -33c0 -12 -11 -20 -23 -20c-14 0 -30 14 -41 22
l-128 95c-15 12 -32 21 -32 42c0 31 31 29 52 28z" />
    <glyph glyph-name="Aring" unicode="&#xc5;" horiz-adv-x="740" 
d="M118 0h-55c-27 0 -72 -5 -72 34c0 14 10 22 21 30c16 10 23 14 30 32l36 112c38 119 90 230 141 346c22 50 46 100 74 151c18 33 36 35 73 35c56 0 68 -12 89 -61l205 -480l35 -104c8 -19 13 -22 30 -32c12 -7 19 -14 19 -29c0 -29 -27 -34 -51 -34h-169
c-23 0 -61 0 -61 32s43 28 43 51c0 17 -33 116 -40 138l-5 16h-280c-10 -35 -38 -102 -38 -134c0 -44 52 -34 52 -71s-52 -32 -77 -32zM209 319h224l-5 16l-107 250zM370 792c-58 0 -107 47 -107 105c0 59 46 110 106 110c59 0 109 -47 109 -107s-48 -108 -108 -108z
M370 852c28 0 47 22 47 49s-23 45 -49 45c-25 0 -44 -23 -44 -47c0 -25 21 -47 46 -47z" />
    <glyph glyph-name="Atilde" unicode="&#xc3;" horiz-adv-x="740" 
d="M118 0h-55c-27 0 -72 -5 -72 34c0 14 10 22 21 30c16 10 23 14 30 32l36 112c38 119 90 230 141 346c22 50 46 100 74 151c18 33 36 35 73 35c56 0 68 -12 89 -61l205 -480l35 -104c8 -19 13 -22 30 -32c12 -7 19 -14 19 -29c0 -29 -27 -34 -51 -34h-169
c-23 0 -61 0 -61 32s43 28 43 51c0 17 -33 116 -40 138l-5 16h-280c-10 -35 -38 -102 -38 -134c0 -44 52 -34 52 -71s-52 -32 -77 -32zM209 319h224l-5 16l-107 250zM374 840l-55 27c-17 8 -33 17 -53 17c-24 0 -36 -15 -48 -33c-6 -9 -13 -24 -26 -24s-19 9 -19 21
c0 23 16 50 30 66c27 32 64 51 106 51c71 0 115 -59 164 -59c42 0 57 47 75 47c13 0 19 -9 19 -21c0 -18 -15 -41 -26 -54c-30 -36 -67 -53 -114 -53c-22 0 -33 5 -53 15z" />
    <glyph glyph-name="Ccedilla" unicode="&#xc7;" horiz-adv-x="760" 
d="M628 550c-17 36 -29 61 -62 86c-32 25 -72 38 -109 38c-71 0 -132 -36 -173 -95c-42 -61 -57 -133 -57 -206c0 -65 18 -147 51 -203c40 -66 109 -97 184 -97c63 0 127 30 173 78c16 16 36 42 61 42c19 0 35 -16 35 -35c0 -48 -67 -99 -104 -121
c-59 -35 -132 -52 -201 -52c-212 0 -394 146 -394 368c0 224 196 394 413 394c78 0 167 -22 232 -66c14 -8 28 -18 33 -33c6 -19 9 -88 9 -110c0 -24 -17 -39 -42 -39c-27 0 -39 31 -49 51zM381 0l-20 -60h26c47 0 81 -29 81 -77c0 -56 -51 -88 -103 -88
c-26 0 -82 16 -82 51c0 9 8 18 18 18c7 0 13 -5 19 -9c13 -8 22 -15 38 -15c23 0 48 18 48 43c0 26 -18 39 -43 39c-15 0 -29 -5 -43 -5c-6 0 -10 5 -10 10c0 7 4 16 6 22l23 71h42z" />
    <glyph glyph-name="Eacute" unicode="&#xc9;" horiz-adv-x="660" 
d="M257 356v-173c0 -103 12 -110 148 -111c60 0 99 3 142 50c16 18 39 48 65 48c18 0 36 -14 36 -33c0 -27 -13 -66 -22 -91c-13 -42 -21 -46 -66 -46h-489c-22 0 -49 7 -49 34c0 18 11 24 24 32l11 6c22 11 18 34 18 55v478c0 21 4 44 -18 55l-11 6c-13 8 -24 14 -24 32
c0 27 27 34 49 34h467c16 0 43 2 55 -12c13 -16 17 -74 17 -95c0 -23 -10 -43 -36 -43c-22 0 -33 14 -46 30c-19 22 -35 34 -63 41c-26 6 -70 8 -100 8c-21 0 -65 -1 -83 -8c-15 -6 -25 -17 -25 -30v-186h151c71 0 60 37 94 37c35 0 35 -44 35 -69c0 -27 5 -84 -35 -84
c-34 0 -26 35 -94 35h-151zM405 910l-128 -95c-11 -8 -27 -22 -41 -22c-12 0 -23 8 -23 20c0 11 10 25 15 33l52 91c19 33 21 41 60 42h45c21 2 52 4 52 -27c0 -21 -17 -31 -32 -42z" />
    <glyph glyph-name="Ecircumflex" unicode="&#xca;" horiz-adv-x="660" 
d="M257 356v-173c0 -103 12 -110 148 -111c60 0 99 3 142 50c16 18 39 48 65 48c18 0 36 -14 36 -33c0 -27 -13 -66 -22 -91c-13 -42 -21 -46 -66 -46h-489c-22 0 -49 7 -49 34c0 18 11 24 24 32l11 6c22 11 18 34 18 55v478c0 21 4 44 -18 55l-11 6c-13 8 -24 14 -24 32
c0 27 27 34 49 34h467c16 0 43 2 55 -12c13 -16 17 -74 17 -95c0 -23 -10 -43 -36 -43c-22 0 -33 14 -46 30c-19 22 -35 34 -63 41c-26 6 -70 8 -100 8c-21 0 -65 -1 -83 -8c-15 -6 -25 -17 -25 -30v-186h151c71 0 60 37 94 37c35 0 35 -44 35 -69c0 -27 5 -84 -35 -84
c-34 0 -26 35 -94 35h-151zM330 884l-129 -81c-11 -7 -26 -17 -39 -17c-10 0 -19 10 -19 19c0 15 12 26 22 36l102 106c15 16 39 43 62 43s48 -28 62 -42l103 -105c10 -10 23 -23 23 -38c0 -9 -9 -20 -19 -20c-12 0 -29 12 -39 18z" />
    <glyph glyph-name="Edieresis" unicode="&#xcb;" horiz-adv-x="660" 
d="M257 356v-173c0 -103 12 -110 148 -111c60 0 99 3 142 50c16 18 39 48 65 48c18 0 36 -14 36 -33c0 -27 -13 -66 -22 -91c-13 -42 -21 -46 -66 -46h-489c-22 0 -49 7 -49 34c0 18 11 24 24 32l11 6c22 11 18 34 18 55v478c0 21 4 44 -18 55l-11 6c-13 8 -24 14 -24 32
c0 27 27 34 49 34h467c16 0 43 2 55 -12c13 -16 17 -74 17 -95c0 -23 -10 -43 -36 -43c-22 0 -33 14 -46 30c-19 22 -35 34 -63 41c-26 6 -70 8 -100 8c-21 0 -65 -1 -83 -8c-15 -6 -25 -17 -25 -30v-186h151c71 0 60 37 94 37c35 0 35 -44 35 -69c0 -27 5 -84 -35 -84
c-34 0 -26 35 -94 35h-151zM213 816c-39 0 -76 30 -76 71c0 42 36 72 77 72c42 0 75 -29 75 -72c0 -40 -37 -71 -76 -71zM447 815c-40 0 -75 32 -75 73c0 39 35 70 73 70c44 0 79 -27 79 -72c0 -41 -39 -71 -77 -71z" />
    <glyph glyph-name="Egrave" unicode="&#xc8;" horiz-adv-x="660" 
d="M257 356v-173c0 -103 12 -110 148 -111c60 0 99 3 142 50c16 18 39 48 65 48c18 0 36 -14 36 -33c0 -27 -13 -66 -22 -91c-13 -42 -21 -46 -66 -46h-489c-22 0 -49 7 -49 34c0 18 11 24 24 32l11 6c22 11 18 34 18 55v478c0 21 4 44 -18 55l-11 6c-13 8 -24 14 -24 32
c0 27 27 34 49 34h467c16 0 43 2 55 -12c13 -16 17 -74 17 -95c0 -23 -10 -43 -36 -43c-22 0 -33 14 -46 30c-19 22 -35 34 -63 41c-26 6 -70 8 -100 8c-21 0 -65 -1 -83 -8c-15 -6 -25 -17 -25 -30v-186h151c71 0 60 37 94 37c35 0 35 -44 35 -69c0 -27 5 -84 -35 -84
c-34 0 -26 35 -94 35h-151zM265 981h44c40 -2 42 -10 61 -43l52 -91c5 -8 15 -23 15 -33c0 -12 -11 -20 -23 -20c-14 0 -30 14 -41 22l-128 95c-15 12 -32 21 -32 42c0 31 31 29 52 28z" />
    <glyph glyph-name="Eth" unicode="&#xd0;" horiz-adv-x="820" 
d="M257 575v-149h20c59 0 104 2 104 -44s-38 -46 -98 -46h-26v-168c0 -70 1 -97 77 -97c167 0 249 134 249 289c0 158 -83 301 -255 301c-71 0 -71 -23 -71 -86zM75 426v179c0 21 4 44 -18 55l-11 6c-13 8 -24 14 -24 32c0 27 27 34 49 34h289c105 0 201 -11 287 -79
c90 -70 131 -170 131 -282c0 -99 -31 -199 -101 -270c-76 -76 -178 -101 -283 -101h-323c-22 0 -49 7 -49 34c0 18 11 24 24 32l11 6c22 11 18 34 18 55v209h-21c-53 0 -92 -1 -92 47c0 41 42 43 95 43h18z" />
    <glyph glyph-name="Iacute" unicode="&#xcd;" horiz-adv-x="340" 
d="M76 127v478c0 21 4 44 -18 55l-11 6c-13 8 -24 14 -24 32c0 27 27 34 49 34h190c22 0 49 -7 49 -34c0 -18 -11 -24 -24 -32l-11 -6c-22 -11 -18 -34 -18 -55v-478c0 -21 -4 -44 18 -55l11 -6c13 -8 24 -14 24 -32c0 -27 -27 -34 -49 -34h-190c-22 0 -49 7 -49 34
c0 18 11 24 24 32l11 6c22 11 18 34 18 55zM245 910l-128 -95c-11 -8 -27 -22 -41 -22c-12 0 -23 8 -23 20c0 11 10 25 15 33l52 91c19 33 21 41 60 42h45c21 2 52 4 52 -27c0 -21 -17 -31 -32 -42z" />
    <glyph glyph-name="Icircumflex" unicode="&#xce;" horiz-adv-x="340" 
d="M76 127v478c0 21 4 44 -18 55l-11 6c-13 8 -24 14 -24 32c0 27 27 34 49 34h190c22 0 49 -7 49 -34c0 -18 -11 -24 -24 -32l-11 -6c-22 -11 -18 -34 -18 -55v-478c0 -21 -4 -44 18 -55l11 -6c13 -8 24 -14 24 -32c0 -27 -27 -34 -49 -34h-190c-22 0 -49 7 -49 34
c0 18 11 24 24 32l11 6c22 11 18 34 18 55zM170 884l-129 -81c-11 -7 -26 -17 -39 -17c-10 0 -19 10 -19 19c0 15 12 26 22 36l102 106c15 16 39 43 62 43s48 -28 62 -42l103 -105c10 -10 23 -23 23 -38c0 -9 -9 -20 -19 -20c-12 0 -29 12 -39 18z" />
    <glyph glyph-name="Idieresis" unicode="&#xcf;" horiz-adv-x="340" 
d="M76 127v478c0 21 4 44 -18 55l-11 6c-13 8 -24 14 -24 32c0 27 27 34 49 34h190c22 0 49 -7 49 -34c0 -18 -11 -24 -24 -32l-11 -6c-22 -11 -18 -34 -18 -55v-478c0 -21 -4 -44 18 -55l11 -6c13 -8 24 -14 24 -32c0 -27 -27 -34 -49 -34h-190c-22 0 -49 7 -49 34
c0 18 11 24 24 32l11 6c22 11 18 34 18 55zM53 816c-39 0 -76 30 -76 71c0 42 36 72 77 72c42 0 75 -29 75 -72c0 -40 -37 -71 -76 -71zM287 815c-40 0 -75 32 -75 73c0 39 35 70 73 70c44 0 79 -27 79 -72c0 -41 -39 -71 -77 -71z" />
    <glyph glyph-name="Igrave" unicode="&#xcc;" horiz-adv-x="340" 
d="M76 127v478c0 21 4 44 -18 55l-11 6c-13 8 -24 14 -24 32c0 27 27 34 49 34h190c22 0 49 -7 49 -34c0 -18 -11 -24 -24 -32l-11 -6c-22 -11 -18 -34 -18 -55v-478c0 -21 -4 -44 18 -55l11 -6c13 -8 24 -14 24 -32c0 -27 -27 -34 -49 -34h-190c-22 0 -49 7 -49 34
c0 18 11 24 24 32l11 6c22 11 18 34 18 55zM105 981h44c40 -2 42 -10 61 -43l52 -91c5 -8 15 -23 15 -33c0 -12 -11 -20 -23 -20c-14 0 -30 14 -41 22l-128 95c-15 12 -32 21 -32 42c0 31 31 29 52 28z" />
    <glyph glyph-name="Ntilde" unicode="&#xd1;" horiz-adv-x="760" 
d="M602 276v331c-1 12 -3 24 -6 33c-7 18 -22 22 -38 28c-17 7 -25 14 -25 33c0 34 45 31 68 31h87c23 0 68 3 68 -31c0 -19 -8 -26 -25 -33c-16 -6 -31 -10 -38 -28c-3 -9 -5 -21 -6 -33v-543c0 -55 -3 -71 -64 -71c-22 0 -36 0 -51 16c-18 18 -57 80 -73 104l-313 431
v-419c1 -12 3 -24 6 -33c7 -18 22 -22 38 -28c17 -7 25 -14 25 -33c0 -34 -45 -31 -68 -31h-87c-23 0 -68 -3 -68 31c0 19 8 26 25 33c16 6 31 10 38 28c3 9 5 21 6 33v443c-1 43 6 80 -42 95c-19 6 -38 11 -38 35c0 33 31 34 57 34h137c37 0 43 1 68 -26
c60 -63 132 -168 184 -241zM384 840l-55 27c-17 8 -33 17 -53 17c-24 0 -36 -15 -48 -33c-6 -9 -13 -24 -26 -24s-19 9 -19 21c0 23 16 50 30 66c27 32 64 51 106 51c71 0 115 -59 164 -59c42 0 57 47 75 47c13 0 19 -9 19 -21c0 -18 -15 -41 -26 -54
c-30 -36 -67 -53 -114 -53c-22 0 -33 5 -53 15z" />
    <glyph glyph-name="Oacute" unicode="&#xd3;" horiz-adv-x="860" 
d="M423 -15c-100 0 -205 39 -278 108c-76 73 -113 169 -113 275c0 222 176 379 394 379c220 0 400 -152 400 -379c0 -224 -185 -383 -403 -383zM427 61c160 0 204 174 204 303c0 127 -44 307 -203 307c-75 0 -129 -47 -162 -111c-30 -59 -39 -123 -39 -189
c0 -124 43 -310 200 -310zM505 910l-128 -95c-11 -8 -27 -22 -41 -22c-12 0 -23 8 -23 20c0 11 10 25 15 33l52 91c19 33 21 41 60 42h45c21 2 52 4 52 -27c0 -21 -17 -31 -32 -42z" />
    <glyph glyph-name="Ocircumflex" unicode="&#xd4;" horiz-adv-x="860" 
d="M423 -15c-100 0 -205 39 -278 108c-76 73 -113 169 -113 275c0 222 176 379 394 379c220 0 400 -152 400 -379c0 -224 -185 -383 -403 -383zM427 61c160 0 204 174 204 303c0 127 -44 307 -203 307c-75 0 -129 -47 -162 -111c-30 -59 -39 -123 -39 -189
c0 -124 43 -310 200 -310zM430 884l-129 -81c-11 -7 -26 -17 -39 -17c-10 0 -19 10 -19 19c0 15 12 26 22 36l102 106c15 16 39 43 62 43s48 -28 62 -42l103 -105c10 -10 23 -23 23 -38c0 -9 -9 -20 -19 -20c-12 0 -29 12 -39 18z" />
    <glyph glyph-name="Odieresis" unicode="&#xd6;" horiz-adv-x="860" 
d="M423 -15c-100 0 -205 39 -278 108c-76 73 -113 169 -113 275c0 222 176 379 394 379c220 0 400 -152 400 -379c0 -224 -185 -383 -403 -383zM427 61c160 0 204 174 204 303c0 127 -44 307 -203 307c-75 0 -129 -47 -162 -111c-30 -59 -39 -123 -39 -189
c0 -124 43 -310 200 -310zM313 816c-39 0 -76 30 -76 71c0 42 36 72 77 72c42 0 75 -29 75 -72c0 -40 -37 -71 -76 -71zM547 815c-40 0 -75 32 -75 73c0 39 35 70 73 70c44 0 79 -27 79 -72c0 -41 -39 -71 -77 -71z" />
    <glyph glyph-name="Ograve" unicode="&#xd2;" horiz-adv-x="860" 
d="M423 -15c-100 0 -205 39 -278 108c-76 73 -113 169 -113 275c0 222 176 379 394 379c220 0 400 -152 400 -379c0 -224 -185 -383 -403 -383zM427 61c160 0 204 174 204 303c0 127 -44 307 -203 307c-75 0 -129 -47 -162 -111c-30 -59 -39 -123 -39 -189
c0 -124 43 -310 200 -310zM365 981h44c40 -2 42 -10 61 -43l52 -91c5 -8 15 -23 15 -33c0 -12 -11 -20 -23 -20c-14 0 -30 14 -41 22l-128 95c-15 12 -32 21 -32 42c0 31 31 29 52 28z" />
    <glyph glyph-name="Otilde" unicode="&#xd5;" horiz-adv-x="860" 
d="M423 -15c-100 0 -205 39 -278 108c-76 73 -113 169 -113 275c0 222 176 379 394 379c220 0 400 -152 400 -379c0 -224 -185 -383 -403 -383zM427 61c160 0 204 174 204 303c0 127 -44 307 -203 307c-75 0 -129 -47 -162 -111c-30 -59 -39 -123 -39 -189
c0 -124 43 -310 200 -310zM434 840l-55 27c-17 8 -33 17 -53 17c-24 0 -36 -15 -48 -33c-6 -9 -13 -24 -26 -24s-19 9 -19 21c0 23 16 50 30 66c27 32 64 51 106 51c71 0 115 -59 164 -59c42 0 57 47 75 47c13 0 19 -9 19 -21c0 -18 -15 -41 -26 -54
c-30 -36 -67 -53 -114 -53c-22 0 -33 5 -53 15z" />
    <glyph glyph-name="Scaron" unicode="&#x160;" 
d="M355 474l79 -20c48 -11 108 -30 147 -61c45 -37 72 -91 72 -149c0 -76 -37 -146 -98 -191c-65 -49 -142 -68 -223 -68c-65 0 -132 11 -191 38c-50 24 -119 78 -119 138c0 28 20 55 49 55c27 0 42 -16 56 -37c21 -32 35 -57 68 -79c37 -24 84 -36 128 -36
c69 0 154 36 154 116c0 35 -18 63 -50 78c-32 16 -92 29 -128 36c-51 9 -119 27 -162 56c-54 37 -88 94 -88 160c0 71 39 139 96 181s131 56 201 56c74 0 155 -18 221 -52c12 -7 23 -15 27 -29c7 -24 7 -65 7 -90c0 -24 -12 -41 -37 -41c-54 0 -46 142 -210 142
c-57 0 -125 -32 -125 -97c0 -72 69 -92 126 -106zM340 892l129 81c10 6 27 18 39 18c10 0 19 -10 19 -20c0 -15 -13 -28 -23 -37l-103 -105c-14 -15 -39 -43 -62 -43s-47 28 -62 43l-102 106c-10 10 -22 21 -22 36c0 10 9 20 19 20c13 0 28 -11 39 -18z" />
    <glyph glyph-name="Thorn" unicode="&#xde;" 
d="M74 127v478c0 21 4 44 -18 55l-11 6c-13 8 -24 14 -24 32c0 27 27 34 49 34h190c22 0 49 -7 49 -34c0 -18 -11 -24 -24 -32l-11 -6c-22 -11 -18 -34 -18 -55v-33h121c118 0 273 -33 273 -175c0 -115 -125 -204 -289 -217l-105 -9v-44c0 -21 -4 -44 18 -55l11 -6
c13 -8 24 -14 24 -32c0 -27 -27 -34 -49 -34h-190c-22 0 -49 7 -49 34c0 18 11 24 24 32l11 6c22 11 18 34 18 55zM256 446v-195c91 4 207 39 207 143c0 76 -54 119 -133 119c-56 0 -74 -12 -74 -67z" />
    <glyph glyph-name="Uacute" unicode="&#xda;" horiz-adv-x="760" 
d="M243 604v-289c0 -54 1 -118 26 -167c30 -61 90 -86 152 -86c54 0 119 26 147 78c26 48 26 119 26 173v310c0 29 -10 32 -34 44c-14 7 -26 14 -26 32c0 32 34 33 59 33h87c25 0 59 -1 59 -33c0 -18 -12 -25 -26 -32c-24 -12 -34 -15 -34 -44v-295c0 -84 -2 -183 -59 -251
c-59 -70 -162 -92 -248 -92c-72 0 -172 19 -232 76c-70 67 -79 163 -79 254v290c0 21 4 44 -18 55l-11 6c-13 8 -24 14 -24 32c0 27 27 34 49 34h193c23 0 54 -4 54 -34c0 -17 -10 -25 -24 -30c-37 -16 -33 -22 -37 -64zM455 910l-128 -95c-11 -8 -27 -22 -41 -22
c-12 0 -23 8 -23 20c0 11 10 25 15 33l52 91c19 33 21 41 60 42h45c21 2 52 4 52 -27c0 -21 -17 -31 -32 -42z" />
    <glyph glyph-name="Ucircumflex" unicode="&#xdb;" horiz-adv-x="760" 
d="M243 604v-289c0 -54 1 -118 26 -167c30 -61 90 -86 152 -86c54 0 119 26 147 78c26 48 26 119 26 173v310c0 29 -10 32 -34 44c-14 7 -26 14 -26 32c0 32 34 33 59 33h87c25 0 59 -1 59 -33c0 -18 -12 -25 -26 -32c-24 -12 -34 -15 -34 -44v-295c0 -84 -2 -183 -59 -251
c-59 -70 -162 -92 -248 -92c-72 0 -172 19 -232 76c-70 67 -79 163 -79 254v290c0 21 4 44 -18 55l-11 6c-13 8 -24 14 -24 32c0 27 27 34 49 34h193c23 0 54 -4 54 -34c0 -17 -10 -25 -24 -30c-37 -16 -33 -22 -37 -64zM380 884l-129 -81c-11 -7 -26 -17 -39 -17
c-10 0 -19 10 -19 19c0 15 12 26 22 36l102 106c15 16 39 43 62 43s48 -28 62 -42l103 -105c10 -10 23 -23 23 -38c0 -9 -9 -20 -19 -20c-12 0 -29 12 -39 18z" />
    <glyph glyph-name="Udieresis" unicode="&#xdc;" horiz-adv-x="760" 
d="M243 604v-289c0 -54 1 -118 26 -167c30 -61 90 -86 152 -86c54 0 119 26 147 78c26 48 26 119 26 173v310c0 29 -10 32 -34 44c-14 7 -26 14 -26 32c0 32 34 33 59 33h87c25 0 59 -1 59 -33c0 -18 -12 -25 -26 -32c-24 -12 -34 -15 -34 -44v-295c0 -84 -2 -183 -59 -251
c-59 -70 -162 -92 -248 -92c-72 0 -172 19 -232 76c-70 67 -79 163 -79 254v290c0 21 4 44 -18 55l-11 6c-13 8 -24 14 -24 32c0 27 27 34 49 34h193c23 0 54 -4 54 -34c0 -17 -10 -25 -24 -30c-37 -16 -33 -22 -37 -64zM263 816c-39 0 -76 30 -76 71c0 42 36 72 77 72
c42 0 75 -29 75 -72c0 -40 -37 -71 -76 -71zM497 815c-40 0 -75 32 -75 73c0 39 35 70 73 70c44 0 79 -27 79 -72c0 -41 -39 -71 -77 -71z" />
    <glyph glyph-name="Ugrave" unicode="&#xd9;" horiz-adv-x="760" 
d="M243 604v-289c0 -54 1 -118 26 -167c30 -61 90 -86 152 -86c54 0 119 26 147 78c26 48 26 119 26 173v310c0 29 -10 32 -34 44c-14 7 -26 14 -26 32c0 32 34 33 59 33h87c25 0 59 -1 59 -33c0 -18 -12 -25 -26 -32c-24 -12 -34 -15 -34 -44v-295c0 -84 -2 -183 -59 -251
c-59 -70 -162 -92 -248 -92c-72 0 -172 19 -232 76c-70 67 -79 163 -79 254v290c0 21 4 44 -18 55l-11 6c-13 8 -24 14 -24 32c0 27 27 34 49 34h193c23 0 54 -4 54 -34c0 -17 -10 -25 -24 -30c-37 -16 -33 -22 -37 -64zM315 981h44c40 -2 42 -10 61 -43l52 -91
c5 -8 15 -23 15 -33c0 -12 -11 -20 -23 -20c-14 0 -30 14 -41 22l-128 95c-15 12 -32 21 -32 42c0 31 31 29 52 28z" />
    <glyph glyph-name="Yacute" unicode="&#xdd;" horiz-adv-x="740" 
d="M423 373l89 121l33 53c13 20 43 67 43 91c0 30 -48 27 -48 60c0 31 30 34 53 34h87c26 0 64 5 64 -33c0 -13 -9 -23 -19 -31c-25 -18 -27 -18 -43 -45l-219 -323v-173c0 -38 -5 -46 30 -62c14 -6 25 -14 25 -31c0 -27 -27 -34 -49 -34h-189c-23 0 -54 4 -54 34
c0 16 10 24 23 30c35 18 31 21 32 64v164l-208 319c-17 32 -21 34 -52 51c-16 8 -29 18 -29 37c0 38 60 33 108 33h152c26 0 53 -3 53 -36c0 -30 -45 -26 -45 -50c0 -29 32 -79 48 -103zM497 910l-128 -95c-11 -8 -27 -22 -41 -22c-12 0 -23 8 -23 20c0 11 10 25 15 33
l52 91c19 33 21 41 60 42h45c21 2 52 4 52 -27c0 -21 -17 -31 -32 -42z" />
    <glyph glyph-name="Ydieresis" unicode="&#x178;" horiz-adv-x="740" 
d="M423 373l89 121l33 53c13 20 43 67 43 91c0 30 -48 27 -48 60c0 31 30 34 53 34h87c26 0 64 5 64 -33c0 -13 -9 -23 -19 -31c-25 -18 -27 -18 -43 -45l-219 -323v-173c0 -38 -5 -46 30 -62c14 -6 25 -14 25 -31c0 -27 -27 -34 -49 -34h-189c-23 0 -54 4 -54 34
c0 16 10 24 23 30c35 18 31 21 32 64v164l-208 319c-17 32 -21 34 -52 51c-16 8 -29 18 -29 37c0 38 60 33 108 33h152c26 0 53 -3 53 -36c0 -30 -45 -26 -45 -50c0 -29 32 -79 48 -103zM253 816c-39 0 -76 30 -76 71c0 42 36 72 77 72c42 0 75 -29 75 -72
c0 -40 -37 -71 -76 -71zM487 815c-40 0 -75 32 -75 73c0 39 35 70 73 70c44 0 79 -27 79 -72c0 -41 -39 -71 -77 -71z" />
    <glyph glyph-name="Zcaron" unicode="&#x17d;" horiz-adv-x="620" 
d="M105 732h431c32 0 70 1 70 -40c0 -71 -143 -268 -189 -332l-157 -217c-8 -11 -31 -42 -31 -56c0 -13 18 -10 26 -10h99c71 0 126 4 178 58c12 13 27 30 47 30c21 0 34 -10 34 -32c0 -26 -6 -50 -11 -76l-6 -33c-11 -25 -25 -24 -49 -24h-449c-38 0 -83 3 -83 53
c0 47 59 128 86 167l117 168l109 150l41 63c4 7 27 41 27 48c0 13 -19 11 -26 11h-69c-32 0 -65 -2 -97 -8c-36 -8 -52 -16 -75 -45c-11 -14 -25 -34 -46 -34c-19 0 -35 13 -35 33c0 24 5 90 13 110c7 18 29 16 45 16zM310 892l129 81c10 6 27 18 39 18c10 0 19 -10 19 -20
c0 -15 -13 -28 -23 -37l-103 -105c-14 -15 -39 -43 -62 -43s-47 28 -62 43l-102 106c-10 10 -22 21 -22 36c0 10 9 20 19 20c13 0 28 -11 39 -18z" />
    <glyph glyph-name="aacute" unicode="&#xe1;" horiz-adv-x="580" 
d="M516 295v-158c0 -14 -1 -42 5 -55c5 -10 13 -15 22 -19c14 -7 25 -14 25 -31c0 -32 -30 -32 -54 -32h-100c-51 0 -51 17 -54 62c-34 -56 -94 -77 -155 -77c-94 0 -180 52 -180 155c0 142 180 177 290 177h34c0 60 -29 105 -93 105c-61 0 -70 -64 -133 -64
c-29 0 -62 13 -62 48c0 70 158 83 207 83c56 0 118 -9 167 -37c62 -36 81 -87 81 -157zM354 254h-18c-71 0 -143 -35 -143 -115c0 -38 22 -72 63 -72c33 0 59 21 77 48c22 35 21 67 21 107v32zM365 660l-128 -95c-11 -8 -27 -22 -41 -22c-12 0 -23 8 -23 20
c0 11 10 25 15 33l52 91c19 33 21 41 60 42h45c21 2 52 4 52 -27c0 -21 -17 -31 -32 -42z" />
    <glyph glyph-name="acircumflex" unicode="&#xe2;" horiz-adv-x="580" 
d="M516 295v-158c0 -14 -1 -42 5 -55c5 -10 13 -15 22 -19c14 -7 25 -14 25 -31c0 -32 -30 -32 -54 -32h-100c-51 0 -51 17 -54 62c-34 -56 -94 -77 -155 -77c-94 0 -180 52 -180 155c0 142 180 177 290 177h34c0 60 -29 105 -93 105c-61 0 -70 -64 -133 -64
c-29 0 -62 13 -62 48c0 70 158 83 207 83c56 0 118 -9 167 -37c62 -36 81 -87 81 -157zM354 254h-18c-71 0 -143 -35 -143 -115c0 -38 22 -72 63 -72c33 0 59 21 77 48c22 35 21 67 21 107v32zM290 634l-129 -81c-11 -7 -26 -17 -39 -17c-10 0 -19 10 -19 19
c0 15 12 26 22 36l102 106c15 16 39 43 62 43s48 -28 62 -42l103 -105c10 -10 23 -23 23 -38c0 -9 -9 -20 -19 -20c-12 0 -29 12 -39 18z" />
    <glyph glyph-name="adieresis" unicode="&#xe4;" horiz-adv-x="580" 
d="M516 295v-158c0 -14 -1 -42 5 -55c5 -10 13 -15 22 -19c14 -7 25 -14 25 -31c0 -32 -30 -32 -54 -32h-100c-51 0 -51 17 -54 62c-34 -56 -94 -77 -155 -77c-94 0 -180 52 -180 155c0 142 180 177 290 177h34c0 60 -29 105 -93 105c-61 0 -70 -64 -133 -64
c-29 0 -62 13 -62 48c0 70 158 83 207 83c56 0 118 -9 167 -37c62 -36 81 -87 81 -157zM354 254h-18c-71 0 -143 -35 -143 -115c0 -38 22 -72 63 -72c33 0 59 21 77 48c22 35 21 67 21 107v32zM173 566c-39 0 -76 30 -76 71c0 42 36 72 77 72c42 0 75 -29 75 -72
c0 -40 -37 -71 -76 -71zM407 565c-40 0 -75 32 -75 73c0 39 35 70 73 70c44 0 79 -27 79 -72c0 -41 -39 -71 -77 -71z" />
    <glyph glyph-name="agrave" unicode="&#xe0;" horiz-adv-x="580" 
d="M516 295v-158c0 -14 -1 -42 5 -55c5 -10 13 -15 22 -19c14 -7 25 -14 25 -31c0 -32 -30 -32 -54 -32h-100c-51 0 -51 17 -54 62c-34 -56 -94 -77 -155 -77c-94 0 -180 52 -180 155c0 142 180 177 290 177h34c0 60 -29 105 -93 105c-61 0 -70 -64 -133 -64
c-29 0 -62 13 -62 48c0 70 158 83 207 83c56 0 118 -9 167 -37c62 -36 81 -87 81 -157zM354 254h-18c-71 0 -143 -35 -143 -115c0 -38 22 -72 63 -72c33 0 59 21 77 48c22 35 21 67 21 107v32zM225 731h44c40 -2 42 -10 61 -43l52 -91c5 -8 15 -23 15 -33
c0 -12 -11 -20 -23 -20c-14 0 -30 14 -41 22l-128 95c-15 12 -32 21 -32 42c0 31 31 29 52 28z" />
    <glyph glyph-name="aring" unicode="&#xe5;" horiz-adv-x="580" 
d="M516 295v-158c0 -14 -1 -42 5 -55c5 -10 13 -15 22 -19c14 -7 25 -14 25 -31c0 -32 -30 -32 -54 -32h-100c-51 0 -51 17 -54 62c-34 -56 -94 -77 -155 -77c-94 0 -180 52 -180 155c0 142 180 177 290 177h34c0 60 -29 105 -93 105c-61 0 -70 -64 -133 -64
c-29 0 -62 13 -62 48c0 70 158 83 207 83c56 0 118 -9 167 -37c62 -36 81 -87 81 -157zM354 254h-18c-71 0 -143 -35 -143 -115c0 -38 22 -72 63 -72c33 0 59 21 77 48c22 35 21 67 21 107v32zM290 542c-58 0 -107 47 -107 105c0 59 46 110 106 110c59 0 109 -47 109 -107
s-48 -108 -108 -108zM290 602c28 0 47 22 47 49s-23 45 -49 45c-25 0 -44 -23 -44 -47c0 -25 21 -47 46 -47z" />
    <glyph glyph-name="atilde" unicode="&#xe3;" horiz-adv-x="580" 
d="M516 295v-158c0 -14 -1 -42 5 -55c5 -10 13 -15 22 -19c14 -7 25 -14 25 -31c0 -32 -30 -32 -54 -32h-100c-51 0 -51 17 -54 62c-34 -56 -94 -77 -155 -77c-94 0 -180 52 -180 155c0 142 180 177 290 177h34c0 60 -29 105 -93 105c-61 0 -70 -64 -133 -64
c-29 0 -62 13 -62 48c0 70 158 83 207 83c56 0 118 -9 167 -37c62 -36 81 -87 81 -157zM354 254h-18c-71 0 -143 -35 -143 -115c0 -38 22 -72 63 -72c33 0 59 21 77 48c22 35 21 67 21 107v32zM294 590l-55 27c-17 8 -33 17 -53 17c-24 0 -36 -15 -48 -33
c-6 -9 -13 -24 -26 -24s-19 9 -19 21c0 23 16 50 30 66c27 32 64 51 106 51c71 0 115 -59 164 -59c42 0 57 47 75 47c13 0 19 -9 19 -21c0 -18 -15 -41 -26 -54c-30 -36 -67 -53 -114 -53c-22 0 -33 5 -53 15z" />
    <glyph glyph-name="brokenbar" unicode="&#xa6;" horiz-adv-x="660" 
d="M296 0v284h69v-284h-69zM296 473v284h69v-284h-69z" />
    <glyph glyph-name="ccedilla" unicode="&#xe7;" horiz-adv-x="520" 
d="M196 234c0 -79 37 -164 127 -164h4c42 0 84 21 114 51c11 11 24 25 41 25s29 -15 29 -31c0 -32 -34 -61 -56 -77c-48 -32 -105 -53 -163 -53c-144 0 -269 93 -269 246c0 157 121 258 272 258c63 0 205 -28 205 -110c0 -33 -27 -54 -58 -54c-73 0 -69 91 -143 91
c-83 0 -103 -118 -104 -182h1zM261 0l-20 -60h26c47 0 81 -29 81 -77c0 -56 -51 -88 -103 -88c-26 0 -82 16 -82 51c0 9 8 18 18 18c7 0 13 -5 19 -9c13 -8 22 -15 38 -15c23 0 48 18 48 43c0 26 -18 39 -43 39c-15 0 -29 -5 -43 -5c-6 0 -10 5 -10 10c0 7 4 16 6 22l23 71
h42z" />
    <glyph glyph-name="copyright" unicode="&#xa9;" horiz-adv-x="840" 
d="M36 366c0 210 171 381 381 381c211 0 382 -171 382 -381s-171 -381 -382 -381c-210 0 -381 171 -381 381zM82 366c0 -185 151 -335 335 -335c185 0 336 150 336 335s-151 335 -336 335c-184 0 -335 -150 -335 -335zM548 241c10 14 17 26 35 26c14 0 27 -13 27 -28
c0 -18 -15 -39 -26 -51c-40 -46 -97 -66 -156 -66c-141 0 -222 117 -222 249c0 123 85 247 216 247c47 0 113 -16 150 -46c17 -13 16 -47 17 -65c2 -21 6 -50 -25 -50c-42 0 -24 106 -143 106c-103 0 -131 -112 -131 -195c0 -90 43 -187 146 -187c54 0 83 18 112 60z" />
    <glyph glyph-name="degree" unicode="&#xb0;" horiz-adv-x="400" 
d="M350 600c0 -83 -68 -150 -150 -150c-83 0 -150 67 -150 150c-1 82 67 150 150 150c82 0 150 -68 150 -150zM200 507c53 0 93 39 93 93c0 53 -40 93 -94 93c-53 0 -93 -40 -92 -93c0 -54 39 -93 93 -93z" />
    <glyph glyph-name="divide" unicode="&#xf7;" horiz-adv-x="660" 
d="M78 240v95h504v-95h-504zM330 0c-42 0 -75 29 -75 75s33 75 75 75s75 -29 75 -75s-33 -75 -75 -75zM330 425c-42 0 -75 29 -75 75s33 75 75 75s75 -29 75 -75s-33 -75 -75 -75z" />
    <glyph glyph-name="eacute" unicode="&#xe9;" horiz-adv-x="560" 
d="M203 172c14 -63 64 -107 129 -107c54 0 95 24 135 60c14 12 21 22 41 22c14 0 29 -12 29 -27c0 -36 -54 -78 -81 -93c-52 -31 -104 -42 -166 -42c-136 0 -269 89 -269 236c0 168 145 268 301 268c89 0 205 -41 205 -146c0 -74 -76 -116 -137 -136
c-60 -19 -125 -25 -187 -35zM194 239c66 5 177 32 177 115c0 38 -20 65 -60 65c-84 0 -122 -110 -117 -180zM355 660l-128 -95c-11 -8 -27 -22 -41 -22c-12 0 -23 8 -23 20c0 11 10 25 15 33l52 91c19 33 21 41 60 42h45c21 2 52 4 52 -27c0 -21 -17 -31 -32 -42z" />
    <glyph glyph-name="ecircumflex" unicode="&#xea;" horiz-adv-x="560" 
d="M203 172c14 -63 64 -107 129 -107c54 0 95 24 135 60c14 12 21 22 41 22c14 0 29 -12 29 -27c0 -36 -54 -78 -81 -93c-52 -31 -104 -42 -166 -42c-136 0 -269 89 -269 236c0 168 145 268 301 268c89 0 205 -41 205 -146c0 -74 -76 -116 -137 -136
c-60 -19 -125 -25 -187 -35zM194 239c66 5 177 32 177 115c0 38 -20 65 -60 65c-84 0 -122 -110 -117 -180zM280 634l-129 -81c-11 -7 -26 -17 -39 -17c-10 0 -19 10 -19 19c0 15 12 26 22 36l102 106c15 16 39 43 62 43s48 -28 62 -42l103 -105c10 -10 23 -23 23 -38
c0 -9 -9 -20 -19 -20c-12 0 -29 12 -39 18z" />
    <glyph glyph-name="edieresis" unicode="&#xeb;" horiz-adv-x="560" 
d="M203 172c14 -63 64 -107 129 -107c54 0 95 24 135 60c14 12 21 22 41 22c14 0 29 -12 29 -27c0 -36 -54 -78 -81 -93c-52 -31 -104 -42 -166 -42c-136 0 -269 89 -269 236c0 168 145 268 301 268c89 0 205 -41 205 -146c0 -74 -76 -116 -137 -136
c-60 -19 -125 -25 -187 -35zM194 239c66 5 177 32 177 115c0 38 -20 65 -60 65c-84 0 -122 -110 -117 -180zM163 566c-39 0 -76 30 -76 71c0 42 36 72 77 72c42 0 75 -29 75 -72c0 -40 -37 -71 -76 -71zM397 565c-40 0 -75 32 -75 73c0 39 35 70 73 70c44 0 79 -27 79 -72
c0 -41 -39 -71 -77 -71z" />
    <glyph glyph-name="egrave" unicode="&#xe8;" horiz-adv-x="560" 
d="M203 172c14 -63 64 -107 129 -107c54 0 95 24 135 60c14 12 21 22 41 22c14 0 29 -12 29 -27c0 -36 -54 -78 -81 -93c-52 -31 -104 -42 -166 -42c-136 0 -269 89 -269 236c0 168 145 268 301 268c89 0 205 -41 205 -146c0 -74 -76 -116 -137 -136
c-60 -19 -125 -25 -187 -35zM194 239c66 5 177 32 177 115c0 38 -20 65 -60 65c-84 0 -122 -110 -117 -180zM215 731h44c40 -2 42 -10 61 -43l52 -91c5 -8 15 -23 15 -33c0 -12 -11 -20 -23 -20c-14 0 -30 14 -41 22l-128 95c-15 12 -32 21 -32 42c0 31 31 29 52 28z" />
    <glyph glyph-name="eth" unicode="&#xf0;" horiz-adv-x="660" 
d="M321 419c-90 0 -123 -107 -123 -173c0 -74 26 -191 116 -191c88 0 130 113 130 197c0 72 -35 167 -123 167zM297 723l72 52c45 32 74 54 103 28c34 -31 3 -58 -49 -94l-37 -26c137 -80 230 -222 230 -386c0 -191 -108 -312 -303 -312c-156 0 -287 92 -287 256
c0 134 104 248 234 248c55 0 101 -13 149 -44c-11 56 -48 127 -113 172l-75 -54c-43 -31 -76 -44 -99 -19c-22 24 -9 46 41 82l46 34c-32 10 -67 16 -105 17c-31 1 -80 4 -80 34c0 40 75 39 113 39c55 0 109 -9 160 -27z" />
    <glyph glyph-name="iacute" unicode="&#xed;" horiz-adv-x="300" 
d="M78 129v155c0 23 0 54 -4 76c-3 20 -13 23 -30 32c-13 7 -27 12 -27 29c0 24 33 34 49 39c38 12 86 29 125 29c17 0 28 -5 37 -20c13 -24 13 -73 13 -100v-242c0 -31 -6 -52 24 -69c10 -6 19 -13 19 -27c0 -28 -24 -31 -46 -31h-165c-20 0 -39 8 -39 31c0 13 8 21 18 27
c8 4 16 8 20 16c7 12 6 42 6 55zM225 660l-128 -95c-11 -8 -27 -22 -41 -22c-12 0 -23 8 -23 20c0 11 10 25 15 33l52 91c19 33 21 41 60 42h45c21 2 52 4 52 -27c0 -21 -17 -31 -32 -42z" />
    <glyph glyph-name="icircumflex" unicode="&#xee;" horiz-adv-x="300" 
d="M78 129v155c0 23 0 54 -4 76c-3 20 -13 23 -30 32c-13 7 -27 12 -27 29c0 24 33 34 49 39c38 12 86 29 125 29c17 0 28 -5 37 -20c13 -24 13 -73 13 -100v-242c0 -31 -6 -52 24 -69c10 -6 19 -13 19 -27c0 -28 -24 -31 -46 -31h-165c-20 0 -39 8 -39 31c0 13 8 21 18 27
c8 4 16 8 20 16c7 12 6 42 6 55zM150 634l-129 -81c-11 -7 -26 -17 -39 -17c-10 0 -19 10 -19 19c0 15 12 26 22 36l102 106c15 16 39 43 62 43s48 -28 62 -42l103 -105c10 -10 23 -23 23 -38c0 -9 -9 -20 -19 -20c-12 0 -29 12 -39 18z" />
    <glyph glyph-name="idieresis" unicode="&#xef;" horiz-adv-x="300" 
d="M78 129v155c0 23 0 54 -4 76c-3 20 -13 23 -30 32c-13 7 -27 12 -27 29c0 24 33 34 49 39c38 12 86 29 125 29c17 0 28 -5 37 -20c13 -24 13 -73 13 -100v-242c0 -31 -6 -52 24 -69c10 -6 19 -13 19 -27c0 -28 -24 -31 -46 -31h-165c-20 0 -39 8 -39 31c0 13 8 21 18 27
c8 4 16 8 20 16c7 12 6 42 6 55zM33 566c-39 0 -76 30 -76 71c0 42 36 72 77 72c42 0 75 -29 75 -72c0 -40 -37 -71 -76 -71zM267 565c-40 0 -75 32 -75 73c0 39 35 70 73 70c44 0 79 -27 79 -72c0 -41 -39 -71 -77 -71z" />
    <glyph glyph-name="igrave" unicode="&#xec;" horiz-adv-x="300" 
d="M78 129v155c0 23 0 54 -4 76c-3 20 -13 23 -30 32c-13 7 -27 12 -27 29c0 24 33 34 49 39c38 12 86 29 125 29c17 0 28 -5 37 -20c13 -24 13 -73 13 -100v-242c0 -31 -6 -52 24 -69c10 -6 19 -13 19 -27c0 -28 -24 -31 -46 -31h-165c-20 0 -39 8 -39 31c0 13 8 21 18 27
c8 4 16 8 20 16c7 12 6 42 6 55zM85 731h44c40 -2 42 -10 61 -43l52 -91c5 -8 15 -23 15 -33c0 -12 -11 -20 -23 -20c-14 0 -30 14 -41 22l-128 95c-15 12 -32 21 -32 42c0 31 31 29 52 28z" />
    <glyph glyph-name="logicalnot" unicode="&#xac;" horiz-adv-x="660" 
d="M502 99v221h-439v95h534v-316h-95z" />
    <glyph glyph-name="minus" unicode="&#x2212;" horiz-adv-x="660" 
d="M78 240v95h504v-95h-504z" />
    <glyph glyph-name="mu" unicode="&#xb5;" horiz-adv-x="620" 
d="M383 181v154c0 34 4 50 -22 68c-9 7 -17 13 -17 26c0 10 6 18 15 24c21 13 74 23 99 28c15 3 29 6 45 6c25 0 37 -9 43 -23v-327c0 -14 -1 -42 5 -55c5 -10 13 -15 22 -19c14 -7 25 -14 25 -31c0 -32 -30 -32 -54 -32h-86c-49 0 -56 13 -63 60c-48 -50 -94 -75 -141 -73
c-29 1 -69 25 -103 71v-88c0 -34 19 -81 19 -111s-29 -43 -64 -43s-64 13 -64 43s19 77 19 111v365c0 34 4 50 -22 68c-9 7 -17 13 -17 26c0 10 6 18 15 24c21 13 74 23 99 28c1 3 20 8 34 8c53 0 54 -39 54 -82v-229c0 -50 2 -110 68 -110c26 0 57 15 73 35
c18 22 18 52 18 78z" />
    <glyph glyph-name="multiply" unicode="&#xd7;" horiz-adv-x="660" 
d="M70 95l193 193l-192 192l67 67l192 -192l192 192l67 -67l-192 -192l193 -193l-67 -67l-193 193l-193 -193z" />
    <glyph glyph-name="ntilde" unicode="&#xf1;" horiz-adv-x="620" 
d="M561 291v-164c0 -13 -1 -40 4 -53c4 -7 12 -12 19 -17c10 -6 18 -13 18 -26c0 -23 -18 -31 -38 -31h-169c-20 0 -38 8 -38 31c0 13 8 20 18 26c7 5 15 10 19 17c5 13 4 40 4 53v161c0 55 -2 117 -74 117c-33 0 -60 -13 -77 -41c-15 -24 -15 -55 -15 -82v-155
c0 -13 -1 -40 4 -53c4 -7 12 -12 19 -17c10 -6 18 -13 18 -26c0 -23 -18 -31 -38 -31h-169c-20 0 -38 8 -38 31c0 13 8 20 18 26c7 5 15 10 19 17c5 13 4 40 4 53v191c0 35 4 53 -30 70c-10 4 -21 11 -21 27c0 36 123 74 154 74c34 0 41 -46 45 -72c40 49 94 72 159 72
c51 0 106 -15 142 -53c36 -39 43 -95 43 -145zM314 590l-55 27c-17 8 -33 17 -53 17c-24 0 -36 -15 -48 -33c-6 -9 -13 -24 -26 -24s-19 9 -19 21c0 23 16 50 30 66c27 32 64 51 106 51c71 0 115 -59 164 -59c42 0 57 47 75 47c13 0 19 -9 19 -21c0 -18 -15 -41 -26 -54
c-30 -36 -67 -53 -114 -53c-22 0 -33 5 -53 15z" />
    <glyph glyph-name="oacute" unicode="&#xf3;" horiz-adv-x="620" 
d="M309 -15c-69 0 -140 18 -194 62c-57 47 -89 115 -89 188c0 70 34 136 85 182c58 51 131 72 207 72c141 0 277 -99 277 -249c0 -157 -141 -255 -286 -255zM310 54c100 0 113 114 113 192c0 72 -22 171 -111 171c-91 0 -114 -102 -114 -176c0 -75 16 -187 112 -187z
M385 660l-128 -95c-11 -8 -27 -22 -41 -22c-12 0 -23 8 -23 20c0 11 10 25 15 33l52 91c19 33 21 41 60 42h45c21 2 52 4 52 -27c0 -21 -17 -31 -32 -42z" />
    <glyph glyph-name="ocircumflex" unicode="&#xf4;" horiz-adv-x="620" 
d="M309 -15c-69 0 -140 18 -194 62c-57 47 -89 115 -89 188c0 70 34 136 85 182c58 51 131 72 207 72c141 0 277 -99 277 -249c0 -157 -141 -255 -286 -255zM310 54c100 0 113 114 113 192c0 72 -22 171 -111 171c-91 0 -114 -102 -114 -176c0 -75 16 -187 112 -187z
M310 634l-129 -81c-11 -7 -26 -17 -39 -17c-10 0 -19 10 -19 19c0 15 12 26 22 36l102 106c15 16 39 43 62 43s48 -28 62 -42l103 -105c10 -10 23 -23 23 -38c0 -9 -9 -20 -19 -20c-12 0 -29 12 -39 18z" />
    <glyph glyph-name="odieresis" unicode="&#xf6;" horiz-adv-x="620" 
d="M309 -15c-69 0 -140 18 -194 62c-57 47 -89 115 -89 188c0 70 34 136 85 182c58 51 131 72 207 72c141 0 277 -99 277 -249c0 -157 -141 -255 -286 -255zM310 54c100 0 113 114 113 192c0 72 -22 171 -111 171c-91 0 -114 -102 -114 -176c0 -75 16 -187 112 -187z
M193 566c-39 0 -76 30 -76 71c0 42 36 72 77 72c42 0 75 -29 75 -72c0 -40 -37 -71 -76 -71zM427 565c-40 0 -75 32 -75 73c0 39 35 70 73 70c44 0 79 -27 79 -72c0 -41 -39 -71 -77 -71z" />
    <glyph glyph-name="ograve" unicode="&#xf2;" horiz-adv-x="620" 
d="M309 -15c-69 0 -140 18 -194 62c-57 47 -89 115 -89 188c0 70 34 136 85 182c58 51 131 72 207 72c141 0 277 -99 277 -249c0 -157 -141 -255 -286 -255zM310 54c100 0 113 114 113 192c0 72 -22 171 -111 171c-91 0 -114 -102 -114 -176c0 -75 16 -187 112 -187z
M245 731h44c40 -2 42 -10 61 -43l52 -91c5 -8 15 -23 15 -33c0 -12 -11 -20 -23 -20c-14 0 -30 14 -41 22l-128 95c-15 12 -32 21 -32 42c0 31 31 29 52 28z" />
    <glyph glyph-name="onehalf" unicode="&#xbd;" horiz-adv-x="1020" 
d="M742 706l-394 -668c-17 -28 -21 -38 -55 -38c-11 0 -33 0 -33 16c0 7 12 26 16 32l395 664c17 29 21 38 56 38c8 0 30 0 30 -13c0 -9 -11 -24 -15 -31zM259 710v-316c0 -32 0 -48 39 -51c17 -2 39 -1 39 -22c0 -17 -14 -21 -30 -21h-215c-18 0 -35 1 -35 21
c0 19 26 20 41 22c42 3 43 13 43 48v227c0 36 -3 46 -47 46h-20c-14 0 -28 3 -28 19c0 17 18 19 33 21c29 5 61 14 88 26c17 9 39 20 58 20c29 0 34 -17 34 -40zM919 0h-262c-18 0 -38 1 -38 23c0 36 57 96 84 121l58 54c41 38 94 89 94 146c0 35 -25 66 -63 66
c-33 0 -72 -28 -72 -61c0 -20 16 -28 16 -42c0 -23 -29 -32 -49 -32c-36 0 -59 22 -59 55c0 83 107 120 182 120c78 0 167 -34 167 -117c0 -62 -52 -111 -99 -149l-120 -109h98c36 0 53 1 82 22c7 6 18 15 29 15c9 0 17 -8 17 -17c0 -6 -17 -56 -19 -67
c-7 -28 -18 -28 -46 -28z" />
    <glyph glyph-name="onequarter" unicode="&#xbc;" horiz-adv-x="1020" 
d="M769 706l-394 -668c-17 -28 -21 -38 -55 -38c-11 0 -33 0 -33 16c0 7 12 26 16 32l395 664c17 29 21 38 56 38c8 0 30 0 30 -13c0 -9 -11 -24 -15 -31zM271 710v-316c0 -32 0 -48 39 -51c17 -2 39 -1 39 -22c0 -17 -14 -21 -30 -21h-215c-18 0 -35 1 -35 21
c0 19 26 20 41 22c42 3 43 13 43 48v227c0 36 -3 46 -47 46h-20c-14 0 -28 3 -28 19c0 17 18 19 33 21c29 5 61 14 88 26c17 9 39 20 58 20c29 0 34 -17 34 -40zM932 114v-42c0 -7 0 -20 5 -26c4 -7 12 -8 19 -11c9 -3 14 -7 14 -16c0 -17 -18 -19 -33 -19h-130
c-15 0 -35 -1 -35 19c0 12 11 15 22 18c9 2 14 2 18 10c2 7 2 18 2 24v42h-146c-19 0 -45 -2 -45 23c0 66 134 259 197 300c17 12 31 14 53 14c49 0 59 -4 59 -50v-242h45c19 0 32 -2 32 -22s-13 -22 -29 -22h-48zM814 158v209c-55 -63 -103 -132 -132 -209h132z" />
    <glyph glyph-name="onesuperior" unicode="&#xb9;" horiz-adv-x="408" 
d="M271 710v-316c0 -32 0 -48 39 -51c17 -2 39 -1 39 -22c0 -17 -14 -21 -30 -21h-215c-18 0 -35 1 -35 21c0 19 26 20 41 22c42 3 43 13 43 48v227c0 36 -3 46 -47 46h-20c-14 0 -28 3 -28 19c0 17 18 19 33 21c29 5 61 14 88 26c17 9 39 20 58 20c29 0 34 -17 34 -40z" />
    <glyph glyph-name="otilde" unicode="&#xf5;" horiz-adv-x="620" 
d="M309 -15c-69 0 -140 18 -194 62c-57 47 -89 115 -89 188c0 70 34 136 85 182c58 51 131 72 207 72c141 0 277 -99 277 -249c0 -157 -141 -255 -286 -255zM310 54c100 0 113 114 113 192c0 72 -22 171 -111 171c-91 0 -114 -102 -114 -176c0 -75 16 -187 112 -187z
M314 590l-55 27c-17 8 -33 17 -53 17c-24 0 -36 -15 -48 -33c-6 -9 -13 -24 -26 -24s-19 9 -19 21c0 23 16 50 30 66c27 32 64 51 106 51c71 0 115 -59 164 -59c42 0 57 47 75 47c13 0 19 -9 19 -21c0 -18 -15 -41 -26 -54c-30 -36 -67 -53 -114 -53c-22 0 -33 5 -53 15z
" />
    <glyph glyph-name="plusminus" unicode="&#xb1;" horiz-adv-x="660" 
d="M70 415h213v132h95v-132h212v-95h-212v-133h-95v133h-213v95zM70 122h520v-95h-520v95z" />
    <glyph glyph-name="registered" unicode="&#xae;" horiz-adv-x="840" 
d="M36 366c0 210 171 381 381 381c211 0 382 -171 382 -381s-171 -381 -382 -381c-210 0 -381 171 -381 381zM82 366c0 -185 151 -335 335 -335c185 0 336 150 336 335s-151 335 -336 335c-184 0 -335 -150 -335 -335zM432 346l-102 -21v-106c0 -20 -6 -29 15 -34
c15 -4 27 -8 27 -27c0 -24 -24 -24 -41 -24h-70c-20 0 -43 -2 -43 26c0 14 10 20 22 23c3 1 11 2 14 6c1 7 1 50 1 56v248c0 10 1 46 -1 55c-1 5 -7 5 -11 6c-13 5 -25 9 -25 25c0 29 24 26 43 26h187c37 0 74 -3 104 -26c27 -19 47 -53 47 -87c0 -58 -46 -101 -96 -125
c40 -49 64 -82 86 -142c9 -22 8 -32 29 -43c11 -7 20 -10 20 -24c0 -25 -23 -24 -41 -24h-69c-18 0 -41 -1 -41 24c0 27 32 17 32 35c0 44 -57 123 -87 153zM329 473v-92c59 9 193 33 193 108c0 67 -79 67 -127 67c-76 0 -66 -6 -66 -83z" />
    <glyph glyph-name="scaron" unicode="&#x161;" horiz-adv-x="500" 
d="M275 311l47 -12c76 -20 146 -48 146 -141c0 -56 -33 -104 -80 -134c-45 -27 -102 -39 -155 -39c-47 0 -90 7 -132 26c-34 15 -79 45 -79 86c0 24 18 46 42 46c23 0 32 -13 46 -29c32 -35 53 -58 103 -58c34 0 85 16 85 59c0 102 -260 24 -260 204c0 124 125 170 229 170
c46 0 119 -12 158 -38c21 -13 21 -45 21 -67s-1 -49 -30 -49c-45 0 -41 86 -138 86c-34 0 -76 -16 -76 -56c0 -36 45 -47 73 -54zM250 642l129 81c10 6 27 18 39 18c10 0 19 -10 19 -20c0 -15 -13 -28 -23 -37l-103 -105c-14 -15 -39 -43 -62 -43s-47 28 -62 43l-102 106
c-10 10 -22 21 -22 36c0 10 9 20 19 20c13 0 28 -11 39 -18z" />
    <glyph glyph-name="thorn" unicode="&#xfe;" horiz-adv-x="640" 
d="M381 489c145 0 234 -111 234 -250c0 -142 -103 -254 -244 -254c-34 0 -104 13 -104 59c0 13 8 25 22 25c15 0 30 -3 46 -3c83 0 108 101 108 167s-23 171 -107 171c-28 0 -52 -11 -70 -32c-23 -26 -24 -63 -24 -95v-326c0 -14 0 -42 5 -55c4 -9 14 -14 22 -18
c13 -7 24 -14 24 -30c0 -32 -30 -32 -54 -32h-157c-24 0 -54 0 -54 32c0 16 11 23 24 30c8 4 18 9 22 18c5 13 5 41 5 55v594c0 35 4 53 -30 70c-10 4 -21 11 -21 27c0 36 123 74 154 74c34 0 41 -46 45 -72v-227c44 47 94 72 154 72z" />
    <glyph glyph-name="threequarters" unicode="&#xbe;" horiz-adv-x="1020" 
d="M786 706l-394 -668c-17 -28 -21 -38 -55 -38c-11 0 -33 0 -33 16c0 7 12 26 16 32l395 664c17 29 21 38 56 38c8 0 30 0 30 -13c0 -9 -11 -24 -15 -31zM187 511l-34 1c-18 1 -32 3 -32 23c0 19 22 19 38 19c63 5 97 23 97 88c0 34 -15 68 -57 68c-25 0 -48 -13 -48 -37
c0 -12 4 -23 4 -33c0 -21 -27 -27 -45 -27c-29 0 -55 9 -55 39c0 73 102 98 164 98c73 0 159 -34 159 -112c0 -54 -46 -86 -99 -97v-2c63 -9 120 -51 120 -113c0 -94 -102 -135 -190 -135c-59 0 -176 20 -176 94c0 29 22 42 51 42c28 0 41 -6 45 -33c4 -36 17 -63 63 -63
c60 0 85 39 85 90c0 55 -30 89 -90 90zM944 114v-42c0 -7 0 -20 5 -26c4 -7 12 -8 19 -11c9 -3 14 -7 14 -16c0 -17 -18 -19 -33 -19h-130c-15 0 -35 -1 -35 19c0 12 11 15 22 18c9 2 14 2 18 10c2 7 2 18 2 24v42h-146c-19 0 -45 -2 -45 23c0 66 134 259 197 300
c17 12 31 14 53 14c49 0 59 -4 59 -50v-242h45c19 0 32 -2 32 -22s-13 -22 -29 -22h-48zM826 158v209c-55 -63 -103 -132 -132 -209h132z" />
    <glyph glyph-name="threesuperior" unicode="&#xb3;" horiz-adv-x="408" 
d="M175 511l-34 1c-18 1 -32 3 -32 23c0 19 22 19 38 19c63 5 97 23 97 88c0 34 -15 68 -57 68c-25 0 -48 -13 -48 -37c0 -12 4 -23 4 -33c0 -21 -27 -27 -45 -27c-29 0 -55 9 -55 39c0 73 102 98 164 98c73 0 159 -34 159 -112c0 -54 -46 -86 -99 -97v-2
c63 -9 120 -51 120 -113c0 -94 -102 -135 -190 -135c-59 0 -176 20 -176 94c0 29 22 42 51 42c28 0 41 -6 45 -33c4 -36 17 -63 63 -63c60 0 85 39 85 90c0 55 -30 89 -90 90z" />
    <glyph glyph-name="trademark" unicode="&#x2122;" horiz-adv-x="840" 
d="M695 612l-67 -180c-5 -12 -19 -50 -35 -50c-11 0 -17 8 -22 17l-42 95l-47 133l-2 -287c2 -8 12 -12 19 -15c12 -4 20 -9 20 -24c0 -30 -41 -21 -60 -21c-18 0 -54 -8 -54 22c0 10 4 17 13 22c16 8 13 13 14 30l5 290c0 4 1 28 0 32c-2 5 -7 6 -11 8c-14 5 -22 9 -22 26
c0 24 16 22 35 22h43c22 0 27 4 35 -18l5 -17l75 -214c20 29 29 65 39 98l34 111c11 44 13 40 59 40c22 0 53 9 53 -22c0 -15 -5 -22 -19 -28c-14 -7 -13 -14 -13 -30v-26l8 -284c2 -25 25 -15 25 -40c0 -22 -16 -22 -33 -22h-49c-15 0 -37 -1 -37 21c0 14 7 19 19 23
c7 3 15 6 15 16zM255 279h-61c-17 0 -35 0 -35 23c0 13 6 18 17 21c22 7 18 16 18 38v308c-1 15 3 18 -10 18c-10 0 -30 -4 -41 -6c-26 -7 -40 -15 -54 -40c-4 -9 -8 -18 -20 -18c-13 0 -18 12 -18 23c0 10 4 24 6 34c9 48 3 52 44 52h247c40 0 35 -9 42 -46
c3 -12 6 -25 6 -37s-5 -24 -19 -24c-9 0 -13 7 -16 15c-18 34 -40 40 -78 44c-27 3 -27 8 -27 -13v-310c0 -15 -4 -31 13 -36c11 -4 22 -8 22 -23c0 -23 -19 -23 -36 -23z" />
    <glyph glyph-name="twosuperior" unicode="&#xb2;" horiz-adv-x="408" 
d="M321 300h-262c-18 0 -38 1 -38 23c0 36 57 96 84 121l58 54c41 38 94 89 94 146c0 35 -25 66 -63 66c-33 0 -72 -28 -72 -61c0 -20 16 -28 16 -42c0 -23 -29 -32 -49 -32c-36 0 -59 22 -59 55c0 83 107 120 182 120c78 0 167 -34 167 -117c0 -62 -52 -111 -99 -149
l-120 -109h98c36 0 53 1 82 22c7 6 18 15 29 15c9 0 17 -8 17 -17c0 -6 -17 -56 -19 -67c-7 -28 -18 -28 -46 -28z" />
    <glyph glyph-name="uacute" unicode="&#xfa;" horiz-adv-x="620" 
d="M61 169v166c0 34 4 50 -22 68c-9 7 -17 13 -17 26c0 10 6 18 15 24c21 13 74 23 99 28c1 3 20 8 34 8c53 0 54 -39 54 -82v-229c0 -50 2 -110 68 -110c26 0 57 15 73 35c18 22 18 52 18 78v154c0 34 4 50 -22 68c-9 7 -17 13 -17 26c0 10 6 18 15 24c21 13 74 23 99 28
c15 3 29 6 45 6c25 0 37 -9 43 -23v-327c0 -14 -1 -42 5 -55c5 -10 13 -15 22 -19c14 -7 25 -14 25 -31c0 -32 -30 -32 -54 -32h-86c-49 0 -56 13 -63 60c-48 -50 -102 -75 -170 -75c-65 0 -112 24 -145 75c-9 14 -19 58 -19 109zM385 660l-128 -95c-11 -8 -27 -22 -41 -22
c-12 0 -23 8 -23 20c0 11 10 25 15 33l52 91c19 33 21 41 60 42h45c21 2 52 4 52 -27c0 -21 -17 -31 -32 -42z" />
    <glyph glyph-name="ucircumflex" unicode="&#xfb;" horiz-adv-x="620" 
d="M61 169v166c0 34 4 50 -22 68c-9 7 -17 13 -17 26c0 10 6 18 15 24c21 13 74 23 99 28c1 3 20 8 34 8c53 0 54 -39 54 -82v-229c0 -50 2 -110 68 -110c26 0 57 15 73 35c18 22 18 52 18 78v154c0 34 4 50 -22 68c-9 7 -17 13 -17 26c0 10 6 18 15 24c21 13 74 23 99 28
c15 3 29 6 45 6c25 0 37 -9 43 -23v-327c0 -14 -1 -42 5 -55c5 -10 13 -15 22 -19c14 -7 25 -14 25 -31c0 -32 -30 -32 -54 -32h-86c-49 0 -56 13 -63 60c-48 -50 -102 -75 -170 -75c-65 0 -112 24 -145 75c-9 14 -19 58 -19 109zM310 634l-129 -81c-11 -7 -26 -17 -39 -17
c-10 0 -19 10 -19 19c0 15 12 26 22 36l102 106c15 16 39 43 62 43s48 -28 62 -42l103 -105c10 -10 23 -23 23 -38c0 -9 -9 -20 -19 -20c-12 0 -29 12 -39 18z" />
    <glyph glyph-name="udieresis" unicode="&#xfc;" horiz-adv-x="620" 
d="M61 169v166c0 34 4 50 -22 68c-9 7 -17 13 -17 26c0 10 6 18 15 24c21 13 74 23 99 28c1 3 20 8 34 8c53 0 54 -39 54 -82v-229c0 -50 2 -110 68 -110c26 0 57 15 73 35c18 22 18 52 18 78v154c0 34 4 50 -22 68c-9 7 -17 13 -17 26c0 10 6 18 15 24c21 13 74 23 99 28
c15 3 29 6 45 6c25 0 37 -9 43 -23v-327c0 -14 -1 -42 5 -55c5 -10 13 -15 22 -19c14 -7 25 -14 25 -31c0 -32 -30 -32 -54 -32h-86c-49 0 -56 13 -63 60c-48 -50 -102 -75 -170 -75c-65 0 -112 24 -145 75c-9 14 -19 58 -19 109zM193 566c-39 0 -76 30 -76 71
c0 42 36 72 77 72c42 0 75 -29 75 -72c0 -40 -37 -71 -76 -71zM427 565c-40 0 -75 32 -75 73c0 39 35 70 73 70c44 0 79 -27 79 -72c0 -41 -39 -71 -77 -71z" />
    <glyph glyph-name="ugrave" unicode="&#xf9;" horiz-adv-x="620" 
d="M61 169v166c0 34 4 50 -22 68c-9 7 -17 13 -17 26c0 10 6 18 15 24c21 13 74 23 99 28c1 3 20 8 34 8c53 0 54 -39 54 -82v-229c0 -50 2 -110 68 -110c26 0 57 15 73 35c18 22 18 52 18 78v154c0 34 4 50 -22 68c-9 7 -17 13 -17 26c0 10 6 18 15 24c21 13 74 23 99 28
c15 3 29 6 45 6c25 0 37 -9 43 -23v-327c0 -14 -1 -42 5 -55c5 -10 13 -15 22 -19c14 -7 25 -14 25 -31c0 -32 -30 -32 -54 -32h-86c-49 0 -56 13 -63 60c-48 -50 -102 -75 -170 -75c-65 0 -112 24 -145 75c-9 14 -19 58 -19 109zM245 731h44c40 -2 42 -10 61 -43l52 -91
c5 -8 15 -23 15 -33c0 -12 -11 -20 -23 -20c-14 0 -30 14 -41 22l-128 95c-15 12 -32 21 -32 42c0 31 31 29 52 28z" />
    <glyph glyph-name="yacute" unicode="&#xfd;" horiz-adv-x="540" 
d="M46 481h130c27 0 63 3 63 -33c0 -26 -34 -24 -34 -71c0 -55 14 -129 32 -181c10 -28 43 -113 80 -113c61 0 94 235 94 282c0 31 0 43 -26 58c-11 7 -21 16 -21 30c0 33 35 28 57 28h57c21 0 63 6 63 -26c0 -13 -8 -23 -16 -32c-6 -8 -10 -12 -13 -22
c-7 -18 -13 -70 -17 -91c-26 -172 -145 -505 -356 -505c-36 0 -89 19 -89 62c0 33 29 53 59 53c32 0 60 -22 77 -22c22 0 59 33 73 49c18 20 32 43 44 67c-16 -4 -32 -6 -48 -6c-44 0 -92 24 -122 54c-62 64 -89 239 -102 327c-7 46 -34 34 -34 64c0 27 30 29 49 28z
M375 660l-128 -95c-11 -8 -27 -22 -41 -22c-12 0 -23 8 -23 20c0 11 10 25 15 33l52 91c19 33 21 41 60 42h45c21 2 52 4 52 -27c0 -21 -17 -31 -32 -42z" />
    <glyph glyph-name="ydieresis" unicode="&#xff;" horiz-adv-x="540" 
d="M46 481h130c27 0 63 3 63 -33c0 -26 -34 -24 -34 -71c0 -55 14 -129 32 -181c10 -28 43 -113 80 -113c61 0 94 235 94 282c0 31 0 43 -26 58c-11 7 -21 16 -21 30c0 33 35 28 57 28h57c21 0 63 6 63 -26c0 -13 -8 -23 -16 -32c-6 -8 -10 -12 -13 -22
c-7 -18 -13 -70 -17 -91c-26 -172 -145 -505 -356 -505c-36 0 -89 19 -89 62c0 33 29 53 59 53c32 0 60 -22 77 -22c22 0 59 33 73 49c18 20 32 43 44 67c-16 -4 -32 -6 -48 -6c-44 0 -92 24 -122 54c-62 64 -89 239 -102 327c-7 46 -34 34 -34 64c0 27 30 29 49 28z
M153 566c-39 0 -76 30 -76 71c0 42 36 72 77 72c42 0 75 -29 75 -72c0 -40 -37 -71 -76 -71zM387 565c-40 0 -75 32 -75 73c0 39 35 70 73 70c44 0 79 -27 79 -72c0 -41 -39 -71 -77 -71z" />
    <glyph glyph-name="zcaron" unicode="&#x17e;" horiz-adv-x="500" 
d="M401 0h-307c-32 0 -77 2 -77 45c0 30 24 63 42 87l224 286h-75c-43 0 -73 -3 -100 -41c-10 -15 -21 -33 -41 -33c-17 0 -27 14 -27 31c0 22 7 67 15 87c9 20 31 19 49 19h303c29 0 68 2 68 -38c0 -35 -38 -83 -58 -111l-201 -264h75c23 0 43 0 66 7c28 8 38 20 54 45
c9 13 19 27 37 27c16 0 26 -9 26 -26c0 -22 -9 -72 -16 -92c-9 -27 -32 -29 -57 -29zM250 642l129 81c10 6 27 18 39 18c10 0 19 -10 19 -20c0 -15 -13 -28 -23 -37l-103 -105c-14 -15 -39 -43 -62 -43s-47 28 -62 43l-102 106c-10 10 -22 21 -22 36c0 10 9 20 19 20
c13 0 28 -11 39 -18z" />
    </font>
</defs>
</svg>
