<svg width="57" height="57" viewBox="0 0 57 57" fill="none" xmlns="http://www.w3.org/2000/svg">
    <path d="M1.71424 1.00292C1.39083 1.74717 1.686 2.30049 2.15651 2.90251C5.93816 7.75183 9.67987 12.6255 13.4391 17.4904C14.2311 18.5162 14.649 18.5415 15.8677 18.1256C16.5622 17.8898 16.9061 17.3258 17.438 16.9507C19.925 15.2089 22.3857 13.4302 24.8571 11.6669C25.0705 11.5159 25.2974 11.3903 25.5381 11.2899C26.1722 11.025 26.2492 10.836 26.0719 10.1492C25.9092 9.50822 25.5322 8.97634 25.2224 8.41815C24.2191 6.61208 23.1952 4.81477 22.1198 3.05059C21.7067 2.37647 21.545 1.73841 21.8304 1" stroke="#FB3640" stroke-width="1.47368" stroke-linecap="round" stroke-linejoin="round"/>
    <path d="M39.6746 28.1502C39.4993 28.7386 39.586 29.2881 39.7184 29.8969C40.0906 31.5939 40.7296 33.2246 40.9566 34.9566C41.203 36.826 40.7871 38.6253 40.2737 40.4021C40.0243 41.2672 39.7097 42.1127 39.4243 42.9739C38.831 43.2447 38.2475 43.3129 37.625 42.9135C37.0941 42.5745 36.8087 42.1722 36.8768 41.5399C36.8778 41.5146 36.8778 41.4893 36.8768 41.464C36.8632 40.4294 36.5739 39.4601 36.8768 38.3438C37.2665 36.9273 36.5817 35.4515 36.1657 34.0594C35.4604 31.702 34.4522 29.478 32.5672 27.7674C32.1464 27.3865 31.8278 26.8946 31.4216 26.4942C30.6004 25.6847 29.3301 25.6028 28.5479 26.6452C28.0939 27.2501 28.1114 27.9252 28.4125 28.5302C29.5113 30.7415 30.6813 32.9168 31.7957 35.1203C32.6627 36.8465 34.1882 37.9658 35.5208 39.2633C35.7273 39.4631 36.1131 39.4777 36.4151 39.579" stroke="#292929" stroke-width="1.47368" stroke-linecap="round" stroke-linejoin="round"/>
    <path d="M14.795 25.3945C14.7433 25.4043 14.6927 25.416 14.643 25.4306C14.7472 26.1437 14.3137 26.8363 14.5651 27.5484C14.6333 27.675 14.6333 27.8017 14.5651 27.9283C13.9913 28.8041 14.0955 29.8406 13.89 30.802C13.587 32.2048 13.436 33.6319 13.1594 35.0376C12.9684 36.0069 12.872 37.0035 12.6879 37.9825C12.4609 39.1836 12.1774 40.4033 12.2018 41.6132C12.2115 42.2444 12.0878 42.8503 11.8326 43.428C11.7917 43.5322 11.742 43.6326 11.6835 43.728C11.6251 43.8235 11.5579 43.9131 11.4829 43.9969C11.4078 44.0807 11.326 44.1567 11.2374 44.2258C11.1487 44.294 11.0542 44.3544 10.9549 44.407C10.8555 44.4586 10.7522 44.5005 10.6451 44.5337C10.5379 44.5668 10.4288 44.5902 10.3168 44.6038C10.2057 44.6174 10.0937 44.6204 9.98169 44.6145C9.86966 44.6077 9.75958 44.5902 9.65048 44.5639C7.06801 43.9881 4.47385 43.4738 1.8602 43.051C1.70921 43.0276 1.61082 42.7626 1.40625 42.9351" stroke="#FB3640" stroke-width="1.47368" stroke-linecap="round" stroke-linejoin="round"/>
    <mask id="mask0_2212_14557" style="mask-type:luminance" maskUnits="userSpaceOnUse" x="42" y="24" width="15" height="22">
        <path d="M43.2915 25.1392H55.7423V44.6136H43.2915V25.1392Z" fill="white" stroke="white" stroke-width="1.47368"/>
    </mask>
    <g mask="url(#mask0_2212_14557)">
        <path d="M43.375 25.3906C43.6409 26.0112 43.6244 26.6707 43.5844 27.3175C43.5728 27.5026 43.4851 27.6672 43.6 27.8484C44.1592 28.7271 44.054 29.7636 44.2761 30.7231C44.5966 32.1464 44.73 33.6047 45.0125 35.0367C45.2152 35.9864 45.3662 36.945 45.4665 37.9104C45.5698 39.0813 45.9594 40.2055 45.9477 41.3901C45.9477 41.9297 45.9555 42.4577 46.165 42.9808C46.652 44.1907 47.3904 44.6934 48.6676 44.4002C50.6821 43.9355 52.7288 43.6189 54.7268 43.0773C55.0453 42.9828 55.3717 42.937 55.7038 42.9399" stroke="#FB3640" stroke-width="1.47368" stroke-linecap="round" stroke-linejoin="round"/>
    </g>
    <path d="M26.0625 11.2109C26.3372 11.7253 26.8077 12.0263 27.2724 12.3497C29.774 14.1061 32.2639 15.8878 34.7685 17.6306C35.3734 18.0524 35.8488 18.5385 36.1303 19.2233C36.3339 19.7221 36.6379 20.179 36.8746 20.666C37.1386 21.2164 37.2828 21.7922 37.1045 22.4039" stroke="#292929" stroke-width="1.47368" stroke-linecap="round" stroke-linejoin="round"/>
    <path d="M1.5625 22.1016C4.23459 22.7572 6.90669 23.4128 9.57975 24.0674C10.738 24.3509 11.8934 24.6499 13.0584 24.8896C13.5864 25.0016 14.091 25.1818 14.5713 25.4293" stroke="#FB3640" stroke-width="1.47368" stroke-linecap="round" stroke-linejoin="round"/>
    <mask id="mask1_2212_14557" style="mask-type:luminance" maskUnits="userSpaceOnUse" x="42" y="21" width="15" height="6">
        <path d="M43.2915 21.9009H55.7423V25.6643H43.2915V21.9009Z" fill="white" stroke="white" stroke-width="1.47368"/>
    </mask>
    <g mask="url(#mask1_2212_14557)">
        <path d="M55.5581 22.1055C51.7765 23.0884 47.9948 24.0742 44.2141 25.062C43.9716 25.1273 43.7602 25.3075 43.5312 25.4332" stroke="#FB3640" stroke-width="1.47368" stroke-linecap="round" stroke-linejoin="round"/>
    </g>
    <path d="M16.6094 18.0195C17.263 19.1408 17.6322 20.3838 18.1222 21.5742C18.6541 22.8679 19.4442 24.0164 20.1426 25.2166C20.9219 26.556 22.1922 27.4181 23.1245 28.5988C23.5853 29.1843 24.0178 29.7551 24.1824 30.4974C24.2379 30.6776 24.3324 30.8335 24.4669 30.965C25.366 32.0239 26.0099 33.2338 26.6616 34.4739C27.1867 35.4724 27.8024 36.5508 28.7288 37.2902C29.6279 38.011 30.5436 37.8961 31.2908 37.0817C31.5928 36.7563 31.8704 36.3949 32.2708 36.1748" stroke="#292929" stroke-width="1.47368" stroke-linecap="round" stroke-linejoin="round"/>
    <path d="M39.4531 43.0508C39.9227 43.4171 40.5013 43.7278 40.851 44.1438C41.4959 44.9104 42.399 45.5202 42.6357 46.6045C42.9825 48.1992 41.5242 49.1928 40.3669 49.1012L39.4599 49.0262" stroke="#292929" stroke-width="1.47368" stroke-linecap="round" stroke-linejoin="round"/>
    <path d="M34.6094 22.4056C35.34 22.1036 36.0716 22.4728 36.8022 22.4056C37.2561 22.3637 37.4071 22.7446 37.6341 23.0116C38.2391 23.7051 38.2887 24.6131 38.5157 25.4391C38.6433 25.9019 38.7748 26.3841 38.882 26.8594C38.9823 27.3037 39.3778 27.9953 39.6808 28.0148C40.4134 28.0615 41.1255 28.534 41.8668 28.2223C42.3841 28.008 42.914 27.8346 43.4576 27.7001" stroke="#292929" stroke-width="1.47368" stroke-linecap="round" stroke-linejoin="round"/>
    <path d="M32.7975 47.2852C32.7147 47.9476 32.9494 48.459 33.4725 48.8808C33.9343 49.249 34.3629 49.6523 34.7584 50.0917C35.5144 50.9431 35.4812 51.0473 34.926 52.1335C34.7682 52.4433 34.5655 52.7199 34.3171 52.9635C34.0678 53.207 33.7872 53.4038 33.4735 53.5548C32.9913 53.7983 32.4575 53.9727 31.9704 53.5548C31.6967 53.321 31.3431 53.4145 31.0625 53.2528" stroke="#292929" stroke-width="1.47368" stroke-linecap="round" stroke-linejoin="round"/>
    <path d="M24.1694 30.875C23.2615 31.4166 22.7315 32.3148 22.0623 33.0776C21.6083 33.6007 21.0619 34.0527 20.6868 34.6547C19.8169 36.0507 20.8125 37.6181 22.1256 37.9171C22.8397 38.0798 23.3219 37.7174 23.7895 37.3005C24.5318 36.6332 25.2585 35.9386 25.9842 35.2596C26.18 35.0609 26.407 34.9099 26.6661 34.8057" stroke="#292929" stroke-width="1.47368" stroke-linecap="round" stroke-linejoin="round"/>
    <path d="M35.8944 44.2617C35.7434 45.0313 36.06 45.5817 36.6406 46.0882C37.3654 46.7195 38.019 47.4316 38.6912 48.1203C39.4481 48.8957 39.5173 49.7131 38.8432 50.5323C38.2012 51.3058 37.4199 51.7763 36.3532 51.375C36.0551 51.2805 35.7522 51.2035 35.4453 51.1441" stroke="#292929" stroke-width="1.47368" stroke-linecap="round" stroke-linejoin="round"/>
    <path d="M45.7989 42.2969C44.1351 42.6817 42.4712 43.0665 41.1094 44.1877" stroke="#292929" stroke-width="1.47368" stroke-linecap="round" stroke-linejoin="round"/>
    <path d="M21.9039 45.1684C21.8805 44.7632 21.8221 44.3618 21.7276 43.9663C21.336 42.6249 20.1183 42.1037 18.811 42.5431C18.0365 42.8012 17.5767 43.5698 16.9279 44.0559C16.5831 44.3121 16.7857 45.9399 17.1423 46.3773C17.6069 46.9462 18.2012 47.2852 18.9581 47.2852C19.1851 47.2852 19.412 47.333 19.714 47.3651L21.8464 45.2259C23.9087 45.2113 24.9111 46.1747 24.8809 48.1006C25.14 48.1639 25.3349 48.2253 25.5433 48.2623C27.2072 48.5477 27.5861 48.9111 27.8881 50.5311C27.9154 50.6821 27.9378 50.8331 27.9641 50.985" stroke="#292929" stroke-width="1.47368" stroke-linecap="round" stroke-linejoin="round"/>
    <path d="M12.375 42.4453C13.9346 42.7736 15.4221 43.3026 16.8376 44.0342" stroke="#FB3640" stroke-width="1.47368" stroke-linecap="round" stroke-linejoin="round"/>
    <path d="M19.6328 47.4414C20.1735 50.1749 20.2758 49.7774 22.5825 50.3911" stroke="#292929" stroke-width="1.47368" stroke-linecap="round" stroke-linejoin="round"/>
    <mask id="mask2_2212_14557" style="mask-type:luminance" maskUnits="userSpaceOnUse" x="21" y="47" width="11" height="10">
        <path d="M22.5962 48.0806H31.0978V56.2598H22.5962V48.0806Z" fill="white" stroke="white" stroke-width="1.47368"/>
    </mask>
    <g mask="url(#mask2_2212_14557)">
        <path d="M24.8602 48.1914L22.7219 50.3316C22.6537 52.2887 23.6941 53.2414 25.5956 53.2823C25.6882 53.635 25.8285 53.9145 25.8441 54.2419C25.8781 55.0475 26.3146 55.6027 27.0539 55.9057C27.7495 56.1911 28.4665 56.1882 29.085 55.745C29.5595 55.4147 29.9676 55.0182 30.3105 54.5536C30.6447 54.0996 31.1288 53.6457 30.8911 53.0407C30.5434 52.1494 30.0105 51.4071 28.9457 51.2044C28.1898 51.0535 27.6229 51.2317 27.1202 51.8094C26.6799 52.3218 26.1704 52.7748 25.6911 53.2541" stroke="#292929" stroke-width="1.47368" stroke-linecap="round" stroke-linejoin="round"/>
    </g>
    <path d="M20.9582 26.6406C19.8301 27.2456 18.5998 27.6206 17.4522 28.1749C17.2496 28.2752 17.0353 28.3308 16.8093 28.3395C16.5833 28.3493 16.366 28.3123 16.1556 28.2295C15.6773 28.0775 15.198 27.9265 14.7188 27.7755" stroke="#FB3640" stroke-width="1.47368" stroke-linecap="round" stroke-linejoin="round"/>
    <path d="M26.2891 10.6109C26.7099 10.5973 27.1132 10.6733 27.4999 10.8379" stroke="#292929" stroke-width="1.47368" stroke-linecap="round" stroke-linejoin="round"/>
    <path d="M34.0099 36.0938C33.6056 36.0422 33.2276 36.1182 32.875 36.3208" stroke="#292929" stroke-width="1.47368" stroke-linecap="round" stroke-linejoin="round"/>
    <path d="M35.2891 21.1172C35.3904 21.4689 35.4907 21.8234 35.592 22.1751" stroke="#292929" stroke-width="1.47368" stroke-linecap="round" stroke-linejoin="round"/>
    <path d="M32.7933 48.2695H31.7344" stroke="#292929" stroke-width="1.47368" stroke-linecap="round" stroke-linejoin="round"/>
    <path d="M35.8245 45.3203H34.7656" stroke="#292929" stroke-width="1.47368" stroke-linecap="round" stroke-linejoin="round"/>
    <path d="M15.1714 13.8589C14.8519 13.7167 14.5158 13.8092 14.1875 13.7839" stroke="#FB3640" stroke-width="1.47368" stroke-linecap="round" stroke-linejoin="round"/>
</svg>
