<svg width="57" height="56" viewBox="0 0 57 56" fill="none" xmlns="http://www.w3.org/2000/svg">
    <mask id="mask0_2212_14511" style="mask-type:luminance" maskUnits="userSpaceOnUse" x="0" y="0" width="57" height="56">
        <path d="M0.335938 0H56.3359V56H0.335938V0Z" fill="white"/>
    </mask>
    <g mask="url(#mask0_2212_14511)">
        <path d="M17.498 15.4332L17.3075 15.5356C16.6186 15.8963 15.9051 16.2698 15.2927 16.8535C14.4403 17.6634 14.0119 18.7358 14.1519 19.7164L14.2702 20.5776L16.0052 20.3375L15.8846 19.4795C15.8115 18.9673 16.1569 18.4349 16.5035 18.1062C16.9405 17.6911 17.5163 17.3902 18.1265 17.0679L18.3202 16.9687C20.1445 16.0051 22.4132 14.6169 23.7995 12.4315C24.6432 11.1041 25.1921 9.03289 23.9641 7.56033C23.3356 6.81124 22.3745 6.37161 21.0206 6.22435L20.1499 6.12725L19.9594 7.85271L20.8268 7.94874C21.6943 8.04478 22.2981 8.28594 22.6166 8.66795C23.2086 9.37542 22.8932 10.6036 22.3196 11.5074C21.154 13.3471 19.1306 14.5721 17.498 15.4332ZM14.0184 13.6021L13.6934 13.8465C12.8259 14.5091 11.5882 15.5591 10.8929 17.0253C10.1622 18.5672 10.2138 20.3012 11.0264 21.5529L11.4967 22.2849L12.969 21.3458L12.4955 20.6138C12.0155 19.8733 12.0069 18.7539 12.4772 17.7658C12.884 16.9111 13.6083 16.1012 14.7589 15.2251L15.071 14.9904C15.8965 14.3736 16.8307 13.6779 17.3161 12.6001C18.1383 10.7882 17.329 8.83975 16.6488 7.53045L16.2452 6.76002L14.6921 7.55499L15.0925 8.32862C15.9115 9.89935 16.1085 11.0315 15.72 11.8894C15.4175 12.5574 14.7406 13.0664 14.0184 13.6021ZM12.5525 47.01C12.5525 46.5309 12.1586 46.1425 11.6765 46.1425C11.1932 46.1425 10.8025 46.5309 10.8025 47.01C10.8025 47.4891 11.1932 47.8797 11.6765 47.8797C12.1586 47.8797 12.5525 47.4891 12.5525 47.01ZM14.3004 47.01C14.3004 48.4463 13.1262 49.6137 11.6765 49.6137C10.2289 49.6137 9.05146 48.4463 9.05146 47.01C9.05146 45.5737 10.2289 44.4064 11.6765 44.4064C13.1262 44.4064 14.3004 45.5737 14.3004 47.01ZM7.30469 39.6312C7.30469 40.8295 8.28408 41.8016 9.49165 41.8016C10.696 41.8016 11.6765 40.8295 11.6765 39.6312C11.6765 38.4361 10.696 37.4608 9.49165 37.4608C8.28408 37.4608 7.30469 38.4361 7.30469 39.6312ZM9.49165 43.5388C7.31976 43.5388 5.55361 41.7867 5.55361 39.6312C5.55361 37.4789 7.31976 35.7268 9.49165 35.7268C11.6614 35.7268 13.4265 37.4789 13.4265 39.6312C13.4265 41.7867 11.6614 43.5388 9.49165 43.5388ZM14.097 25.151L14.0152 24.8736L11.8401 25.66L12.7355 28.1068L14.7406 27.3844L14.097 25.151ZM33.2964 20.7131L32.8713 19.551L32.4009 18.2663L15.6662 24.2835L15.8932 25.0753L16.3883 26.7911L33.2964 20.7131ZM43.988 16.8716L45.6357 16.2794L44.7403 13.8315L41.4491 15.0149L41.7493 15.8301L40.1048 16.4202L39.8045 15.605L34.0487 17.6762L34.5642 19.0911L34.9409 20.123L38.2321 18.9407L37.9351 18.1244L39.5796 17.5343L39.8766 18.3506L42.3434 17.4617L42.0464 16.6465L43.6909 16.0532L43.988 16.8716ZM44.5853 18.5032L42.9386 19.0933L40.4718 19.9821L38.8273 20.5722L35.5382 21.7545L16.8705 28.4654L13.3296 29.7384C13.1326 29.8109 12.9325 29.8408 12.7355 29.8408C12.0187 29.8408 11.345 29.4044 11.0877 28.7001L10.1955 26.2501C10.0352 25.8126 10.0556 25.3431 10.2558 24.9216C10.4538 24.5001 10.8025 24.1843 11.2427 24.0253L13.5362 23.2026L31.8068 16.6337L39.2094 13.9724L40.8539 13.3833L45.7907 11.6067L47.8743 17.3208L44.5853 18.5032ZM31.3936 38.1202C29.7555 38.1202 28.8945 39.4029 28.6426 40.1583L28.366 40.9832L30.0289 41.5274L30.3022 40.7026C30.3044 40.694 30.5928 39.8542 31.3936 39.8542C32.3407 39.8542 32.444 41.2692 32.444 41.8774C32.444 42.6809 31.6551 43.3702 31.1363 43.8248C30.99 43.9518 30.8662 44.0596 30.7726 44.1535C30.5412 44.3882 30.1989 44.5536 30.0375 44.575C29.9804 44.5109 29.9374 44.4448 29.9072 44.3754L29.5435 43.5837L27.9506 44.3061L28.3144 45.0957C28.4424 45.3721 28.6211 45.6282 28.8514 45.8565C29.1485 46.1553 29.5435 46.3143 29.9923 46.3143C30.7962 46.3143 31.5851 45.8085 32.0156 45.3753C32.0856 45.3059 32.1825 45.2216 32.2922 45.1288C32.9563 44.5472 34.1918 43.4663 34.1918 41.8774C34.1918 39.5587 33.1199 38.1202 31.3936 38.1202ZM41.0691 37.099C41.0272 36.3169 40.9303 35.5977 40.8022 34.9681C40.2566 32.2289 37.5616 27.044 31.2913 27.044C24.4495 27.044 20.378 29.0469 18.4687 33.3419C18.3353 33.6439 18.2169 33.9683 18.1114 34.3022C17.7595 35.4227 17.5679 36.717 17.5442 38.1715V38.2675L17.5625 38.3603C17.6863 38.9536 17.7627 40.0527 17.5259 40.5286C17.3828 40.8114 17.1557 41.2233 16.9092 41.6725C15.8448 43.605 15.5112 44.2826 15.5112 44.7638C15.5112 45.3817 15.9966 45.9056 16.9555 46.3239V46.691C16.9555 46.8051 16.977 47.3077 17.3591 47.868C17.244 48.5487 17.301 49.4301 17.9145 50.017V50.7971C17.9145 51.5952 18.2567 52.3571 18.854 52.8864C19.446 53.4135 20.2349 53.66 21.0238 53.5757L21.9548 53.4701L21.9612 53.4978L22.4315 53.4189L23.214 53.3324L23.369 53.2994C23.4056 53.2897 24.2913 53.0817 25.2987 54.4305C25.4774 54.6716 25.6323 54.9245 25.7626 55.2073L26.136 55.9937L27.7203 55.2553L27.5222 54.837L27.35 54.4699C27.1649 54.0815 26.9551 53.7294 26.7032 53.3954C26.4761 53.0881 26.2426 52.8352 26.0112 52.6186C27.4684 52.1341 28.2746 51.5227 28.7094 50.653L29.0968 49.8762L27.5287 49.1058L27.1402 49.8815C26.8916 50.3852 26.1393 51.0382 22.5316 51.6401L22.1861 51.6977L20.8301 51.8513C20.5319 51.8812 20.2446 51.7905 20.0229 51.592C19.7925 51.3904 19.6645 51.1076 19.6645 50.7971V49.0449L19.1855 48.8038C19.0036 48.7141 19.0607 48.1721 19.1393 47.9256L19.3093 47.4198L18.9305 47.0431C18.7206 46.8329 18.7034 46.676 18.7034 46.6878V46.5949H19.1855V44.8609H17.9833C17.7595 44.7766 17.5259 44.6678 17.3591 44.5771C17.5894 44.0532 18.1265 43.0779 18.4451 42.5059C18.7055 42.0311 18.9455 41.5968 19.094 41.299C19.4159 40.6545 19.4557 39.8115 19.4191 39.1404L21.8794 39.6312L22.2249 37.9303L19.3308 37.3519C19.4072 36.2806 19.5891 35.3288 19.8829 34.5199C19.9411 34.3535 20.0046 34.1945 20.0713 34.0408C21.6642 30.4522 25.2287 28.7812 31.2913 28.7812C36.4272 28.7812 38.6357 33.0474 39.0877 35.3053C39.1825 35.778 39.2578 36.3105 39.3008 36.8824C39.4494 38.8458 39.1878 41.3236 37.7413 43.8547C37.5648 44.1652 37.4077 44.4629 37.2613 44.7553L35.4812 44.2762L35.0259 45.9536L36.5725 46.3687C35.8084 48.6181 36.0419 50.6381 37.2011 53.7358C37.3528 54.1423 37.4895 54.5062 37.6111 54.837C37.6466 54.9362 37.68 55.0355 37.7134 55.1294L38.0083 55.9478L39.656 55.3641L39.3643 54.5457C39.2126 54.1327 39.0425 53.6664 38.8424 53.1308C37.4464 49.4035 37.5282 47.7506 39.2643 44.7105C40.8324 41.9617 41.1811 39.2759 41.0691 37.099ZM56.2939 24.0338C56.2939 24.2056 56.2842 24.3806 56.2692 24.5513C56.2638 24.609 56.2573 24.6666 56.2509 24.7231C56.2358 24.8352 56.2175 24.9494 56.2003 25.0603C56.1874 25.1233 56.1788 25.1894 56.1669 25.2535C56.1357 25.3922 56.1002 25.5245 56.0636 25.66C56.0335 25.7625 56.0001 25.8638 55.9635 25.9663C55.9506 26.0026 55.9388 26.042 55.9237 26.0783C55.4114 27.4655 54.3911 28.5977 53.0996 29.2454C53.0146 32.2108 51.5702 34.2489 49.2606 34.6789C49.2304 35.5465 48.9086 36.3382 48.3328 36.9369C47.4503 37.8609 46.0059 38.3305 44.0461 38.3305H43.1722V36.5933H44.0461C45.4872 36.5933 46.5301 36.2987 47.065 35.7417C47.4675 35.3202 47.5321 34.7931 47.5106 34.426C47.474 33.71 47.9992 33.0869 48.7031 33.0079C50.6231 32.7977 51.1569 30.9911 51.3033 29.7875C51.0816 29.8141 50.8599 29.8323 50.6328 29.8323H49.7589V28.0951H50.6328C50.96 28.0951 51.2753 28.0503 51.5821 27.9713L51.9039 27.8539C52.6831 27.5744 53.3385 27.0568 53.8002 26.3942C53.8088 26.3824 53.8153 26.3696 53.8239 26.3579C53.9057 26.2373 53.9821 26.1146 54.0521 25.9844C54.0704 25.9513 54.0822 25.9183 54.1005 25.8852C54.1554 25.771 54.2124 25.6568 54.2576 25.5394C54.319 25.3826 54.3707 25.2236 54.4126 25.0571C54.4245 25.0187 54.4342 24.976 54.4428 24.9376C54.4578 24.8736 54.4675 24.8138 54.4794 24.7509C54.4912 24.6815 54.5009 24.6122 54.5095 24.5428C54.5159 24.498 54.5224 24.4489 54.5246 24.4009C54.5375 24.2803 54.5429 24.1576 54.5429 24.0338C54.5429 23.8684 54.531 23.7062 54.5127 23.5462C54.5073 23.4949 54.4977 23.4469 54.4912 23.3989C54.474 23.2847 54.4524 23.1695 54.4245 23.0553C54.4126 23.0105 54.404 22.9625 54.3911 22.9166C54.3039 22.5954 54.1758 22.2913 54.0187 22.0074C54.0187 22.0074 54.0187 22.0074 54.0187 22.0053C53.9305 21.8484 53.8271 21.7012 53.7206 21.5561C53.6302 21.4355 53.5301 21.3213 53.4268 21.2135C53.4117 21.1986 53.3999 21.1826 53.3869 21.1676C53.1448 20.9212 52.8682 20.7045 52.5625 20.521L52.2676 20.346C51.7704 20.1048 51.2183 19.9693 50.6328 19.9693H49.7589V18.2332H50.6328C51.2968 18.2332 51.934 18.3559 52.5259 18.5725C52.8079 17.6815 52.9478 16.7574 52.9478 15.812C52.9478 10.8544 49.0485 6.81658 44.2516 6.81658C44.0762 6.81658 43.9029 6.82618 43.7297 6.83792C43.2443 6.8678 42.7503 6.94676 42.253 7.06734L41.8311 7.16871C41.3726 7.30743 40.9206 7.48563 40.4804 7.70545L39.7012 8.09386L38.9155 6.54341L39.698 6.15499C39.9498 6.02801 40.2049 5.91704 40.4621 5.81139C38.879 4.35164 36.8341 3.52999 34.6794 3.52999C33.7387 3.52999 32.4494 4.04432 31.5119 4.421L30.7478 4.72191L30.3442 4.37191C28.6179 2.88228 27.0681 1.88563 25.1071 1.88563C23.2473 1.88563 21.4672 2.49707 19.9594 3.64737L19.6225 3.9056L19.206 3.79996C18.5021 3.62283 17.8047 3.52999 17.1309 3.52999C16.8673 3.52999 16.6068 3.54707 16.3485 3.57161C16.2786 3.57801 16.2086 3.58655 16.1386 3.59295C15.8997 3.62283 15.6629 3.65911 15.4294 3.70713C15.4046 3.71033 15.3809 3.71566 15.3562 3.71886C15.1162 3.77008 14.8826 3.83624 14.6491 3.9088C14.5791 3.93014 14.5124 3.95149 14.4457 3.97496C14.225 4.05072 14.0033 4.13182 13.7913 4.22146C13.773 4.23106 13.7579 4.23746 13.7418 4.2428C13.5029 4.34844 13.2726 4.46582 13.0412 4.59173C13.0046 4.61307 12.9658 4.63441 12.9292 4.65575C12.4589 4.92679 12.0155 5.23304 11.6065 5.58518C11.6033 5.58838 11.6 5.58838 11.5968 5.59158C10.9629 6.13365 10.4075 6.76536 9.94368 7.47069C9.93184 7.48777 9.92 7.50591 9.91032 7.52405C9.78332 7.71399 9.66816 7.91566 9.55515 8.11734C8.84589 9.4213 8.43584 10.9237 8.43584 12.5244V13.3951H6.68476V12.5244C6.68476 11.3901 6.85804 10.2974 7.17984 9.27085C4.13079 10.7007 2.05576 13.8913 2.05576 17.4564C2.05576 19.0218 2.45613 20.569 3.2149 21.9327L3.51517 22.4684L3.10512 22.9294C2.42815 23.6913 2.05576 24.6666 2.05576 25.6782C2.05576 27.918 3.80899 29.7384 5.96582 29.7384H6.83974V30.6091C6.83974 31.943 7.88049 33.026 9.15478 33.026C9.56484 33.026 9.96198 32.9087 10.3322 32.6771L11.0759 32.2161L11.9154 33.55L12.0036 33.6855L11.2632 34.1497C10.6174 34.5498 9.88879 34.7632 9.15478 34.7632C7.1863 34.7632 5.53854 33.3248 5.16831 31.419C2.42277 31.021 0.304688 28.5977 0.304688 25.6782C0.304688 24.4436 0.696447 23.2516 1.41216 22.255C0.68676 20.7643 0.304688 19.1178 0.304688 17.4564C0.304688 12.5852 3.57544 8.28274 8.13556 7.06947C8.15386 7.0364 8.17754 7.00332 8.19583 6.97024C8.29054 6.81444 8.38418 6.66292 8.48104 6.51566C8.56607 6.38975 8.65109 6.26597 8.74257 6.14219C8.76087 6.11231 8.78132 6.08563 8.80284 6.05789C10.7175 3.44783 13.6783 1.84402 16.9275 1.79813C16.9975 1.79813 17.0642 1.796 17.1309 1.796H18.0081V1.84402C18.4149 1.88243 18.8207 1.93365 19.2307 2.02115C20.9754 0.796151 22.9987 0.148438 25.1071 0.148438C27.5535 0.148438 29.4337 1.34356 31.0879 2.71688C32.1771 2.28365 33.4847 1.796 34.6794 1.796C37.6165 1.796 40.3868 3.05088 42.365 5.25758C42.6803 5.19996 42.9957 5.15835 43.3175 5.12847C43.3175 5.12847 43.3175 5.12847 43.3207 5.12847C43.6274 5.10072 43.9395 5.08258 44.2516 5.08258H45.1256V5.12207C50.4778 5.57984 54.6978 10.1981 54.6978 15.812C54.6978 17.0583 54.4912 18.2748 54.079 19.4433C55.0896 20.2404 55.8301 21.3757 56.1336 22.6882C56.1357 22.7 56.1422 22.7149 56.1454 22.7309C56.1874 22.9144 56.2175 23.1012 56.2423 23.2901C56.2455 23.3231 56.2509 23.3541 56.2573 23.3872C56.2821 23.6006 56.2939 23.814 56.2939 24.0338Z" fill="#292929"/>
    </g>
    <circle cx="11.6719" cy="47" r="2.25" fill="white" stroke="#FB3640" stroke-width="1.5"/>
    <circle cx="9.29688" cy="39.625" r="3.375" fill="white" stroke="#FB3640" stroke-width="1.5"/>
</svg>
