<svg width="56" height="56" viewBox="0 0 56 56" fill="none" xmlns="http://www.w3.org/2000/svg">
    <path fill-rule="evenodd" clip-rule="evenodd" d="M22.9702 38.4499C22.5295 38.4499 22.1719 38.0933 22.1719 37.6526V17.2243C22.1719 15.2444 23.7856 13.6328 25.7677 13.6328C27.7508 13.6328 29.3624 15.2444 29.3624 17.2243V32.4144C29.3624 32.854 29.0058 33.2116 28.5651 33.2116C28.1233 33.2116 27.7678 32.854 27.7678 32.4144V17.2243C27.7678 16.1226 26.8705 15.2263 25.7677 15.2263C24.6649 15.2263 23.7696 16.1226 23.7696 17.2243V37.6526C23.7675 38.0933 23.412 38.4499 22.9702 38.4499Z" fill="#292929"/>
    <path fill-rule="evenodd" clip-rule="evenodd" d="M33.6317 36.7957C33.191 36.7957 32.8344 36.4391 32.8344 35.9994V24.9917C32.8344 23.8921 31.9371 22.9959 30.8364 22.9959C30.1945 22.9959 29.5878 23.3067 29.212 23.8315C28.9544 24.1881 28.4563 24.2711 28.0986 24.0146C27.7409 23.7591 27.6579 23.2609 27.9155 22.9022C28.5904 21.9623 29.6815 21.4023 30.8343 21.4023C32.8174 21.4023 34.429 23.0118 34.429 24.9917V35.9994C34.429 36.4391 34.0703 36.7957 33.6317 36.7957Z" fill="#292929"/>
    <path fill-rule="evenodd" clip-rule="evenodd" d="M38.7044 36.7957C38.2616 36.7957 37.9071 36.4391 37.9071 35.9995V26.8248C37.9071 25.7242 37.0098 24.8279 35.907 24.8279C35.2672 24.8279 34.6584 25.1387 34.2805 25.6614C34.0229 26.018 33.5247 26.0967 33.167 25.8423C32.8094 25.5826 32.7285 25.0844 32.9882 24.7278C33.6631 23.7943 34.7542 23.2344 35.9049 23.2344C37.888 23.2344 39.5017 24.846 39.5017 26.8248V35.9995C39.5017 36.4391 39.1419 36.7957 38.7044 36.7957Z" fill="#292929"/>
    <path fill-rule="evenodd" clip-rule="evenodd" d="M43.771 38.4475C43.3303 38.4475 42.9726 38.0909 42.9726 37.6502V29.4431C42.9726 28.3414 42.0774 27.4451 40.9746 27.4451C40.337 27.4451 39.7292 27.7602 39.3513 28.2839C39.0937 28.6405 38.5944 28.7235 38.2378 28.4638C37.8802 28.2072 37.7993 27.7091 38.0569 27.3525C38.7339 26.4147 39.8239 25.8516 40.9746 25.8516C42.9588 25.8516 44.5682 27.4642 44.5682 29.4431V37.6502C44.5682 38.0909 44.2127 38.4475 43.771 38.4475Z" fill="#292929"/>
    <path fill-rule="evenodd" clip-rule="evenodd" d="M20.226 43.5437C19.9599 43.5437 19.7033 43.4106 19.5511 43.17L15.1644 36.2318C14.1202 34.583 14.5939 32.3997 16.2119 31.3278C16.8495 30.7306 17.7543 30.4794 18.708 30.6348C19.8236 30.8169 20.8093 31.5205 21.2809 32.4689L23.6887 37.2963C23.8835 37.688 23.7238 38.1681 23.3289 38.365C22.9351 38.5598 22.455 38.4001 22.2591 38.0063L19.8545 33.1778C19.6097 32.6882 19.0593 32.3071 18.4504 32.2092C18.1726 32.1613 17.6489 32.1432 17.2753 32.5168C17.254 32.537 17.2316 32.5562 17.2082 32.5743C17.1859 32.5935 17.1603 32.6094 17.1358 32.6265C16.2033 33.2151 15.9223 34.4499 16.5131 35.3813L20.8987 42.3195C21.134 42.6921 21.0222 43.1839 20.6496 43.4191C20.5187 43.5022 20.3718 43.5437 20.226 43.5437Z" fill="#292929"/>
    <path fill-rule="evenodd" clip-rule="evenodd" d="M24.7159 50.4921C24.3955 50.4921 24.0943 50.2983 23.9719 49.9832C23.2384 48.0981 21.5193 45.8158 20.3803 44.3032C20.061 43.8753 19.781 43.5059 19.5692 43.2036C19.3137 42.847 19.3989 42.3489 19.7597 42.0934C20.1195 41.8422 20.6177 41.9273 20.8732 42.2861C21.0701 42.5681 21.3405 42.9301 21.6556 43.3463C22.8456 44.9259 24.6467 47.3157 25.4589 49.4063C25.6165 49.8172 25.4132 50.2781 25.0044 50.4378C24.9086 50.475 24.8107 50.4921 24.7159 50.4921Z" fill="#292929"/>
    <path fill-rule="evenodd" clip-rule="evenodd" d="M41.4702 50.4914C41.2541 50.4914 41.038 50.4041 40.8804 50.2317C40.5834 49.906 40.6058 49.4025 40.9337 49.1055C43.6034 46.6764 43.3532 43.1902 43.0903 39.5018C43.0488 38.9068 43.0051 38.2926 42.9732 37.688C42.953 37.2505 43.2915 36.8768 43.7322 36.8566C44.1654 36.8332 44.5454 37.1717 44.5667 37.6113C44.5954 38.1947 44.6391 38.8025 44.6806 39.3879C44.9595 43.2945 45.248 47.3331 42.0077 50.2839C41.8544 50.4222 41.6607 50.4914 41.4702 50.4914Z" fill="#292929"/>
    <mask id="mask0_2212_14523" style="mask-type:luminance" maskUnits="userSpaceOnUse" x="19" y="48" width="28" height="9">
        <path d="M19.8125 48.8047H46.2455V56.0037H19.8125V48.8047Z" fill="white"/>
    </mask>
    <g mask="url(#mask0_2212_14523)">
        <path fill-rule="evenodd" clip-rule="evenodd" d="M44.3221 55.9921H21.783C20.8133 55.9921 20.0234 55.2033 20.0234 54.2346V50.6559C20.0234 49.6872 20.8133 48.8984 21.783 48.8984H44.3221C45.2897 48.8984 46.0796 49.6872 46.0796 50.6559V54.2346C46.0796 55.2033 45.2897 55.9921 44.3221 55.9921ZM21.783 50.492C21.6957 50.492 21.6191 50.5665 21.6191 50.6559V54.2346C21.6191 54.324 21.6957 54.3986 21.783 54.3986H44.3221C44.4116 54.3986 44.4839 54.324 44.4839 54.2346V50.6559C44.4839 50.5665 44.4116 50.492 44.3221 50.492H21.783Z" fill="#292929"/>
    </g>
    <mask id="mask1_2212_14523" style="mask-type:luminance" maskUnits="userSpaceOnUse" x="16" y="0" width="19" height="18">
        <path d="M16.8125 0H34.7978V17.4627H16.8125V0Z" fill="white"/>
    </mask>
    <g mask="url(#mask1_2212_14523)">
        <path fill-rule="evenodd" clip-rule="evenodd" d="M23.0919 17.2125C23.0046 17.2125 22.9131 17.1976 22.8258 17.1667C19.3013 15.9234 16.9297 12.5778 16.9297 8.83938C16.9297 3.97155 20.8959 0.0117188 25.7691 0.0117188C30.6411 0.0117188 34.6063 3.97155 34.6063 8.83938C34.6063 12.5778 32.2389 15.9234 28.7123 17.1667C28.2961 17.3136 27.8416 17.0965 27.6947 16.6813C27.5467 16.2662 27.7649 15.8095 28.1801 15.6648C31.0712 14.6439 33.0117 11.9029 33.0117 8.83938C33.0117 4.85187 29.763 1.60417 25.7691 1.60417C21.7752 1.60417 18.5243 4.85187 18.5243 8.83938C18.5243 11.9029 20.4669 14.6461 23.358 15.6648C23.771 15.8095 23.9893 16.2662 23.8434 16.6813C23.7274 17.0071 23.4198 17.2125 23.0919 17.2125Z" fill="#292929"/>
    </g>
    <path fill-rule="evenodd" clip-rule="evenodd" d="M24.0646 11.1204C23.8528 11.1204 23.6495 11.0352 23.5015 10.8873L21.562 8.94995C21.2502 8.63912 21.2502 8.13456 21.562 7.82374C21.8729 7.51397 22.3785 7.51397 22.6893 7.82374L24.0646 9.1969L28.8462 4.42062C29.157 4.10979 29.6616 4.10979 29.9735 4.42062C30.2854 4.73251 30.2854 5.236 29.9735 5.54789L24.6277 10.8873C24.4798 11.0352 24.2764 11.1204 24.0646 11.1204Z" fill="#FB3640"/>
    <mask id="mask2_2212_14523" style="mask-type:luminance" maskUnits="userSpaceOnUse" x="4" y="14" width="16" height="16">
        <path d="M4.42188 14H19.4671V29.2603H4.42188V14Z" fill="white"/>
    </mask>
    <g mask="url(#mask2_2212_14523)">
        <path fill-rule="evenodd" clip-rule="evenodd" d="M11.8955 29.0052C7.77496 29.0052 4.42188 25.6564 4.42188 21.5411C4.42188 17.4248 7.77496 14.0781 11.8955 14.0781C16.0161 14.0781 19.3681 17.4248 19.3681 21.5411C19.3681 25.6564 16.0161 29.0052 11.8955 29.0052ZM11.8955 15.6695C8.65528 15.6695 6.01752 18.3041 6.01752 21.5411C6.01752 24.7771 8.65528 27.4117 11.8955 27.4117C15.1358 27.4117 17.7735 24.7771 17.7735 21.5411C17.7735 18.3041 15.1358 15.6695 11.8955 15.6695Z" fill="#292929"/>
    </g>
    <mask id="mask3_2212_14523" style="mask-type:luminance" maskUnits="userSpaceOnUse" x="36" y="6" width="16" height="16">
        <path d="M36.8438 6.63281H51.9784V21.8931H36.8438V6.63281Z" fill="white"/>
    </mask>
    <g mask="url(#mask3_2212_14523)">
        <path fill-rule="evenodd" clip-rule="evenodd" d="M44.5038 21.638C40.3833 21.638 37.0312 18.2892 37.0312 14.174C37.0312 10.0576 40.3833 6.71094 44.5038 6.71094C48.6244 6.71094 51.9764 10.0576 51.9764 14.174C51.9764 18.2892 48.6244 21.638 44.5038 21.638ZM44.5038 8.30232C41.2636 8.30232 38.6258 10.9369 38.6258 14.174C38.6258 17.4099 41.2636 20.0445 44.5038 20.0445C47.7441 20.0445 50.3819 17.4099 50.3819 14.174C50.3819 10.9369 47.7441 8.30232 44.5038 8.30232Z" fill="#292929"/>
    </g>
</svg>
