<svg width="56" height="56" viewBox="0 0 56 56" fill="none" xmlns="http://www.w3.org/2000/svg">
    <mask id="mask0_2212_14475" style="mask-type:luminance" maskUnits="userSpaceOnUse" x="0" y="0" width="56" height="56">
        <path d="M0 0H56V56H0V0Z" fill="white"/>
    </mask>
    <g mask="url(#mask0_2212_14475)">
        <path d="M28 56C20.5211 56 13.4892 53.0877 8.20118 47.7988C2.91235 42.5108 0 35.4789 0 28C0 20.5211 2.91235 13.49 8.20118 8.20118C13.4892 2.91235 20.5211 0 28 0C35.4789 0 42.51 2.91235 47.7988 8.20118C53.0877 13.49 56 20.5211 56 28C56 35.4789 53.0877 42.5108 47.7988 47.7997C42.51 53.0877 35.4789 56 28 56ZM28 1.75C13.5254 1.75 1.75 13.5263 1.75 28C1.75 42.4746 13.5254 54.25 28 54.25C42.4746 54.25 54.25 42.4746 54.25 28C54.25 13.5263 42.4746 1.75 28 1.75Z" fill="#292929"/>
    </g>
    <path d="M16.5803 44.0013C16.356 44.0013 16.1316 43.9159 15.9608 43.7451L12.2485 40.0328C11.9068 39.6911 11.9068 39.1371 12.2485 38.7953C12.5902 38.4536 13.1442 38.4536 13.4859 38.7953L17.1982 42.5068C17.5408 42.8485 17.5408 43.4025 17.1982 43.7451C17.0282 43.9159 16.8038 44.0013 16.5803 44.0013Z" fill="#292929"/>
    <path d="M13.2279 46.4786H12.5031C11.7049 46.4786 10.955 46.1679 10.3906 45.6036C9.82628 45.0392 9.51562 44.2885 9.51562 43.4912V42.7663C9.51562 41.9681 9.82628 41.2174 10.3906 40.6539L40.7844 10.2593C41.7655 9.27815 43.3619 9.27815 44.3422 10.2593L45.7349 11.6512C46.7152 12.6323 46.7152 14.2279 45.7349 15.209L15.3395 45.6036C14.776 46.1679 14.0252 46.4786 13.2279 46.4786ZM42.5637 11.2724C42.3678 11.2724 42.1711 11.3474 42.0218 11.4967L11.6281 41.8913C11.3942 42.1243 11.2656 42.4358 11.2656 42.7663V43.4912C11.2656 43.8217 11.3942 44.1323 11.6281 44.3662C11.861 44.6 12.1726 44.7286 12.5031 44.7286H13.2279C13.5575 44.7286 13.8691 44.5992 14.1029 44.3662L44.4966 13.9716C44.7952 13.673 44.7952 13.1872 44.4966 12.8886L43.1048 11.4967C42.9555 11.3474 42.7596 11.2724 42.5637 11.2724Z" fill="#292929"/>
    <path d="M40.7123 19.8724C40.4879 19.8724 40.2644 19.787 40.0936 19.6161L36.3813 15.9039C36.0396 15.5622 36.0396 15.0082 36.3813 14.6664C36.723 14.3247 37.277 14.3247 37.6187 14.6664L41.331 18.3787C41.6727 18.7204 41.6727 19.2744 41.331 19.6161C41.1601 19.787 40.9358 19.8724 40.7123 19.8724Z" fill="#292929"/>
    <path d="M38.2357 22.3444C38.0114 22.3444 37.7879 22.259 37.617 22.0882L33.9047 18.3759C33.563 18.0342 33.563 17.4802 33.9047 17.1385C34.2464 16.7976 34.8004 16.7976 35.1422 17.1385L38.8544 20.8516C39.1961 21.1924 39.1961 21.7464 38.8544 22.0882C38.6836 22.259 38.4592 22.3444 38.2357 22.3444Z" fill="#292929"/>
    <path d="M47.1805 48.0555C46.9562 48.0555 46.7327 47.9701 46.5618 47.7992L8.2016 9.43903C7.85988 9.09731 7.85988 8.54332 8.2016 8.2016C8.54332 7.85988 9.09731 7.85988 9.43903 8.2016L47.7992 46.5618C48.1409 46.9035 48.1409 47.4575 47.7992 47.7992C47.6284 47.9701 47.4049 48.0555 47.1805 48.0555Z" fill="#292929"/>
    <path d="M12.4299 35.875C12.1322 35.875 11.8422 35.724 11.6783 35.4504L10.4762 33.4467C9.99298 32.6408 9.91359 31.6786 10.2588 30.8045C10.6031 29.9312 11.3193 29.2823 12.2219 29.0243C12.6577 28.9 12.9726 28.5773 13.0857 28.1389C13.1996 27.7006 13.0814 27.2648 12.7612 26.9446L11.8094 25.9937C11.4686 25.652 11.4677 25.098 11.8094 24.7563C12.152 24.4146 12.706 24.4146 13.0477 24.7563L13.9986 25.7072C14.7572 26.4657 15.0488 27.5392 14.7796 28.5773C14.5112 29.6162 13.7346 30.4119 12.7025 30.707C12.3272 30.814 12.0295 31.0841 11.8862 31.4474C11.743 31.8107 11.7758 32.211 11.9768 32.5459L13.1789 34.5504C13.4274 34.9646 13.2928 35.5022 12.8786 35.7507C12.7379 35.8353 12.5826 35.875 12.4299 35.875Z" fill="#FB3640"/>
    <path d="M8.05486 33.25C7.75715 33.25 7.46721 33.099 7.30326 32.8254L6.10121 30.8217C5.61798 30.0158 5.53859 29.0536 5.88376 28.1795C6.22806 27.3062 6.94428 26.6573 7.8469 26.3993C8.28267 26.275 8.59764 25.9523 8.71068 25.5139C8.82458 25.0756 8.70636 24.6398 8.38536 24.3196L7.43442 23.3687C7.09271 23.027 7.09271 22.473 7.43442 22.1313C7.77614 21.7896 8.33013 21.7896 8.67185 22.1313L9.62278 23.0822C10.3822 23.8416 10.6738 24.9142 10.4046 25.9523C10.1362 26.9912 9.35959 27.7869 8.32754 28.082C7.95217 28.189 7.65447 28.4591 7.51122 28.8224C7.36711 29.1857 7.40077 29.586 7.60183 29.9209L8.80387 31.9254C9.05239 32.3396 8.91778 32.8772 8.50358 33.1257C8.36292 33.2103 8.2076 33.25 8.05486 33.25Z" fill="#FB3640"/>
</svg>
