<svg width="57" height="56" viewBox="0 0 57 56" fill="none" xmlns="http://www.w3.org/2000/svg">
    <mask id="mask0_2212_14453" style="mask-type:luminance" maskUnits="userSpaceOnUse" x="6" y="0" width="44" height="56">
        <path d="M6.96875 0H49.7154V56H6.96875V0Z" fill="white"/>
    </mask>
    <g mask="url(#mask0_2212_14453)">
        <path d="M45.2133 0H11.4857C9.0299 0 7.03125 1.99792 7.03125 4.45448V51.5455C7.03125 54.0028 9.0299 56 11.4857 56H45.2133C47.6699 56 49.6678 54.0028 49.6678 51.5455V4.45448C49.6678 1.99937 47.6699 0 45.2133 0ZM48.3954 51.5462C48.3954 53.3014 46.9684 54.7283 45.2133 54.7283H11.4857C9.73062 54.7283 8.30438 53.3014 8.30438 51.5462V4.45594C8.30438 2.70156 9.73062 1.27385 11.4857 1.27385H45.2133C46.9684 1.27385 48.3954 2.70156 48.3954 4.45594V51.5462Z" fill="#292929"/>
    </g>
    <path d="M42.9211 27.3633H21.7928C21.4414 27.3633 21.1562 27.6484 21.1562 27.9998C21.1562 28.3506 21.4414 28.6357 21.7928 28.6357H42.9211C43.2733 28.6357 43.5577 28.3506 43.5577 27.9998C43.5577 27.6484 43.2733 27.3633 42.9211 27.3633Z" fill="#292929"/>
    <path d="M42.9211 18.8164H21.7928C21.4414 18.8164 21.1562 19.1015 21.1562 19.4522C21.1562 19.8037 21.4414 20.0888 21.7928 20.0888H42.9211C43.2733 20.0888 43.5577 19.8037 43.5577 19.4522C43.5577 19.1015 43.2733 18.8164 42.9211 18.8164Z" fill="#292929"/>
    <path d="M42.9211 35.9141H21.7928C21.4414 35.9141 21.1562 36.2006 21.1562 36.5506C21.1562 36.9014 21.4414 37.1865 21.7928 37.1865H42.9211C43.2733 37.1865 43.5577 36.9014 43.5577 36.5506C43.5577 36.1992 43.2733 35.9141 42.9211 35.9141Z" fill="#292929"/>
    <path d="M42.9211 10.2656H21.7928C21.4414 10.2656 21.1562 10.5507 21.1562 10.9015C21.1562 11.2529 21.4414 11.538 21.7928 11.538H42.9211C43.2733 11.538 43.5577 11.2529 43.5577 10.9015C43.5577 10.5507 43.2733 10.2656 42.9211 10.2656Z" fill="#292929"/>
    <path d="M42.9211 44.4609H21.7928C21.4414 44.4609 21.1562 44.7475 21.1562 45.0975C21.1562 45.449 21.4414 45.7341 21.7928 45.7341H42.9211C43.2733 45.7341 43.5577 45.449 43.5577 45.0975C43.5577 44.746 43.2733 44.4609 42.9211 44.4609Z" fill="#292929"/>
    <path d="M15.271 14.2836C17.137 14.2836 18.6551 12.7662 18.6551 10.9002C18.6551 10.3351 18.5027 9.8094 18.257 9.33982C19.2625 8.34451 20.3584 7.44253 21.5521 6.65576C21.8445 6.46253 21.9261 6.06805 21.7329 5.7742C21.539 5.47961 21.1445 5.40086 20.8521 5.59336C19.6278 6.40128 18.5042 7.32951 17.4651 8.34451C16.8738 7.83701 16.1125 7.51763 15.2725 7.51763C14.4741 7.51763 13.75 7.80784 13.1696 8.27086C12.9435 8.05867 12.5943 8.03024 12.3442 8.23003C12.07 8.45024 12.027 8.84982 12.2472 9.12472L12.3427 9.24357C12.0627 9.73576 11.8906 10.2958 11.8906 10.9017C11.8884 12.7662 13.4066 14.2836 15.271 14.2836ZM17.3842 10.9002C17.3842 12.0647 16.437 13.0104 15.2725 13.0104C14.1088 13.0104 13.1623 12.064 13.1623 10.9002C13.1623 10.7136 13.1936 10.5342 13.241 10.3621L14.7774 12.274C14.8984 12.4249 15.08 12.5117 15.274 12.5117C15.2798 12.5117 15.2878 12.5117 15.2936 12.5117C15.4942 12.5051 15.6794 12.406 15.7939 12.2434C16.2613 11.5798 16.7739 10.9593 17.3061 10.3585C17.3492 10.5313 17.3842 10.7107 17.3842 10.9002ZM16.5733 9.25086C16.111 9.75763 15.6655 10.2819 15.2484 10.8302L13.9753 9.24576C14.3341 8.96357 14.781 8.7893 15.2725 8.7893C15.7647 8.79003 16.2139 8.96722 16.5733 9.25086Z" fill="#FB3640"/>
    <path d="M15.2654 24.6172C13.3995 24.6172 11.8828 26.136 11.8828 28.0013C11.8828 29.8686 13.3995 31.386 15.2654 31.386C17.1314 31.386 18.6495 29.8686 18.6495 28.0013C18.6495 26.136 17.1314 24.6172 15.2654 24.6172ZM15.2654 30.1115C14.1024 30.1115 13.1552 29.165 13.1552 28.0005C13.1552 26.836 14.1024 25.8889 15.2654 25.8889C16.4299 25.8889 17.3771 26.836 17.3771 28.0005C17.3771 29.165 16.4299 30.1115 15.2654 30.1115Z" fill="#292929"/>
    <path d="M15.2654 33.168C13.3995 33.168 11.8828 34.6854 11.8828 36.5513C11.8828 38.418 13.3995 39.9354 15.2654 39.9354C17.1314 39.9354 18.6495 38.418 18.6495 36.5513C18.6495 34.6854 17.1314 33.168 15.2654 33.168ZM15.2654 38.6615C14.1024 38.6615 13.1552 37.7143 13.1552 36.5513C13.1552 35.3854 14.1024 34.4382 15.2654 34.4382C16.4299 34.4382 17.3771 35.3854 17.3771 36.5513C17.3771 37.7143 16.4299 38.6615 15.2654 38.6615Z" fill="#292929"/>
    <path d="M15.2654 41.7109C13.3995 41.7109 11.8828 43.2291 11.8828 45.0935C11.8828 46.9609 13.4009 48.4791 15.2654 48.4791C17.1299 48.4791 18.6495 46.9609 18.6495 45.0935C18.6495 43.2305 17.1314 41.7109 15.2654 41.7109ZM15.2654 47.2074C14.1024 47.2074 13.1552 46.2609 13.1552 45.095C13.1552 43.932 14.1024 42.9848 15.2654 42.9848C16.4299 42.9848 17.3771 43.932 17.3771 45.095C17.3771 46.2609 16.4299 47.2074 15.2654 47.2074Z" fill="#292929"/>
    <path d="M21.5521 15.2062C21.8445 15.013 21.9261 14.6185 21.7329 14.3261C21.539 14.0308 21.1445 13.9506 20.8521 14.1453C19.6278 14.9547 18.5042 15.8807 17.4651 16.8964C16.8737 16.3875 16.1125 16.0681 15.2725 16.0681C14.4741 16.0681 13.7493 16.3583 13.1696 16.8228C12.9421 16.6106 12.5943 16.5822 12.3442 16.782C12.07 17.0022 12.027 17.4018 12.2472 17.6766L12.3427 17.7955C12.0627 18.2877 11.8906 18.8477 11.8906 19.4522C11.8906 21.3181 13.408 22.8362 15.274 22.8362C17.1392 22.8362 18.658 21.3181 18.658 19.4522C18.658 18.8871 18.5049 18.3613 18.2592 17.8932C19.2625 16.8964 20.3584 15.9945 21.5521 15.2062ZM16.5755 17.8013C16.1125 18.3081 15.667 18.8324 15.2492 19.3822L13.9768 17.7977C14.3355 17.5155 14.7825 17.3398 15.274 17.3398C15.7647 17.3398 16.2139 17.5162 16.5755 17.8013ZM17.3842 19.4507C17.3842 20.6159 16.437 21.5624 15.2725 21.5624C14.1087 21.5624 13.1623 20.6159 13.1623 19.4507C13.1623 19.264 13.1936 19.0861 13.241 18.9126L14.7774 20.8245C14.8984 20.9761 15.08 21.0622 15.274 21.0622C15.2798 21.0622 15.2878 21.0622 15.2936 21.0622C15.4942 21.0563 15.6794 20.9564 15.7939 20.7938C16.2613 20.131 16.7739 19.5098 17.3061 18.9075C17.3492 19.0818 17.3842 19.2626 17.3842 19.4507Z" fill="#FB3640"/>
</svg>
