<svg width="48" height="48" viewBox="0 0 48 48" fill="none" xmlns="http://www.w3.org/2000/svg">
    <rect width="48" height="48" rx="24" fill="#066D95" fill-opacity="0.1"/>
    <path d="M12.2085 26.9773V13.2845C12.2085 12.574 12.4908 11.8926 12.9932 11.3901C13.4956 10.8877 14.1771 10.6055 14.8876 10.6055H33.1053C33.8158 10.6055 34.4972 10.8877 34.9997 11.3901C35.5021 11.8926 35.7843 12.574 35.7843 13.2845V26.9773M12.2085 26.9773H35.7843M12.2085 26.9773L10.226 33.9884C10.1134 34.3867 10.0947 34.8058 10.1712 35.2126C10.2478 35.6194 10.4176 36.003 10.6673 36.3331C10.917 36.6633 11.2398 36.9311 11.6104 37.1155C11.981 37.3 12.3893 37.396 12.8033 37.3962H35.1896C35.6035 37.396 36.0118 37.3 36.3824 37.1155C36.753 36.9311 37.0759 36.6633 37.3256 36.3331C37.5753 36.003 37.7451 35.6194 37.8216 35.2126C37.8982 34.8058 37.8794 34.3867 37.7668 33.9884L35.7843 26.9773" stroke="#066D95" stroke-width="1.67442"/>
    <path d="M22.6641 33.375H25.3431" stroke="#066D95" stroke-width="1.67442" stroke-linecap="round" stroke-linejoin="round"/>
</svg>
