<svg width="48" height="48" viewBox="0 0 48 48" fill="none" xmlns="http://www.w3.org/2000/svg">
    <rect width="48" height="48" rx="24" fill="#066D95" fill-opacity="0.1"/>
    <path fill-rule="evenodd" clip-rule="evenodd"
          d="M35.4784 10.6016H12.5149C11.7029 10.6016 10.9241 10.9241 10.3499 11.4983C9.77571 12.0725 9.45312 12.8513 9.45312 13.6634V28.9723C9.45312 29.7844 9.77571 30.5631 10.3499 31.1373C10.9241 31.7115 11.7029 32.0341 12.5149 32.0341H35.4784C36.2904 32.0341 37.0692 31.7115 37.6434 31.1373C38.2176 30.5631 38.5402 29.7844 38.5402 28.9723V13.6634C38.5402 12.8513 38.2176 12.0725 37.6434 11.4983C37.0692 10.9241 36.2904 10.6016 35.4784 10.6016ZM10.984 13.6634C10.984 13.2573 11.1453 12.8679 11.4324 12.5808C11.7195 12.2937 12.1089 12.1325 12.5149 12.1325H35.4784C35.8844 12.1325 36.2738 12.2937 36.5609 12.5808C36.848 12.8679 37.0093 13.2573 37.0093 13.6634V28.9723C37.0093 29.3783 36.848 29.7677 36.5609 30.0548C36.2738 30.3419 35.8844 30.5032 35.4784 30.5032H12.5149C12.1089 30.5032 11.7195 30.3419 11.4324 30.0548C11.1453 29.7677 10.984 29.3783 10.984 28.9723V13.6634Z"
          fill="#066D95"/>
    <path
            d="M23.9841 29.7378C23.6796 29.7378 23.3876 29.6168 23.1722 29.4015C22.9569 29.1861 22.8359 28.8941 22.8359 28.5896C22.8359 28.2851 22.9569 27.993 23.1722 27.7777C23.3876 27.5624 23.6796 27.4414 23.9841 27.4414C24.2886 27.4414 24.5807 27.5624 24.796 27.7777C25.0113 27.993 25.1323 28.2851 25.1323 28.5896C25.1323 28.8941 25.0113 29.1861 24.796 29.4015C24.5807 29.6168 24.2886 29.7378 23.9841 29.7378Z"
            fill="#066D95"/>
    <path fill-rule="evenodd" clip-rule="evenodd"
          d="M26.2877 30.5117H21.695C21.2889 30.5117 20.8996 30.673 20.6125 30.9601C20.3254 31.2472 20.1641 31.6366 20.1641 32.0426V35.8699C20.1641 36.2759 20.3254 36.6653 20.6125 36.9524C20.8996 37.2395 21.2889 37.4008 21.695 37.4008H26.2877C26.6937 37.4008 27.0831 37.2395 27.3702 36.9524C27.6573 36.6653 27.8185 36.2759 27.8185 35.8699V32.0426C27.8185 31.6366 27.6573 31.2472 27.3702 30.9601C27.0831 30.673 26.6937 30.5117 26.2877 30.5117ZM21.695 35.8699V32.0426H26.2877V35.8699H21.695Z"
          fill="#066D95"/>
    <path
            d="M17.1092 37.3864C16.9062 37.3864 16.7115 37.3057 16.5679 37.1622C16.4244 37.0186 16.3438 36.8239 16.3438 36.6209C16.3438 36.4179 16.4244 36.2232 16.5679 36.0797C16.7115 35.9361 16.9062 35.8555 17.1092 35.8555H30.8873C31.0903 35.8555 31.285 35.9361 31.4285 36.0797C31.5721 36.2232 31.6527 36.4179 31.6527 36.6209C31.6527 36.8239 31.5721 37.0186 31.4285 37.1622C31.285 37.3057 31.0903 37.3864 30.8873 37.3864H17.1092Z"
            fill="#066D95"/>
    <path fill-rule="evenodd" clip-rule="evenodd" d="M37.7827 26.6754H10.2266V25.1445H37.7827V26.6754Z" fill="#066D95"/>
</svg>
